M48
;Layer_Color=9474304
;FILE_FORMAT=2:5
INCH,LZ
;TYPE=PLATED
T1F00S00C0.02500
T2F00S00C0.02756
T3F00S00C0.02800
T4F00S00C0.03000
T5F00S00C0.03150
T6F00S00C0.03346
T7F00S00C0.03543
T8F00S00C0.04724
T9F00S00C0.10000
%
T01
X0495Y0395
Y0405
Y0415
Y0425
X0525
Y0415
Y0405
Y0395
T02
X05Y019
Y022
X045Y0395
Y0425
X049Y0375
X05
X051
T03
X027Y007
X028Y008
X029Y006
X026Y009
T04
X0382Y006
X0523
X0608
T05
X046Y0220158
X046Y0239843
X046Y0355
Y036
Y0365
X0565Y0390158
X0565Y0409842
T06
X0475Y025
Y028
Y03
X0525
X0545Y0185
X0575
X0455
X0425
X054Y034
Y037
Y043
Y044
X051
X057Y043
T07
X023Y006
Y007
Y008
Y009
Y01
Y011
X022
X024
X025
X026
X027
X028
X029
X0305
Y014
X029
X028
X027
X026
X025
X024
X023
X022
X0315
X0325
X0335
X0345
X0355
X0365
X0375
X039
X04
X041
X042
X043
X044
X045
X046
X0455Y0155
X0435
X0415
X0395
X0375
X0355
X0335
X0315
Y011
X0325
X0335
X0345
X0355
X0365
X0375
X039
X04
X041
X042
X043
X044
X045
X046
X0475Y0155
X0495
X0515
X0535
X054Y014
X055
X056
X057
X058
X059
X06
X0615
Y0155
X0595
X0575
X0555
X053Y014
Y011
X054
X055
X056
X057
X058
X059
X06
X0615
X0625
X0635
X0645
X0655
X0665
X0675
X0685
Y014
X0675
X0665
X0655
X0645
X0635
X0625
X0635Y0155
X0655
X0675
X0695
X079Y01
Y009
Y008
Y007
Y006
X0695Y016
Y0165
X0675
Y016
X0655
Y0165
X0635
Y016
X0615
Y0165
X0595
Y016
X0575
Y0165
X0555
Y016
X0535
Y0165
X0515
Y016
X0495
Y0165
X0475
Y016
X0455
Y0165
X0435
Y016
X0415
Y0165
X0395
Y016
X0375
Y0165
X0355
Y016
X0335
Y0165
X0315
Y016
X023Y043
Y044
X054Y04
Y0395
Y039
X079Y043
Y044
T08
X054Y0209409
Y025059
T09
X065Y02075
Y023125
X06732Y02355
X06942Y02478
X07095Y02655
X07177Y02883
Y03117
X05823
Y02883
X05905Y02655
X06058Y02473
X03942Y02478
X04095Y02655
X04177Y02883
Y03117
X03732Y02355
X035Y023125
Y02075
X03058Y02473
X02905Y02655
X02823Y02883
Y03117
X02905Y03345
X03058Y03527
X03265Y03645
X035Y036875
Y03925
X03732Y03645
X03942Y03525
X04095Y03345
X05905
X06058Y03527
X06265Y03645
X065Y036875
Y03925
X06732Y03645
X06942Y03525
X07095Y03345
M30
