G04 Layer_Physical_Order=2*
G04 Layer_Color=16711680*
%FSLAX25Y25*%
%MOIN*%
G70*
G01*
G75*
%ADD10C,0.00800*%
%ADD12C,0.01000*%
%ADD13C,0.03000*%
%ADD14C,0.15000*%
%ADD15C,0.20000*%
%ADD16C,0.06000*%
%ADD17C,0.05905*%
%ADD18R,0.05905X0.05905*%
%ADD19C,0.05512*%
%ADD20C,0.05315*%
%ADD21R,0.05315X0.05315*%
%ADD22R,0.04724X0.04724*%
%ADD23C,0.04724*%
%ADD24R,0.04724X0.04724*%
%ADD25O,0.07874X0.03937*%
%ADD26O,0.07874X0.03937*%
%ADD27O,0.10000X0.05000*%
%ADD28R,0.10000X0.05000*%
%ADD29C,0.07874*%
%ADD30R,0.07874X0.07874*%
%ADD31C,0.05000*%
D10*
X794353Y430000D02*
G03*
X794353Y430000I-4353J0D01*
G01*
X703100Y352500D02*
G03*
X703100Y352500I-8900J0D01*
G01*
X718400Y334500D02*
G03*
X718400Y334500I-8900J0D01*
G01*
X682100Y364500D02*
G03*
X682100Y364500I-8900J0D01*
G01*
X661400Y392500D02*
G03*
X661400Y392500I-11400J0D01*
G01*
X658900Y368750D02*
G03*
X658900Y368750I-8900J0D01*
G01*
X635400Y364500D02*
G03*
X635400Y364500I-8900J0D01*
G01*
X614700Y352700D02*
G03*
X614700Y352700I-8900J0D01*
G01*
X726600Y311700D02*
G03*
X726600Y311700I-8900J0D01*
G01*
Y288300D02*
G03*
X726600Y288300I-8900J0D01*
G01*
X718400Y265500D02*
G03*
X718400Y265500I-8900J0D01*
G01*
X703100Y247800D02*
G03*
X703100Y247800I-8900J0D01*
G01*
X682100Y235500D02*
G03*
X682100Y235500I-8900J0D01*
G01*
X700337Y165000D02*
G03*
X696969Y168368I-3368J0D01*
G01*
X693032D02*
G03*
X690774Y162500I0J-3368D01*
G01*
X699226D02*
G03*
X700337Y165000I-2258J2500D01*
G01*
X680337D02*
G03*
X676968Y168368I-3368J0D01*
G01*
X614700Y247300D02*
G03*
X614700Y247300I-8900J0D01*
G01*
X658900Y231250D02*
G03*
X658900Y231250I-8900J0D01*
G01*
X661400Y207500D02*
G03*
X661400Y207500I-11400J0D01*
G01*
X660337Y165000D02*
G03*
X656968Y168368I-3368J0D01*
G01*
X659226Y162500D02*
G03*
X660337Y165000I-2258J2500D01*
G01*
X640337D02*
G03*
X636969Y168368I-3368J0D01*
G01*
X639226Y162500D02*
G03*
X640337Y165000I-2258J2500D01*
G01*
X620337D02*
G03*
X616968Y168368I-3368J0D01*
G01*
X633032D02*
G03*
X630774Y162500I0J-3368D01*
G01*
X613031Y168368D02*
G03*
X610774Y162500I0J-3368D01*
G01*
X574156Y430000D02*
G03*
X574156Y430000I-4156J0D01*
G01*
X544156Y440000D02*
G03*
X544156Y440000I-4156J0D01*
G01*
Y430000D02*
G03*
X544156Y430000I-4156J0D01*
G01*
X531400Y425000D02*
G03*
X527500Y428900I-3900J0D01*
G01*
Y421100D02*
G03*
X531400Y425000I0J3900D01*
G01*
Y415000D02*
G03*
X527500Y418900I-3900J0D01*
G01*
Y411100D02*
G03*
X531400Y415000I0J3900D01*
G01*
Y405000D02*
G03*
X527500Y408900I-3900J0D01*
G01*
Y401100D02*
G03*
X531400Y405000I0J3900D01*
G01*
X569058Y390158D02*
G03*
X569058Y390158I-4058J0D01*
G01*
X538031Y403369D02*
G03*
X535774Y397500I0J-3368D01*
G01*
X545337Y400000D02*
G03*
X541968Y403369I-3368J0D01*
G01*
X544226Y397500D02*
G03*
X545337Y400000I-2258J2500D01*
G01*
Y395000D02*
G03*
X544226Y397500I-3368J0D01*
G01*
Y392500D02*
G03*
X545337Y395000I-2258J2500D01*
G01*
X535774Y397500D02*
G03*
X535774Y392500I2258J-2500D01*
G01*
X545337Y390000D02*
G03*
X544226Y392500I-3368J0D01*
G01*
X535774D02*
G03*
X538031Y386631I2258J-2500D01*
G01*
X531400Y395000D02*
G03*
X527500Y398900I-3900J0D01*
G01*
Y391100D02*
G03*
X531400Y395000I0J3900D01*
G01*
X522500Y428900D02*
G03*
X522500Y421100I0J-3900D01*
G01*
X514156Y440000D02*
G03*
X514156Y440000I-4156J0D01*
G01*
X522500Y418900D02*
G03*
X522500Y411100I0J-3900D01*
G01*
X501400Y415000D02*
G03*
X497500Y418900I-3900J0D01*
G01*
Y411100D02*
G03*
X501400Y415000I0J3900D01*
G01*
X492500Y418900D02*
G03*
X492500Y411100I0J-3900D01*
G01*
X522500Y408900D02*
G03*
X522500Y401100I0J-3900D01*
G01*
X501400Y405000D02*
G03*
X497500Y408900I-3900J0D01*
G01*
X522500Y398900D02*
G03*
X522500Y391100I0J-3900D01*
G01*
X497500Y401100D02*
G03*
X501400Y405000I0J3900D01*
G01*
X492500Y408900D02*
G03*
X492500Y401100I0J-3900D01*
G01*
X501400Y395000D02*
G03*
X497500Y398900I-3900J0D01*
G01*
Y391100D02*
G03*
X501400Y395000I0J3900D01*
G01*
X492500Y398900D02*
G03*
X492500Y391100I0J-3900D01*
G01*
X599400Y334500D02*
G03*
X599400Y334500I-8900J0D01*
G01*
X591200Y311700D02*
G03*
X591200Y311700I-8900J0D01*
G01*
Y288300D02*
G03*
X591200Y288300I-8900J0D01*
G01*
X599400Y265500D02*
G03*
X599400Y265500I-8900J0D01*
G01*
X541968Y386631D02*
G03*
X545337Y390000I0J3368D01*
G01*
X600337Y165000D02*
G03*
X596969Y168368I-3368J0D01*
G01*
X599226Y162500D02*
G03*
X600337Y165000I-2258J2500D01*
G01*
X579156Y185000D02*
G03*
X579156Y185000I-4156J0D01*
G01*
X580337Y165000D02*
G03*
X576968Y168368I-3368J0D01*
G01*
X579226Y162500D02*
G03*
X580337Y165000I-2258J2500D01*
G01*
X549156Y185000D02*
G03*
X549156Y185000I-4156J0D01*
G01*
X559226Y162500D02*
G03*
X560337Y165000I-2258J2500D01*
G01*
X553031Y168368D02*
G03*
X550774Y162500I0J-3368D01*
G01*
X560337Y165000D02*
G03*
X556968Y168368I-3368J0D01*
G01*
X544156Y370000D02*
G03*
X544156Y370000I-4156J0D01*
G01*
Y340000D02*
G03*
X544156Y340000I-4156J0D01*
G01*
X529156Y300000D02*
G03*
X529156Y300000I-4156J0D01*
G01*
X503762Y375000D02*
G03*
X503762Y375000I-3762J0D01*
G01*
X493762D02*
G03*
X493762Y375000I-3762J0D01*
G01*
X479156Y300000D02*
G03*
X479156Y300000I-4156J0D01*
G01*
Y280000D02*
G03*
X479156Y280000I-4156J0D01*
G01*
X545337Y250590D02*
G03*
X545337Y250590I-5337J0D01*
G01*
X520337Y165000D02*
G03*
X516968Y168368I-3368J0D01*
G01*
X540337Y165000D02*
G03*
X536969Y168368I-3368J0D01*
G01*
X519226Y162500D02*
G03*
X520337Y165000I-2258J2500D01*
G01*
X503762Y190000D02*
G03*
X503762Y190000I-3762J0D01*
G01*
X479156Y250000D02*
G03*
X479156Y250000I-4156J0D01*
G01*
X500337Y165000D02*
G03*
X496969Y168368I-3368J0D01*
G01*
X499226Y162500D02*
G03*
X500337Y165000I-2258J2500D01*
G01*
X480337D02*
G03*
X476968Y168368I-3368J0D01*
G01*
X700337Y160000D02*
G03*
X699226Y162500I-3368J0D01*
G01*
Y157500D02*
G03*
X700337Y160000I-2258J2500D01*
G01*
X700337Y155000D02*
G03*
X699226Y157500I-3368J0D01*
G01*
X690774Y162500D02*
G03*
X690774Y157500I2258J-2500D01*
G01*
D02*
G03*
X693032Y151631I2258J-2500D01*
G01*
X696969D02*
G03*
X700337Y155000I0J3368D01*
G01*
X679226Y162500D02*
G03*
X680337Y165000I-2258J2500D01*
G01*
Y160000D02*
G03*
X679226Y162500I-3368J0D01*
G01*
Y157500D02*
G03*
X680337Y160000I-2258J2500D01*
G01*
X673032Y168368D02*
G03*
X670774Y162500I0J-3368D01*
G01*
D02*
G03*
X670774Y157500I2258J-2500D01*
G01*
X680337Y155000D02*
G03*
X679226Y157500I-3368J0D01*
G01*
X676968Y151631D02*
G03*
X680337Y155000I0J3368D01*
G01*
X670774Y157500D02*
G03*
X673032Y151631I2258J-2500D01*
G01*
X679353Y140000D02*
G03*
X679353Y140000I-4353J0D01*
G01*
X689353D02*
G03*
X689353Y140000I-4353J0D01*
G01*
X660337Y160000D02*
G03*
X659226Y162500I-3368J0D01*
G01*
Y157500D02*
G03*
X660337Y160000I-2258J2500D01*
G01*
X653031Y168368D02*
G03*
X650774Y162500I0J-3368D01*
G01*
X640337Y160000D02*
G03*
X639226Y162500I-3368J0D01*
G01*
X650774D02*
G03*
X650774Y157500I2258J-2500D01*
G01*
X639226D02*
G03*
X640337Y160000I-2258J2500D01*
G01*
X660337Y155000D02*
G03*
X659226Y157500I-3368J0D01*
G01*
X656968Y151631D02*
G03*
X660337Y155000I0J3368D01*
G01*
X640337D02*
G03*
X639226Y157500I-3368J0D01*
G01*
X650774D02*
G03*
X653031Y151631I2258J-2500D01*
G01*
X630774Y162500D02*
G03*
X630774Y157500I2258J-2500D01*
G01*
D02*
G03*
X633032Y151631I2258J-2500D01*
G01*
X619226Y162500D02*
G03*
X620337Y165000I-2258J2500D01*
G01*
Y160000D02*
G03*
X619226Y162500I-3368J0D01*
G01*
Y157500D02*
G03*
X620337Y160000I-2258J2500D01*
G01*
X610774Y157500D02*
G03*
X613031Y151631I2258J-2500D01*
G01*
X620337Y155000D02*
G03*
X619226Y157500I-3368J0D01*
G01*
X636969Y151631D02*
G03*
X640337Y155000I0J3368D01*
G01*
X616968Y151631D02*
G03*
X620337Y155000I0J3368D01*
G01*
X669353Y140000D02*
G03*
X669353Y140000I-4353J0D01*
G01*
X659353D02*
G03*
X659353Y140000I-4353J0D01*
G01*
X649353D02*
G03*
X649353Y140000I-4353J0D01*
G01*
X639353D02*
G03*
X639353Y140000I-4353J0D01*
G01*
X619353D02*
G03*
X610654Y139755I-4353J0D01*
G01*
X629353Y140000D02*
G03*
X629353Y140000I-4353J0D01*
G01*
X614755Y135654D02*
G03*
X619353Y140000I245J4346D01*
G01*
X794353Y100000D02*
G03*
X794353Y100000I-4353J0D01*
G01*
X689353Y110000D02*
G03*
X689353Y110000I-4353J0D01*
G01*
X669353D02*
G03*
X669353Y110000I-4353J0D01*
G01*
X679353D02*
G03*
X679353Y110000I-4353J0D01*
G01*
X794353Y90000D02*
G03*
X794353Y90000I-4353J0D01*
G01*
Y80000D02*
G03*
X794353Y80000I-4353J0D01*
G01*
Y70000D02*
G03*
X794353Y70000I-4353J0D01*
G01*
X659353Y110000D02*
G03*
X659353Y110000I-4353J0D01*
G01*
X649353D02*
G03*
X649353Y110000I-4353J0D01*
G01*
X639353D02*
G03*
X639353Y110000I-4353J0D01*
G01*
X629353D02*
G03*
X629353Y110000I-4353J0D01*
G01*
X612400Y60000D02*
G03*
X610900Y63309I-4400J0D01*
G01*
X605100D02*
G03*
X612400Y60000I2900J-3309D01*
G01*
X610774Y162500D02*
G03*
X610774Y157500I2258J-2500D01*
G01*
X600337Y160000D02*
G03*
X599226Y162500I-3368J0D01*
G01*
Y157500D02*
G03*
X600337Y160000I-2258J2500D01*
G01*
X593032Y168368D02*
G03*
X590774Y162500I0J-3368D01*
G01*
D02*
G03*
X590774Y157500I2258J-2500D01*
G01*
X579226D02*
G03*
X580337Y160000I-2258J2500D01*
G01*
D02*
G03*
X579226Y162500I-3368J0D01*
G01*
X600337Y155000D02*
G03*
X599226Y157500I-3368J0D01*
G01*
X580337Y155000D02*
G03*
X579226Y157500I-3368J0D01*
G01*
X573032Y168368D02*
G03*
X570774Y162500I0J-3368D01*
G01*
D02*
G03*
X570774Y157500I2258J-2500D01*
G01*
X559226D02*
G03*
X560337Y160000I-2258J2500D01*
G01*
D02*
G03*
X559226Y162500I-3368J0D01*
G01*
X550774D02*
G03*
X550774Y157500I2258J-2500D01*
G01*
X540337Y160000D02*
G03*
X539226Y162500I-3368J0D01*
G01*
X560337Y155000D02*
G03*
X559226Y157500I-3368J0D01*
G01*
X540337Y155000D02*
G03*
X539226Y157500I-3368J0D01*
G01*
X596969Y151631D02*
G03*
X600337Y155000I0J3368D01*
G01*
X590774Y157500D02*
G03*
X593032Y151631I2258J-2500D01*
G01*
X576968D02*
G03*
X580337Y155000I0J3368D01*
G01*
X604353Y140000D02*
G03*
X604353Y140000I-4353J0D01*
G01*
X584353D02*
G03*
X584353Y140000I-4353J0D01*
G01*
X594353D02*
G03*
X594353Y140000I-4353J0D01*
G01*
X570774Y157500D02*
G03*
X573032Y151631I2258J-2500D01*
G01*
X556968D02*
G03*
X560337Y155000I0J3368D01*
G01*
X550774Y157500D02*
G03*
X553031Y151631I2258J-2500D01*
G01*
X574353Y140000D02*
G03*
X574353Y140000I-4353J0D01*
G01*
X554353D02*
G03*
X554353Y140000I-4353J0D01*
G01*
X564353D02*
G03*
X564353Y140000I-4353J0D01*
G01*
X533032Y168368D02*
G03*
X530774Y162500I0J-3368D01*
G01*
X539226D02*
G03*
X540337Y165000I-2258J2500D01*
G01*
X530774Y162500D02*
G03*
X530774Y157500I2258J-2500D01*
G01*
X539226D02*
G03*
X540337Y160000I-2258J2500D01*
G01*
X513031Y168368D02*
G03*
X510774Y162500I0J-3368D01*
G01*
X520337Y160000D02*
G03*
X519226Y162500I-3368J0D01*
G01*
Y157500D02*
G03*
X520337Y160000I-2258J2500D01*
G01*
X510774Y162500D02*
G03*
X510774Y157500I2258J-2500D01*
G01*
X520337Y155000D02*
G03*
X519226Y157500I-3368J0D01*
G01*
X493032Y168368D02*
G03*
X490774Y162500I0J-3368D01*
G01*
X500337Y160000D02*
G03*
X499226Y162500I-3368J0D01*
G01*
X490774D02*
G03*
X490774Y157500I2258J-2500D01*
G01*
X499226D02*
G03*
X500337Y160000I-2258J2500D01*
G01*
X479226Y162500D02*
G03*
X480337Y165000I-2258J2500D01*
G01*
X473032Y168368D02*
G03*
X470774Y162500I0J-3368D01*
G01*
X480337Y160000D02*
G03*
X479226Y162500I-3368J0D01*
G01*
Y157500D02*
G03*
X480337Y160000I-2258J2500D01*
G01*
X470774Y162500D02*
G03*
X470774Y157500I2258J-2500D01*
G01*
X500337Y155000D02*
G03*
X499226Y157500I-3368J0D01*
G01*
X480337Y155000D02*
G03*
X479226Y157500I-3368J0D01*
G01*
X536969Y151631D02*
G03*
X540337Y155000I0J3368D01*
G01*
X530774Y157500D02*
G03*
X533032Y151631I2258J-2500D01*
G01*
X516968D02*
G03*
X520337Y155000I0J3368D01*
G01*
X510774Y157500D02*
G03*
X513031Y151631I2258J-2500D01*
G01*
X544353Y140000D02*
G03*
X544353Y140000I-4353J0D01*
G01*
X534353D02*
G03*
X525791Y138892I-4353J0D01*
G01*
X496969Y151631D02*
G03*
X500337Y155000I0J3368D01*
G01*
X490774Y157500D02*
G03*
X493032Y151631I2258J-2500D01*
G01*
X476968D02*
G03*
X480337Y155000I0J3368D01*
G01*
X470774Y157500D02*
G03*
X473032Y151631I2258J-2500D01*
G01*
X605949Y135051D02*
G03*
X605100Y133000I2051J-2051D01*
G01*
X605949Y135051D02*
G03*
X605100Y133000I2051J-2051D01*
G01*
X594353Y110000D02*
G03*
X594353Y110000I-4353J0D01*
G01*
X604353D02*
G03*
X604353Y110000I-4353J0D01*
G01*
X584353D02*
G03*
X584353Y110000I-4353J0D01*
G01*
X574353D02*
G03*
X574353Y110000I-4353J0D01*
G01*
X530828Y135727D02*
G03*
X534353Y140000I-828J4273D01*
G01*
X520949Y134051D02*
G03*
X520100Y132000I2051J-2051D01*
G01*
X520949Y134051D02*
G03*
X520100Y132000I2051J-2051D01*
G01*
X564353Y110000D02*
G03*
X564353Y110000I-4353J0D01*
G01*
X554353D02*
G03*
X554353Y110000I-4353J0D01*
G01*
X544353D02*
G03*
X544353Y110000I-4353J0D01*
G01*
X527400Y60000D02*
G03*
X525900Y63309I-4400J0D01*
G01*
X520100D02*
G03*
X527400Y60000I2900J-3309D01*
G01*
X465337Y365000D02*
G03*
X461969Y368369I-3368J0D01*
G01*
X464226Y362500D02*
G03*
X465337Y365000I-2258J2500D01*
G01*
Y360000D02*
G03*
X464226Y362500I-3368J0D01*
G01*
X464226Y357500D02*
G03*
X465337Y360000I-2258J2500D01*
G01*
X465337Y355000D02*
G03*
X464226Y357500I-3368J0D01*
G01*
X461969Y351631D02*
G03*
X465337Y355000I0J3368D01*
G01*
X458032Y368369D02*
G03*
X455774Y362500I0J-3368D01*
G01*
X455774Y357500D02*
G03*
X458032Y351631I2258J-2500D01*
G01*
X455774Y362500D02*
G03*
X455774Y357500I2258J-2500D01*
G01*
X453762Y395000D02*
G03*
X453762Y395000I-3762J0D01*
G01*
X418400Y334500D02*
G03*
X418400Y334500I-8900J0D01*
G01*
X426600Y311700D02*
G03*
X426600Y311700I-8900J0D01*
G01*
Y288300D02*
G03*
X426600Y288300I-8900J0D01*
G01*
X403100Y352500D02*
G03*
X403100Y352500I-8900J0D01*
G01*
X464057Y220158D02*
G03*
X464057Y220158I-4058J0D01*
G01*
X460337Y165000D02*
G03*
X456968Y168368I-3368J0D01*
G01*
X429156Y185000D02*
G03*
X429156Y185000I-4156J0D01*
G01*
X459156D02*
G03*
X459156Y185000I-4156J0D01*
G01*
X440337Y165000D02*
G03*
X436969Y168368I-3368J0D01*
G01*
X459226Y162500D02*
G03*
X460337Y165000I-2258J2500D01*
G01*
Y160000D02*
G03*
X459226Y162500I-3368J0D01*
G01*
Y157500D02*
G03*
X460337Y160000I-2258J2500D01*
G01*
X453031Y168368D02*
G03*
X450774Y162500I0J-3368D01*
G01*
X440337Y160000D02*
G03*
X439226Y162500I-3368J0D01*
G01*
X450774D02*
G03*
X450774Y157500I2258J-2500D01*
G01*
X460337Y155000D02*
G03*
X459226Y157500I-3368J0D01*
G01*
X456968Y151631D02*
G03*
X460337Y155000I0J3368D01*
G01*
X450774Y157500D02*
G03*
X453031Y151631I2258J-2500D01*
G01*
X439226Y162500D02*
G03*
X440337Y165000I-2258J2500D01*
G01*
X433032Y168368D02*
G03*
X430774Y162500I0J-3368D01*
G01*
X439226Y157500D02*
G03*
X440337Y160000I-2258J2500D01*
G01*
X430774Y162500D02*
G03*
X430774Y157500I2258J-2500D01*
G01*
X419226Y162500D02*
G03*
X420337Y165000I-2258J2500D01*
G01*
Y160000D02*
G03*
X419226Y162500I-3368J0D01*
G01*
Y157500D02*
G03*
X420337Y160000I-2258J2500D01*
G01*
X440337Y155000D02*
G03*
X439226Y157500I-3368J0D01*
G01*
X436969Y151631D02*
G03*
X440337Y155000I0J3368D01*
G01*
X420337D02*
G03*
X419226Y157500I-3368J0D01*
G01*
X430774D02*
G03*
X433032Y151631I2258J-2500D01*
G01*
X418400Y265500D02*
G03*
X418400Y265500I-8900J0D01*
G01*
X403100Y247800D02*
G03*
X403100Y247800I-8900J0D01*
G01*
X413031Y168368D02*
G03*
X410774Y162500I0J-3368D01*
G01*
X420337Y165000D02*
G03*
X416968Y168368I-3368J0D01*
G01*
X410774Y162500D02*
G03*
X410774Y157500I2258J-2500D01*
G01*
X416968Y151631D02*
G03*
X420337Y155000I0J3368D01*
G01*
X410774Y157500D02*
G03*
X413031Y151631I2258J-2500D01*
G01*
X400337Y165000D02*
G03*
X396969Y168368I-3368J0D01*
G01*
X399226Y162500D02*
G03*
X400337Y165000I-2258J2500D01*
G01*
Y160000D02*
G03*
X399226Y162500I-3368J0D01*
G01*
X393032Y168368D02*
G03*
X390774Y162500I0J-3368D01*
G01*
D02*
G03*
X390774Y157500I2258J-2500D01*
G01*
X399226D02*
G03*
X400337Y160000I-2258J2500D01*
G01*
X400337Y155000D02*
G03*
X399226Y157500I-3368J0D01*
G01*
X396969Y151631D02*
G03*
X400337Y155000I0J3368D01*
G01*
X390774Y157500D02*
G03*
X393032Y151631I2258J-2500D01*
G01*
X361400Y392500D02*
G03*
X361400Y392500I-11400J0D01*
G01*
X382100Y364500D02*
G03*
X382100Y364500I-8900J0D01*
G01*
X358900Y368750D02*
G03*
X358900Y368750I-8900J0D01*
G01*
X335400Y364500D02*
G03*
X335400Y364500I-8900J0D01*
G01*
X234353Y430000D02*
G03*
X234353Y430000I-4353J0D01*
G01*
X314700Y352700D02*
G03*
X314700Y352700I-8900J0D01*
G01*
X299400Y334500D02*
G03*
X299400Y334500I-8900J0D01*
G01*
X291200Y311700D02*
G03*
X291200Y311700I-8900J0D01*
G01*
X382100Y235500D02*
G03*
X382100Y235500I-8900J0D01*
G01*
X380337Y165000D02*
G03*
X376969Y168368I-3368J0D01*
G01*
X379226Y162500D02*
G03*
X380337Y165000I-2258J2500D01*
G01*
X361400Y207500D02*
G03*
X361400Y207500I-11400J0D01*
G01*
X359226Y162500D02*
G03*
X360337Y165000I-2258J2500D01*
G01*
X358900Y231250D02*
G03*
X358900Y231250I-8900J0D01*
G01*
X360337Y165000D02*
G03*
X356968Y168368I-3368J0D01*
G01*
X340337Y165000D02*
G03*
X336968Y168368I-3368J0D01*
G01*
X353031D02*
G03*
X350774Y162500I0J-3368D01*
G01*
X339226D02*
G03*
X340337Y165000I-2258J2500D01*
G01*
X380337Y160000D02*
G03*
X379226Y162500I-3368J0D01*
G01*
Y157500D02*
G03*
X380337Y160000I-2258J2500D01*
G01*
X373031Y168368D02*
G03*
X370774Y162500I0J-3368D01*
G01*
D02*
G03*
X370774Y157500I2258J-2500D01*
G01*
X359226D02*
G03*
X360337Y160000I-2258J2500D01*
G01*
X380337Y155000D02*
G03*
X379226Y157500I-3368J0D01*
G01*
X376969Y151631D02*
G03*
X380337Y155000I0J3368D01*
G01*
X370774Y157500D02*
G03*
X373031Y151631I2258J-2500D01*
G01*
X360337Y160000D02*
G03*
X359226Y162500I-3368J0D01*
G01*
X350774D02*
G03*
X350774Y157500I2258J-2500D01*
G01*
X340337Y160000D02*
G03*
X339226Y162500I-3368J0D01*
G01*
Y157500D02*
G03*
X340337Y160000I-2258J2500D01*
G01*
X340337Y155000D02*
G03*
X339226Y157500I-3368J0D01*
G01*
X360337Y155000D02*
G03*
X359226Y157500I-3368J0D01*
G01*
X356968Y151631D02*
G03*
X360337Y155000I0J3368D01*
G01*
X350774Y157500D02*
G03*
X353031Y151631I2258J-2500D01*
G01*
X336968D02*
G03*
X340337Y155000I0J3368D01*
G01*
X299400Y265500D02*
G03*
X299400Y265500I-8900J0D01*
G01*
X314700Y247300D02*
G03*
X314700Y247300I-8900J0D01*
G01*
X291200Y288300D02*
G03*
X291200Y288300I-8900J0D01*
G01*
X333032Y168368D02*
G03*
X330774Y162500I0J-3368D01*
G01*
X320337Y165000D02*
G03*
X316968Y168368I-3368J0D01*
G01*
X319226Y162500D02*
G03*
X320337Y165000I-2258J2500D01*
G01*
X330774Y162500D02*
G03*
X330774Y157500I2258J-2500D01*
G01*
D02*
G03*
X333032Y151631I2258J-2500D01*
G01*
X320337Y160000D02*
G03*
X319226Y162500I-3368J0D01*
G01*
Y157500D02*
G03*
X320337Y160000I-2258J2500D01*
G01*
X316968Y151631D02*
G03*
X320337Y155000I0J3368D01*
G01*
X313032Y168368D02*
G03*
X310774Y162500I0J-3368D01*
G01*
D02*
G03*
X310774Y157500I2258J-2500D01*
G01*
X320337Y155000D02*
G03*
X319226Y157500I-3368J0D01*
G01*
X310774D02*
G03*
X313032Y151631I2258J-2500D01*
G01*
X464353Y140000D02*
G03*
X464353Y140000I-4353J0D01*
G01*
X454353D02*
G03*
X454353Y140000I-4353J0D01*
G01*
X444353D02*
G03*
X444353Y140000I-4353J0D01*
G01*
X434353D02*
G03*
X434353Y140000I-4353J0D01*
G01*
X424353D02*
G03*
X424353Y140000I-4353J0D01*
G01*
X414353D02*
G03*
X414353Y140000I-4353J0D01*
G01*
X404353D02*
G03*
X404353Y140000I-4353J0D01*
G01*
X394353D02*
G03*
X385654Y139755I-4353J0D01*
G01*
X389755Y135654D02*
G03*
X394353Y140000I245J4346D01*
G01*
X379949Y134051D02*
G03*
X379100Y132000I2051J-2051D01*
G01*
X379353Y140000D02*
G03*
X379353Y140000I-4353J0D01*
G01*
X379949Y134051D02*
G03*
X379100Y132000I2051J-2051D01*
G01*
X369353Y140000D02*
G03*
X369353Y140000I-4353J0D01*
G01*
X359353D02*
G03*
X359353Y140000I-4353J0D01*
G01*
X339353D02*
G03*
X339353Y140000I-4353J0D01*
G01*
X349353D02*
G03*
X349353Y140000I-4353J0D01*
G01*
X329353D02*
G03*
X329353Y140000I-4353J0D01*
G01*
X434353Y110000D02*
G03*
X434353Y110000I-4353J0D01*
G01*
X424353D02*
G03*
X424353Y110000I-4353J0D01*
G01*
X414353D02*
G03*
X414353Y110000I-4353J0D01*
G01*
X404353D02*
G03*
X404353Y110000I-4353J0D01*
G01*
X464353D02*
G03*
X464353Y110000I-4353J0D01*
G01*
X454353D02*
G03*
X454353Y110000I-4353J0D01*
G01*
X444353D02*
G03*
X444353Y110000I-4353J0D01*
G01*
X386400Y60000D02*
G03*
X384900Y63309I-4400J0D01*
G01*
X379100Y111462D02*
G03*
X379100Y108538I-4100J-1462D01*
G01*
X369353Y110000D02*
G03*
X369353Y110000I-4353J0D01*
G01*
X349353D02*
G03*
X349353Y110000I-4353J0D01*
G01*
X359353D02*
G03*
X359353Y110000I-4353J0D01*
G01*
X339353D02*
G03*
X339353Y110000I-4353J0D01*
G01*
X329353D02*
G03*
X329353Y110000I-4353J0D01*
G01*
X379100Y63309D02*
G03*
X386400Y60000I2900J-3309D01*
G01*
X319353Y140000D02*
G03*
X319353Y140000I-4353J0D01*
G01*
X309353D02*
G03*
X300654Y139755I-4353J0D01*
G01*
X304755Y135654D02*
G03*
X309353Y140000I245J4346D01*
G01*
X274353D02*
G03*
X274353Y140000I-4353J0D01*
G01*
X284353D02*
G03*
X284353Y140000I-4353J0D01*
G01*
X319353Y110000D02*
G03*
X319353Y110000I-4353J0D01*
G01*
X294353D02*
G03*
X292900Y113246I-4353J0D01*
G01*
X287949Y127051D02*
G03*
X287100Y125000I2051J-2051D01*
G01*
X287949Y127051D02*
G03*
X287100Y125000I2051J-2051D01*
G01*
Y113246D02*
G03*
X287100Y106754I2900J-3246D01*
G01*
X274353Y110000D02*
G03*
X268100Y106084I-4353J0D01*
G01*
X284353Y110000D02*
G03*
X278100Y106084I-4353J0D01*
G01*
X271900D02*
G03*
X274353Y110000I-1900J3916D01*
G01*
X264353Y140000D02*
G03*
X264353Y140000I-4353J0D01*
G01*
X244353D02*
G03*
X244353Y140000I-4353J0D01*
G01*
X254353D02*
G03*
X254353Y140000I-4353J0D01*
G01*
X234353D02*
G03*
X234353Y140000I-4353J0D01*
G01*
X224353D02*
G03*
X224353Y140000I-4353J0D01*
G01*
X254353Y110000D02*
G03*
X254353Y110000I-4353J0D01*
G01*
X264353D02*
G03*
X258100Y106084I-4353J0D01*
G01*
X244353Y110000D02*
G03*
X244353Y110000I-4353J0D01*
G01*
X234353D02*
G03*
X234353Y110000I-4353J0D01*
G01*
X224353D02*
G03*
X224353Y110000I-4353J0D01*
G01*
X292900Y106754D02*
G03*
X294353Y110000I-2900J3246D01*
G01*
X281900Y106084D02*
G03*
X284353Y110000I-1900J3916D01*
G01*
X261900Y106084D02*
G03*
X264353Y110000I-1900J3916D01*
G01*
X263900Y90000D02*
G03*
X261900Y93406I-3900J0D01*
G01*
X258100D02*
G03*
X263900Y90000I1900J-3406D01*
G01*
X283900Y80000D02*
G03*
X281900Y83406I-3900J0D01*
G01*
X293900Y60000D02*
G03*
X292900Y62608I-3900J0D01*
G01*
X287100D02*
G03*
X293900Y60000I2900J-2608D01*
G01*
X278100Y83406D02*
G03*
X283900Y80000I1900J-3406D01*
G01*
X273900Y70000D02*
G03*
X271900Y73406I-3900J0D01*
G01*
X268100D02*
G03*
X273900Y70000I1900J-3406D01*
G01*
X234353Y100000D02*
G03*
X234353Y100000I-4353J0D01*
G01*
Y90000D02*
G03*
X234353Y90000I-4353J0D01*
G01*
Y80000D02*
G03*
X234353Y80000I-4353J0D01*
G01*
Y70000D02*
G03*
X234353Y70000I-4353J0D01*
G01*
X794353Y442000D02*
X795000D01*
X794353Y440000D02*
X795000D01*
X794000Y444353D02*
Y445000D01*
X794353Y444000D02*
X795000D01*
X794353Y438000D02*
X795000D01*
X794353Y436000D02*
X795000D01*
X794353Y435647D02*
Y444353D01*
Y430000D02*
X795000D01*
X791716Y434000D02*
X795000D01*
X793866Y432000D02*
X795000D01*
X785647Y444353D02*
X794353D01*
X785647Y435647D02*
X794353D01*
X793866Y428000D02*
X795000D01*
X677992Y372000D02*
X795000D01*
X680197Y370000D02*
X795000D01*
X791716Y426000D02*
X795000D01*
X661389Y392000D02*
X795000D01*
X681973Y366000D02*
X795000D01*
X682086Y364000D02*
X795000D01*
X681383Y368000D02*
X795000D01*
X660849Y396000D02*
X795000D01*
X661301Y394000D02*
X795000D01*
X658586Y400000D02*
X795000D01*
X659985Y398000D02*
X795000D01*
X660474Y388000D02*
X795000D01*
X659365Y386000D02*
X795000D01*
X661123Y390000D02*
X795000D01*
X790000Y444353D02*
Y445000D01*
X792000Y444353D02*
Y445000D01*
X786000Y444353D02*
Y445000D01*
X788000Y444353D02*
Y445000D01*
X680000Y370242D02*
Y445000D01*
X682000Y365830D02*
Y445000D01*
X676000Y372948D02*
Y445000D01*
X678000Y371995D02*
Y445000D01*
X672000Y373319D02*
Y445000D01*
X674000Y373364D02*
Y445000D01*
X658000Y400622D02*
Y445000D01*
X660000Y397974D02*
Y445000D01*
X668000Y371723D02*
Y445000D01*
X670000Y372805D02*
Y445000D01*
X666000Y369732D02*
Y445000D01*
X792000Y433866D02*
Y435647D01*
X794000Y431716D02*
Y435647D01*
X788000Y433866D02*
Y435647D01*
X790000Y434353D02*
Y435647D01*
X786000Y431716D02*
Y435647D01*
X785647D02*
Y444353D01*
X658000Y372650D02*
Y384378D01*
X658285Y372000D02*
X668408D01*
X658812Y370000D02*
X666203D01*
X658868Y368000D02*
X665017D01*
X658464Y366000D02*
X664427D01*
X716000Y340580D02*
Y445000D01*
X718000Y337138D02*
Y445000D01*
X712000Y343042D02*
Y445000D01*
X714000Y342179D02*
Y445000D01*
X724000Y317986D02*
Y445000D01*
X726000Y314913D02*
Y445000D01*
X720000Y320298D02*
Y445000D01*
X722000Y319492D02*
Y445000D01*
X710000Y343386D02*
Y445000D01*
X681742Y362000D02*
X795000D01*
X700000Y359251D02*
Y445000D01*
X702000Y356786D02*
Y445000D01*
X706000Y342683D02*
Y445000D01*
X708000Y343273D02*
Y445000D01*
X704000Y341497D02*
Y445000D01*
X703086Y352000D02*
X795000D01*
X702742Y350000D02*
X795000D01*
X702383Y356000D02*
X795000D01*
X702973Y354000D02*
X795000D01*
X701878Y348000D02*
X795000D01*
X714292Y342000D02*
X795000D01*
X702000Y339292D02*
Y348214D01*
X700280Y346000D02*
X795000D01*
X696838Y344000D02*
X795000D01*
X698992Y360000D02*
X795000D01*
X701197Y358000D02*
X795000D01*
X700000Y254551D02*
Y345749D01*
X696000Y361216D02*
Y445000D01*
X698000Y360548D02*
Y445000D01*
X692000Y361124D02*
Y445000D01*
X694000Y361398D02*
Y445000D01*
X688000Y358885D02*
Y445000D01*
X690000Y360347D02*
Y445000D01*
X686000Y355960D02*
Y445000D01*
X682000Y236830D02*
Y363170D01*
X680878Y360000D02*
X689408D01*
X679280Y358000D02*
X687203D01*
X680000Y241242D02*
Y358758D01*
X660000Y212974D02*
Y387026D01*
X666000Y240732D02*
Y359268D01*
X658000Y235150D02*
Y364850D01*
X698000Y255848D02*
Y344452D01*
X696000Y256516D02*
Y343784D01*
X692000Y256424D02*
Y343876D01*
X694000Y256698D02*
Y343602D01*
X688000Y254185D02*
Y346115D01*
X690000Y255647D02*
Y344653D01*
X686000Y251260D02*
Y349040D01*
X676000Y243948D02*
Y356052D01*
X675838Y356000D02*
X686017D01*
X672000Y244319D02*
Y355681D01*
X674000Y244364D02*
Y355636D01*
X678000Y242995D02*
Y357005D01*
X670000Y243805D02*
Y356195D01*
X668000Y242723D02*
Y357277D01*
X543643Y438000D02*
X785647D01*
X571128Y434000D02*
X788283D01*
X543643Y442000D02*
X785647D01*
X544156Y440000D02*
X785647D01*
X573643Y432000D02*
X786134D01*
X571128Y426000D02*
X788283D01*
X574156Y430000D02*
X785647D01*
X573643Y428000D02*
X786134D01*
X531270Y424000D02*
X795000D01*
X529992Y422000D02*
X795000D01*
X541128Y444000D02*
X785647D01*
X541128Y436000D02*
X785647D01*
X531270Y416000D02*
X795000D01*
X531270Y414000D02*
X795000D01*
X529992Y418000D02*
X795000D01*
X656302Y402000D02*
X795000D01*
X657597Y384000D02*
X795000D01*
X654440Y382000D02*
X795000D01*
X655162Y376000D02*
X795000D01*
X657187Y374000D02*
X795000D01*
X656000Y375323D02*
Y382807D01*
X569058Y408000D02*
X795000D01*
X569058Y406000D02*
X795000D01*
X569058Y412000D02*
X795000D01*
X569058Y410000D02*
X795000D01*
X531270Y404000D02*
X795000D01*
X513762Y378000D02*
X795000D01*
X652000Y403723D02*
Y445000D01*
X654000Y403175D02*
Y445000D01*
X648000Y403723D02*
Y445000D01*
X650000Y403900D02*
Y445000D01*
X656000Y402193D02*
Y445000D01*
X644000Y402193D02*
Y445000D01*
X646000Y403175D02*
Y445000D01*
X642000Y400622D02*
Y445000D01*
X544679Y402000D02*
X643698D01*
X545337Y400000D02*
X641414D01*
X544679Y398000D02*
X640015D01*
X640000Y397974D02*
Y445000D01*
X545185Y396000D02*
X639151D01*
X626000Y373386D02*
Y445000D01*
X652000Y377422D02*
Y381277D01*
X648000Y377422D02*
Y381277D01*
X650000Y377650D02*
Y381100D01*
X646000Y376700D02*
Y381825D01*
X654000Y376700D02*
Y381825D01*
X644000Y375323D02*
Y382807D01*
X569054Y390000D02*
X638877D01*
X566303Y394000D02*
X638699D01*
X568615Y392000D02*
X638611D01*
X513762Y376000D02*
X644838D01*
X541128Y374000D02*
X642813D01*
X568436Y388000D02*
X639526D01*
X657526Y364000D02*
X664314D01*
X655801Y362000D02*
X664658D01*
X642000Y372650D02*
Y384378D01*
X654000Y239200D02*
Y360800D01*
X656000Y237823D02*
Y362177D01*
X646000Y239200D02*
Y360800D01*
X642000Y235150D02*
Y364850D01*
X644000Y237823D02*
Y362177D01*
X631292Y372000D02*
X641715D01*
X635273Y366000D02*
X641536D01*
X633497Y370000D02*
X641188D01*
X634683Y368000D02*
X641132D01*
X635042Y362000D02*
X644199D01*
X635386Y364000D02*
X642474D01*
X632580Y358000D02*
X667121D01*
X629138Y356000D02*
X670562D01*
X634178Y360000D02*
X648373D01*
X651627D02*
X665521D01*
X652000Y239922D02*
Y360078D01*
X650000Y240150D02*
Y359850D01*
X648000Y239922D02*
Y360078D01*
X614281Y350000D02*
X685658D01*
X613358Y348000D02*
X686521D01*
X614605Y354000D02*
X685427D01*
X614672Y352000D02*
X685314D01*
X607676Y344000D02*
X691562D01*
X595292Y342000D02*
X704708D01*
X611658Y346000D02*
X688121D01*
X630000Y372683D02*
Y445000D01*
X632000Y371497D02*
Y445000D01*
X624000Y373042D02*
Y445000D01*
X628000Y373273D02*
Y445000D01*
X638000Y168207D02*
Y445000D01*
X640000Y212974D02*
Y387026D01*
X634000Y369292D02*
Y445000D01*
X636000Y168368D02*
Y445000D01*
X622000Y372179D02*
Y445000D01*
X543643Y372000D02*
X621708D01*
X618000Y367138D02*
Y445000D01*
X620000Y370580D02*
Y445000D01*
X616000Y168368D02*
Y445000D01*
X614000Y356160D02*
Y445000D01*
X634000Y168368D02*
Y359708D01*
X632000Y168207D02*
Y357503D01*
X614066Y356000D02*
X623862D01*
X614000Y250760D02*
Y349240D01*
X620000Y166469D02*
Y358420D01*
X630000Y166469D02*
Y356317D01*
X618000Y168207D02*
Y361862D01*
X544156Y370000D02*
X619503D01*
X610891Y360000D02*
X618821D01*
X543643Y368000D02*
X618317D01*
X541128Y366000D02*
X617727D01*
X612950Y358000D02*
X620421D01*
X612000Y253685D02*
Y346315D01*
X723986Y318000D02*
X795000D01*
X725492Y316000D02*
X795000D01*
X718386Y334000D02*
X795000D01*
X720913Y320000D02*
X795000D01*
X726436Y310000D02*
X795000D01*
X725794Y308000D02*
X795000D01*
X726298Y314000D02*
X795000D01*
X726595Y312000D02*
X795000D01*
X718273Y336000D02*
X795000D01*
X718042Y332000D02*
X795000D01*
X716497Y340000D02*
X795000D01*
X717683Y338000D02*
X795000D01*
X715580Y328000D02*
X795000D01*
X712138Y326000D02*
X795000D01*
X717178Y330000D02*
X795000D01*
X722163Y296000D02*
X795000D01*
X724535Y294000D02*
X795000D01*
X724535Y306000D02*
X795000D01*
X722163Y304000D02*
X795000D01*
X726436Y290000D02*
X795000D01*
X726595Y288000D02*
X795000D01*
X725794Y292000D02*
X795000D01*
X717178Y270000D02*
X795000D01*
X718042Y268000D02*
X795000D01*
X712138Y274000D02*
X795000D01*
X715580Y272000D02*
X795000D01*
X718273Y264000D02*
X795000D01*
X717683Y262000D02*
X795000D01*
X718386Y266000D02*
X795000D01*
X718000Y320595D02*
Y331862D01*
X716000Y320436D02*
Y328420D01*
X714000Y319794D02*
Y326821D01*
X712000Y318535D02*
Y325958D01*
X726000Y291512D02*
Y308488D01*
X724000Y294586D02*
Y305414D01*
X712000Y295135D02*
Y304865D01*
X722000Y296092D02*
Y303908D01*
X710000Y316163D02*
Y325614D01*
X708000Y274273D02*
Y325727D01*
X710000Y292763D02*
Y307237D01*
X704000Y272497D02*
Y327503D01*
X706000Y273683D02*
Y326317D01*
X702000Y270292D02*
Y329708D01*
X726298Y286000D02*
X795000D01*
X725492Y284000D02*
X795000D01*
X720000Y296898D02*
Y303102D01*
X718000Y297195D02*
Y302805D01*
X723986Y282000D02*
X795000D01*
X720913Y280000D02*
X795000D01*
X718000Y268138D02*
Y279405D01*
X716000Y297036D02*
Y302964D01*
X714000Y296394D02*
Y303606D01*
X710000Y274386D02*
Y283837D01*
X714000Y273179D02*
Y280206D01*
X716000Y271580D02*
Y279564D01*
X712000Y274042D02*
Y281465D01*
X702047Y252000D02*
X795000D01*
X702824Y250000D02*
X795000D01*
X716497Y260000D02*
X795000D01*
X714292Y258000D02*
X795000D01*
X702248Y244000D02*
X795000D01*
X700951Y242000D02*
X795000D01*
X703098Y248000D02*
X795000D01*
X702916Y246000D02*
X795000D01*
X700585Y254000D02*
X795000D01*
X698486Y240000D02*
X795000D01*
X697660Y256000D02*
X795000D01*
X681742Y238000D02*
X795000D01*
X682086Y236000D02*
X795000D01*
X680197Y230000D02*
X795000D01*
X677992Y228000D02*
X795000D01*
X681973Y234000D02*
X795000D01*
X681383Y232000D02*
X795000D01*
X700185Y166000D02*
X795000D01*
X700185Y164000D02*
X795000D01*
X698500Y168000D02*
X795000D01*
X661123Y210000D02*
X795000D01*
X661389Y208000D02*
X795000D01*
X659365Y214000D02*
X795000D01*
X660474Y212000D02*
X795000D01*
X660849Y204000D02*
X795000D01*
X659985Y202000D02*
X795000D01*
X661301Y206000D02*
X795000D01*
X702000Y252086D02*
Y260708D01*
X696000Y168368D02*
Y239084D01*
X680878Y240000D02*
X689914D01*
X694000Y168368D02*
Y238902D01*
X700000Y166469D02*
Y241049D01*
X698000Y168207D02*
Y239752D01*
X690000Y166469D02*
Y239953D01*
X692000Y168207D02*
Y239176D01*
X675838Y244000D02*
X686152D01*
X679280Y242000D02*
X687449D01*
X676000Y168368D02*
Y227052D01*
X680000Y166469D02*
Y229758D01*
X678000Y168207D02*
Y228005D01*
X670000Y166469D02*
Y227195D01*
X693032Y168368D02*
X696969D01*
X678501Y168000D02*
X691500D01*
X680185Y166000D02*
X689815D01*
X680185Y164000D02*
X689815D01*
X674000Y168368D02*
Y226636D01*
X673032Y168368D02*
X676968D01*
X672000Y168207D02*
Y226681D01*
X660000Y166469D02*
Y202026D01*
X660185Y166000D02*
X669815D01*
X660185Y164000D02*
X669815D01*
X590092Y316000D02*
X709908D01*
X590898Y314000D02*
X709102D01*
X596580Y328000D02*
X703420D01*
X593138Y326000D02*
X706862D01*
X590394Y308000D02*
X709606D01*
X589135Y306000D02*
X710865D01*
X591195Y312000D02*
X708805D01*
X591036Y310000D02*
X708964D01*
X585512Y320000D02*
X714488D01*
X528643Y302000D02*
X795000D01*
X588587Y318000D02*
X711413D01*
X586763Y304000D02*
X713237D01*
X529156Y300000D02*
X795000D01*
X528643Y298000D02*
X795000D01*
X586763Y296000D02*
X713237D01*
X591036Y290000D02*
X708964D01*
X590898Y286000D02*
X709102D01*
X591195Y288000D02*
X708805D01*
X593138Y274000D02*
X706862D01*
X595292Y258000D02*
X704708D01*
X657187Y226000D02*
X795000D01*
X596580Y272000D02*
X703420D01*
X589135Y294000D02*
X710865D01*
X588587Y282000D02*
X711413D01*
X590394Y292000D02*
X709606D01*
X590092Y284000D02*
X709908D01*
X478643Y278000D02*
X795000D01*
X476128Y276000D02*
X795000D01*
X585512Y280000D02*
X714488D01*
X599042Y332000D02*
X700958D01*
X599042Y268000D02*
X700958D01*
X599273Y336000D02*
X700727D01*
X599386Y334000D02*
X700614D01*
X599386Y266000D02*
X700614D01*
X599273Y264000D02*
X700727D01*
X607676Y256000D02*
X690740D01*
X611658Y254000D02*
X687815D01*
X597497Y340000D02*
X702503D01*
X598178Y330000D02*
X701822D01*
X598683Y338000D02*
X701317D01*
X598178Y270000D02*
X701822D01*
X598683Y262000D02*
X701317D01*
X597497Y260000D02*
X702503D01*
X651627Y240000D02*
X665521D01*
X655801Y238000D02*
X664658D01*
X657526Y236000D02*
X664314D01*
X658464Y234000D02*
X664427D01*
X658812Y230000D02*
X666203D01*
X658285Y228000D02*
X668408D01*
X658868Y232000D02*
X665017D01*
X613358Y252000D02*
X686353D01*
X614281Y250000D02*
X685576D01*
X614672Y248000D02*
X685302D01*
X614605Y246000D02*
X685484D01*
X614066Y244000D02*
X670562D01*
X612950Y242000D02*
X667121D01*
X610891Y240000D02*
X648373D01*
X655162Y224000D02*
X795000D01*
X654440Y218000D02*
X795000D01*
X656000Y217193D02*
Y224677D01*
X657597Y216000D02*
X795000D01*
X658586Y200000D02*
X795000D01*
X656302Y198000D02*
X795000D01*
X658000Y215622D02*
Y227350D01*
Y168207D02*
Y199378D01*
X503762Y222000D02*
X795000D01*
X503762Y220000D02*
X795000D01*
X652000Y218723D02*
Y222578D01*
X654000Y218175D02*
Y223300D01*
X656000Y168368D02*
Y197807D01*
X653031Y168368D02*
X656968D01*
X654000D02*
Y196825D01*
X652000Y168207D02*
Y196277D01*
X658500Y168000D02*
X671499D01*
X577876Y188000D02*
X795000D01*
X579034Y186000D02*
X795000D01*
X503187Y192000D02*
X795000D01*
X503762Y190000D02*
X795000D01*
X579034Y184000D02*
X795000D01*
X577876Y182000D02*
X795000D01*
X638500Y168000D02*
X651500D01*
X648000Y218723D02*
Y222578D01*
X650000Y218900D02*
Y222350D01*
X644000Y217193D02*
Y224677D01*
X646000Y218175D02*
Y223300D01*
X642000Y215622D02*
Y227350D01*
X503762Y218000D02*
X645560D01*
X545337Y214000D02*
X640635D01*
X545337Y212000D02*
X639526D01*
X545337Y210000D02*
X638877D01*
X545337Y208000D02*
X638611D01*
X545337Y206000D02*
X638699D01*
X614000Y168368D02*
Y243840D01*
X650000Y166469D02*
Y196100D01*
X640185Y166000D02*
X649815D01*
X640000Y166469D02*
Y202026D01*
X633032Y168368D02*
X636969D01*
X640185Y164000D02*
X649815D01*
X618501Y168000D02*
X631499D01*
X620185Y166000D02*
X629815D01*
X613031Y168368D02*
X616968D01*
X620185Y164000D02*
X629815D01*
X572000Y433643D02*
Y445000D01*
X574000Y431128D02*
Y445000D01*
X568000Y433643D02*
Y445000D01*
X570000Y434156D02*
Y445000D01*
X566000Y431128D02*
Y445000D01*
X562000Y413900D02*
Y445000D01*
X564000Y413900D02*
Y445000D01*
X541128Y434000D02*
X568872D01*
X544000Y441128D02*
Y445000D01*
X542000Y433643D02*
Y436357D01*
X543643Y432000D02*
X566357D01*
X544000Y431128D02*
Y438872D01*
X568000Y413900D02*
Y426357D01*
X560943Y413900D02*
X569058D01*
X544156Y430000D02*
X565844D01*
X566000Y413900D02*
Y428872D01*
X569058Y405785D02*
Y413900D01*
X560943Y405785D02*
X569058D01*
X560943D02*
Y413900D01*
X543643Y428000D02*
X566357D01*
X541128Y426000D02*
X568872D01*
X529992Y412000D02*
X560943D01*
X529992Y408000D02*
X560943D01*
X544000Y402687D02*
Y428872D01*
X531270Y406000D02*
X560943D01*
X542000Y403368D02*
Y426357D01*
X540000Y444156D02*
Y445000D01*
X542000Y443643D02*
Y445000D01*
X536000Y441128D02*
Y445000D01*
X538000Y443643D02*
Y445000D01*
Y433643D02*
Y436357D01*
X540000Y434156D02*
Y435844D01*
X536000Y431128D02*
Y438872D01*
X538000Y403368D02*
Y426357D01*
X530000Y427993D02*
Y445000D01*
X529992Y428000D02*
X536357D01*
X526000Y428900D02*
Y445000D01*
X528000Y428868D02*
Y445000D01*
X536000Y402687D02*
Y428872D01*
X531270Y426000D02*
X538872D01*
X530000Y417993D02*
Y422007D01*
Y407993D02*
Y412007D01*
X528000Y418868D02*
Y421132D01*
Y408868D02*
Y411132D01*
X540000Y403369D02*
Y425844D01*
X538031Y403369D02*
X541968D01*
X529992Y402000D02*
X535321D01*
X526000Y418900D02*
Y421100D01*
Y408900D02*
Y411100D01*
X606000Y361598D02*
Y445000D01*
X608000Y361324D02*
Y445000D01*
X602000Y360748D02*
Y445000D01*
X604000Y361416D02*
Y445000D01*
X610000Y360547D02*
Y445000D01*
X612000Y359085D02*
Y445000D01*
X598000Y356986D02*
Y445000D01*
X600000Y359451D02*
Y445000D01*
X592000Y343273D02*
Y445000D01*
X594000Y342683D02*
Y445000D01*
X588000Y343042D02*
Y445000D01*
X590000Y343386D02*
Y445000D01*
X586000Y342179D02*
Y445000D01*
X596000Y341497D02*
Y445000D01*
X584000Y340580D02*
Y445000D01*
X580000Y320298D02*
Y445000D01*
X582000Y337138D02*
Y445000D01*
X576000Y317986D02*
Y445000D01*
X578000Y319492D02*
Y445000D01*
X574000Y314913D02*
Y428872D01*
X572000Y187876D02*
Y426357D01*
X570000Y166469D02*
Y425844D01*
X564000Y394090D02*
Y405785D01*
X566000Y394090D02*
Y405785D01*
X562000Y392889D02*
Y405785D01*
X545185Y394000D02*
X563697D01*
X568000Y392889D02*
Y405785D01*
X554000Y168368D02*
Y445000D01*
X556000Y168368D02*
Y445000D01*
X546000Y189034D02*
Y445000D01*
X548000Y187876D02*
Y445000D01*
X558000Y168207D02*
Y445000D01*
X560000Y166469D02*
Y445000D01*
X550000Y166469D02*
Y445000D01*
X552000Y168207D02*
Y445000D01*
X530000Y397993D02*
Y402007D01*
X528000Y398868D02*
Y401132D01*
X534000Y168368D02*
Y445000D01*
X532000Y168207D02*
Y445000D01*
X531270Y396000D02*
X534815D01*
X544679Y392000D02*
X561385D01*
X529992Y398000D02*
X535321D01*
X529992Y392000D02*
X535321D01*
X531270Y394000D02*
X534815D01*
X530000Y166469D02*
Y392007D01*
X528000Y302876D02*
Y391132D01*
X513643Y442000D02*
X536357D01*
X514156Y440000D02*
X535844D01*
X514000Y441128D02*
Y445000D01*
X522500Y428900D02*
X527500D01*
X524000D02*
Y445000D01*
X520000Y427993D02*
Y445000D01*
X522000Y428868D02*
Y445000D01*
X511128Y444000D02*
X538872D01*
X511128Y436000D02*
X538872D01*
X512000Y443643D02*
Y445000D01*
X513643Y438000D02*
X536357D01*
X501400Y428000D02*
X520008D01*
X501400Y426000D02*
X518730D01*
X522500Y421100D02*
X527500D01*
X522500Y418900D02*
X527500D01*
X522000Y418868D02*
Y421132D01*
X524000Y418900D02*
Y421100D01*
X522500Y411100D02*
X527500D01*
X522500Y408900D02*
X527500D01*
X520000Y417993D02*
Y422007D01*
X501400Y422000D02*
X520008D01*
X499992Y418000D02*
X520008D01*
X501400Y424000D02*
X518730D01*
X501270Y416000D02*
X518730D01*
X499992Y412000D02*
X520008D01*
X501270Y414000D02*
X518730D01*
X508000Y443643D02*
Y445000D01*
X510000Y444156D02*
Y445000D01*
X500000Y428900D02*
Y445000D01*
X506000Y441128D02*
Y445000D01*
X498000Y428900D02*
Y445000D01*
X501400Y421100D02*
Y428900D01*
X496000D02*
Y445000D01*
X494000Y428900D02*
Y445000D01*
X488600Y428900D02*
X501400D01*
X490000D02*
Y445000D01*
X492000Y428900D02*
Y445000D01*
X488600Y421100D02*
Y428900D01*
X498000Y418868D02*
Y421100D01*
X500000Y417993D02*
Y421100D01*
X496000Y418900D02*
Y421100D01*
X494000Y408900D02*
Y411100D01*
X488600Y421100D02*
X501400D01*
X492500Y418900D02*
X497500D01*
X492000Y418868D02*
Y421100D01*
X494000Y418900D02*
Y421100D01*
X492500Y411100D02*
X497500D01*
X490000Y417993D02*
Y421100D01*
X524000Y408900D02*
Y411100D01*
X520000Y407993D02*
Y412007D01*
X522000Y408868D02*
Y411132D01*
X516000Y168368D02*
Y445000D01*
X518000Y168207D02*
Y445000D01*
X514000Y168368D02*
Y438872D01*
X512000Y378762D02*
Y436357D01*
X499992Y408000D02*
X520008D01*
X501270Y406000D02*
X518730D01*
X501270Y404000D02*
X518730D01*
X508000Y378762D02*
Y436357D01*
X510000Y378762D02*
Y435844D01*
X502000Y378187D02*
Y445000D01*
X522500Y401100D02*
X527500D01*
X522500Y398900D02*
X527500D01*
X524000D02*
Y401100D01*
X526000Y398900D02*
Y401100D01*
X522000Y398868D02*
Y401132D01*
Y302876D02*
Y391132D01*
X520000Y166469D02*
Y392007D01*
X499992Y402000D02*
X520008D01*
X499992Y398000D02*
X520008D01*
X520000Y397993D02*
Y402007D01*
X501270Y396000D02*
X518730D01*
X499992Y392000D02*
X520008D01*
X501270Y394000D02*
X518730D01*
X498000Y408868D02*
Y411132D01*
X492500Y408900D02*
X497500D01*
X492000Y408868D02*
Y411132D01*
X496000Y408900D02*
Y411100D01*
X500000Y407993D02*
Y412007D01*
X490000Y407993D02*
Y412007D01*
X478000Y302876D02*
Y445000D01*
X488000Y378187D02*
Y445000D01*
X474000Y304034D02*
Y445000D01*
X476000Y304034D02*
Y445000D01*
X472000Y302876D02*
Y445000D01*
X480000Y166469D02*
Y445000D01*
X470000Y166469D02*
Y445000D01*
X500000Y397993D02*
Y402007D01*
X498000Y398868D02*
Y401132D01*
X494000Y398900D02*
Y401100D01*
X496000Y398900D02*
Y401100D01*
X500000Y378762D02*
Y392007D01*
X492500Y401100D02*
X497500D01*
X492500Y398900D02*
X497500D01*
X490000Y397993D02*
Y402007D01*
X492000Y398868D02*
Y401132D01*
Y378187D02*
Y391132D01*
X490000Y378762D02*
Y392007D01*
X604000Y256016D02*
Y343984D01*
X606000Y256198D02*
Y343802D01*
X598000Y339292D02*
Y348414D01*
Y270292D02*
Y329708D01*
X610000Y255147D02*
Y344853D01*
X608000Y255924D02*
Y344076D01*
X600000Y254051D02*
Y345949D01*
X602000Y255348D02*
Y344652D01*
X541128Y344000D02*
X603924D01*
X543643Y342000D02*
X585708D01*
X584000Y320436D02*
Y328420D01*
X596000Y272497D02*
Y327503D01*
X594000Y273683D02*
Y326317D01*
X586000Y319794D02*
Y326821D01*
X590000Y316163D02*
Y325614D01*
Y292763D02*
Y307237D01*
X588000Y318535D02*
Y325958D01*
Y295135D02*
Y304865D01*
X592000Y274273D02*
Y325727D01*
X590000Y274386D02*
Y283837D01*
X588000Y274042D02*
Y281465D01*
X586000Y296394D02*
Y303606D01*
X584000Y297036D02*
Y302964D01*
X586000Y273179D02*
Y280206D01*
X584000Y271580D02*
Y279564D01*
X545337Y390000D02*
X560946D01*
X544679Y388000D02*
X561564D01*
X544000Y371128D02*
Y387313D01*
Y341128D02*
Y368872D01*
X542000Y343643D02*
Y366357D01*
X538031Y386631D02*
X541968D01*
X542000Y373643D02*
Y386632D01*
X540000Y374156D02*
Y386631D01*
Y344156D02*
Y365844D01*
X582000Y320595D02*
Y331862D01*
Y297195D02*
Y302805D01*
X578000Y296092D02*
Y303908D01*
X580000Y296898D02*
Y303102D01*
X576000Y294586D02*
Y305414D01*
X582000Y268138D02*
Y279405D01*
X574000Y291512D02*
Y308488D01*
X544156Y340000D02*
X583503D01*
X543643Y338000D02*
X582317D01*
X541128Y336000D02*
X581727D01*
X540000Y255928D02*
Y335844D01*
X544000Y254124D02*
Y338872D01*
X542000Y255539D02*
Y336357D01*
X538000Y255539D02*
Y336357D01*
X598000Y251586D02*
Y260708D01*
X612000Y168207D02*
Y240915D01*
X596000Y168368D02*
Y258503D01*
X594000Y168368D02*
Y257317D01*
X598000Y168207D02*
Y243014D01*
X600000Y166469D02*
Y240549D01*
X592000Y168207D02*
Y256727D01*
X590000Y166469D02*
Y256614D01*
X544106Y254000D02*
X599942D01*
X545148Y252000D02*
X598242D01*
X545304Y250000D02*
X597319D01*
X544666Y248000D02*
X596928D01*
X580000Y166469D02*
Y279702D01*
X542722Y246000D02*
X596995D01*
X578000Y187876D02*
Y280508D01*
X610000Y166469D02*
Y239453D01*
X598500Y168000D02*
X611500D01*
X593032Y168368D02*
X596969D01*
X600185Y166000D02*
X609815D01*
X600185Y164000D02*
X609815D01*
X578501Y168000D02*
X591500D01*
X580185Y166000D02*
X589815D01*
X578000Y168207D02*
Y182124D01*
X580185Y164000D02*
X589815D01*
X574000Y189034D02*
Y285087D01*
X576000Y189034D02*
Y282014D01*
X544000Y214746D02*
Y247057D01*
X545337Y204072D02*
Y214746D01*
X547876Y188000D02*
X572124D01*
X572000Y168207D02*
Y182124D01*
X549034Y186000D02*
X570966D01*
X549034Y184000D02*
X570966D01*
X542000Y214746D02*
Y245642D01*
X544000Y189034D02*
Y204072D01*
X540000Y214746D02*
Y245253D01*
X542000Y187876D02*
Y204072D01*
X540000Y166469D02*
Y204072D01*
X538000Y168207D02*
Y204072D01*
X576000Y168368D02*
Y180966D01*
X573032Y168368D02*
X576968D01*
X574000D02*
Y180966D01*
X558500Y168000D02*
X571499D01*
X560185Y166000D02*
X569815D01*
X560185Y164000D02*
X569815D01*
X547876Y182000D02*
X572124D01*
X553031Y168368D02*
X556968D01*
X538500Y168000D02*
X551500D01*
X540185Y166000D02*
X549815D01*
X540185Y164000D02*
X549815D01*
X536000Y371128D02*
Y387313D01*
X538000Y373643D02*
Y386632D01*
Y343643D02*
Y366357D01*
X536000Y341128D02*
Y368872D01*
Y254124D02*
Y338872D01*
X513762Y374000D02*
X538872D01*
X513762Y372000D02*
X536357D01*
X522500Y391100D02*
X527500D01*
X506238Y378762D02*
X513762D01*
X526000Y304034D02*
Y391100D01*
X465337Y360000D02*
X600709D01*
X524000Y304034D02*
Y391100D01*
X526128Y304000D02*
X577837D01*
X526128Y296000D02*
X577837D01*
X479156Y300000D02*
X520844D01*
X478643Y298000D02*
X521357D01*
X479156Y280000D02*
X579087D01*
X479156Y250000D02*
X534696D01*
X476128Y304000D02*
X523872D01*
X476128Y284000D02*
X574508D01*
X478643Y302000D02*
X521357D01*
X476128Y296000D02*
X523872D01*
X478643Y282000D02*
X576014D01*
X476128Y254000D02*
X535894D01*
X478643Y252000D02*
X534853D01*
X502270Y378000D02*
X506238D01*
X503627Y376000D02*
X506238D01*
X513762Y371238D02*
Y378762D01*
X503627Y374000D02*
X506238D01*
Y371238D02*
Y378762D01*
X498000Y378187D02*
Y391132D01*
X492270Y378000D02*
X497730D01*
X492500Y391100D02*
X497500D01*
X493627Y376000D02*
X496373D01*
X502270Y372000D02*
X506238D01*
Y371238D02*
X513762D01*
X493627Y374000D02*
X496373D01*
X492270Y372000D02*
X497730D01*
X478000Y282876D02*
Y297124D01*
Y252876D02*
Y277124D01*
X476000Y284034D02*
Y295966D01*
X472000Y282876D02*
Y297124D01*
X474000Y284034D02*
Y295966D01*
Y254034D02*
Y275966D01*
X476000Y254034D02*
Y275966D01*
X472000Y252876D02*
Y277124D01*
X534663Y214746D02*
X545337D01*
X536000D02*
Y247057D01*
X538000Y214746D02*
Y245642D01*
X536000Y168368D02*
Y204072D01*
X534663D02*
X545337D01*
X512000Y168207D02*
Y371238D01*
X534663Y204072D02*
Y214746D01*
X478643Y248000D02*
X535334D01*
X476128Y246000D02*
X537278D01*
X502000Y223762D02*
Y371813D01*
X496238Y223762D02*
X503762D01*
X510000Y166469D02*
Y371238D01*
X496238Y216238D02*
X503762D01*
Y223762D01*
X533032Y168368D02*
X536969D01*
X518501Y168000D02*
X531499D01*
X520185Y166000D02*
X529815D01*
X520185Y164000D02*
X529815D01*
X503187Y188000D02*
X542124D01*
X513031Y168368D02*
X516968D01*
X498500Y168000D02*
X511500D01*
X500185Y166000D02*
X509815D01*
X500185Y164000D02*
X509815D01*
X500000Y223762D02*
Y371238D01*
Y193762D02*
Y216238D01*
X498000Y223762D02*
Y371813D01*
X496238Y216238D02*
Y223762D01*
X496000Y168368D02*
Y391100D01*
X498000Y193187D02*
Y216238D01*
X494000Y168368D02*
Y391100D01*
X492000Y168207D02*
Y371813D01*
X474000Y168368D02*
Y245966D01*
X476000Y168368D02*
Y245966D01*
X490000Y166469D02*
Y371238D01*
X478000Y168207D02*
Y247124D01*
X472000Y168207D02*
Y247124D01*
X502000Y193187D02*
Y216238D01*
X498000Y168207D02*
Y186813D01*
X500000Y166469D02*
Y186238D01*
X493032Y168368D02*
X496969D01*
X473032D02*
X476968D01*
X478501Y168000D02*
X491500D01*
X480185Y166000D02*
X489815D01*
X480185Y164000D02*
X489815D01*
X699679Y162000D02*
X795000D01*
X700337Y160000D02*
X795000D01*
X700000Y161469D02*
Y163531D01*
X699679Y158000D02*
X795000D01*
X700000Y156469D02*
Y158531D01*
X679679Y162000D02*
X690321D01*
X690000Y161469D02*
Y163531D01*
X679679Y158000D02*
X690321D01*
X690000Y156469D02*
Y158531D01*
X680185Y156000D02*
X689815D01*
X700185D02*
X795000D01*
X700185Y154000D02*
X795000D01*
X698500Y152000D02*
X795000D01*
X693032Y151631D02*
X696969D01*
X686717Y144000D02*
X795000D01*
X680185Y154000D02*
X689815D01*
X678500Y152000D02*
X691500D01*
X689353Y140000D02*
X795000D01*
X688866Y138000D02*
X795000D01*
X688866Y142000D02*
X795000D01*
X680337Y160000D02*
X689663D01*
X680000Y161469D02*
Y163531D01*
Y156469D02*
Y158531D01*
X686000Y144236D02*
Y244340D01*
X688000Y143154D02*
Y241415D01*
X684000Y144236D02*
Y445000D01*
X682000Y143154D02*
Y234170D01*
X670000Y161469D02*
Y163531D01*
Y156469D02*
Y158531D01*
X676717Y144000D02*
X683284D01*
X678000Y143154D02*
Y151793D01*
X676000Y144236D02*
Y151631D01*
X678866Y142000D02*
X681134D01*
X678866Y138000D02*
X681134D01*
X679353Y140000D02*
X680647D01*
X673032Y151631D02*
X676968D01*
X674000Y144236D02*
Y151631D01*
X672000Y143154D02*
Y151793D01*
X776000Y55000D02*
Y445000D01*
X778000Y55000D02*
Y445000D01*
X772000Y55000D02*
Y445000D01*
X774000Y55000D02*
Y445000D01*
X784000Y55000D02*
Y445000D01*
X795000Y55000D02*
Y445000D01*
X780000Y55000D02*
Y445000D01*
X782000Y55000D02*
Y445000D01*
X750000Y55000D02*
Y445000D01*
X764000Y55000D02*
Y445000D01*
X746000Y55000D02*
Y445000D01*
X748000Y55000D02*
Y445000D01*
X768000Y55000D02*
Y445000D01*
X770000Y55000D02*
Y445000D01*
X766000Y55000D02*
Y445000D01*
X794000Y101716D02*
Y428284D01*
X792000Y103866D02*
Y426134D01*
X788000Y103866D02*
Y426134D01*
X790000Y104353D02*
Y425647D01*
X762000Y55000D02*
Y445000D01*
X786000Y101716D02*
Y428284D01*
X760000Y55000D02*
Y445000D01*
X744000Y55000D02*
Y445000D01*
X752000Y55000D02*
Y445000D01*
X740000Y55000D02*
Y445000D01*
X742000Y55000D02*
Y445000D01*
X756000Y55000D02*
Y445000D01*
X758000Y55000D02*
Y445000D01*
X754000Y55000D02*
Y445000D01*
X728000Y55000D02*
Y445000D01*
X730000Y55000D02*
Y445000D01*
X726000Y55000D02*
Y285087D01*
X724000Y55000D02*
Y282014D01*
X736000Y55000D02*
Y445000D01*
X738000Y55000D02*
Y445000D01*
X732000Y55000D02*
Y445000D01*
X734000Y55000D02*
Y445000D01*
X716000Y55000D02*
Y259420D01*
X714000Y55000D02*
Y257821D01*
X704000Y55000D02*
Y258503D01*
X706000Y55000D02*
Y257317D01*
X722000Y55000D02*
Y280508D01*
X720000Y55000D02*
Y279702D01*
X718000Y55000D02*
Y262862D01*
X702000Y55000D02*
Y243514D01*
X700000Y55000D02*
Y153531D01*
X698000Y55000D02*
Y151793D01*
X696000Y55000D02*
Y151631D01*
X712000Y55000D02*
Y256958D01*
X710000Y55000D02*
Y256614D01*
X708000Y55000D02*
Y256727D01*
X692000Y55000D02*
Y151793D01*
X694000Y55000D02*
Y151631D01*
X680000Y55000D02*
Y153531D01*
X690000Y55000D02*
Y153531D01*
X670000Y55000D02*
Y153531D01*
X659679Y162000D02*
X670321D01*
X650000Y161469D02*
Y163531D01*
X660000Y161469D02*
Y163531D01*
X660337Y160000D02*
X669663D01*
X659679Y158000D02*
X670321D01*
X660000Y156469D02*
Y158531D01*
X639679Y162000D02*
X650321D01*
X640337Y160000D02*
X649663D01*
X650000Y156469D02*
Y158531D01*
X660185Y156000D02*
X669815D01*
X660185Y154000D02*
X669815D01*
X658500Y152000D02*
X671500D01*
X639679Y158000D02*
X650321D01*
X640185Y156000D02*
X649815D01*
X638500Y152000D02*
X651500D01*
X640185Y154000D02*
X649815D01*
X640000Y161469D02*
Y163531D01*
X630000Y161469D02*
Y163531D01*
X620337Y160000D02*
X629663D01*
X640000Y156469D02*
Y158531D01*
X620000Y156469D02*
Y158531D01*
X630000Y156469D02*
Y158531D01*
X619679Y162000D02*
X630321D01*
X620000Y161469D02*
Y163531D01*
X619679Y158000D02*
X630321D01*
X620185Y156000D02*
X629815D01*
X620185Y154000D02*
X629815D01*
X618500Y152000D02*
X631500D01*
X598500D02*
X611500D01*
X613031Y151631D02*
X616968D01*
X664000Y144236D02*
Y445000D01*
X666000Y144236D02*
Y230268D01*
X654000Y144236D02*
Y151631D01*
X656000Y144236D02*
Y151631D01*
X662000Y143154D02*
Y445000D01*
X668000Y143154D02*
Y228277D01*
X660000Y55000D02*
Y153531D01*
X658000Y143154D02*
Y151793D01*
X652000Y143154D02*
Y151793D01*
X653031Y151631D02*
X656968D01*
X644000Y144236D02*
Y197807D01*
X646000Y144236D02*
Y196825D01*
X648000Y143154D02*
Y196277D01*
X650000Y55000D02*
Y153531D01*
X642000Y143154D02*
Y199378D01*
X666716Y144000D02*
X673283D01*
X668866Y142000D02*
X671134D01*
X656716Y144000D02*
X663283D01*
X658866Y142000D02*
X661134D01*
X669353Y140000D02*
X670647D01*
X659353D02*
X660647D01*
X646716Y144000D02*
X653284D01*
X648866Y142000D02*
X651134D01*
X636717Y144000D02*
X643284D01*
X649353Y140000D02*
X650647D01*
X648866Y138000D02*
X651134D01*
X638000Y143154D02*
Y151793D01*
X636000Y144236D02*
Y151631D01*
X626000Y144236D02*
Y355614D01*
X634000Y144236D02*
Y151631D01*
X640000Y55000D02*
Y153531D01*
X632000Y143154D02*
Y151793D01*
X628000Y143154D02*
Y355727D01*
X630000Y55000D02*
Y153531D01*
X622000Y143154D02*
Y356821D01*
X624000Y144236D02*
Y355958D01*
X614000Y144236D02*
Y151631D01*
X616000Y144236D02*
Y151631D01*
X620000Y55000D02*
Y153531D01*
X618000Y143154D02*
Y151793D01*
X612000Y143154D02*
Y151793D01*
X633032Y151631D02*
X636969D01*
X638866Y142000D02*
X641134D01*
X626717Y144000D02*
X633284D01*
X628866Y142000D02*
X631134D01*
X639353Y140000D02*
X640647D01*
X629353D02*
X630647D01*
X616716Y144000D02*
X623283D01*
X618866Y142000D02*
X621134D01*
X601717Y144000D02*
X613283D01*
X619353Y140000D02*
X620647D01*
X686717Y114000D02*
X795000D01*
X688866Y112000D02*
X795000D01*
X688000Y113154D02*
Y136846D01*
X689353Y110000D02*
X795000D01*
X688866Y108000D02*
X795000D01*
X686717Y106000D02*
X795000D01*
X686717Y136000D02*
X795000D01*
X686000Y114236D02*
Y135764D01*
X793866Y98000D02*
X795000D01*
X791716Y96000D02*
X795000D01*
X793866Y102000D02*
X795000D01*
X794353Y100000D02*
X795000D01*
X794000Y91716D02*
Y98283D01*
X793866Y92000D02*
X795000D01*
X792000Y93866D02*
Y96134D01*
X791716Y104000D02*
X795000D01*
X790000Y94353D02*
Y95647D01*
X791716Y94000D02*
X795000D01*
X788000Y93866D02*
Y96134D01*
X676717Y136000D02*
X683284D01*
X684000Y114236D02*
Y135764D01*
X668866Y138000D02*
X671134D01*
X676000Y114236D02*
Y135764D01*
X678000Y113154D02*
Y136846D01*
X682000Y113154D02*
Y136846D01*
X672000Y113154D02*
Y136846D01*
X674000Y114236D02*
Y135764D01*
X666716Y136000D02*
X673283D01*
X666000Y114236D02*
Y135764D01*
X658866Y138000D02*
X661134D01*
X664000Y114236D02*
Y135764D01*
X668000Y113154D02*
Y136846D01*
X662000Y113154D02*
Y136846D01*
X676717Y114000D02*
X683284D01*
X678866Y112000D02*
X681134D01*
X669353Y110000D02*
X670647D01*
X679353D02*
X680647D01*
X678866Y108000D02*
X681134D01*
X676717Y106000D02*
X683284D01*
X666716Y114000D02*
X673283D01*
X668866Y112000D02*
X671134D01*
X658866D02*
X661134D01*
X659353Y110000D02*
X660647D01*
X668866Y108000D02*
X671134D01*
X666716Y106000D02*
X673283D01*
X658866Y108000D02*
X661134D01*
X794353Y90000D02*
X795000D01*
X793866Y88000D02*
X795000D01*
X794000Y81717D02*
Y88283D01*
X793866Y82000D02*
X795000D01*
X794353Y80000D02*
X795000D01*
X793866Y78000D02*
X795000D01*
X794000Y71716D02*
Y78284D01*
X793866Y72000D02*
X795000D01*
X791716Y86000D02*
X795000D01*
X791716Y84000D02*
X795000D01*
X791716Y76000D02*
X795000D01*
X791716Y74000D02*
X795000D01*
X794353Y62000D02*
X795000D01*
X794353Y60000D02*
X795000D01*
X794353Y70000D02*
X795000D01*
X794353Y64000D02*
X795000D01*
X794353Y58000D02*
X795000D01*
X794353Y56000D02*
X795000D01*
X794353Y55647D02*
Y64353D01*
X793866Y68000D02*
X795000D01*
X791716Y66000D02*
X795000D01*
X794000Y64353D02*
Y68283D01*
X792000Y64353D02*
Y66134D01*
X785647Y64353D02*
X794353D01*
X785647Y55647D02*
X794353D01*
X794000Y55000D02*
Y55647D01*
X786000Y91716D02*
Y98283D01*
X788000Y83866D02*
Y86134D01*
X688000Y55000D02*
Y106846D01*
X786000Y81717D02*
Y88283D01*
X684000Y55000D02*
Y105764D01*
X686000Y55000D02*
Y105764D01*
X678000Y55000D02*
Y106846D01*
X682000Y55000D02*
Y106846D01*
X668000Y55000D02*
Y106846D01*
X666000Y55000D02*
Y105764D01*
X662000Y55000D02*
Y106846D01*
X664000Y55000D02*
Y105764D01*
X674000Y55000D02*
Y105764D01*
X676000Y55000D02*
Y105764D01*
X672000Y55000D02*
Y106846D01*
X792000Y83866D02*
Y86134D01*
Y73866D02*
Y76134D01*
X790000Y84353D02*
Y85647D01*
Y74353D02*
Y75647D01*
Y55000D02*
Y55647D01*
X792000Y55000D02*
Y55647D01*
X790000Y64353D02*
Y65647D01*
X788000Y73866D02*
Y76134D01*
Y64353D02*
Y66134D01*
X786000Y71716D02*
Y78284D01*
Y64353D02*
Y68283D01*
Y55000D02*
Y55647D01*
X788000Y55000D02*
Y55647D01*
X785647D02*
Y64353D01*
X656716Y136000D02*
X663283D01*
X656000Y114236D02*
Y135764D01*
X646716Y136000D02*
X653284D01*
X654000Y114236D02*
Y135764D01*
X652000Y113154D02*
Y136846D01*
X658000Y113154D02*
Y136846D01*
X648000Y113154D02*
Y136846D01*
X646000Y114236D02*
Y135764D01*
X611101Y132000D02*
X795000D01*
X610900Y130000D02*
X795000D01*
X636717Y136000D02*
X643284D01*
X613101Y134000D02*
X795000D01*
X644000Y114236D02*
Y135764D01*
X610900Y128000D02*
X795000D01*
X642000Y113154D02*
Y136846D01*
X646716Y114000D02*
X653284D01*
X656716D02*
X663283D01*
X648866Y112000D02*
X651134D01*
X649353Y110000D02*
X650647D01*
X648866Y108000D02*
X651134D01*
X656716Y106000D02*
X663283D01*
X638866Y108000D02*
X641134D01*
X610900Y122000D02*
X795000D01*
X610900Y120000D02*
X795000D01*
X610900Y126000D02*
X795000D01*
X610900Y124000D02*
X795000D01*
X610900Y118000D02*
X795000D01*
X610900Y116000D02*
X795000D01*
X636717Y114000D02*
X643284D01*
X638866Y138000D02*
X641134D01*
X636000Y114236D02*
Y135764D01*
X628866Y138000D02*
X631134D01*
X626717Y136000D02*
X633284D01*
X638000Y113154D02*
Y136846D01*
X634000Y114236D02*
Y135764D01*
X628000Y113154D02*
Y136846D01*
X632000Y113154D02*
Y136846D01*
X618866Y138000D02*
X621134D01*
X616716Y136000D02*
X623283D01*
X618000Y114353D02*
Y136846D01*
X616000Y114353D02*
Y135764D01*
X624000Y114236D02*
Y135764D01*
X626000Y114236D02*
Y135764D01*
X622000Y113154D02*
Y136846D01*
X626717Y114000D02*
X633284D01*
X638866Y112000D02*
X641134D01*
X619353Y114000D02*
X623283D01*
X628866Y112000D02*
X631134D01*
X639353Y110000D02*
X640647D01*
X628866Y108000D02*
X631134D01*
X629353Y110000D02*
X630647D01*
X610900Y131799D02*
X614755Y135654D01*
X610900Y114353D02*
X619353D01*
X614000D02*
Y134899D01*
X612000Y114353D02*
Y132899D01*
X619353Y112000D02*
X621134D01*
X619353Y108000D02*
X621134D01*
X619353Y110000D02*
X620647D01*
X610900Y104000D02*
X788283D01*
X610900Y102000D02*
X786134D01*
X610900Y100000D02*
X785647D01*
X658000Y55000D02*
Y106846D01*
X610900Y98000D02*
X786134D01*
X654000Y55000D02*
Y105764D01*
X656000Y55000D02*
Y105764D01*
X610900Y96000D02*
X788283D01*
X610900Y94000D02*
X788283D01*
X610900Y92000D02*
X786134D01*
X610900Y90000D02*
X785647D01*
X610900Y86000D02*
X788283D01*
X610900Y84000D02*
X788283D01*
X610900Y88000D02*
X786134D01*
X610900Y76000D02*
X788283D01*
X610900Y74000D02*
X788283D01*
X610900Y82000D02*
X786134D01*
X610900Y78000D02*
X786134D01*
X612400Y60000D02*
X785647D01*
X611919Y58000D02*
X785647D01*
X611919Y62000D02*
X785647D01*
X610900Y72000D02*
X786134D01*
X610900Y68000D02*
X786134D01*
X610900Y80000D02*
X785647D01*
X610900Y70000D02*
X785647D01*
X610900Y66000D02*
X788283D01*
X610900Y64000D02*
X785647D01*
X609833Y56000D02*
X785647D01*
X652000Y55000D02*
Y106846D01*
X646716Y106000D02*
X653284D01*
X636717D02*
X643284D01*
X642000Y55000D02*
Y106846D01*
X648000Y55000D02*
Y106846D01*
X632000Y55000D02*
Y106846D01*
X638000Y55000D02*
Y106846D01*
X626717Y106000D02*
X633284D01*
X619353Y105647D02*
Y114353D01*
Y106000D02*
X623283D01*
X628000Y55000D02*
Y106846D01*
X622000Y55000D02*
Y106846D01*
X626000Y55000D02*
Y105764D01*
X634000Y55000D02*
Y105764D01*
X624000Y55000D02*
Y105764D01*
X618000Y55000D02*
Y105647D01*
X644000Y55000D02*
Y105764D01*
X646000Y55000D02*
Y105764D01*
X636000Y55000D02*
Y105764D01*
X610900Y105647D02*
X619353D01*
X612000Y61833D02*
Y105647D01*
X614000Y55000D02*
Y105647D01*
X616000Y55000D02*
Y105647D01*
X612000Y55000D02*
Y58167D01*
X610000Y161469D02*
Y163531D01*
X599679Y162000D02*
X610321D01*
X600000Y161469D02*
Y163531D01*
X600337Y160000D02*
X609663D01*
X610000Y156469D02*
Y158531D01*
X579679Y162000D02*
X590321D01*
X590000Y161469D02*
Y163531D01*
X580337Y160000D02*
X589663D01*
X599679Y158000D02*
X610321D01*
X600185Y156000D02*
X609815D01*
X590000Y156469D02*
Y158531D01*
X600000Y156469D02*
Y158531D01*
X600185Y154000D02*
X609815D01*
X579679Y158000D02*
X590321D01*
X580185Y156000D02*
X589815D01*
X580000Y156469D02*
Y158531D01*
X580185Y154000D02*
X589815D01*
X580000Y161469D02*
Y163531D01*
X570000Y161469D02*
Y163531D01*
X559679Y162000D02*
X570321D01*
X560337Y160000D02*
X569663D01*
X560000Y161469D02*
Y163531D01*
X539679Y162000D02*
X550321D01*
X540000Y161469D02*
Y163531D01*
X550000Y161469D02*
Y163531D01*
X540337Y160000D02*
X549663D01*
X570000Y156469D02*
Y158531D01*
X559679Y158000D02*
X570321D01*
X560000Y156469D02*
Y158531D01*
X560185Y156000D02*
X569815D01*
X560185Y154000D02*
X569815D01*
X550000Y156469D02*
Y158531D01*
X539679Y158000D02*
X550321D01*
X540000Y156469D02*
Y158531D01*
X540185Y156000D02*
X549815D01*
X600000Y144353D02*
Y153531D01*
X590000Y144353D02*
Y153531D01*
X608000Y137101D02*
Y238676D01*
X606000Y135101D02*
Y238402D01*
X602000Y143866D02*
Y239252D01*
X604000Y141717D02*
Y238584D01*
X588000Y143866D02*
Y256958D01*
X580000Y144353D02*
Y153531D01*
X584000Y141717D02*
Y259420D01*
X586000Y141717D02*
Y257821D01*
X582000Y143866D02*
Y262862D01*
X598000Y143866D02*
Y151793D01*
X593032Y151631D02*
X596969D01*
X592000Y143866D02*
Y151793D01*
X596000Y141717D02*
Y151631D01*
X610000Y139101D02*
Y153531D01*
X594000Y141717D02*
Y151631D01*
X578500Y152000D02*
X591500D01*
X571716Y144000D02*
X578284D01*
X578000Y143866D02*
Y151793D01*
X573032Y151631D02*
X576968D01*
X576000Y141717D02*
Y151631D01*
X568000Y143866D02*
Y387426D01*
X566000Y141717D02*
Y386225D01*
X562000Y143866D02*
Y387426D01*
X564000Y141717D02*
Y386225D01*
X540185Y154000D02*
X549815D01*
X548000Y143866D02*
Y182124D01*
X540000Y144353D02*
Y153531D01*
X544000Y141717D02*
Y180966D01*
X546000Y141717D02*
Y180966D01*
X542000Y143866D02*
Y182124D01*
X570000Y144353D02*
Y153531D01*
X558500Y152000D02*
X571500D01*
X560000Y144353D02*
Y153531D01*
X558000Y143866D02*
Y151793D01*
X574000Y141717D02*
Y151631D01*
X572000Y143866D02*
Y151793D01*
X556000Y141717D02*
Y151631D01*
X553031D02*
X556968D01*
X550000Y144353D02*
Y153531D01*
X552000Y143866D02*
Y151793D01*
X554000Y141717D02*
Y151631D01*
X520000Y161469D02*
Y163531D01*
X530000Y161469D02*
Y163531D01*
X520337Y160000D02*
X529663D01*
X520000Y156469D02*
Y158531D01*
X519679Y162000D02*
X530321D01*
X510000Y161469D02*
Y163531D01*
X499679Y162000D02*
X510321D01*
X530000Y156469D02*
Y158531D01*
X519679Y158000D02*
X530321D01*
X520185Y156000D02*
X529815D01*
X520185Y154000D02*
X529815D01*
X499679Y158000D02*
X510321D01*
X510000Y156469D02*
Y158531D01*
X500185Y156000D02*
X509815D01*
X498500Y152000D02*
X511500D01*
X500185Y154000D02*
X509815D01*
X500000Y161469D02*
Y163531D01*
X480000Y161469D02*
Y163531D01*
X490000Y161469D02*
Y163531D01*
X500337Y160000D02*
X509663D01*
X479679Y162000D02*
X490321D01*
X470000Y161469D02*
Y163531D01*
X500000Y156469D02*
Y158531D01*
X480337Y160000D02*
X489663D01*
X490000Y156469D02*
Y158531D01*
X480185Y154000D02*
X489815D01*
X479679Y158000D02*
X490321D01*
X480185Y156000D02*
X489815D01*
X470000Y156469D02*
Y158531D01*
X480000Y156469D02*
Y158531D01*
X530000Y144353D02*
Y153531D01*
X528000Y143866D02*
Y297124D01*
X526000Y141717D02*
Y295966D01*
X522000Y135101D02*
Y297124D01*
X524000Y137101D02*
Y295966D01*
X520000Y63219D02*
Y153531D01*
X508000Y55000D02*
Y371238D01*
X510000Y55000D02*
Y153531D01*
X506000Y55000D02*
Y438872D01*
X538500Y152000D02*
X551500D01*
X538000Y143866D02*
Y151793D01*
X532000Y143866D02*
Y151793D01*
X533032Y151631D02*
X536969D01*
X536000Y141717D02*
Y151631D01*
X534000Y141717D02*
Y151631D01*
X518500Y152000D02*
X531500D01*
X518000Y55000D02*
Y151793D01*
X513031Y151631D02*
X516968D01*
X514000Y55000D02*
Y151631D01*
X516000Y55000D02*
Y151631D01*
X512000Y55000D02*
Y151793D01*
X502000Y55000D02*
Y186813D01*
X504000Y55000D02*
Y445000D01*
X500000Y55000D02*
Y153531D01*
X486000Y55000D02*
Y445000D01*
X488000Y55000D02*
Y371813D01*
X482000Y55000D02*
Y445000D01*
X468000Y55000D02*
Y445000D01*
X484000Y55000D02*
Y445000D01*
X466000Y55000D02*
Y445000D01*
X498000Y55000D02*
Y151793D01*
X493032Y151631D02*
X496969D01*
X494000Y55000D02*
Y151631D01*
X496000Y55000D02*
Y151631D01*
X490000Y55000D02*
Y153531D01*
X492000Y55000D02*
Y151793D01*
X480000Y55000D02*
Y153531D01*
X478500Y152000D02*
X491500D01*
X478000Y55000D02*
Y151793D01*
X476000Y55000D02*
Y151631D01*
X473032D02*
X476968D01*
X472000Y55000D02*
Y151793D01*
X474000Y55000D02*
Y151631D01*
X470000Y55000D02*
Y153531D01*
X603866Y142000D02*
X611134D01*
X604353Y140000D02*
X610647D01*
X594353D02*
X595647D01*
X603866Y138000D02*
X608899D01*
X605949Y135051D02*
X610654Y139755D01*
X604000Y111716D02*
Y138284D01*
X596000Y111716D02*
Y138284D01*
X602000Y113866D02*
Y136134D01*
X591716Y144000D02*
X598283D01*
X593866Y142000D02*
X596134D01*
X581716Y144000D02*
X588283D01*
X593866Y138000D02*
X596134D01*
X594000Y111716D02*
Y138284D01*
X592000Y113866D02*
Y136134D01*
X588000Y113866D02*
Y136134D01*
X601717Y136000D02*
X606899D01*
X610900Y114353D02*
Y131799D01*
X601717Y114000D02*
X605100D01*
X603866Y112000D02*
X605100D01*
X600000Y114353D02*
Y135647D01*
X591716Y136000D02*
X598283D01*
X591716Y114000D02*
X598283D01*
X581716Y136000D02*
X588283D01*
X590000Y114353D02*
Y135647D01*
X598000Y113866D02*
Y136134D01*
X593866Y112000D02*
X596134D01*
X581716Y114000D02*
X588283D01*
X583866Y142000D02*
X586134D01*
X584353Y140000D02*
X585647D01*
X574353D02*
X575647D01*
X573866Y138000D02*
X576134D01*
X586000Y111716D02*
Y138284D01*
X583866Y138000D02*
X586134D01*
X584000Y111716D02*
Y138284D01*
X578000Y113866D02*
Y136134D01*
X561717Y144000D02*
X568284D01*
X573866Y142000D02*
X576134D01*
X563866D02*
X566134D01*
X564353Y140000D02*
X565647D01*
X566000Y111716D02*
Y138284D01*
X563866Y138000D02*
X566134D01*
X558000Y113866D02*
Y136134D01*
X582000Y113866D02*
Y136134D01*
X580000Y114353D02*
Y135647D01*
X571716Y136000D02*
X578284D01*
X571716Y114000D02*
X578284D01*
X573866Y112000D02*
X576134D01*
X583866D02*
X586134D01*
X572000Y113866D02*
Y136134D01*
X561717Y136000D02*
X568284D01*
X570000Y114353D02*
Y135647D01*
X560000Y114353D02*
Y135647D01*
X561717Y114000D02*
X568284D01*
X568000Y113866D02*
Y136134D01*
X563866Y112000D02*
X566134D01*
X562000Y113866D02*
Y136134D01*
X604353Y110000D02*
X605100D01*
X603866Y108000D02*
X605100D01*
Y63309D02*
Y133000D01*
X604000Y61833D02*
Y108283D01*
X596000Y55000D02*
Y108283D01*
X593866Y108000D02*
X596134D01*
X594353Y110000D02*
X595647D01*
X583866Y108000D02*
X586134D01*
X594000Y55000D02*
Y108283D01*
X610900Y63309D02*
Y105647D01*
X610000Y55000D02*
Y56081D01*
X601717Y106000D02*
X605100D01*
X608000Y55000D02*
Y55600D01*
X604000Y55000D02*
Y58167D01*
X606000Y55000D02*
Y56081D01*
X602000Y55000D02*
Y106134D01*
X591716Y106000D02*
X598283D01*
X600000Y55000D02*
Y105647D01*
X598000Y55000D02*
Y106134D01*
X581716Y106000D02*
X588283D01*
X592000Y55000D02*
Y106134D01*
X590000Y55000D02*
Y105647D01*
X588000Y55000D02*
Y106134D01*
X576000Y111716D02*
Y138284D01*
X584353Y110000D02*
X585647D01*
X574000Y111716D02*
Y138284D01*
X574353Y110000D02*
X575647D01*
X586000Y55000D02*
Y108283D01*
X576000Y55000D02*
Y108283D01*
X584000Y55000D02*
Y108283D01*
X564353Y110000D02*
X565647D01*
X556000Y111716D02*
Y138284D01*
X564000Y111716D02*
Y138284D01*
X566000Y55000D02*
Y108283D01*
X574000Y55000D02*
Y108283D01*
X564000Y55000D02*
Y108283D01*
X582000Y55000D02*
Y106134D01*
X580000Y55000D02*
Y105647D01*
X573866Y108000D02*
X576134D01*
X571716Y106000D02*
X578284D01*
X572000Y55000D02*
Y106134D01*
X578000Y55000D02*
Y106134D01*
X570000Y55000D02*
Y105647D01*
X568000Y55000D02*
Y106134D01*
X561717Y106000D02*
X568284D01*
X556000Y55000D02*
Y108283D01*
X563866Y108000D02*
X566134D01*
X562000Y55000D02*
Y106134D01*
X560000Y55000D02*
Y105647D01*
X558000Y55000D02*
Y106134D01*
X551717Y144000D02*
X558284D01*
X553866Y142000D02*
X556134D01*
X554353Y140000D02*
X555647D01*
X553866Y138000D02*
X556134D01*
X554000Y111716D02*
Y138284D01*
X551717Y136000D02*
X558284D01*
X552000Y113866D02*
Y136134D01*
X550000Y114353D02*
Y135647D01*
X541716Y144000D02*
X548283D01*
X541716Y136000D02*
X548283D01*
X543866Y142000D02*
X546134D01*
X543866Y138000D02*
X546134D01*
X529101Y134000D02*
X605278D01*
X527101Y132000D02*
X605100D01*
X548000Y113866D02*
Y136134D01*
X525900Y126000D02*
X605100D01*
X551717Y114000D02*
X558284D01*
X541716D02*
X548283D01*
X553866Y112000D02*
X556134D01*
X543866D02*
X546134D01*
X554353Y110000D02*
X555647D01*
X543866Y108000D02*
X546134D01*
X525900Y124000D02*
X605100D01*
X525900Y122000D02*
X605100D01*
X525900Y130000D02*
X605100D01*
X525900Y128000D02*
X605100D01*
X525900Y118000D02*
X605100D01*
X525900Y116000D02*
X605100D01*
X525900Y120000D02*
X605100D01*
X544353Y140000D02*
X545647D01*
X542000Y113866D02*
Y136134D01*
X534353Y140000D02*
X535647D01*
X534000Y114353D02*
Y138284D01*
X544000Y111716D02*
Y138284D01*
X546000Y111716D02*
Y138284D01*
X536000Y111716D02*
Y138284D01*
X538000Y113866D02*
Y136134D01*
X531716Y144000D02*
X538283D01*
X531716Y136000D02*
X538283D01*
X533866Y142000D02*
X536134D01*
X533866Y138000D02*
X536134D01*
X532000Y114353D02*
Y136134D01*
X520949Y134051D02*
X525791Y138892D01*
X540000Y114353D02*
Y135647D01*
X534353Y114000D02*
X538283D01*
X530000Y114353D02*
Y134899D01*
X534353Y112000D02*
X536134D01*
X544353Y110000D02*
X545647D01*
X534353Y108000D02*
X536134D01*
X534353Y110000D02*
X535647D01*
X525900Y130799D02*
X530828Y135727D01*
X526000Y114353D02*
Y130899D01*
X528000Y114353D02*
Y132899D01*
X525900Y114353D02*
X534353D01*
X525900D02*
Y130799D01*
X551717Y106000D02*
X558284D01*
X553866Y108000D02*
X556134D01*
X525900Y100000D02*
X605100D01*
X525900Y98000D02*
X605100D01*
X525900Y104000D02*
X605100D01*
X525900Y102000D02*
X605100D01*
X525900Y92000D02*
X605100D01*
X525900Y90000D02*
X605100D01*
X525900Y96000D02*
X605100D01*
X525900Y94000D02*
X605100D01*
X525900Y86000D02*
X605100D01*
X525900Y84000D02*
X605100D01*
X525900Y88000D02*
X605100D01*
X525900Y76000D02*
X605100D01*
X525900Y74000D02*
X605100D01*
X525900Y82000D02*
X605100D01*
X525900Y78000D02*
X605100D01*
X526919Y62000D02*
X604081D01*
X526919Y58000D02*
X604081D01*
X527400Y60000D02*
X603600D01*
X525900Y70000D02*
X605100D01*
X525900Y68000D02*
X605100D01*
X525900Y80000D02*
X605100D01*
X525900Y72000D02*
X605100D01*
X525900Y64000D02*
X605100D01*
X524833Y56000D02*
X606167D01*
X525900Y66000D02*
X605100D01*
X546000Y55000D02*
Y108283D01*
X541716Y106000D02*
X548283D01*
X544000Y55000D02*
Y108283D01*
X542000Y55000D02*
Y106134D01*
X554000Y55000D02*
Y108283D01*
X552000Y55000D02*
Y106134D01*
X548000Y55000D02*
Y106134D01*
X534353Y106000D02*
X538283D01*
X520100Y63309D02*
Y132000D01*
X534353Y105647D02*
Y114353D01*
X536000Y55000D02*
Y108283D01*
X538000Y55000D02*
Y106134D01*
X530000Y55000D02*
Y105647D01*
X540000Y55000D02*
Y105647D01*
X550000Y55000D02*
Y105647D01*
X526000Y63219D02*
Y105647D01*
X534000Y55000D02*
Y105647D01*
X528000Y55000D02*
Y105647D01*
X532000Y55000D02*
Y105647D01*
X526000Y55000D02*
Y56781D01*
X525900Y105647D02*
X534353D01*
X525900Y63309D02*
Y105647D01*
X522000Y55000D02*
Y55715D01*
X524000Y55000D02*
Y55715D01*
X520000Y55000D02*
Y56781D01*
X463500Y368000D02*
X536357D01*
X465185Y366000D02*
X538872D01*
X464000Y367687D02*
Y445000D01*
X453762Y424000D02*
X488600D01*
X465185Y364000D02*
X617614D01*
X453762Y422000D02*
X488600D01*
X452270Y398000D02*
X490008D01*
X453762Y428000D02*
X488600D01*
X453762Y426000D02*
X488600D01*
X453627Y394000D02*
X488730D01*
X452270Y392000D02*
X490008D01*
X453627Y396000D02*
X488730D01*
X464679Y362000D02*
X617958D01*
X464679Y358000D02*
X598650D01*
X465185Y356000D02*
X597534D01*
X465185Y354000D02*
X596995D01*
X463500Y352000D02*
X596928D01*
X414292Y342000D02*
X536357D01*
X416497Y340000D02*
X535844D01*
X418273Y336000D02*
X538872D01*
X418386Y334000D02*
X581614D01*
X417683Y338000D02*
X536357D01*
X452000Y428762D02*
Y445000D01*
X453762Y421238D02*
Y428762D01*
X450000D02*
Y445000D01*
Y398762D02*
Y421238D01*
X460000Y368369D02*
Y445000D01*
X462000Y368368D02*
Y445000D01*
X456000Y367687D02*
Y445000D01*
X458000Y368368D02*
Y445000D01*
X448000Y428762D02*
Y445000D01*
X446238Y428762D02*
X453762D01*
X446238Y421238D02*
Y428762D01*
X448000Y398187D02*
Y421238D01*
X416000Y340580D02*
Y445000D01*
X418000Y337138D02*
Y445000D01*
X414000Y342179D02*
Y445000D01*
X458032Y368369D02*
X461969D01*
X458032Y351631D02*
X461969D01*
X446238Y421238D02*
X453762D01*
X452000Y398187D02*
Y421238D01*
X464000Y243900D02*
Y352313D01*
X426298Y314000D02*
X573702D01*
X462000Y243900D02*
Y351632D01*
X460000Y243900D02*
Y351631D01*
X456000Y243900D02*
Y352313D01*
X458000Y243900D02*
Y351632D01*
X454000Y189034D02*
Y445000D01*
X452000Y187876D02*
Y391813D01*
X415580Y328000D02*
X584420D01*
X412138Y326000D02*
X587862D01*
X418042Y332000D02*
X581958D01*
X417178Y330000D02*
X582822D01*
X420913Y320000D02*
X579087D01*
X423986Y318000D02*
X576014D01*
X425492Y316000D02*
X574508D01*
X425794Y308000D02*
X574206D01*
X425794Y292000D02*
X574206D01*
X426595Y312000D02*
X573405D01*
X426436Y310000D02*
X573564D01*
X426436Y290000D02*
X573564D01*
X426298Y286000D02*
X573702D01*
X426595Y288000D02*
X573405D01*
X424535Y306000D02*
X575465D01*
X424535Y294000D02*
X575465D01*
X422163Y304000D02*
X473872D01*
X422163Y296000D02*
X473872D01*
X425492Y284000D02*
X473872D01*
X423986Y282000D02*
X471357D01*
X420913Y280000D02*
X470844D01*
X436000Y168368D02*
Y445000D01*
X438000Y168207D02*
Y445000D01*
X428000Y187876D02*
Y445000D01*
X434000Y168368D02*
Y445000D01*
X440000Y166469D02*
Y445000D01*
X450000Y166469D02*
Y391238D01*
X430000Y166469D02*
Y445000D01*
X432000Y168207D02*
Y445000D01*
X420000Y320298D02*
Y445000D01*
X418000Y320595D02*
Y331862D01*
X416000Y320436D02*
Y328420D01*
X414000Y319794D02*
Y326821D01*
X424000Y317986D02*
Y445000D01*
X426000Y314913D02*
Y445000D01*
X422000Y319492D02*
Y445000D01*
X426000Y291512D02*
Y308488D01*
X424000Y294586D02*
Y305414D01*
X422000Y296092D02*
Y303908D01*
X420000Y296898D02*
Y303102D01*
X426000Y189034D02*
Y285087D01*
X424000Y189034D02*
Y282014D01*
X422000Y187876D02*
Y280508D01*
X416000Y297036D02*
Y302964D01*
X418000Y297195D02*
Y302805D01*
X414000Y296394D02*
Y303606D01*
Y273179D02*
Y280206D01*
X420000Y166469D02*
Y279702D01*
X418000Y268138D02*
Y279405D01*
X416000Y271580D02*
Y279564D01*
X234353Y444000D02*
X508872D01*
X234353Y442000D02*
X506357D01*
X234353Y440000D02*
X505844D01*
X234353Y438000D02*
X506357D01*
X231716Y434000D02*
X538872D01*
X233866Y432000D02*
X536357D01*
X234353Y436000D02*
X508872D01*
X234353Y430000D02*
X535844D01*
X205000Y445000D02*
X795000D01*
X205000Y420000D02*
X795000D01*
X205000Y418000D02*
X490008D01*
X205000Y416000D02*
X488730D01*
X205000Y412000D02*
X490008D01*
X205000Y410000D02*
X560943D01*
X205000Y408000D02*
X490008D01*
X380197Y370000D02*
X535844D01*
X402742Y350000D02*
X597319D01*
X361122Y390000D02*
X534663D01*
X360474Y388000D02*
X535321D01*
X401878Y348000D02*
X598242D01*
X400280Y346000D02*
X599942D01*
X396838Y344000D02*
X538872D01*
X358585Y400000D02*
X534663D01*
X359365Y386000D02*
X640635D01*
X205000Y404000D02*
X488730D01*
X356302Y402000D02*
X490008D01*
X354440Y382000D02*
X645560D01*
X205000Y380000D02*
X795000D01*
X357597Y384000D02*
X642403D01*
X360849Y396000D02*
X446373D01*
X361301Y394000D02*
X446373D01*
X394000Y361398D02*
Y445000D01*
X396000Y361216D02*
Y445000D01*
X400000Y359251D02*
Y445000D01*
X402000Y356786D02*
Y445000D01*
X392000Y361124D02*
Y445000D01*
X398000Y360548D02*
Y445000D01*
X205000Y424000D02*
X446238D01*
X205000Y422000D02*
X446238D01*
X233866Y428000D02*
X446238D01*
X231716Y426000D02*
X446238D01*
X205000Y414000D02*
X488730D01*
X205000Y406000D02*
X488730D01*
X359985Y398000D02*
X447730D01*
X381973Y366000D02*
X454815D01*
X401197Y358000D02*
X455321D01*
X382086Y364000D02*
X454815D01*
X398992Y360000D02*
X454663D01*
X402973Y354000D02*
X454815D01*
X403086Y352000D02*
X456499D01*
X402383Y356000D02*
X454815D01*
X205000Y378000D02*
X487730D01*
X357187Y374000D02*
X486373D01*
X361389Y392000D02*
X447730D01*
X355162Y376000D02*
X486373D01*
X377992Y372000D02*
X487730D01*
X381383Y368000D02*
X456500D01*
X381742Y362000D02*
X455321D01*
X412000Y343042D02*
Y445000D01*
X410000Y343386D02*
Y445000D01*
X412000Y318535D02*
Y325958D01*
X410000Y316163D02*
Y325614D01*
X290898Y314000D02*
X409102D01*
X410000Y292763D02*
Y307237D01*
X205000Y324000D02*
X795000D01*
X205000Y322000D02*
X795000D01*
X285512Y320000D02*
X414488D01*
X288586Y318000D02*
X411413D01*
X290092Y316000D02*
X409908D01*
X289135Y306000D02*
X410865D01*
X290394Y308000D02*
X409606D01*
X412000Y295135D02*
Y304865D01*
X289135Y294000D02*
X410865D01*
X290394Y292000D02*
X409606D01*
X290092Y284000D02*
X409908D01*
X412000Y274042D02*
Y281465D01*
X410000Y274386D02*
Y283837D01*
X205000Y302000D02*
X471357D01*
X205000Y298000D02*
X471357D01*
X286763Y304000D02*
X413237D01*
X205000Y300000D02*
X470844D01*
X286763Y296000D02*
X413237D01*
X285512Y280000D02*
X414488D01*
X288586Y282000D02*
X411413D01*
X406000Y342683D02*
Y445000D01*
X408000Y343273D02*
Y445000D01*
X404000Y341497D02*
Y445000D01*
X402000Y339292D02*
Y348214D01*
X400000Y254551D02*
Y345749D01*
X398000Y255848D02*
Y344452D01*
X396000Y256516D02*
Y343784D01*
X394000Y256698D02*
Y343602D01*
X295292Y342000D02*
X404708D01*
X307676Y344000D02*
X391562D01*
X297497Y340000D02*
X402503D01*
X298683Y338000D02*
X401317D01*
X299273Y336000D02*
X400727D01*
X392000Y256424D02*
Y343876D01*
X298179Y330000D02*
X401822D01*
X408000Y274273D02*
Y325727D01*
X299386Y334000D02*
X400614D01*
X299042Y332000D02*
X400958D01*
X404000Y272497D02*
Y327503D01*
X406000Y273683D02*
Y326317D01*
X402000Y270292D02*
Y329708D01*
X291195Y312000D02*
X408805D01*
X291036Y310000D02*
X408964D01*
X296580Y328000D02*
X403420D01*
X293138Y326000D02*
X406862D01*
X291036Y290000D02*
X408964D01*
X290898Y286000D02*
X409102D01*
X291195Y288000D02*
X408805D01*
X464057Y240000D02*
X600709D01*
X464057Y238000D02*
X644199D01*
X455942Y243900D02*
X464057D01*
Y242000D02*
X598650D01*
X464057Y235785D02*
Y243900D01*
Y236000D02*
X642474D01*
X462000Y223688D02*
Y235785D01*
X464000Y220838D02*
Y235785D01*
X417178Y270000D02*
X582822D01*
X418042Y268000D02*
X581958D01*
X418386Y266000D02*
X581614D01*
X418273Y264000D02*
X581727D01*
X417683Y262000D02*
X582317D01*
X455942Y235785D02*
X464057D01*
X461303Y224000D02*
X644838D01*
X463615Y222000D02*
X496238D01*
X464054Y220000D02*
X496238D01*
X463436Y218000D02*
X496238D01*
X460185Y166000D02*
X469815D01*
X460185Y164000D02*
X469815D01*
X459034Y186000D02*
X540966D01*
X459034Y184000D02*
X540966D01*
X457876Y188000D02*
X496813D01*
X457876Y182000D02*
X542124D01*
X458500Y168000D02*
X471499D01*
X460000Y224215D02*
Y235785D01*
X456000Y220838D02*
Y235785D01*
X458000Y223688D02*
Y235785D01*
X460000Y166469D02*
Y216100D01*
X456000Y189034D02*
Y219477D01*
X458000Y187876D02*
Y216627D01*
X455942Y235785D02*
Y243900D01*
X427876Y188000D02*
X452124D01*
X429034Y186000D02*
X450966D01*
X429034Y184000D02*
X450966D01*
X418000Y168207D02*
Y262862D01*
X458000Y168207D02*
Y182124D01*
X453031Y168368D02*
X456968D01*
X454000D02*
Y180966D01*
X456000Y168368D02*
Y180966D01*
X452000Y168207D02*
Y182124D01*
X440185Y166000D02*
X449815D01*
X440185Y164000D02*
X449815D01*
X427876Y182000D02*
X452124D01*
X438500Y168000D02*
X451500D01*
X433032Y168368D02*
X436969D01*
X418501Y168000D02*
X431499D01*
X420185Y166000D02*
X429815D01*
X420185Y164000D02*
X429815D01*
X459679Y162000D02*
X470321D01*
X450000Y161469D02*
Y163531D01*
X460000Y161469D02*
Y163531D01*
X460337Y160000D02*
X469663D01*
X460000Y156469D02*
Y158531D01*
X439679Y162000D02*
X450321D01*
X440337Y160000D02*
X449663D01*
X439679Y158000D02*
X450321D01*
X450000Y156469D02*
Y158531D01*
X459679Y158000D02*
X470321D01*
X460185Y156000D02*
X469815D01*
X460185Y154000D02*
X469815D01*
X458500Y152000D02*
X471500D01*
X440185Y156000D02*
X449815D01*
X440185Y154000D02*
X449815D01*
X453031Y151631D02*
X456968D01*
X438500Y152000D02*
X451500D01*
X440000Y161469D02*
Y163531D01*
X430000Y161469D02*
Y163531D01*
X440000Y156469D02*
Y158531D01*
X430000Y156469D02*
Y158531D01*
X419679Y162000D02*
X430321D01*
X420337Y160000D02*
X429663D01*
X420000Y161469D02*
Y163531D01*
Y156469D02*
Y158531D01*
X440000Y144353D02*
Y153531D01*
X433032Y151631D02*
X436969D01*
X430000Y144353D02*
Y153531D01*
X419679Y158000D02*
X430321D01*
X420185Y156000D02*
X429815D01*
X418500Y152000D02*
X431500D01*
X420185Y154000D02*
X429815D01*
X412138Y274000D02*
X587862D01*
X414292Y258000D02*
X585708D01*
X415580Y272000D02*
X584420D01*
X416497Y260000D02*
X583503D01*
X397660Y256000D02*
X603924D01*
X402248Y244000D02*
X597534D01*
X400585Y254000D02*
X473872D01*
X402916Y246000D02*
X473872D01*
X381973Y234000D02*
X641536D01*
X380197Y230000D02*
X641188D01*
X205000Y276000D02*
X473872D01*
X381383Y232000D02*
X641132D01*
X357187Y226000D02*
X642813D01*
X357597Y216000D02*
X642403D01*
X377992Y228000D02*
X641715D01*
X361122Y210000D02*
X534663D01*
X361389Y208000D02*
X534663D01*
X359365Y214000D02*
X534663D01*
X360474Y212000D02*
X534663D01*
X360849Y204000D02*
X639151D01*
X359985Y202000D02*
X640015D01*
X361301Y206000D02*
X534663D01*
X205000Y196000D02*
X795000D01*
X205000Y194000D02*
X795000D01*
X358585Y200000D02*
X641414D01*
X356302Y198000D02*
X643698D01*
X205000Y192000D02*
X496813D01*
X205000Y180000D02*
X795000D01*
X205000Y190000D02*
X496238D01*
X299042Y268000D02*
X400958D01*
X299386Y266000D02*
X400614D01*
X299273Y264000D02*
X400727D01*
X402047Y252000D02*
X471357D01*
X402000Y252086D02*
Y260708D01*
X307676Y256000D02*
X390740D01*
X205000Y278000D02*
X471357D01*
X293138Y274000D02*
X406862D01*
X296580Y272000D02*
X403420D01*
X298179Y270000D02*
X401822D01*
X297497Y260000D02*
X402503D01*
X295292Y258000D02*
X404708D01*
X298683Y262000D02*
X401317D01*
X402824Y250000D02*
X470844D01*
X403098Y248000D02*
X471357D01*
X400951Y242000D02*
X455942D01*
X398486Y240000D02*
X455942D01*
X382086Y236000D02*
X455942D01*
X355162Y224000D02*
X458697D01*
X381742Y238000D02*
X455942D01*
X205000Y222000D02*
X456385D01*
X354440Y218000D02*
X456564D01*
X205000Y220000D02*
X455946D01*
X205000Y188000D02*
X422124D01*
X205000Y184000D02*
X420966D01*
X205000Y182000D02*
X422124D01*
X205000Y186000D02*
X420966D01*
X416000Y168368D02*
Y259420D01*
X413031Y168368D02*
X416968D01*
X414000D02*
Y257821D01*
X412000Y168207D02*
Y256958D01*
X410000Y166469D02*
Y256614D01*
Y161469D02*
Y163531D01*
X205000Y174000D02*
X795000D01*
X205000Y172000D02*
X795000D01*
X205000Y178000D02*
X795000D01*
X205000Y176000D02*
X795000D01*
X205000Y170000D02*
X795000D01*
X398500Y168000D02*
X411500D01*
X410000Y156469D02*
Y158531D01*
X413031Y151631D02*
X416968D01*
X410000Y144353D02*
Y153531D01*
X398500Y152000D02*
X411500D01*
X399679Y162000D02*
X410321D01*
X399679Y158000D02*
X410321D01*
X205000Y148000D02*
X795000D01*
X205000Y146000D02*
X795000D01*
X205000Y150000D02*
X795000D01*
X400185Y166000D02*
X409815D01*
X400000Y166469D02*
Y241049D01*
X398000Y168207D02*
Y239752D01*
X400185Y164000D02*
X409815D01*
X400000Y161469D02*
Y163531D01*
X396000Y168368D02*
Y239084D01*
X393032Y168368D02*
X396969D01*
X392000Y168207D02*
Y239176D01*
X394000Y168368D02*
Y238902D01*
X378501Y168000D02*
X391499D01*
X400337Y160000D02*
X409663D01*
X400185Y156000D02*
X409815D01*
X400000Y156469D02*
Y158531D01*
X400185Y154000D02*
X409815D01*
X400000Y144353D02*
Y153531D01*
X378500Y152000D02*
X391500D01*
X393032Y151631D02*
X396969D01*
X374000Y373364D02*
Y445000D01*
X376000Y372948D02*
Y445000D01*
X370000Y372805D02*
Y445000D01*
X372000Y373319D02*
Y445000D01*
X380000Y370242D02*
Y445000D01*
X382000Y365830D02*
Y445000D01*
X368000Y371723D02*
Y445000D01*
X378000Y371995D02*
Y445000D01*
X356000Y402193D02*
Y445000D01*
X358000Y400622D02*
Y445000D01*
X352000Y403723D02*
Y445000D01*
X354000Y403175D02*
Y445000D01*
X366000Y369732D02*
Y445000D01*
X360000Y397974D02*
Y445000D01*
X358285Y372000D02*
X368408D01*
X358812Y370000D02*
X366203D01*
X358000Y372650D02*
Y384378D01*
X356000Y375323D02*
Y382807D01*
X358868Y368000D02*
X365017D01*
X358465Y366000D02*
X364427D01*
X357526Y364000D02*
X364314D01*
X354000Y376700D02*
Y381825D01*
X355801Y362000D02*
X364658D01*
X352000Y377422D02*
Y381277D01*
X348000Y403723D02*
Y445000D01*
X350000Y403900D02*
Y445000D01*
X344000Y402193D02*
Y445000D01*
X346000Y403175D02*
Y445000D01*
X340000Y397974D02*
Y445000D01*
X342000Y400622D02*
Y445000D01*
X332000Y371497D02*
Y445000D01*
X334000Y369292D02*
Y445000D01*
X326000Y373386D02*
Y445000D01*
X330000Y372683D02*
Y445000D01*
X318000Y367138D02*
Y445000D01*
X320000Y370580D02*
Y445000D01*
X308000Y361324D02*
Y445000D01*
X310000Y360547D02*
Y445000D01*
X306000Y361598D02*
Y445000D01*
X348000Y377422D02*
Y381277D01*
X350000Y377650D02*
Y381100D01*
X344000Y375323D02*
Y382807D01*
X346000Y376700D02*
Y381825D01*
X342000Y372650D02*
Y384378D01*
X335386Y364000D02*
X342474D01*
X335273Y366000D02*
X341535D01*
X328000Y373273D02*
Y445000D01*
X331292Y372000D02*
X341715D01*
X322000Y372179D02*
Y445000D01*
X324000Y373042D02*
Y445000D01*
X333497Y370000D02*
X341188D01*
X335042Y362000D02*
X344199D01*
X334683Y368000D02*
X341132D01*
X390000Y360347D02*
Y445000D01*
X380878Y360000D02*
X389408D01*
X388000Y358885D02*
Y445000D01*
X379279Y358000D02*
X387203D01*
X386000Y355960D02*
Y445000D01*
X382000Y236830D02*
Y363170D01*
X380000Y241242D02*
Y358758D01*
X378000Y242995D02*
Y357005D01*
X332579Y358000D02*
X367121D01*
X351627Y360000D02*
X365522D01*
X366000Y240732D02*
Y359268D01*
X368000Y242723D02*
Y357277D01*
X360000Y212974D02*
Y387026D01*
X388000Y254185D02*
Y346115D01*
X390000Y255647D02*
Y344653D01*
X375838Y356000D02*
X386017D01*
X386000Y251260D02*
Y349040D01*
X376000Y243948D02*
Y356052D01*
X374000Y244364D02*
Y355636D01*
X372000Y244319D02*
Y355681D01*
X314604Y354000D02*
X385427D01*
X314281Y350000D02*
X385658D01*
X329138Y356000D02*
X370562D01*
X314672Y352000D02*
X385314D01*
X313358Y348000D02*
X386522D01*
X311658Y346000D02*
X388121D01*
X370000Y243805D02*
Y356195D01*
X356000Y237823D02*
Y362177D01*
X354000Y239200D02*
Y360800D01*
X346000Y239200D02*
Y360800D01*
X348000Y239922D02*
Y360078D01*
X358000Y235150D02*
Y364850D01*
X344000Y237823D02*
Y362177D01*
X340000Y212974D02*
Y387026D01*
X342000Y235150D02*
Y364850D01*
X336000Y168368D02*
Y445000D01*
X312000Y359085D02*
Y445000D01*
X314000Y356160D02*
Y445000D01*
X338000Y168207D02*
Y445000D01*
X318000Y168207D02*
Y361862D01*
X316000Y168368D02*
Y445000D01*
X352000Y239922D02*
Y360078D01*
X350000Y240150D02*
Y359850D01*
X334178Y360000D02*
X348373D01*
X334000Y168368D02*
Y359708D01*
X332000Y168207D02*
Y357503D01*
X330000Y166469D02*
Y356317D01*
X320000Y166469D02*
Y358420D01*
X312950Y358000D02*
X320421D01*
X314066Y356000D02*
X323862D01*
X310891Y360000D02*
X318822D01*
X308000Y255924D02*
Y344076D01*
X314000Y250760D02*
Y349240D01*
X312000Y253685D02*
Y346315D01*
X310000Y255147D02*
Y344853D01*
X205000Y402000D02*
X343698D01*
X205000Y400000D02*
X341415D01*
X205000Y398000D02*
X340015D01*
X205000Y396000D02*
X339151D01*
X302000Y360748D02*
Y445000D01*
X304000Y361416D02*
Y445000D01*
X298000Y356986D02*
Y445000D01*
X300000Y359451D02*
Y445000D01*
X205000Y390000D02*
X338878D01*
X205000Y388000D02*
X339526D01*
X205000Y394000D02*
X338699D01*
X205000Y392000D02*
X338611D01*
X205000Y384000D02*
X342403D01*
X205000Y382000D02*
X345560D01*
X205000Y386000D02*
X340635D01*
X205000Y362000D02*
X317958D01*
X205000Y360000D02*
X300709D01*
X205000Y358000D02*
X298650D01*
X205000Y356000D02*
X297534D01*
X205000Y354000D02*
X296995D01*
X205000Y350000D02*
X297319D01*
X205000Y352000D02*
X296928D01*
X205000Y376000D02*
X344838D01*
X205000Y374000D02*
X342813D01*
X205000Y372000D02*
X321708D01*
X205000Y370000D02*
X319503D01*
X205000Y368000D02*
X318317D01*
X205000Y366000D02*
X317727D01*
X205000Y364000D02*
X317614D01*
X232000Y444353D02*
Y445000D01*
X234000Y444353D02*
Y445000D01*
X228000Y444353D02*
Y445000D01*
X230000Y444353D02*
Y445000D01*
X234353Y435647D02*
Y444353D01*
X234000Y431716D02*
Y435647D01*
X226000Y444353D02*
Y445000D01*
X230000Y434353D02*
Y435647D01*
X225647Y444353D02*
X234353D01*
X205000Y444000D02*
X225647D01*
X205000Y442000D02*
X225647D01*
X205000Y440000D02*
X225647D01*
Y435647D02*
Y444353D01*
X205000Y436000D02*
X225647D01*
X205000Y438000D02*
X225647D01*
X232000Y433866D02*
Y435647D01*
X226000Y431716D02*
Y435647D01*
X228000Y433866D02*
Y435647D01*
X225647D02*
X234353D01*
X205000Y434000D02*
X228284D01*
X205000Y432000D02*
X226134D01*
X205000Y430000D02*
X225647D01*
X205000Y426000D02*
X228284D01*
X205000Y428000D02*
X226134D01*
X298000Y339292D02*
Y348414D01*
X294000Y342683D02*
Y445000D01*
X296000Y341497D02*
Y445000D01*
X304000Y256016D02*
Y343984D01*
X306000Y256198D02*
Y343802D01*
X300000Y254051D02*
Y345949D01*
X302000Y255348D02*
Y344652D01*
X205000Y346000D02*
X299942D01*
X205000Y344000D02*
X303924D01*
X290000Y343386D02*
Y445000D01*
X205000Y348000D02*
X298242D01*
X288000Y343042D02*
Y445000D01*
X292000Y343273D02*
Y445000D01*
X286000Y342179D02*
Y445000D01*
X292000Y274273D02*
Y325727D01*
X290000Y316163D02*
Y325614D01*
Y292763D02*
Y307237D01*
X288000Y295135D02*
Y304865D01*
X298000Y270292D02*
Y329708D01*
X296000Y272497D02*
Y327503D01*
X294000Y273683D02*
Y326317D01*
X205000Y326000D02*
X287862D01*
X205000Y342000D02*
X285708D01*
X205000Y328000D02*
X284420D01*
X288000Y318535D02*
Y325958D01*
X286000Y319794D02*
Y326821D01*
X282000Y337138D02*
Y445000D01*
X284000Y340580D02*
Y445000D01*
X278000Y319492D02*
Y445000D01*
X280000Y320298D02*
Y445000D01*
X274000Y314913D02*
Y445000D01*
X276000Y317986D02*
Y445000D01*
X250000Y144353D02*
Y445000D01*
X270000Y144353D02*
Y445000D01*
X205000Y340000D02*
X283503D01*
X205000Y338000D02*
X282317D01*
X205000Y336000D02*
X281727D01*
X205000Y334000D02*
X281614D01*
X240000Y144353D02*
Y445000D01*
X205000Y332000D02*
X281958D01*
X220000Y144353D02*
Y445000D01*
X205000Y330000D02*
X282821D01*
X284000Y320436D02*
Y328420D01*
X282000Y320595D02*
Y331862D01*
X205000Y318000D02*
X276013D01*
X205000Y316000D02*
X274508D01*
X276000Y294586D02*
Y305414D01*
X274000Y291512D02*
Y308488D01*
X205000Y320000D02*
X279087D01*
X205000Y314000D02*
X273702D01*
X205000Y312000D02*
X273405D01*
X205000Y310000D02*
X273564D01*
X205000Y306000D02*
X275465D01*
X205000Y304000D02*
X277837D01*
X205000Y308000D02*
X274206D01*
X379279Y242000D02*
X387449D01*
X380878Y240000D02*
X389914D01*
X375838Y244000D02*
X386152D01*
X390000Y166469D02*
Y239953D01*
X380000Y166469D02*
Y229758D01*
X378000Y168207D02*
Y228005D01*
X370000Y166469D02*
Y227195D01*
X351627Y240000D02*
X365522D01*
X355801Y238000D02*
X364658D01*
X357526Y236000D02*
X364314D01*
X358465Y234000D02*
X364427D01*
X358812Y230000D02*
X366203D01*
X358285Y228000D02*
X368408D01*
X358868Y232000D02*
X365017D01*
X373031Y168368D02*
X376969D01*
X380185Y166000D02*
X389815D01*
X376000Y168368D02*
Y227052D01*
X374000Y168368D02*
Y226636D01*
X380185Y164000D02*
X389815D01*
X372000Y168207D02*
Y226681D01*
X358501Y168000D02*
X371499D01*
X360185Y166000D02*
X369815D01*
X360185Y164000D02*
X369815D01*
X356000Y217193D02*
Y224677D01*
X354000Y218175D02*
Y223300D01*
X352000Y218723D02*
Y222578D01*
X350000Y218900D02*
Y222350D01*
X358000Y215622D02*
Y227350D01*
X360000Y166469D02*
Y202026D01*
X348000Y218723D02*
Y222578D01*
X344000Y217193D02*
Y224677D01*
X346000Y218175D02*
Y223300D01*
X342000Y215622D02*
Y227350D01*
X340000Y166469D02*
Y202026D01*
X358000Y168207D02*
Y199378D01*
X353031Y168368D02*
X356968D01*
X356000D02*
Y197807D01*
X354000Y168368D02*
Y196825D01*
X352000Y168207D02*
Y196277D01*
X350000Y166469D02*
Y196100D01*
X338500Y168000D02*
X351500D01*
X340185Y166000D02*
X349815D01*
X333032Y168368D02*
X336968D01*
X340185Y164000D02*
X349815D01*
X390000Y161469D02*
Y163531D01*
X379679Y162000D02*
X390321D01*
X380000Y161469D02*
Y163531D01*
X380337Y160000D02*
X389663D01*
X390000Y156469D02*
Y158531D01*
X380000Y156469D02*
Y158531D01*
X359679Y162000D02*
X370321D01*
X370000Y161469D02*
Y163531D01*
X360337Y160000D02*
X369663D01*
X370000Y156469D02*
Y158531D01*
X379679Y158000D02*
X390321D01*
X380185Y156000D02*
X389815D01*
X380185Y154000D02*
X389815D01*
X359679Y158000D02*
X370321D01*
X360185Y156000D02*
X369815D01*
X360185Y154000D02*
X369815D01*
X373031Y151631D02*
X376969D01*
X358500Y152000D02*
X371500D01*
X360000Y161469D02*
Y163531D01*
X340000Y161469D02*
Y163531D01*
X350000Y161469D02*
Y163531D01*
X360000Y156469D02*
Y158531D01*
X340337Y160000D02*
X349663D01*
X350000Y156469D02*
Y158531D01*
X339679Y162000D02*
X350321D01*
X339679Y158000D02*
X350321D01*
X340000Y156469D02*
Y158531D01*
X330000Y156469D02*
Y158531D01*
X353031Y151631D02*
X356968D01*
X340185Y156000D02*
X349815D01*
X338500Y152000D02*
X351500D01*
X340185Y154000D02*
X349815D01*
X333032Y151631D02*
X336968D01*
X311658Y254000D02*
X387815D01*
X313358Y252000D02*
X386353D01*
X298000Y251586D02*
Y260708D01*
X314281Y250000D02*
X385576D01*
X314604Y246000D02*
X385484D01*
X314672Y248000D02*
X385302D01*
X205000Y256000D02*
X303924D01*
X205000Y254000D02*
X299942D01*
X205000Y252000D02*
X298242D01*
X205000Y250000D02*
X297319D01*
X205000Y246000D02*
X296995D01*
X205000Y244000D02*
X297534D01*
X205000Y248000D02*
X296928D01*
X314066Y244000D02*
X370562D01*
X312950Y242000D02*
X367121D01*
X205000D02*
X298650D01*
X310891Y240000D02*
X348373D01*
X205000Y238000D02*
X344199D01*
X205000Y236000D02*
X342474D01*
X205000Y240000D02*
X300709D01*
X205000Y234000D02*
X341535D01*
X205000Y228000D02*
X341715D01*
X205000Y232000D02*
X341132D01*
X205000Y230000D02*
X341188D01*
X205000Y224000D02*
X344838D01*
X205000Y218000D02*
X345560D01*
X205000Y226000D02*
X342813D01*
X286000Y296394D02*
Y303606D01*
X284000Y297036D02*
Y302964D01*
X280000Y296898D02*
Y303102D01*
X282000Y297195D02*
Y302805D01*
X290000Y274386D02*
Y283837D01*
X278000Y296092D02*
Y303908D01*
X205000Y296000D02*
X277837D01*
X205000Y294000D02*
X275465D01*
X205000Y292000D02*
X274206D01*
X205000Y290000D02*
X273564D01*
X205000Y288000D02*
X273405D01*
X205000Y284000D02*
X274508D01*
X205000Y282000D02*
X276013D01*
X205000Y286000D02*
X273702D01*
X288000Y274042D02*
Y281465D01*
X205000Y274000D02*
X287862D01*
X286000Y273179D02*
Y280206D01*
X205000Y280000D02*
X279087D01*
X284000Y271580D02*
Y279564D01*
X205000Y272000D02*
X284420D01*
X282000Y268138D02*
Y279405D01*
X205000Y270000D02*
X282821D01*
X205000Y268000D02*
X281958D01*
X205000Y266000D02*
X281614D01*
X205000Y264000D02*
X281727D01*
X205000Y260000D02*
X283503D01*
X205000Y258000D02*
X285708D01*
X205000Y262000D02*
X282317D01*
X205000Y212000D02*
X339526D01*
X205000Y210000D02*
X338878D01*
X205000Y208000D02*
X338611D01*
X318500Y168000D02*
X331500D01*
X320185Y166000D02*
X329815D01*
X205000Y216000D02*
X342403D01*
X205000Y214000D02*
X340635D01*
X205000Y206000D02*
X338699D01*
X205000Y204000D02*
X339151D01*
X205000Y200000D02*
X341415D01*
X205000Y198000D02*
X343698D01*
X205000Y202000D02*
X340015D01*
X330000Y161469D02*
Y163531D01*
X320185Y164000D02*
X329815D01*
X320337Y160000D02*
X329663D01*
X320185Y154000D02*
X329815D01*
X319679Y162000D02*
X330321D01*
X319679Y158000D02*
X330321D01*
X320185Y156000D02*
X329815D01*
X318500Y152000D02*
X331500D01*
X314000Y168368D02*
Y243840D01*
X313032Y168368D02*
X316968D01*
X312000Y168207D02*
Y240915D01*
X310000Y166469D02*
Y239453D01*
X320000Y161469D02*
Y163531D01*
X310000Y161469D02*
Y163531D01*
X205000Y168000D02*
X311500D01*
X205000Y162000D02*
X310321D01*
X205000Y166000D02*
X309815D01*
X205000Y164000D02*
X309815D01*
X292000Y144353D02*
Y256727D01*
X286000Y144353D02*
Y257821D01*
X310000Y156469D02*
Y158531D01*
X320000Y156469D02*
Y158531D01*
X313032Y151631D02*
X316968D01*
X205000Y158000D02*
X310321D01*
X205000Y154000D02*
X309815D01*
X205000Y160000D02*
X309663D01*
X205000Y156000D02*
X309815D01*
X205000Y152000D02*
X311500D01*
X285647Y144353D02*
X294353D01*
X462000Y143866D02*
Y216627D01*
X460000Y144353D02*
Y153531D01*
X450000Y144353D02*
Y153531D01*
X458000Y143866D02*
Y151793D01*
X464000Y141717D02*
Y219477D01*
X456000Y141717D02*
Y151631D01*
X448000Y143866D02*
Y391813D01*
X452000Y143866D02*
Y151793D01*
X442000Y143866D02*
Y445000D01*
X444000Y141717D02*
Y445000D01*
X432000Y143866D02*
Y151793D01*
X438000Y143866D02*
Y151793D01*
X446000Y141717D02*
Y445000D01*
X436000Y141717D02*
Y151631D01*
X434000Y141717D02*
Y151631D01*
X461717Y144000D02*
X528284D01*
X463866Y142000D02*
X526134D01*
X451717Y144000D02*
X458284D01*
X453866Y142000D02*
X456134D01*
X454353Y140000D02*
X455647D01*
X464353D02*
X525647D01*
X454000Y141717D02*
Y151631D01*
X441716Y144000D02*
X448283D01*
X443866Y142000D02*
X446134D01*
X421716Y144000D02*
X428284D01*
X431716D02*
X438283D01*
X433866Y142000D02*
X436134D01*
X444353Y140000D02*
X445647D01*
X434353D02*
X435647D01*
X422000Y143866D02*
Y182124D01*
X428000Y143866D02*
Y182124D01*
X420000Y144353D02*
Y153531D01*
X418000Y143866D02*
Y151793D01*
X424000Y141717D02*
Y180966D01*
X426000Y141717D02*
Y180966D01*
X414000Y141717D02*
Y151631D01*
X416000Y141717D02*
Y151631D01*
X408000Y143866D02*
Y256727D01*
X412000Y143866D02*
Y151793D01*
X402000Y143866D02*
Y243514D01*
X392000Y143866D02*
Y151793D01*
X404000Y141717D02*
Y258503D01*
X406000Y141717D02*
Y257317D01*
X398000Y143866D02*
Y151793D01*
X411717Y144000D02*
X418284D01*
X423866Y142000D02*
X426134D01*
X403866D02*
X406134D01*
X413866D02*
X416134D01*
X414353Y140000D02*
X415647D01*
X424353D02*
X425647D01*
X404353D02*
X405647D01*
X391717Y144000D02*
X398284D01*
X401717D02*
X408284D01*
X396000Y141717D02*
Y151631D01*
X393866Y142000D02*
X396134D01*
X394353Y140000D02*
X395647D01*
X393866Y138000D02*
X396134D01*
X394000Y141717D02*
Y151631D01*
X463866Y138000D02*
X524899D01*
X453866D02*
X456134D01*
X456000Y111716D02*
Y138284D01*
X464000Y111716D02*
Y138284D01*
X446000Y111716D02*
Y138284D01*
X454000Y111716D02*
Y138284D01*
X443866Y138000D02*
X446134D01*
X433866D02*
X436134D01*
X436000Y111716D02*
Y138284D01*
X444000Y111716D02*
Y138284D01*
X434000Y111716D02*
Y138284D01*
X461717Y136000D02*
X522899D01*
X460000Y114353D02*
Y135647D01*
X451717Y136000D02*
X458284D01*
X450000Y114353D02*
Y135647D01*
X458000Y113866D02*
Y136134D01*
X462000Y113866D02*
Y136134D01*
X452000Y113866D02*
Y136134D01*
X442000Y113866D02*
Y136134D01*
X441716Y136000D02*
X448283D01*
X431716D02*
X438283D01*
X440000Y114353D02*
Y135647D01*
X438000Y113866D02*
Y136134D01*
X448000Y113866D02*
Y136134D01*
X432000Y113866D02*
Y136134D01*
X423866Y138000D02*
X426134D01*
X413866D02*
X416134D01*
X418000Y113866D02*
Y136134D01*
X424000Y111716D02*
Y138284D01*
X426000Y111716D02*
Y138284D01*
X414000Y111716D02*
Y138284D01*
X416000Y111716D02*
Y138284D01*
X403866Y138000D02*
X406134D01*
X394000Y114353D02*
Y138284D01*
X404000Y111716D02*
Y138284D01*
X406000Y111716D02*
Y138284D01*
X396000Y111716D02*
Y138284D01*
X421716Y136000D02*
X428284D01*
X430000Y114353D02*
Y135647D01*
X411717Y136000D02*
X418284D01*
X420000Y114353D02*
Y135647D01*
X422000Y113866D02*
Y136134D01*
X428000Y113866D02*
Y136134D01*
X412000Y113866D02*
Y136134D01*
X401717Y136000D02*
X408284D01*
X410000Y114353D02*
Y135647D01*
X392000Y114353D02*
Y136134D01*
X400000Y114353D02*
Y135647D01*
X402000Y113866D02*
Y136134D01*
X408000Y113866D02*
Y136134D01*
X398000Y113866D02*
Y136134D01*
X388000Y143866D02*
Y241415D01*
X390000Y144353D02*
Y153531D01*
X374000Y144236D02*
Y151631D01*
X376000Y144236D02*
Y151631D01*
X384000Y138101D02*
Y445000D01*
X386000Y141717D02*
Y244340D01*
X382000Y136101D02*
Y234170D01*
X378000Y143154D02*
Y151793D01*
X366000Y144236D02*
Y230268D01*
X368000Y143154D02*
Y228277D01*
X364000Y144236D02*
Y445000D01*
X356000Y144236D02*
Y151631D01*
X362000Y143154D02*
Y445000D01*
X372000Y143154D02*
Y151793D01*
X358000Y143154D02*
Y151793D01*
X376716Y144000D02*
X388283D01*
X378866Y142000D02*
X386134D01*
X368866D02*
X371134D01*
X379353Y140000D02*
X385647D01*
X378866Y138000D02*
X383899D01*
X369353Y140000D02*
X370647D01*
X356716Y144000D02*
X363283D01*
X366717D02*
X373284D01*
X358866Y142000D02*
X361134D01*
X359353Y140000D02*
X360647D01*
X368866Y138000D02*
X371134D01*
X356716Y136000D02*
X363283D01*
X358866Y138000D02*
X361134D01*
X354000Y144236D02*
Y151631D01*
X346716Y144000D02*
X353284D01*
X344000Y144236D02*
Y197807D01*
X346000Y144236D02*
Y196825D01*
X348000Y143154D02*
Y196277D01*
X352000Y143154D02*
Y151793D01*
X342000Y143154D02*
Y199378D01*
X338000Y143154D02*
Y151793D01*
X334000Y144236D02*
Y151631D01*
X336000Y144236D02*
Y151631D01*
X324000Y144236D02*
Y355958D01*
X326000Y144236D02*
Y355614D01*
X332000Y143154D02*
Y151793D01*
X336717Y144000D02*
X343284D01*
X328000Y143154D02*
Y355727D01*
X348866Y142000D02*
X351134D01*
X349353Y140000D02*
X350647D01*
X338866Y142000D02*
X341134D01*
X339353Y140000D02*
X340647D01*
X348866Y138000D02*
X351134D01*
X346716Y136000D02*
X353284D01*
X338866Y138000D02*
X341134D01*
X326716Y144000D02*
X333283D01*
X328866Y142000D02*
X331134D01*
X316717Y144000D02*
X323284D01*
X329353Y140000D02*
X330647D01*
X328866Y138000D02*
X331134D01*
X336717Y136000D02*
X343284D01*
X316717D02*
X323284D01*
X391717D02*
X398284D01*
X380000Y134101D02*
Y153531D01*
X379949Y134051D02*
X385654Y139755D01*
X384900Y130799D02*
X389755Y135654D01*
X390000Y114353D02*
Y135647D01*
X378000Y113154D02*
Y136846D01*
X376716Y136000D02*
X381899D01*
X366717D02*
X373284D01*
X374000Y114236D02*
Y135764D01*
X372000Y113154D02*
Y136846D01*
X376000Y114236D02*
Y135764D01*
X370000Y55000D02*
Y153531D01*
X388101Y134000D02*
X520900D01*
X386101Y132000D02*
X520100D01*
X384900Y128000D02*
X520100D01*
X384900Y126000D02*
X520100D01*
X388000Y114353D02*
Y133899D01*
X386000Y114353D02*
Y131899D01*
X384900Y63309D02*
Y130799D01*
Y130000D02*
X520100D01*
X303101Y134000D02*
X379900D01*
X301101Y132000D02*
X379100D01*
Y111462D02*
Y132000D01*
X297101Y128000D02*
X379100D01*
X299101Y130000D02*
X379100D01*
X368000Y113154D02*
Y136846D01*
X358000Y113154D02*
Y136846D01*
X360000Y55000D02*
Y153531D01*
X352000Y113154D02*
Y136846D01*
X350000Y55000D02*
Y153531D01*
X348000Y113154D02*
Y136846D01*
X332000Y113154D02*
Y136846D01*
X330000Y55000D02*
Y153531D01*
X340000Y55000D02*
Y153531D01*
X328000Y113154D02*
Y136846D01*
X364000Y114236D02*
Y135764D01*
X366000Y114236D02*
Y135764D01*
X346000Y114236D02*
Y135764D01*
X356000Y114236D02*
Y135764D01*
X362000Y113154D02*
Y136846D01*
X354000Y114236D02*
Y135764D01*
X344000Y114236D02*
Y135764D01*
X334000Y114236D02*
Y135764D01*
X336000Y114236D02*
Y135764D01*
X326716Y136000D02*
X333283D01*
X324000Y114236D02*
Y135764D01*
X338000Y113154D02*
Y136846D01*
X342000Y113154D02*
Y136846D01*
X326000Y114236D02*
Y135764D01*
X461717Y114000D02*
X520100D01*
X463866Y112000D02*
X520100D01*
X441716Y114000D02*
X448283D01*
X451717D02*
X458284D01*
X443866Y112000D02*
X446134D01*
X453866D02*
X456134D01*
X384900Y118000D02*
X520100D01*
X384900Y116000D02*
X520100D01*
X384900Y122000D02*
X520100D01*
X384900Y120000D02*
X520100D01*
X431716Y114000D02*
X438283D01*
X433866Y112000D02*
X436134D01*
X464353Y110000D02*
X520100D01*
X463866Y108000D02*
X520100D01*
X454353Y110000D02*
X455647D01*
X461717Y106000D02*
X520100D01*
X453866Y108000D02*
X456134D01*
X444353Y110000D02*
X445647D01*
X443866Y108000D02*
X446134D01*
X434353Y110000D02*
X435647D01*
X433866Y108000D02*
X436134D01*
X441716Y106000D02*
X448283D01*
X451717D02*
X458284D01*
X431716D02*
X438283D01*
X421716Y114000D02*
X428284D01*
X423866Y112000D02*
X426134D01*
X401717Y114000D02*
X408284D01*
X411717D02*
X418284D01*
X413866Y112000D02*
X416134D01*
X403866D02*
X406134D01*
X394353Y114000D02*
X398284D01*
X394353Y112000D02*
X396134D01*
X385647Y114353D02*
X394353D01*
Y110000D02*
X395647D01*
X394353Y105647D02*
Y114353D01*
X384900Y110000D02*
X385647D01*
X424353D02*
X425647D01*
X423866Y108000D02*
X426134D01*
X404353Y110000D02*
X405647D01*
X414353D02*
X415647D01*
X411717Y106000D02*
X418284D01*
X421716D02*
X428284D01*
X413866Y108000D02*
X416134D01*
X403866D02*
X406134D01*
X401717Y106000D02*
X408284D01*
X384900Y108000D02*
X385647D01*
X394353D02*
X396134D01*
X394353Y106000D02*
X398284D01*
X385647Y105647D02*
X394353D01*
X384900Y106000D02*
X385647D01*
X464000Y55000D02*
Y108283D01*
X458000Y55000D02*
Y106134D01*
X462000Y55000D02*
Y106134D01*
X454000Y55000D02*
Y108283D01*
X456000Y55000D02*
Y108283D01*
X448000Y55000D02*
Y106134D01*
X452000Y55000D02*
Y106134D01*
X446000Y55000D02*
Y108283D01*
X444000Y55000D02*
Y108283D01*
X442000Y55000D02*
Y106134D01*
X440000Y55000D02*
Y105647D01*
X438000Y55000D02*
Y106134D01*
X384900Y94000D02*
X520100D01*
X384900Y92000D02*
X520100D01*
X385919Y62000D02*
X519081D01*
X386400Y60000D02*
X518600D01*
X460000Y55000D02*
Y105647D01*
X385919Y58000D02*
X519081D01*
X450000Y55000D02*
Y105647D01*
X384900Y88000D02*
X520100D01*
X384900Y86000D02*
X520100D01*
X384900Y104000D02*
X520100D01*
X384900Y90000D02*
X520100D01*
X384900Y80000D02*
X520100D01*
X384900Y68000D02*
X520100D01*
X384900Y84000D02*
X520100D01*
X424000Y55000D02*
Y108283D01*
X426000Y55000D02*
Y108283D01*
X418000Y55000D02*
Y106134D01*
X422000Y55000D02*
Y106134D01*
X434000Y55000D02*
Y108283D01*
X436000Y55000D02*
Y108283D01*
X428000Y55000D02*
Y106134D01*
X432000Y55000D02*
Y106134D01*
X404000Y55000D02*
Y108283D01*
X406000Y55000D02*
Y108283D01*
X385647Y105647D02*
Y114353D01*
X396000Y55000D02*
Y108283D01*
X414000Y55000D02*
Y108283D01*
X416000Y55000D02*
Y108283D01*
X412000Y55000D02*
Y106134D01*
X402000Y55000D02*
Y106134D01*
X408000Y55000D02*
Y106134D01*
X398000Y55000D02*
Y106134D01*
X400000Y55000D02*
Y105647D01*
X420000Y55000D02*
Y105647D01*
X430000Y55000D02*
Y105647D01*
X410000Y55000D02*
Y105647D01*
X392000Y55000D02*
Y105647D01*
X394000Y55000D02*
Y105647D01*
X386000Y61833D02*
Y105647D01*
X388000Y55000D02*
Y105647D01*
X390000Y55000D02*
Y105647D01*
X386000Y55000D02*
Y58167D01*
X384900Y124000D02*
X520100D01*
X384900Y114000D02*
X385647D01*
X376716D02*
X379100D01*
X384900Y112000D02*
X385647D01*
X368866D02*
X371134D01*
X292900Y122000D02*
X379100D01*
X292900Y120000D02*
X379100D01*
X295101Y126000D02*
X379100D01*
X293101Y124000D02*
X379100D01*
X292900Y118000D02*
X379100D01*
X292900Y116000D02*
X379100D01*
X366717Y114000D02*
X373284D01*
X376716Y106000D02*
X379100D01*
X384900Y102000D02*
X520100D01*
X366717Y106000D02*
X373284D01*
X384900Y98000D02*
X520100D01*
X384900Y96000D02*
X520100D01*
X384900Y100000D02*
X520100D01*
X292900D02*
X379100D01*
X292900Y98000D02*
X379100D01*
X292900Y104000D02*
X379100D01*
X292900Y102000D02*
X379100D01*
X292900Y94000D02*
X379100D01*
X292900Y92000D02*
X379100D01*
X292900Y96000D02*
X379100D01*
X356716Y114000D02*
X363283D01*
X358866Y112000D02*
X361134D01*
X346716Y114000D02*
X353284D01*
X348866Y112000D02*
X351134D01*
X369353Y110000D02*
X370647D01*
X336717Y114000D02*
X343284D01*
X338866Y112000D02*
X341134D01*
X316717Y114000D02*
X323284D01*
X326716D02*
X333283D01*
X328866Y112000D02*
X331134D01*
X358866Y108000D02*
X361134D01*
X368866D02*
X371134D01*
X349353Y110000D02*
X350647D01*
X359353D02*
X360647D01*
X346716Y106000D02*
X353284D01*
X356716D02*
X363283D01*
X348866Y108000D02*
X351134D01*
X339353Y110000D02*
X340647D01*
X338866Y108000D02*
X341134D01*
X329353Y110000D02*
X330647D01*
X328866Y108000D02*
X331134D01*
X326716Y106000D02*
X333283D01*
X336717D02*
X343284D01*
X316717D02*
X323284D01*
X384900Y82000D02*
X520100D01*
X384900Y78000D02*
X520100D01*
X292900Y86000D02*
X379100D01*
X292900Y84000D02*
X379100D01*
X384900Y76000D02*
X520100D01*
X384900Y74000D02*
X520100D01*
X379100Y63309D02*
Y108538D01*
X384900Y72000D02*
X520100D01*
X292900Y82000D02*
X379100D01*
X292900Y78000D02*
X379100D01*
X292900Y90000D02*
X379100D01*
X292900Y88000D02*
X379100D01*
X292900Y74000D02*
X379100D01*
X292900Y72000D02*
X379100D01*
X292900Y76000D02*
X379100D01*
X384900Y64000D02*
X520100D01*
X383833Y56000D02*
X521167D01*
X384900Y70000D02*
X520100D01*
X384900Y66000D02*
X520100D01*
X384000Y55000D02*
Y56081D01*
X382000Y55000D02*
Y55600D01*
X380000Y55000D02*
Y56081D01*
X292900Y66000D02*
X379100D01*
X292900Y64000D02*
X379100D01*
X292900Y70000D02*
X379100D01*
X292900Y68000D02*
X379100D01*
X205000Y55000D02*
X795000D01*
X234353Y56000D02*
X380167D01*
X372000Y55000D02*
Y106846D01*
X378000Y61833D02*
Y106846D01*
X368000Y55000D02*
Y106846D01*
X366000Y55000D02*
Y105764D01*
X358000Y55000D02*
Y106846D01*
X362000Y55000D02*
Y106846D01*
X352000Y55000D02*
Y106846D01*
X332000Y55000D02*
Y106846D01*
X338000Y55000D02*
Y106846D01*
X328000Y55000D02*
Y106846D01*
X326000Y55000D02*
Y105764D01*
X348000Y55000D02*
Y106846D01*
X344000Y55000D02*
Y105764D01*
X342000Y55000D02*
Y106846D01*
X356000Y55000D02*
Y105764D01*
X364000Y55000D02*
Y105764D01*
X346000Y55000D02*
Y105764D01*
X354000Y55000D02*
Y105764D01*
X376000Y55000D02*
Y105764D01*
X378000Y55000D02*
Y58167D01*
X374000Y55000D02*
Y105764D01*
X292900Y80000D02*
X379100D01*
X293348Y62000D02*
X378081D01*
X293900Y60000D02*
X377600D01*
X293348Y58000D02*
X378081D01*
X334000Y55000D02*
Y105764D01*
X336000Y55000D02*
Y105764D01*
X324000Y55000D02*
Y105764D01*
X322000Y143154D02*
Y356821D01*
X316000Y144236D02*
Y151631D01*
X306000Y144236D02*
Y238402D01*
X314000Y144236D02*
Y151631D01*
X318000Y143154D02*
Y151793D01*
X308000Y143154D02*
Y238676D01*
X312000Y143154D02*
Y151793D01*
X304000Y144236D02*
Y238584D01*
X300000Y139101D02*
Y240549D01*
X302000Y143154D02*
Y239252D01*
X296000Y135101D02*
Y258503D01*
X298000Y137101D02*
Y243014D01*
X294353Y135647D02*
Y144353D01*
X318866Y142000D02*
X321134D01*
X319353Y140000D02*
X320647D01*
X308866Y142000D02*
X311134D01*
X309353Y140000D02*
X310647D01*
X318866Y138000D02*
X321134D01*
X306716Y136000D02*
X313283D01*
X308866Y138000D02*
X311134D01*
X294353Y144000D02*
X303284D01*
X306716D02*
X313283D01*
X294353Y142000D02*
X301134D01*
X294353Y140000D02*
X300647D01*
X294353Y138000D02*
X298899D01*
X294353Y136000D02*
X296899D01*
X294000Y144353D02*
Y257317D01*
X290000Y144353D02*
Y256614D01*
X280000Y144353D02*
Y279702D01*
X288000Y144353D02*
Y256958D01*
X284000Y141717D02*
Y259420D01*
X285647Y135647D02*
Y144353D01*
X278000Y143866D02*
Y280508D01*
X282000Y143866D02*
Y262862D01*
X274000Y141717D02*
Y285087D01*
X276000Y141717D02*
Y282014D01*
X268000Y143866D02*
Y445000D01*
X272000Y143866D02*
Y445000D01*
X266000Y141717D02*
Y445000D01*
X264000Y141717D02*
Y445000D01*
X284353Y140000D02*
X285647D01*
X283866Y138000D02*
X285647D01*
X281716Y144000D02*
X285647D01*
X283866Y142000D02*
X285647D01*
X281716Y136000D02*
X285647D01*
Y135647D02*
X294353D01*
X271716Y144000D02*
X278284D01*
X273866Y142000D02*
X276134D01*
X263866D02*
X266134D01*
X264353Y140000D02*
X265647D01*
X273866Y138000D02*
X276134D01*
X271716Y136000D02*
X278284D01*
X274353Y140000D02*
X275647D01*
X318000Y113154D02*
Y136846D01*
X316000Y114236D02*
Y135764D01*
X308000Y114353D02*
Y136846D01*
X314000Y114236D02*
Y135764D01*
X320000Y55000D02*
Y153531D01*
X322000Y113154D02*
Y136846D01*
X310000Y55000D02*
Y153531D01*
X312000Y113154D02*
Y136846D01*
X292900Y123799D02*
X304755Y135654D01*
X304000Y114353D02*
Y134899D01*
X287949Y127051D02*
X300654Y139755D01*
X294000Y133101D02*
Y135647D01*
X306000Y114353D02*
Y135764D01*
X302000Y114353D02*
Y132899D01*
X300000Y55000D02*
Y130899D01*
X309353Y114000D02*
X313283D01*
X318866Y112000D02*
X321134D01*
X300647Y114353D02*
X309353D01*
Y112000D02*
X311134D01*
X309353Y105647D02*
Y114353D01*
X300647Y105647D02*
Y114353D01*
X292900Y114000D02*
X300647D01*
X293866Y112000D02*
X300647D01*
X294000Y111716D02*
Y124899D01*
X294353Y110000D02*
X300647D01*
X298000Y55000D02*
Y128899D01*
X296000Y55000D02*
Y126899D01*
X290000Y129101D02*
Y135647D01*
X292000Y131101D02*
Y135647D01*
X280000Y114353D02*
Y135647D01*
X288000Y127101D02*
Y135647D01*
X284000Y111716D02*
Y138284D01*
X286000Y111716D02*
Y135647D01*
X278000Y113866D02*
Y136134D01*
X282000Y113866D02*
Y136134D01*
X274000Y111716D02*
Y138284D01*
X272000Y113866D02*
Y136134D01*
X268000Y113866D02*
Y136134D01*
X270000Y114353D02*
Y135647D01*
X266000Y111716D02*
Y138284D01*
X276000Y111716D02*
Y138284D01*
X264000Y111716D02*
Y138284D01*
X287100Y113246D02*
Y125000D01*
X281716Y114000D02*
X287100D01*
X292900Y113246D02*
Y123799D01*
X283866Y112000D02*
X286134D01*
X271716Y114000D02*
X278284D01*
X273866Y112000D02*
X276134D01*
X263866D02*
X266134D01*
X274353Y110000D02*
X275647D01*
X260000Y144353D02*
Y445000D01*
X251716Y144000D02*
X258283D01*
X252000Y143866D02*
Y445000D01*
X258000Y143866D02*
Y445000D01*
X262000Y143866D02*
Y445000D01*
X254000Y141717D02*
Y445000D01*
X256000Y141717D02*
Y445000D01*
X246000Y141717D02*
Y445000D01*
X248000Y143866D02*
Y445000D01*
X238000Y143866D02*
Y445000D01*
X242000Y143866D02*
Y445000D01*
X244000Y141717D02*
Y445000D01*
X261717Y144000D02*
X268284D01*
X263866Y138000D02*
X266134D01*
X253866Y142000D02*
X256134D01*
X254353Y140000D02*
X255647D01*
X251716Y136000D02*
X258283D01*
X261717D02*
X268284D01*
X253866Y138000D02*
X256134D01*
X241717Y144000D02*
X248284D01*
X243866Y142000D02*
X246134D01*
X231716Y144000D02*
X238283D01*
X244353Y140000D02*
X245647D01*
X243866Y138000D02*
X246134D01*
X241717Y136000D02*
X248284D01*
X231716D02*
X238283D01*
X236000Y141717D02*
Y445000D01*
X232000Y143866D02*
Y426134D01*
X228000Y143866D02*
Y426134D01*
X230000Y144353D02*
Y425647D01*
X234000Y141717D02*
Y428284D01*
X224000Y141717D02*
Y445000D01*
X226000Y141717D02*
Y428284D01*
X222000Y143866D02*
Y445000D01*
X221716Y144000D02*
X228284D01*
X218000Y143866D02*
Y445000D01*
X205000Y144000D02*
X218284D01*
X216000Y141717D02*
Y445000D01*
X233866Y142000D02*
X236134D01*
X234353Y140000D02*
X235647D01*
X223866Y142000D02*
X226134D01*
X224353Y140000D02*
X225647D01*
X233866Y138000D02*
X236134D01*
X221716Y136000D02*
X228284D01*
X223866Y138000D02*
X226134D01*
X205000Y142000D02*
X216134D01*
X205000Y140000D02*
X215647D01*
X205000Y136000D02*
X218284D01*
X205000Y138000D02*
X216134D01*
X262000Y113866D02*
Y136134D01*
X260000Y114353D02*
Y135647D01*
X258000Y113866D02*
Y136134D01*
X250000Y114353D02*
Y135647D01*
X254000Y111716D02*
Y138284D01*
X256000Y111716D02*
Y138284D01*
X248000Y113866D02*
Y136134D01*
X252000Y113866D02*
Y136134D01*
X205000Y134000D02*
X294899D01*
X205000Y132000D02*
X292899D01*
X205000Y130000D02*
X290899D01*
X205000Y128000D02*
X288899D01*
X244000Y111716D02*
Y138284D01*
X246000Y111716D02*
Y138284D01*
X242000Y113866D02*
Y136134D01*
X251716Y114000D02*
X258283D01*
X261717D02*
X268284D01*
X241717D02*
X248284D01*
X253866Y112000D02*
X256134D01*
X243866D02*
X246134D01*
X205000Y126000D02*
X287278D01*
X205000Y124000D02*
X287100D01*
X205000Y122000D02*
X287100D01*
X205000Y120000D02*
X287100D01*
X205000Y118000D02*
X287100D01*
X205000Y116000D02*
X287100D01*
X232000Y113866D02*
Y136134D01*
X238000Y113866D02*
Y136134D01*
X218000Y113866D02*
Y136134D01*
X228000Y113866D02*
Y136134D01*
X234000Y111716D02*
Y138284D01*
X236000Y111716D02*
Y138284D01*
X224000Y111716D02*
Y138284D01*
X226000Y111716D02*
Y138284D01*
X214000Y55000D02*
Y445000D01*
X216000Y111716D02*
Y138284D01*
X210000Y55000D02*
Y445000D01*
X212000Y55000D02*
Y445000D01*
X206000Y55000D02*
Y445000D01*
X208000Y55000D02*
Y445000D01*
X205000Y55000D02*
Y445000D01*
X240000Y114353D02*
Y135647D01*
X231716Y114000D02*
X238283D01*
X230000Y114353D02*
Y135647D01*
X233866Y112000D02*
X236134D01*
X234353Y110000D02*
X235647D01*
X224353D02*
X225647D01*
X222000Y113866D02*
Y136134D01*
X221716Y114000D02*
X228284D01*
X220000Y114353D02*
Y135647D01*
X205000Y114000D02*
X218284D01*
X223866Y112000D02*
X226134D01*
X205000D02*
X216134D01*
X319353Y110000D02*
X320647D01*
X318866Y108000D02*
X321134D01*
X309353Y110000D02*
X310647D01*
X309353Y108000D02*
X311134D01*
X309353Y106000D02*
X313283D01*
X300647Y105647D02*
X309353D01*
X293866Y108000D02*
X300647D01*
X283866D02*
X286134D01*
X292900Y106000D02*
X300647D01*
X284353Y110000D02*
X285647D01*
X281900Y106000D02*
X287100D01*
X281900Y104000D02*
X287100D01*
X271900Y106000D02*
X278100D01*
X281900Y98000D02*
X287100D01*
X281900Y96000D02*
X287100D01*
X281900Y102000D02*
X287100D01*
X281900Y100000D02*
X287100D01*
X281900Y88000D02*
X287100D01*
X281900Y86000D02*
X287100D01*
X281900Y94000D02*
X287100D01*
X271900Y100000D02*
X278100D01*
X271900Y94000D02*
X278100D01*
X271900Y104000D02*
X278100D01*
X271900Y102000D02*
X278100D01*
X281900Y90000D02*
X287100D01*
X281900Y84000D02*
X287100D01*
X281900Y92000D02*
X287100D01*
X273866Y108000D02*
X276134D01*
X261900Y104000D02*
X268100D01*
X264353Y110000D02*
X265647D01*
X263866Y108000D02*
X266134D01*
X261900Y102000D02*
X268100D01*
X271900Y98000D02*
X278100D01*
X262000Y93348D02*
Y106134D01*
X261900Y100000D02*
X268100D01*
X261900Y106000D02*
X268100D01*
X254353Y110000D02*
X255647D01*
X253866Y108000D02*
X256134D01*
X258100Y93406D02*
Y106084D01*
X261900Y93406D02*
Y106084D01*
X258000Y93348D02*
Y106134D01*
X271900Y96000D02*
X278100D01*
X271900Y92000D02*
X278100D01*
X263900Y90000D02*
X268100D01*
X271900D02*
X278100D01*
X271900Y86000D02*
X278100D01*
X271900Y84000D02*
X278100D01*
X271900Y88000D02*
X278100D01*
X261900Y94000D02*
X268100D01*
X263348Y92000D02*
X268100D01*
X261900Y98000D02*
X268100D01*
X261900Y96000D02*
X268100D01*
X263348Y88000D02*
X268100D01*
X312000Y55000D02*
Y106846D01*
X308000Y55000D02*
Y105647D01*
X304000Y55000D02*
Y105647D01*
X306000Y55000D02*
Y105647D01*
X318000Y55000D02*
Y106846D01*
X322000Y55000D02*
Y106846D01*
X314000Y55000D02*
Y105764D01*
X316000Y55000D02*
Y105764D01*
X294000Y55000D02*
Y108283D01*
X292900Y62608D02*
Y106754D01*
X287100Y62608D02*
Y106754D01*
X286000Y55000D02*
Y108283D01*
X302000Y55000D02*
Y105647D01*
X284000Y55000D02*
Y108283D01*
X283348Y82000D02*
X287100D01*
X283900Y80000D02*
X287100D01*
X292000Y55000D02*
Y56652D01*
X290000Y55000D02*
Y56100D01*
X288000Y55000D02*
Y56652D01*
X283348Y78000D02*
X287100D01*
X271900Y76000D02*
X287100D01*
X271900Y74000D02*
X287100D01*
X273900Y70000D02*
X287100D01*
X273348Y68000D02*
X287100D01*
X273348Y72000D02*
X287100D01*
X282000Y83348D02*
Y106134D01*
X281900Y83406D02*
Y106084D01*
X278000Y83348D02*
Y106134D01*
X278100Y83406D02*
Y106084D01*
X274000Y55000D02*
Y108283D01*
X276000Y55000D02*
Y108283D01*
X272000Y73348D02*
Y106134D01*
X271900Y73406D02*
Y106084D01*
X268000Y73348D02*
Y106134D01*
X268100Y73406D02*
Y106084D01*
X264000Y55000D02*
Y108283D01*
X266000Y55000D02*
Y108283D01*
X254000Y55000D02*
Y108283D01*
X256000Y55000D02*
Y108283D01*
X252000Y55000D02*
Y106134D01*
X271900Y82000D02*
X276652D01*
X280000Y55000D02*
Y76100D01*
X271900Y80000D02*
X276100D01*
X271900Y78000D02*
X276652D01*
X278000Y55000D02*
Y76652D01*
X282000Y55000D02*
Y76652D01*
X272000Y55000D02*
Y66652D01*
X258000Y55000D02*
Y86652D01*
X270000Y55000D02*
Y66100D01*
X262000Y55000D02*
Y86652D01*
X268000Y55000D02*
Y66652D01*
X260000Y55000D02*
Y86100D01*
X241717Y106000D02*
X248284D01*
X251716D02*
X258100D01*
X244353Y110000D02*
X245647D01*
X243866Y108000D02*
X246134D01*
X233866Y102000D02*
X258100D01*
X234353Y100000D02*
X258100D01*
X234000Y101716D02*
Y108283D01*
Y91716D02*
Y98283D01*
X231716Y106000D02*
X238283D01*
X231716Y104000D02*
X258100D01*
X233866Y108000D02*
X236134D01*
X232000Y103866D02*
Y106134D01*
X233866Y98000D02*
X258100D01*
X233866Y92000D02*
X256652D01*
X234353Y90000D02*
X256100D01*
X233866Y88000D02*
X256652D01*
X233866Y82000D02*
X268100D01*
X234353Y80000D02*
X268100D01*
X234000Y81717D02*
Y88283D01*
X231716Y96000D02*
X258100D01*
X231716Y86000D02*
X268100D01*
X232000Y93866D02*
Y96134D01*
X231716Y94000D02*
X258100D01*
X231716Y84000D02*
X268100D01*
X232000Y83866D02*
Y86134D01*
X221716Y106000D02*
X228284D01*
X230000Y104353D02*
Y105647D01*
X223866Y108000D02*
X226134D01*
X228000Y103866D02*
Y106134D01*
X226000Y101716D02*
Y108283D01*
Y91716D02*
Y98283D01*
X205000Y106000D02*
X218284D01*
X205000Y104000D02*
X228284D01*
X205000Y110000D02*
X215647D01*
X205000Y108000D02*
X216134D01*
X205000Y102000D02*
X226134D01*
X205000Y98000D02*
X226134D01*
X205000Y100000D02*
X225647D01*
X230000Y94353D02*
Y95647D01*
Y84353D02*
Y85647D01*
X228000Y93866D02*
Y96134D01*
X205000Y94000D02*
X228284D01*
X228000Y83866D02*
Y86134D01*
X205000Y82000D02*
X226134D01*
X226000Y81717D02*
Y88283D01*
X205000Y96000D02*
X228284D01*
X205000Y92000D02*
X226134D01*
X205000Y90000D02*
X225647D01*
X205000Y88000D02*
X226134D01*
X205000Y86000D02*
X228284D01*
X205000Y84000D02*
X228284D01*
X205000Y80000D02*
X225647D01*
X242000Y55000D02*
Y106134D01*
X240000Y55000D02*
Y105647D01*
X236000Y55000D02*
Y108283D01*
X238000Y55000D02*
Y106134D01*
X248000Y55000D02*
Y106134D01*
X250000Y55000D02*
Y105647D01*
X244000Y55000D02*
Y108283D01*
X246000Y55000D02*
Y108283D01*
X233866Y78000D02*
X268100D01*
X231716Y76000D02*
X268100D01*
X231716Y74000D02*
X268100D01*
X234000Y71716D02*
Y78284D01*
X232000Y73866D02*
Y76134D01*
X234353Y64000D02*
X287100D01*
X234353Y62000D02*
X286652D01*
X234353Y70000D02*
X266100D01*
X234000Y64353D02*
Y68283D01*
X234353Y60000D02*
X286100D01*
X234353Y58000D02*
X286652D01*
X234353Y55647D02*
Y64353D01*
X233866Y72000D02*
X266652D01*
X231716Y66000D02*
X287100D01*
X233866Y68000D02*
X266652D01*
X232000Y64353D02*
Y66134D01*
X225647Y64353D02*
X234353D01*
X225647Y55647D02*
X234353D01*
X234000Y55000D02*
Y55647D01*
X228000Y73866D02*
Y76134D01*
X230000Y74353D02*
Y75647D01*
X226000Y71716D02*
Y78284D01*
Y64353D02*
Y68283D01*
X224000Y55000D02*
Y108283D01*
X222000Y55000D02*
Y106134D01*
X220000Y55000D02*
Y105647D01*
X205000Y76000D02*
X228284D01*
X205000Y74000D02*
X228284D01*
X205000Y78000D02*
X226134D01*
X205000Y72000D02*
X226134D01*
X218000Y55000D02*
Y106134D01*
X205000Y70000D02*
X225647D01*
X216000Y55000D02*
Y108283D01*
X230000Y64353D02*
Y65647D01*
Y55000D02*
Y55647D01*
X228000Y64353D02*
Y66134D01*
X225647Y55647D02*
Y64353D01*
X228000Y55000D02*
Y55647D01*
X232000Y55000D02*
Y55647D01*
X226000Y55000D02*
Y55647D01*
X205000Y68000D02*
X226134D01*
X205000Y66000D02*
X228284D01*
X205000Y64000D02*
X225647D01*
X205000Y62000D02*
X225647D01*
X205000Y58000D02*
X225647D01*
X205000Y56000D02*
X225647D01*
X205000Y60000D02*
X225647D01*
D12*
X790000Y430000D02*
X793953D01*
X790000D02*
Y433953D01*
Y426047D02*
Y430000D01*
X786047D02*
X790000D01*
X650000Y392500D02*
X661000D01*
X650000D02*
Y403500D01*
Y381500D02*
Y392500D01*
X639000D02*
X650000D01*
Y207500D02*
X661000D01*
X639000D02*
X650000D01*
Y196500D02*
Y207500D01*
Y218500D01*
X565000Y390158D02*
Y393815D01*
X495000Y425000D02*
Y428500D01*
X489000Y425000D02*
X495000D01*
X501000D01*
X495000Y421500D02*
Y425000D01*
X561342Y390158D02*
X565000D01*
X568657D01*
X565000Y386500D02*
Y390158D01*
X540000Y390000D02*
X544937D01*
X540000Y387032D02*
Y390000D01*
X535063D02*
X540000D01*
X500000Y375000D02*
Y378362D01*
Y375000D02*
X503362D01*
X500000Y371638D02*
Y375000D01*
X496638D02*
X500000D01*
Y190000D02*
X503362D01*
X500000D02*
Y193362D01*
Y186638D02*
Y190000D01*
X496638D02*
X500000D01*
X695000Y155000D02*
X699937D01*
X695000Y152032D02*
Y155000D01*
X690063D02*
X695000D01*
X675000D02*
X679937D01*
X675000Y152032D02*
Y155000D01*
X670063D02*
X675000D01*
X655000D02*
X659937D01*
X655000Y152032D02*
Y155000D01*
X650063D02*
X655000D01*
X630063D02*
X635000D01*
X639937D01*
X635000Y152032D02*
Y155000D01*
X615000D02*
X619937D01*
X610063D02*
X615000D01*
Y152032D02*
Y155000D01*
X790000Y100000D02*
Y103953D01*
X685000Y110000D02*
Y113953D01*
X681047Y110000D02*
X685000D01*
X688953D01*
X685000Y106047D02*
Y110000D01*
X790000Y100000D02*
X793953D01*
X786047D02*
X790000D01*
Y96047D02*
Y100000D01*
X595000Y155000D02*
X599937D01*
X590063D02*
X595000D01*
X575000D02*
X579937D01*
X570063D02*
X575000D01*
X550063D02*
X555000D01*
X559937D01*
X595000Y152032D02*
Y155000D01*
X575000Y152032D02*
Y155000D01*
X555000Y152032D02*
Y155000D01*
X530063D02*
X535000D01*
X539937D01*
X510063D02*
X515000D01*
X519937D01*
X490063D02*
X495000D01*
X499937D01*
X475000D02*
X479937D01*
X470063D02*
X475000D01*
X535000Y152032D02*
Y155000D01*
X515000Y152032D02*
Y155000D01*
X495000Y152032D02*
Y155000D01*
X475000Y152032D02*
Y155000D01*
X600000Y110000D02*
Y113953D01*
Y110000D02*
X603953D01*
X600000Y106047D02*
Y110000D01*
X596047D02*
X600000D01*
X460000Y365000D02*
X464937D01*
X455063D02*
X460000D01*
Y367969D01*
X450000Y395000D02*
X453362D01*
X450000D02*
Y398362D01*
Y391638D02*
Y395000D01*
X446638D02*
X450000D01*
X460000Y220158D02*
X463658D01*
X456343D02*
X460000D01*
Y223815D01*
Y216500D02*
Y220158D01*
X455000Y152032D02*
Y155000D01*
X450063D02*
X455000D01*
X459937D01*
X435000Y152032D02*
Y155000D01*
X439937D01*
X430063D02*
X435000D01*
X415000Y152032D02*
Y155000D01*
X419937D01*
X410063D02*
X415000D01*
X390063D02*
X395000D01*
X399937D01*
X395000Y152032D02*
Y155000D01*
X339000Y392500D02*
X350000D01*
X361000D01*
X350000D02*
Y403500D01*
Y381500D02*
Y392500D01*
X230000Y430000D02*
Y433953D01*
X226047Y430000D02*
X230000D01*
X233953D01*
X230000Y426047D02*
Y430000D01*
X350000Y207500D02*
X361000D01*
X350000D02*
Y218500D01*
Y196500D02*
Y207500D01*
X339000D02*
X350000D01*
X375000Y155000D02*
X379937D01*
X375000Y152032D02*
Y155000D01*
X370063D02*
X375000D01*
X355000D02*
X359937D01*
X350063D02*
X355000D01*
Y152032D02*
Y155000D01*
X335000D02*
X339937D01*
X335000Y152032D02*
Y155000D01*
X330063D02*
X335000D01*
X315000D02*
X319937D01*
X315000Y152032D02*
Y155000D01*
X310063D02*
X315000D01*
X460000Y110000D02*
Y113953D01*
X456047Y110000D02*
X460000D01*
X463953D01*
X460000Y106047D02*
Y110000D01*
X371047D02*
X375000D01*
Y113953D01*
Y106047D02*
Y110000D01*
X220000Y140000D02*
Y143953D01*
X216047Y140000D02*
X220000D01*
X223953D01*
X220000Y136047D02*
Y140000D01*
X230000Y100000D02*
X233953D01*
X230000D02*
Y103953D01*
Y96047D02*
Y100000D01*
X226047D02*
X230000D01*
X530000Y139000D02*
Y140000D01*
X280000Y80000D02*
Y110000D01*
X270000Y70000D02*
Y110000D01*
X260000Y90000D02*
Y110000D01*
D13*
X608000Y133000D02*
X615000Y140000D01*
X608000Y60000D02*
Y133000D01*
X523000Y60000D02*
Y132000D01*
X530000Y139000D01*
X382000Y132000D02*
X390000Y140000D01*
X382000Y60000D02*
Y132000D01*
X290000Y125000D02*
X305000Y140000D01*
X290000Y110000D02*
Y125000D01*
Y60000D02*
Y110000D01*
D14*
X650000Y231250D02*
D03*
X673200Y235500D02*
D03*
X694200Y247800D02*
D03*
X709500Y265500D02*
D03*
X717700Y288300D02*
D03*
Y311700D02*
D03*
X709500Y334500D02*
D03*
X694200Y352500D02*
D03*
X673200Y364500D02*
D03*
X650000Y368750D02*
D03*
X626500Y364500D02*
D03*
X605800Y352700D02*
D03*
X590500Y334500D02*
D03*
X582300Y311700D02*
D03*
Y288300D02*
D03*
X590500Y265500D02*
D03*
X605800Y247300D02*
D03*
X350000Y231250D02*
D03*
X373200Y235500D02*
D03*
X394200Y247800D02*
D03*
X409500Y265500D02*
D03*
X417700Y288300D02*
D03*
Y311700D02*
D03*
X409500Y334500D02*
D03*
X394200Y352500D02*
D03*
X373200Y364500D02*
D03*
X350000Y368750D02*
D03*
X326500Y364500D02*
D03*
X305800Y352700D02*
D03*
X290500Y334500D02*
D03*
X282300Y311700D02*
D03*
Y288300D02*
D03*
X290500Y265500D02*
D03*
X305800Y247300D02*
D03*
D15*
X650000Y207500D02*
D03*
Y392500D02*
D03*
X350000Y207500D02*
D03*
Y392500D02*
D03*
D16*
X608000Y60000D02*
D03*
X523000D02*
D03*
X382000D02*
D03*
D17*
X375000Y140000D02*
D03*
X365000D02*
D03*
X355000D02*
D03*
X345000D02*
D03*
X335000D02*
D03*
X325000D02*
D03*
X315000D02*
D03*
X305000D02*
D03*
X375000Y110000D02*
D03*
X365000D02*
D03*
X355000D02*
D03*
X345000D02*
D03*
X335000D02*
D03*
X325000D02*
D03*
X315000D02*
D03*
X460000Y140000D02*
D03*
X450000D02*
D03*
X440000D02*
D03*
X430000D02*
D03*
X420000D02*
D03*
X410000D02*
D03*
X400000D02*
D03*
X390000D02*
D03*
X460000Y110000D02*
D03*
X450000D02*
D03*
X440000D02*
D03*
X430000D02*
D03*
X420000D02*
D03*
X410000D02*
D03*
X400000D02*
D03*
X600000Y140000D02*
D03*
X590000D02*
D03*
X580000D02*
D03*
X570000D02*
D03*
X560000D02*
D03*
X550000D02*
D03*
X540000D02*
D03*
X530000D02*
D03*
X600000Y110000D02*
D03*
X590000D02*
D03*
X580000D02*
D03*
X570000D02*
D03*
X560000D02*
D03*
X550000D02*
D03*
X540000D02*
D03*
X685000Y140000D02*
D03*
X675000D02*
D03*
X665000D02*
D03*
X655000D02*
D03*
X645000D02*
D03*
X635000D02*
D03*
X625000D02*
D03*
X615000D02*
D03*
X685000Y110000D02*
D03*
X675000D02*
D03*
X665000D02*
D03*
X655000D02*
D03*
X645000D02*
D03*
X635000D02*
D03*
X625000D02*
D03*
X230000Y430000D02*
D03*
X790000D02*
D03*
X220000Y110000D02*
D03*
X230000D02*
D03*
X240000D02*
D03*
X250000D02*
D03*
X260000D02*
D03*
X270000D02*
D03*
X280000D02*
D03*
X290000D02*
D03*
X220000Y140000D02*
D03*
X230000D02*
D03*
X240000D02*
D03*
X250000D02*
D03*
X260000D02*
D03*
X270000D02*
D03*
X280000D02*
D03*
X790000Y100000D02*
D03*
Y90000D02*
D03*
Y80000D02*
D03*
Y70000D02*
D03*
X230000Y100000D02*
D03*
Y90000D02*
D03*
Y80000D02*
D03*
Y70000D02*
D03*
D18*
X305000Y110000D02*
D03*
X390000D02*
D03*
X530000D02*
D03*
X615000D02*
D03*
X230000Y440000D02*
D03*
X790000D02*
D03*
X290000Y140000D02*
D03*
X790000Y60000D02*
D03*
X230000D02*
D03*
D19*
X455000Y185000D02*
D03*
X425000D02*
D03*
X540000Y340000D02*
D03*
Y370000D02*
D03*
X570000Y430000D02*
D03*
X540000D02*
D03*
Y440000D02*
D03*
X510000D02*
D03*
X475000Y300000D02*
D03*
X525000D02*
D03*
X475000Y280000D02*
D03*
Y250000D02*
D03*
X545000Y185000D02*
D03*
X575000D02*
D03*
D20*
X565000Y390158D02*
D03*
X460000Y220158D02*
D03*
D21*
X565000Y409842D02*
D03*
X460000Y239843D02*
D03*
D22*
X500000Y220000D02*
D03*
X450000Y425000D02*
D03*
D23*
X500000Y190000D02*
D03*
Y375000D02*
D03*
X490000D02*
D03*
X450000Y395000D02*
D03*
D24*
X510000Y375000D02*
D03*
D25*
X315000Y165000D02*
D03*
Y160000D02*
D03*
X495000Y165000D02*
D03*
Y160000D02*
D03*
X475000Y165000D02*
D03*
Y160000D02*
D03*
X455000Y165000D02*
D03*
Y160000D02*
D03*
X540000Y400000D02*
D03*
Y395000D02*
D03*
X435000Y165000D02*
D03*
Y160000D02*
D03*
X415000Y165000D02*
D03*
Y160000D02*
D03*
X460000Y355000D02*
D03*
X395000Y165000D02*
D03*
Y160000D02*
D03*
X375000Y165000D02*
D03*
Y160000D02*
D03*
X355000Y165000D02*
D03*
Y160000D02*
D03*
X335000Y165000D02*
D03*
Y160000D02*
D03*
X515000Y165000D02*
D03*
Y160000D02*
D03*
X695000Y165000D02*
D03*
Y160000D02*
D03*
X675000Y165000D02*
D03*
Y160000D02*
D03*
X655000Y165000D02*
D03*
Y160000D02*
D03*
X635000Y165000D02*
D03*
Y160000D02*
D03*
X615000Y165000D02*
D03*
Y160000D02*
D03*
X595000Y165000D02*
D03*
Y160000D02*
D03*
X575000Y165000D02*
D03*
Y160000D02*
D03*
X555000Y165000D02*
D03*
Y160000D02*
D03*
X535000Y165000D02*
D03*
Y160000D02*
D03*
D26*
X315000Y155000D02*
D03*
X495000D02*
D03*
X475000D02*
D03*
X455000D02*
D03*
X540000Y390000D02*
D03*
X435000Y155000D02*
D03*
X415000D02*
D03*
X460000Y360000D02*
D03*
Y365000D02*
D03*
X395000Y155000D02*
D03*
X375000D02*
D03*
X355000D02*
D03*
X335000D02*
D03*
X515000D02*
D03*
X695000D02*
D03*
X675000D02*
D03*
X655000D02*
D03*
X635000D02*
D03*
X615000D02*
D03*
X595000D02*
D03*
X575000D02*
D03*
X555000D02*
D03*
X535000D02*
D03*
D27*
X525000Y395000D02*
D03*
Y405000D02*
D03*
Y415000D02*
D03*
Y425000D02*
D03*
X495000Y395000D02*
D03*
Y405000D02*
D03*
Y415000D02*
D03*
D28*
Y425000D02*
D03*
D29*
X540000Y250590D02*
D03*
D30*
Y209409D02*
D03*
D31*
X290000Y60000D02*
D03*
X280000Y80000D02*
D03*
X270000Y70000D02*
D03*
X260000Y90000D02*
D03*
M02*
