G04 Layer_Color=8388736*
%FSLAX25Y25*%
%MOIN*%
G70*
G01*
G75*
%ADD37R,0.05131X0.06312*%
%ADD38C,0.15800*%
%ADD39C,0.20800*%
%ADD40C,0.06800*%
%ADD41C,0.06706*%
%ADD42R,0.06706X0.06706*%
%ADD43C,0.06312*%
%ADD44C,0.06115*%
%ADD45R,0.06115X0.06115*%
%ADD46R,0.05524X0.05524*%
%ADD47C,0.05524*%
%ADD48R,0.05524X0.05524*%
%ADD49O,0.08674X0.04737*%
%ADD50O,0.08674X0.04737*%
%ADD51O,0.10800X0.05800*%
%ADD52R,0.10800X0.05800*%
%ADD53C,0.08674*%
%ADD54R,0.08674X0.08674*%
%ADD55C,0.05800*%
D37*
X268701Y149606D02*
D03*
X274606D02*
D03*
X280512D02*
D03*
X286417D02*
D03*
X292323D02*
D03*
X298228D02*
D03*
X274606Y157480D02*
D03*
X268701D02*
D03*
X286417D02*
D03*
X280512D02*
D03*
X298228D02*
D03*
X292323D02*
D03*
D38*
X650000Y231250D02*
D03*
X673200Y235500D02*
D03*
X694200Y247800D02*
D03*
X709500Y265500D02*
D03*
X717700Y288300D02*
D03*
Y311700D02*
D03*
X709500Y334500D02*
D03*
X694200Y352500D02*
D03*
X673200Y364500D02*
D03*
X650000Y368750D02*
D03*
X626500Y364500D02*
D03*
X605800Y352700D02*
D03*
X590500Y334500D02*
D03*
X582300Y311700D02*
D03*
Y288300D02*
D03*
X590500Y265500D02*
D03*
X605800Y247300D02*
D03*
X350000Y231250D02*
D03*
X373200Y235500D02*
D03*
X394200Y247800D02*
D03*
X409500Y265500D02*
D03*
X417700Y288300D02*
D03*
Y311700D02*
D03*
X409500Y334500D02*
D03*
X394200Y352500D02*
D03*
X373200Y364500D02*
D03*
X350000Y368750D02*
D03*
X326500Y364500D02*
D03*
X305800Y352700D02*
D03*
X290500Y334500D02*
D03*
X282300Y311700D02*
D03*
Y288300D02*
D03*
X290500Y265500D02*
D03*
X305800Y247300D02*
D03*
D39*
X650000Y207500D02*
D03*
Y392500D02*
D03*
X350000Y207500D02*
D03*
Y392500D02*
D03*
D40*
X608000Y60000D02*
D03*
X523000D02*
D03*
X382000D02*
D03*
D41*
X375000Y140000D02*
D03*
X365000D02*
D03*
X355000D02*
D03*
X345000D02*
D03*
X335000D02*
D03*
X325000D02*
D03*
X315000D02*
D03*
X305000D02*
D03*
X375000Y110000D02*
D03*
X365000D02*
D03*
X355000D02*
D03*
X345000D02*
D03*
X335000D02*
D03*
X325000D02*
D03*
X315000D02*
D03*
X460000Y140000D02*
D03*
X450000D02*
D03*
X440000D02*
D03*
X430000D02*
D03*
X420000D02*
D03*
X410000D02*
D03*
X400000D02*
D03*
X390000D02*
D03*
X460000Y110000D02*
D03*
X450000D02*
D03*
X440000D02*
D03*
X430000D02*
D03*
X420000D02*
D03*
X410000D02*
D03*
X400000D02*
D03*
X600000Y140000D02*
D03*
X590000D02*
D03*
X580000D02*
D03*
X570000D02*
D03*
X560000D02*
D03*
X550000D02*
D03*
X540000D02*
D03*
X530000D02*
D03*
X600000Y110000D02*
D03*
X590000D02*
D03*
X580000D02*
D03*
X570000D02*
D03*
X560000D02*
D03*
X550000D02*
D03*
X540000D02*
D03*
X685000Y140000D02*
D03*
X675000D02*
D03*
X665000D02*
D03*
X655000D02*
D03*
X645000D02*
D03*
X635000D02*
D03*
X625000D02*
D03*
X615000D02*
D03*
X685000Y110000D02*
D03*
X675000D02*
D03*
X665000D02*
D03*
X655000D02*
D03*
X645000D02*
D03*
X635000D02*
D03*
X625000D02*
D03*
X230000Y430000D02*
D03*
X790000D02*
D03*
X220000Y110000D02*
D03*
X230000D02*
D03*
X240000D02*
D03*
X250000D02*
D03*
X260000D02*
D03*
X270000D02*
D03*
X280000D02*
D03*
X290000D02*
D03*
X220000Y140000D02*
D03*
X230000D02*
D03*
X240000D02*
D03*
X250000D02*
D03*
X260000D02*
D03*
X270000D02*
D03*
X280000D02*
D03*
X790000Y100000D02*
D03*
Y90000D02*
D03*
Y80000D02*
D03*
Y70000D02*
D03*
X230000Y100000D02*
D03*
Y90000D02*
D03*
Y80000D02*
D03*
Y70000D02*
D03*
D42*
X305000Y110000D02*
D03*
X390000D02*
D03*
X530000D02*
D03*
X615000D02*
D03*
X230000Y440000D02*
D03*
X790000D02*
D03*
X290000Y140000D02*
D03*
X790000Y60000D02*
D03*
X230000D02*
D03*
D43*
X455000Y185000D02*
D03*
X425000D02*
D03*
X540000Y340000D02*
D03*
Y370000D02*
D03*
X570000Y430000D02*
D03*
X540000D02*
D03*
Y440000D02*
D03*
X510000D02*
D03*
X475000Y300000D02*
D03*
X525000D02*
D03*
X475000Y280000D02*
D03*
Y250000D02*
D03*
X545000Y185000D02*
D03*
X575000D02*
D03*
D44*
X565000Y390158D02*
D03*
X460000Y220158D02*
D03*
D45*
X565000Y409842D02*
D03*
X460000Y239843D02*
D03*
D46*
X500000Y220000D02*
D03*
X450000Y425000D02*
D03*
D47*
X500000Y190000D02*
D03*
Y375000D02*
D03*
X490000D02*
D03*
X450000Y395000D02*
D03*
D48*
X510000Y375000D02*
D03*
D49*
X315000Y165000D02*
D03*
Y160000D02*
D03*
X495000Y165000D02*
D03*
Y160000D02*
D03*
X475000Y165000D02*
D03*
Y160000D02*
D03*
X455000Y165000D02*
D03*
Y160000D02*
D03*
X540000Y400000D02*
D03*
Y395000D02*
D03*
X435000Y165000D02*
D03*
Y160000D02*
D03*
X415000Y165000D02*
D03*
Y160000D02*
D03*
X460000Y355000D02*
D03*
X395000Y165000D02*
D03*
Y160000D02*
D03*
X375000Y165000D02*
D03*
Y160000D02*
D03*
X355000Y165000D02*
D03*
Y160000D02*
D03*
X335000Y165000D02*
D03*
Y160000D02*
D03*
X515000Y165000D02*
D03*
Y160000D02*
D03*
X695000Y165000D02*
D03*
Y160000D02*
D03*
X675000Y165000D02*
D03*
Y160000D02*
D03*
X655000Y165000D02*
D03*
Y160000D02*
D03*
X635000Y165000D02*
D03*
Y160000D02*
D03*
X615000Y165000D02*
D03*
Y160000D02*
D03*
X595000Y165000D02*
D03*
Y160000D02*
D03*
X575000Y165000D02*
D03*
Y160000D02*
D03*
X555000Y165000D02*
D03*
Y160000D02*
D03*
X535000Y165000D02*
D03*
Y160000D02*
D03*
D50*
X315000Y155000D02*
D03*
X495000D02*
D03*
X475000D02*
D03*
X455000D02*
D03*
X540000Y390000D02*
D03*
X435000Y155000D02*
D03*
X415000D02*
D03*
X460000Y360000D02*
D03*
Y365000D02*
D03*
X395000Y155000D02*
D03*
X375000D02*
D03*
X355000D02*
D03*
X335000D02*
D03*
X515000D02*
D03*
X695000D02*
D03*
X675000D02*
D03*
X655000D02*
D03*
X635000D02*
D03*
X615000D02*
D03*
X595000D02*
D03*
X575000D02*
D03*
X555000D02*
D03*
X535000D02*
D03*
D51*
X525000Y395000D02*
D03*
Y405000D02*
D03*
Y415000D02*
D03*
Y425000D02*
D03*
X495000Y395000D02*
D03*
Y405000D02*
D03*
Y415000D02*
D03*
D52*
Y425000D02*
D03*
D53*
X540000Y250590D02*
D03*
D54*
Y209409D02*
D03*
D55*
X290000Y60000D02*
D03*
X280000Y80000D02*
D03*
X270000Y70000D02*
D03*
X260000Y90000D02*
D03*
M02*
