G04 Layer_Physical_Order=1*
G04 Layer_Color=255*
%FSLAX25Y25*%
%MOIN*%
G70*
G01*
G75*
%ADD10C,0.00800*%
%ADD11R,0.04331X0.05512*%
%ADD12C,0.01000*%
%ADD13C,0.03000*%
%ADD14C,0.15000*%
%ADD15C,0.20000*%
%ADD16C,0.06000*%
%ADD17C,0.05905*%
%ADD18R,0.05905X0.05905*%
%ADD19C,0.05512*%
%ADD20C,0.05315*%
%ADD21R,0.05315X0.05315*%
%ADD22R,0.04724X0.04724*%
%ADD23C,0.04724*%
%ADD24R,0.04724X0.04724*%
%ADD25O,0.07874X0.03937*%
%ADD26O,0.07874X0.03937*%
%ADD27O,0.10000X0.05000*%
%ADD28R,0.10000X0.05000*%
%ADD29C,0.07874*%
%ADD30R,0.07874X0.07874*%
%ADD31C,0.05000*%
D10*
X794353Y430000D02*
G03*
X794353Y430000I-4353J0D01*
G01*
X661400Y392500D02*
G03*
X661400Y392500I-11400J0D01*
G01*
X703864Y376551D02*
G03*
X701814Y377400I-2051J-2051D01*
G01*
X703864Y376551D02*
G03*
X701814Y377400I-2051J-2051D01*
G01*
X669058D02*
G03*
X667007Y376551I0J-2900D01*
G01*
X669058Y377400D02*
G03*
X667007Y376551I0J-2900D01*
G01*
X658894Y368436D02*
G03*
X658900Y368750I-8895J314D01*
G01*
X745900Y333314D02*
G03*
X745051Y335364I-2900J0D01*
G01*
X745900Y333314D02*
G03*
X745051Y335364I-2900J0D01*
G01*
X658100Y314000D02*
G03*
X658949Y311949I2900J0D01*
G01*
X658100Y314000D02*
G03*
X658949Y311949I2900J0D01*
G01*
X658900Y368750D02*
G03*
X658100Y365062I-8900J0D01*
G01*
X611993Y364751D02*
G03*
X609942Y365600I-2051J-2051D01*
G01*
X635400Y364500D02*
G03*
X635400Y364500I-8900J0D01*
G01*
X611993Y364751D02*
G03*
X609942Y365600I-2051J-2051D01*
G01*
X622900Y352642D02*
G03*
X622051Y354693I-2900J0D01*
G01*
X622900Y352642D02*
G03*
X622051Y354693I-2900J0D01*
G01*
X574156Y430000D02*
G03*
X574156Y430000I-4156J0D01*
G01*
X542900Y437023D02*
G03*
X544156Y440000I-2900J2977D01*
G01*
X542900Y427023D02*
G03*
X544156Y430000I-2900J2977D01*
G01*
D02*
G03*
X542900Y432977I-4156J0D01*
G01*
X542051Y417949D02*
G03*
X542900Y420000I-2051J2051D01*
G01*
X542051Y417949D02*
G03*
X542900Y420000I-2051J2051D01*
G01*
X536820Y412743D02*
G03*
X537051Y412949I-1820J2258D01*
G01*
X544156Y440000D02*
G03*
X537100Y437023I-4156J0D01*
G01*
Y432977D02*
G03*
X537100Y427023I2900J-2977D01*
G01*
X527500Y421100D02*
G03*
X531400Y425000I0J3900D01*
G01*
D02*
G03*
X527500Y428900I-3900J0D01*
G01*
X512900Y437023D02*
G03*
X514156Y440000I-2900J2977D01*
G01*
X536820Y412743D02*
G03*
X537051Y412949I-1820J2258D01*
G01*
X530108Y417900D02*
G03*
X527500Y418900I-2608J-2900D01*
G01*
X522500Y428900D02*
G03*
X522500Y421100I0J-3900D01*
G01*
X512051Y417949D02*
G03*
X512900Y420000I-2051J2051D01*
G01*
X522500Y418900D02*
G03*
X522500Y411100I0J-3900D01*
G01*
X545337Y400000D02*
G03*
X541968Y403369I-3368J0D01*
G01*
X545337Y395000D02*
G03*
X544226Y397500I-3368J0D01*
G01*
D02*
G03*
X545337Y400000I-2258J2500D01*
G01*
X569058Y390158D02*
G03*
X569058Y390158I-4058J0D01*
G01*
X601658Y365600D02*
G03*
X599607Y364751I0J-2900D01*
G01*
X601658Y365600D02*
G03*
X599607Y364751I0J-2900D01*
G01*
X544226Y392500D02*
G03*
X545337Y395000I-2258J2500D01*
G01*
X541968Y386631D02*
G03*
X545337Y390000I0J3368D01*
G01*
D02*
G03*
X544226Y392500I-3368J0D01*
G01*
X538031Y403369D02*
G03*
X536318Y402900I0J-3368D01*
G01*
X544156Y370000D02*
G03*
X539946Y374155I-4156J0D01*
G01*
X570249Y335393D02*
G03*
X569400Y333342I2051J-2051D01*
G01*
X570249Y335393D02*
G03*
X569400Y333342I2051J-2051D01*
G01*
X542900Y337023D02*
G03*
X544156Y340000I-2900J2977D01*
G01*
X531400Y405000D02*
G03*
X530939Y406838I-3900J0D01*
G01*
X530786Y402900D02*
G03*
X531400Y405000I-3286J2100D01*
G01*
X534891Y391219D02*
G03*
X538031Y386631I3140J-1219D01*
G01*
X529571Y387100D02*
G03*
X531622Y387949I0J2900D01*
G01*
X529571Y387100D02*
G03*
X531622Y387949I0J2900D01*
G01*
X522500Y408900D02*
G03*
X519892Y407900I0J-3900D01*
G01*
Y402100D02*
G03*
X522500Y401100I2608J2900D01*
G01*
X512949Y402949D02*
G03*
X515000Y402100I2051J2051D01*
G01*
X512949Y402949D02*
G03*
X515000Y402100I2051J2051D01*
G01*
X522500Y398900D02*
G03*
X519214Y392900I0J-3900D01*
G01*
X537051Y377051D02*
G03*
X535000Y377900I-2051J-2051D01*
G01*
X537051Y377051D02*
G03*
X535000Y377900I-2051J-2051D01*
G01*
X544156Y340000D02*
G03*
X537100Y337023I-4156J0D01*
G01*
X535844Y370054D02*
G03*
X544156Y370000I4156J-54D01*
G01*
X529156Y300000D02*
G03*
X529156Y300000I-4156J0D01*
G01*
X712949Y257051D02*
G03*
X712100Y255000I2051J-2051D01*
G01*
X712949Y257051D02*
G03*
X712100Y255000I2051J-2051D01*
G01*
X745051Y250949D02*
G03*
X745900Y253000I-2051J2051D01*
G01*
X745051Y250949D02*
G03*
X745900Y253000I-2051J2051D01*
G01*
X701500Y269399D02*
G03*
X713398Y257499I8000J-3899D01*
G01*
X689051Y257051D02*
G03*
X687000Y257900I-2051J-2051D01*
G01*
X703100Y247800D02*
G03*
X690301Y255800I-8900J0D01*
G01*
X689051Y257051D02*
G03*
X687000Y257900I-2051J-2051D01*
G01*
X686200Y251699D02*
G03*
X703100Y247800I8000J-3899D01*
G01*
X702949Y243364D02*
G03*
X702100Y241314I2051J-2051D01*
G01*
X702949Y243364D02*
G03*
X702100Y241314I2051J-2051D01*
G01*
X687900Y240000D02*
G03*
X687051Y242051I-2900J0D01*
G01*
X687900Y240000D02*
G03*
X687051Y242051I-2900J0D01*
G01*
Y227949D02*
G03*
X687900Y230000I-2051J2051D01*
G01*
X687051Y227949D02*
G03*
X687900Y230000I-2051J2051D01*
G01*
X675000Y217100D02*
G03*
X677051Y217949I0J2900D01*
G01*
X675000Y217100D02*
G03*
X677051Y217949I0J2900D01*
G01*
X661400Y207500D02*
G03*
X656148Y217100I-11400J0D01*
G01*
X643852D02*
G03*
X661400Y207500I6148J-9600D01*
G01*
X569400Y284158D02*
G03*
X570249Y282107I2900J0D01*
G01*
X569400Y284158D02*
G03*
X570249Y282107I2900J0D01*
G01*
X577600Y261358D02*
G03*
X578449Y259307I2900J0D01*
G01*
X577600Y261358D02*
G03*
X578449Y259307I2900J0D01*
G01*
X552900Y255000D02*
G03*
X552051Y257051I-2900J0D01*
G01*
X552900Y255000D02*
G03*
X552051Y257051I-2900J0D01*
G01*
X537100Y265000D02*
G03*
X537949Y262949I2900J0D01*
G01*
X545337Y250590D02*
G03*
X538882Y255809I-5337J0D01*
G01*
X534781Y251708D02*
G03*
X545337Y250590I5219J-1118D01*
G01*
X537100Y265000D02*
G03*
X537949Y262949I2900J0D01*
G01*
X552051Y217359D02*
G03*
X552900Y219409I-2051J2051D01*
G01*
X552051Y217359D02*
G03*
X552900Y219409I-2051J2051D01*
G01*
X551074Y197051D02*
G03*
X550225Y195000I2051J-2051D01*
G01*
X551074Y197051D02*
G03*
X550225Y195000I2051J-2051D01*
G01*
X549122Y184474D02*
G03*
X549156Y185000I-4122J526D01*
G01*
X531460Y222051D02*
G03*
X529410Y222900I-2051J-2051D01*
G01*
X531460Y222051D02*
G03*
X529410Y222900I-2051J-2051D01*
G01*
X549156Y185000D02*
G03*
X542023Y187900I-4156J0D01*
G01*
Y182100D02*
G03*
X545526Y180877I2977J2900D01*
G01*
X540172Y175523D02*
G03*
X538332Y175000I-172J-2895D01*
G01*
X540172Y175523D02*
G03*
X538332Y175000I-172J-2895D01*
G01*
X532949Y182949D02*
G03*
X535000Y182100I2051J2051D01*
G01*
X532949Y182949D02*
G03*
X535000Y182100I2051J2051D01*
G01*
X514156Y440000D02*
G03*
X507100Y437023I-4156J0D01*
G01*
X512051Y417949D02*
G03*
X512900Y420000I-2051J2051D01*
G01*
X500108Y417900D02*
G03*
X497500Y418900I-2608J-2900D01*
G01*
X501400Y405000D02*
G03*
X497500Y408900I-3900J0D01*
G01*
Y401100D02*
G03*
X501400Y405000I0J3900D01*
G01*
X497500Y411100D02*
G03*
X500108Y412100I0J3900D01*
G01*
X501400Y395000D02*
G03*
X497500Y398900I-3900J0D01*
G01*
X492500Y418900D02*
G03*
X492500Y411100I0J-3900D01*
G01*
Y408900D02*
G03*
X489060Y403162I0J-3900D01*
G01*
X453762Y395000D02*
G03*
X453762Y395000I-3762J0D01*
G01*
X505000Y392900D02*
G03*
X502949Y392051I0J-2900D01*
G01*
X505000Y392900D02*
G03*
X502949Y392051I0J-2900D01*
G01*
X497500Y391100D02*
G03*
X501400Y395000I0J3900D01*
G01*
X488629Y394528D02*
G03*
X492500Y391100I3871J472D01*
G01*
X472949Y387051D02*
G03*
X472100Y385000I2051J-2051D01*
G01*
X472949Y387051D02*
G03*
X472100Y385000I2051J-2051D01*
G01*
X503762Y375000D02*
G03*
X503762Y375000I-3762J0D01*
G01*
X489644Y378745D02*
G03*
X493745Y374644I356J-3745D01*
G01*
X477051Y367949D02*
G03*
X477900Y370000I-2051J2051D01*
G01*
X477051Y367949D02*
G03*
X477900Y370000I-2051J2051D01*
G01*
X465337Y365000D02*
G03*
X461969Y368369I-3368J0D01*
G01*
X465280Y364381D02*
G03*
X465337Y365000I-3311J619D01*
G01*
X458032Y368369D02*
G03*
X455774Y362500I0J-3368D01*
G01*
D02*
G03*
X455774Y357500I2258J-2500D01*
G01*
X465000Y357100D02*
G03*
X467051Y357949I0J2900D01*
G01*
X465000Y357100D02*
G03*
X467051Y357949I0J2900D01*
G01*
X465337Y355000D02*
G03*
X464602Y357100I-3368J0D01*
G01*
X462900Y351763D02*
G03*
X465337Y355000I-931J3237D01*
G01*
X455774Y357500D02*
G03*
X457100Y351763I2258J-2500D01*
G01*
X361400Y392500D02*
G03*
X361400Y392500I-11400J0D01*
G01*
X234353Y430000D02*
G03*
X234353Y430000I-4353J0D01*
G01*
X400393Y364551D02*
G03*
X398342Y365400I-2051J-2051D01*
G01*
X400393Y364551D02*
G03*
X398342Y365400I-2051J-2051D01*
G01*
X387500D02*
G03*
X385449Y364551I0J-2900D01*
G01*
X387500Y365400D02*
G03*
X385449Y364551I0J-2900D01*
G01*
X369301Y356500D02*
G03*
X382100Y364500I3899J8000D01*
G01*
D02*
G03*
X365200Y360601I-8900J0D01*
G01*
X382149Y361251D02*
G03*
X381300Y359200I2051J-2051D01*
G01*
X382149Y361251D02*
G03*
X381300Y359200I2051J-2051D01*
G01*
X362949Y358351D02*
G03*
X362100Y356300I2051J-2051D01*
G01*
X362949Y358351D02*
G03*
X362100Y356300I2051J-2051D01*
G01*
X437900Y325842D02*
G03*
X437051Y327893I-2900J0D01*
G01*
X437900Y325842D02*
G03*
X437051Y327893I-2900J0D01*
G01*
X358900Y368750D02*
G03*
X358900Y368750I-8900J0D01*
G01*
X335400Y364500D02*
G03*
X317787Y366314I-8900J0D01*
G01*
X322602Y356499D02*
G03*
X335400Y364500I3898J8001D01*
G01*
X317051Y367051D02*
G03*
X315000Y367900I-2051J-2051D01*
G01*
X317051Y367051D02*
G03*
X315000Y367900I-2051J-2051D01*
G01*
X300000D02*
G03*
X297949Y367051I0J-2900D01*
G01*
X300000Y367900D02*
G03*
X297949Y367051I0J-2900D01*
G01*
X267949Y337051D02*
G03*
X267100Y335000I2051J-2051D01*
G01*
X267949Y337051D02*
G03*
X267100Y335000I2051J-2051D01*
G01*
X477900Y297023D02*
G03*
X479156Y300000I-2900J2977D01*
G01*
D02*
G03*
X474946Y304155I-4156J0D01*
G01*
X512641Y282051D02*
G03*
X510591Y282900I-2051J-2051D01*
G01*
X512641Y282051D02*
G03*
X510591Y282900I-2051J-2051D01*
G01*
X474946Y245845D02*
G03*
X479156Y250000I54J4156D01*
G01*
X470844Y300054D02*
G03*
X472100Y297023I4156J-54D01*
G01*
X457100Y315000D02*
G03*
X457949Y312949I2900J0D01*
G01*
X457100Y315000D02*
G03*
X457949Y312949I2900J0D01*
G01*
X472100Y282977D02*
G03*
X477977Y277100I2900J-2977D01*
G01*
X479156Y250000D02*
G03*
X470844Y249946I-4156J0D01*
G01*
X490000Y222900D02*
G03*
X487949Y222051I0J-2900D01*
G01*
X490000Y222900D02*
G03*
X487949Y222051I0J-2900D01*
G01*
X503762Y190000D02*
G03*
X503762Y190000I-3762J0D01*
G01*
X477051Y177051D02*
G03*
X475000Y177900I-2051J-2051D01*
G01*
X477051Y177051D02*
G03*
X475000Y177900I-2051J-2051D01*
G01*
X464843Y236943D02*
G03*
X466893Y237792I0J2900D01*
G01*
X464843Y236943D02*
G03*
X466893Y237792I0J2900D01*
G01*
X464057Y220158D02*
G03*
X464057Y220158I-4058J0D01*
G01*
X455054Y189155D02*
G03*
X459156Y185000I-54J-4156D01*
G01*
X441900Y310657D02*
G03*
X441051Y312707I-2900J0D01*
G01*
X441900Y310657D02*
G03*
X441051Y312707I-2900J0D01*
G01*
X381300Y290800D02*
G03*
X382149Y288749I2900J0D01*
G01*
X381300Y290800D02*
G03*
X382149Y288749I2900J0D01*
G01*
X362100Y285000D02*
G03*
X362414Y283687I2900J0D01*
G01*
X362100Y285000D02*
G03*
X362414Y283687I2900J0D01*
G01*
X357900Y320000D02*
G03*
X357051Y322051I-2900J0D01*
G01*
X357900Y320000D02*
G03*
X357051Y322051I-2900J0D01*
G01*
X401500Y269399D02*
G03*
X411016Y256730I8000J-3899D01*
G01*
X411016Y256730D02*
G03*
X410742Y255500I2626J-1230D01*
G01*
X411016Y256730D02*
G03*
X410742Y255500I2626J-1230D01*
G01*
X400393Y259851D02*
G03*
X398342Y260700I-2051J-2051D01*
G01*
X400393Y259851D02*
G03*
X398342Y260700I-2051J-2051D01*
G01*
X446900Y230885D02*
G03*
X446051Y232935I-2900J0D01*
G01*
X446900Y230885D02*
G03*
X446051Y232935I-2900J0D01*
G01*
X292100Y185000D02*
G03*
X292949Y182949I2900J0D01*
G01*
X292100Y185000D02*
G03*
X292949Y182949I2900J0D01*
G01*
X267100Y265000D02*
G03*
X267949Y262949I2900J0D01*
G01*
X267100Y265000D02*
G03*
X267949Y262949I2900J0D01*
G01*
X266594Y68100D02*
G03*
X273406Y68100I3406J1900D01*
G01*
X287392Y57100D02*
G03*
X292608Y57100I2608J2900D01*
G01*
Y62900D02*
G03*
X287392Y62900I-2608J-2900D01*
G01*
X233916Y71900D02*
G03*
X233916Y68100I-3916J-1900D01*
G01*
X273406Y71900D02*
G03*
X266594Y71900I-3406J-1900D01*
G01*
X233916Y81900D02*
G03*
X233916Y78100I-3916J-1900D01*
G01*
X276594D02*
G03*
X283406Y78100I3406J1900D01*
G01*
X378691Y57100D02*
G03*
X385309Y57100I3309J2900D01*
G01*
Y62900D02*
G03*
X378691Y62900I-3309J-2900D01*
G01*
X233916Y91900D02*
G03*
X233916Y88100I-3916J-1900D01*
G01*
X234353Y100000D02*
G03*
X234353Y100000I-4353J0D01*
G01*
X224353Y110000D02*
G03*
X224113Y111426I-4353J0D01*
G01*
X221426Y114113D02*
G03*
X224353Y110000I-1426J-4113D01*
G01*
X234353D02*
G03*
X234113Y111426I-4353J0D01*
G01*
X231426Y114113D02*
G03*
X234353Y110000I-1426J-4113D01*
G01*
X241426Y114113D02*
G03*
X244353Y110000I-1426J-4113D01*
G01*
X256594Y88100D02*
G03*
X263406Y88100I3406J1900D01*
G01*
Y91900D02*
G03*
X256594Y91900I-3406J-1900D01*
G01*
X283406Y81900D02*
G03*
X276594Y81900I-3406J-1900D01*
G01*
X294828Y87656D02*
G03*
X296172Y87100I1343J1343D01*
G01*
X294825Y87659D02*
G03*
X296172Y87100I1346J1341D01*
G01*
X253654Y103659D02*
G03*
X255000Y103100I1346J1341D01*
G01*
X253657Y103656D02*
G03*
X255000Y103100I1343J1343D01*
G01*
X244353Y110000D02*
G03*
X244113Y111426I-4353J0D01*
G01*
X246474Y112553D02*
G03*
X251426Y105887I3526J-2553D01*
G01*
X275981Y102207D02*
G03*
X277327Y101647I1346J1341D01*
G01*
X275984Y102204D02*
G03*
X277327Y101647I1343J1343D01*
G01*
X304353Y115158D02*
G03*
X303794Y116504I-1900J0D01*
G01*
X304353Y115158D02*
G03*
X303796Y116502I-1900J0D01*
G01*
X315156Y118353D02*
G03*
X313809Y117794I0J-1900D01*
G01*
X315156Y118353D02*
G03*
X313812Y117796I0J-1900D01*
G01*
X228453Y120353D02*
G03*
X227106Y119793I0J-1900D01*
G01*
X228453Y120353D02*
G03*
X227109Y119796I0J-1900D01*
G01*
X292504Y127794D02*
G03*
X291158Y128353I-1346J-1341D01*
G01*
X292502Y127796D02*
G03*
X291158Y128353I-1343J-1343D01*
G01*
X215647Y140000D02*
G03*
X224353Y140000I4353J0D01*
G01*
X225647D02*
G03*
X231426Y135887I4353J0D01*
G01*
X264113Y138574D02*
G03*
X264353Y140000I-4113J1426D01*
G01*
X276809Y134206D02*
G03*
X278156Y133647I1346J1341D01*
G01*
X276812Y134204D02*
G03*
X278156Y133647I1343J1343D01*
G01*
X281844D02*
G03*
X283188Y134204I0J1900D01*
G01*
X285082D02*
G03*
X286426Y133647I1343J1343D01*
G01*
X265647Y140000D02*
G03*
X273544Y137472I4353J0D01*
G01*
X281844Y133647D02*
G03*
X283191Y134206I0J1900D01*
G01*
X285080D02*
G03*
X286426Y133647I1346J1341D01*
G01*
X331499Y120353D02*
G03*
X330155Y119796I0J-1900D01*
G01*
X331499Y120353D02*
G03*
X330153Y119793I0J-1900D01*
G01*
X354188Y119796D02*
G03*
X352844Y120353I-1343J-1343D01*
G01*
X354191Y119793D02*
G03*
X352844Y120353I-1346J-1341D01*
G01*
X293574Y133647D02*
G03*
X294918Y134204I0J1900D01*
G01*
X293574Y133647D02*
G03*
X294920Y134206I0J1900D01*
G01*
X300981Y138328D02*
G03*
X309353Y140000I4019J1672D01*
G01*
X310647D02*
G03*
X319353Y140000I4353J0D01*
G01*
X320647D02*
G03*
X329353Y140000I4353J0D01*
G01*
X330647D02*
G03*
X339353Y140000I4353J0D01*
G01*
X340647D02*
G03*
X348922Y138113I4353J0D01*
G01*
D02*
G03*
X350046Y138656I-219J1887D01*
G01*
X348922Y138113D02*
G03*
X350049Y138659I-219J1887D01*
G01*
X398574Y105887D02*
G03*
X404353Y110000I1426J4113D01*
G01*
X408574Y105887D02*
G03*
X414353Y110000I1426J4113D01*
G01*
X368056Y106900D02*
G03*
X369353Y110000I-3056J3100D01*
G01*
X378056Y106900D02*
G03*
X379353Y110000I-3056J3100D01*
G01*
X361299Y112292D02*
G03*
X360796Y113188I-1847J-447D01*
G01*
X363100Y113916D02*
G03*
X361299Y112292I1900J-3916D01*
G01*
D02*
G03*
X360793Y113191I-1847J-447D01*
G01*
X369353Y110000D02*
G03*
X366900Y113916I-4353J0D01*
G01*
X404353Y110000D02*
G03*
X395887Y108574I-4353J0D01*
G01*
X414353Y110000D02*
G03*
X405887Y108574I-4353J0D01*
G01*
X434353Y110000D02*
G03*
X434353Y110000I-4353J0D01*
G01*
X443056Y106900D02*
G03*
X444353Y110000I-3056J3100D01*
G01*
X453056Y106900D02*
G03*
X454353Y110000I-3056J3100D01*
G01*
X464353D02*
G03*
X456944Y106900I-4353J0D01*
G01*
X463056D02*
G03*
X464353Y110000I-3056J3100D01*
G01*
X363656Y122641D02*
G03*
X363100Y121297I1343J-1343D01*
G01*
X363659Y122643D02*
G03*
X363100Y121297I1341J-1346D01*
G01*
X379353Y110000D02*
G03*
X371944Y106900I-4353J0D01*
G01*
X350702Y139312D02*
G03*
X359353Y140000I4298J688D01*
G01*
X360647D02*
G03*
X369353Y140000I4353J0D01*
G01*
X370647D02*
G03*
X377356Y136340I4353J0D01*
G01*
X385702Y139312D02*
G03*
X394353Y140000I4298J688D01*
G01*
X395647D02*
G03*
X404353Y140000I4353J0D01*
G01*
X424353Y110000D02*
G03*
X424353Y110000I-4353J0D01*
G01*
X444353D02*
G03*
X435887Y108574I-4353J0D01*
G01*
X454353Y110000D02*
G03*
X446944Y106900I-4353J0D01*
G01*
X405647Y140000D02*
G03*
X414353Y140000I4353J0D01*
G01*
X415647D02*
G03*
X424353Y140000I4353J0D01*
G01*
X425647D02*
G03*
X434353Y140000I4353J0D01*
G01*
X435647D02*
G03*
X444353Y140000I4353J0D01*
G01*
X445647D02*
G03*
X454353Y140000I4353J0D01*
G01*
X455647D02*
G03*
X464353Y140000I4353J0D01*
G01*
X519691Y57100D02*
G03*
X526309Y57100I3309J2900D01*
G01*
Y62900D02*
G03*
X519691Y62900I-3309J-2900D01*
G01*
X611309D02*
G03*
X604691Y62900I-3309J-2900D01*
G01*
Y57100D02*
G03*
X611309Y57100I3309J2900D01*
G01*
X794353Y70000D02*
G03*
X786084Y71900I-4353J0D01*
G01*
Y68100D02*
G03*
X794353Y70000I3916J1900D01*
G01*
Y80000D02*
G03*
X786084Y81900I-4353J0D01*
G01*
Y78100D02*
G03*
X794353Y80000I3916J1900D01*
G01*
X490000Y87100D02*
G03*
X491673Y88100I0J1900D01*
G01*
X489828Y91900D02*
G03*
X488155Y90900I0J-1900D01*
G01*
X549000Y97100D02*
G03*
X550344Y97657I0J1900D01*
G01*
X549000Y97100D02*
G03*
X550346Y97659I0J1900D01*
G01*
X558574Y105887D02*
G03*
X562048Y106159I1426J4113D01*
G01*
X570528Y97659D02*
G03*
X571874Y97100I1346J1341D01*
G01*
X570531Y97657D02*
G03*
X571874Y97100I1343J1343D01*
G01*
X593526Y107447D02*
G03*
X594353Y110000I-3526J2553D01*
G01*
X588100Y113916D02*
G03*
X587447Y113526I1900J-3916D01*
G01*
X594353Y110000D02*
G03*
X591900Y113916I-4353J0D01*
G01*
X603526Y107447D02*
G03*
X604353Y110000I-3526J2553D01*
G01*
D02*
G03*
X596474Y107447I-4353J0D01*
G01*
X623574Y105887D02*
G03*
X629353Y110000I1426J4113D01*
G01*
D02*
G03*
X620887Y108574I-4353J0D01*
G01*
X540000Y121900D02*
G03*
X538654Y121341I0J-1900D01*
G01*
X540000Y121900D02*
G03*
X538657Y121344I0J-1900D01*
G01*
X534954Y138656D02*
G03*
X536078Y138113I1343J1343D01*
G01*
X525647Y140000D02*
G03*
X534298Y139312I4353J0D01*
G01*
X534951Y138659D02*
G03*
X536078Y138113I1346J1341D01*
G01*
D02*
G03*
X544298Y139312I3922J1887D01*
G01*
X544954Y138656D02*
G03*
X546078Y138113I1343J1343D01*
G01*
X544951Y138659D02*
G03*
X546078Y138113I1346J1341D01*
G01*
D02*
G03*
X554298Y139312I3922J1887D01*
G01*
X556078Y138113D02*
G03*
X564353Y140000I3922J1887D01*
G01*
X554954Y138656D02*
G03*
X556078Y138113I1343J1343D01*
G01*
X554951Y138659D02*
G03*
X556078Y138113I1346J1341D01*
G01*
X565647Y140000D02*
G03*
X574353Y140000I4353J0D01*
G01*
X587447Y114453D02*
G03*
X586888Y115799I-1900J0D01*
G01*
X587447Y114453D02*
G03*
X586891Y115796I-1900J0D01*
G01*
X588657Y122641D02*
G03*
X588100Y121297I1343J-1343D01*
G01*
X581344Y121344D02*
G03*
X580000Y121900I-1343J-1343D01*
G01*
X581346Y121341D02*
G03*
X580000Y121900I-1346J-1341D01*
G01*
X588659Y122643D02*
G03*
X588100Y121297I1341J-1346D01*
G01*
X575647Y140000D02*
G03*
X584353Y140000I4353J0D01*
G01*
X585647D02*
G03*
X594353Y140000I4353J0D01*
G01*
X595647D02*
G03*
X602355Y136340I4353J0D01*
G01*
X610702Y139312D02*
G03*
X619353Y140000I4298J688D01*
G01*
X620647D02*
G03*
X628922Y138113I4353J0D01*
G01*
D02*
G03*
X630046Y138656I-219J1887D01*
G01*
X628922Y138113D02*
G03*
X630049Y138659I-219J1887D01*
G01*
X633574Y105887D02*
G03*
X639353Y110000I1426J4113D01*
G01*
X654000Y97100D02*
G03*
X655346Y97659I0J1900D01*
G01*
X654000Y97100D02*
G03*
X655343Y97657I0J1900D01*
G01*
X786084Y88100D02*
G03*
X794353Y90000I3916J1900D01*
G01*
Y100000D02*
G03*
X794353Y100000I-4353J0D01*
G01*
Y90000D02*
G03*
X786084Y91900I-4353J0D01*
G01*
X649353Y110000D02*
G03*
X649353Y110000I-4353J0D01*
G01*
X639353D02*
G03*
X630887Y108574I-4353J0D01*
G01*
X659353Y110000D02*
G03*
X659353Y110000I-4353J0D01*
G01*
X663574Y105887D02*
G03*
X669353Y110000I1426J4113D01*
G01*
X679353D02*
G03*
X679353Y110000I-4353J0D01*
G01*
X669353D02*
G03*
X660887Y108574I-4353J0D01*
G01*
X630702Y139312D02*
G03*
X638922Y138113I4298J688D01*
G01*
D02*
G03*
X640046Y138656I-219J1887D01*
G01*
X638922Y138113D02*
G03*
X640049Y138659I-219J1887D01*
G01*
X640702Y139312D02*
G03*
X649353Y140000I4298J688D01*
G01*
X650647D02*
G03*
X659353Y140000I4353J0D01*
G01*
X660647D02*
G03*
X669353Y140000I4353J0D01*
G01*
X670647D02*
G03*
X679353Y140000I4353J0D01*
G01*
X689353Y110000D02*
G03*
X689353Y110000I-4353J0D01*
G01*
X680647Y140000D02*
G03*
X689353Y140000I4353J0D01*
G01*
X794353Y442000D02*
X795000D01*
X794353Y440000D02*
X795000D01*
X794353Y444000D02*
X795000D01*
X794353Y438000D02*
X795000D01*
X794353Y435647D02*
Y444353D01*
X794000D02*
Y445000D01*
X792000Y444353D02*
Y445000D01*
X785647Y444353D02*
X794353D01*
Y436000D02*
X795000D01*
X793866Y432000D02*
X795000D01*
X794000Y431716D02*
Y435647D01*
X793866Y428000D02*
X795000D01*
X794353Y430000D02*
X795000D01*
X791716Y434000D02*
X795000D01*
X785647Y435647D02*
X794353D01*
X791716Y426000D02*
X795000D01*
X788000Y444353D02*
Y445000D01*
X790000Y444353D02*
Y445000D01*
X786000Y444353D02*
Y445000D01*
X692000Y377400D02*
Y445000D01*
X690000Y377400D02*
Y445000D01*
X684000Y377400D02*
Y445000D01*
X682000Y377400D02*
Y445000D01*
X688000Y377400D02*
Y445000D01*
X686000Y377400D02*
Y445000D01*
X792000Y433866D02*
Y435647D01*
X790000Y434353D02*
Y435647D01*
X785647D02*
Y444353D01*
X788000Y433866D02*
Y435647D01*
X786000Y431716D02*
Y435647D01*
X722000Y358415D02*
Y445000D01*
X724000Y356415D02*
Y445000D01*
X720000Y360415D02*
Y445000D01*
X728000Y352415D02*
Y445000D01*
X726000Y354415D02*
Y445000D01*
X714000Y366415D02*
Y445000D01*
X712000Y368415D02*
Y445000D01*
X718000Y362415D02*
Y445000D01*
X716000Y364415D02*
Y445000D01*
X740000Y340415D02*
Y445000D01*
X738000Y342415D02*
Y445000D01*
X744000Y336415D02*
Y445000D01*
X742000Y338415D02*
Y445000D01*
X732000Y348415D02*
Y445000D01*
X730000Y350415D02*
Y445000D01*
X736000Y344415D02*
Y445000D01*
X734000Y346415D02*
Y445000D01*
X676000Y377400D02*
Y445000D01*
X678000Y377400D02*
Y445000D01*
X674000Y377400D02*
Y445000D01*
X694000Y377400D02*
Y445000D01*
X680000Y377400D02*
Y445000D01*
X672000Y377400D02*
Y445000D01*
X670000Y377400D02*
Y445000D01*
X668000Y377200D02*
Y445000D01*
X666000Y375543D02*
Y445000D01*
X706000Y374415D02*
Y445000D01*
X704000Y376415D02*
Y445000D01*
X710000Y370415D02*
Y445000D01*
X708000Y372415D02*
Y445000D01*
X698000Y377400D02*
Y445000D01*
X696000Y377400D02*
Y445000D01*
X702000Y377394D02*
Y445000D01*
X700000Y377400D02*
Y445000D01*
X571128Y434000D02*
X788283D01*
X573643Y432000D02*
X786134D01*
X573643Y428000D02*
X786134D01*
X542900Y424000D02*
X795000D01*
X571128Y426000D02*
X788283D01*
X542900Y420000D02*
X795000D01*
X542900Y422000D02*
X795000D01*
X540101Y416000D02*
X795000D01*
X542100Y418000D02*
X795000D01*
X569058Y410000D02*
X795000D01*
X569058Y412000D02*
X795000D01*
X658586Y400000D02*
X795000D01*
X656302Y402000D02*
X795000D01*
X569058Y408000D02*
X795000D01*
X538101Y414000D02*
X795000D01*
X531270Y404000D02*
X795000D01*
X569058Y406000D02*
X795000D01*
X652000Y403723D02*
Y445000D01*
X654000Y403175D02*
Y445000D01*
X650000Y403900D02*
Y445000D01*
X658000Y400622D02*
Y445000D01*
X656000Y402193D02*
Y445000D01*
X648000Y403723D02*
Y445000D01*
X646000Y403175D02*
Y445000D01*
X644000Y402193D02*
Y445000D01*
X642000Y400622D02*
Y445000D01*
X574156Y430000D02*
X785647D01*
X544156Y440000D02*
X785647D01*
X544679Y402000D02*
X643698D01*
X545337Y400000D02*
X641414D01*
X543643Y442000D02*
X785647D01*
X541128Y444000D02*
X785647D01*
X542900Y436000D02*
X785647D01*
X543643Y438000D02*
X785647D01*
X659985Y398000D02*
X795000D01*
X660849Y396000D02*
X795000D01*
X660000Y397974D02*
Y445000D01*
X664000Y373543D02*
Y445000D01*
X662000Y371543D02*
Y445000D01*
X544679Y398000D02*
X640015D01*
X640000Y397974D02*
Y445000D01*
X545185Y396000D02*
X639151D01*
X661389Y392000D02*
X795000D01*
X661301Y394000D02*
X795000D01*
X660474Y388000D02*
X795000D01*
X661123Y390000D02*
X795000D01*
X568436Y388000D02*
X639526D01*
X569054Y390000D02*
X638877D01*
X659365Y386000D02*
X795000D01*
X660000Y369543D02*
Y387026D01*
X628000Y373273D02*
Y445000D01*
X630000Y372683D02*
Y445000D01*
X626000Y373386D02*
Y445000D01*
X634000Y369292D02*
Y445000D01*
X632000Y371497D02*
Y445000D01*
X624000Y373042D02*
Y445000D01*
X622000Y372179D02*
Y445000D01*
X620000Y370580D02*
Y445000D01*
X610000Y365599D02*
Y445000D01*
X618000Y367138D02*
Y445000D01*
X612000Y364743D02*
Y445000D01*
X616000Y360743D02*
Y445000D01*
X614000Y362743D02*
Y445000D01*
X566303Y394000D02*
X638699D01*
X568615Y392000D02*
X638611D01*
X608000Y365600D02*
Y445000D01*
X606000Y365600D02*
Y445000D01*
X708415Y372000D02*
X795000D01*
X710415Y370000D02*
X795000D01*
X706415Y374000D02*
X795000D01*
X714415Y366000D02*
X795000D01*
X712415Y368000D02*
X795000D01*
X654440Y382000D02*
X795000D01*
X657597Y384000D02*
X795000D01*
X704415Y376000D02*
X795000D01*
X726415Y354000D02*
X795000D01*
X724415Y356000D02*
X795000D01*
X730415Y350000D02*
X795000D01*
X728415Y352000D02*
X795000D01*
X718415Y362000D02*
X795000D01*
X716415Y364000D02*
X795000D01*
X722415Y358000D02*
X795000D01*
X720415Y360000D02*
X795000D01*
X669058Y377400D02*
X701814D01*
X658949Y368493D02*
X667007Y376551D01*
X654000Y376700D02*
Y381825D01*
X652000Y377422D02*
Y381277D01*
X658000Y372650D02*
Y384378D01*
X656000Y375323D02*
Y382807D01*
X658285Y372000D02*
X662457D01*
X658812Y370000D02*
X660457D01*
X657526Y364000D02*
X658100D01*
X655162Y376000D02*
X666457D01*
X657187Y374000D02*
X664457D01*
X651627Y360000D02*
X658100D01*
X655801Y362000D02*
X658100D01*
X742415Y338000D02*
X795000D01*
X744415Y336000D02*
X795000D01*
X740415Y340000D02*
X795000D01*
X745900Y332000D02*
X795000D01*
X745818Y334000D02*
X795000D01*
X734415Y346000D02*
X795000D01*
X732415Y348000D02*
X795000D01*
X738415Y342000D02*
X795000D01*
X736415Y344000D02*
X795000D01*
X745900Y320000D02*
X795000D01*
X745900Y322000D02*
X795000D01*
X745900Y304000D02*
X795000D01*
X745900Y318000D02*
X795000D01*
X745900Y328000D02*
X795000D01*
X745900Y330000D02*
X795000D01*
X745900Y324000D02*
X795000D01*
X745900Y326000D02*
X795000D01*
X745900Y316000D02*
X795000D01*
X745900Y312000D02*
X795000D01*
X745900Y314000D02*
X795000D01*
X703864Y376551D02*
X745051Y335364D01*
X658100Y314000D02*
Y365062D01*
X745900Y298000D02*
X795000D01*
X745900Y300000D02*
X795000D01*
X745900Y294000D02*
X795000D01*
X745900Y296000D02*
X795000D01*
X745900Y308000D02*
X795000D01*
X745900Y310000D02*
X795000D01*
X745900Y302000D02*
X795000D01*
X745900Y306000D02*
X795000D01*
X648000Y377422D02*
Y381277D01*
X650000Y377650D02*
Y381100D01*
X646000Y376700D02*
Y381825D01*
X644000Y375323D02*
Y382807D01*
X642000Y372650D02*
Y384378D01*
X513762Y378000D02*
X795000D01*
X538101Y376000D02*
X644838D01*
X541128Y374000D02*
X642813D01*
X635386Y364000D02*
X642474D01*
X635273Y366000D02*
X641536D01*
X634178Y360000D02*
X648373D01*
X635042Y362000D02*
X644199D01*
X631292Y372000D02*
X641715D01*
X633497Y370000D02*
X641188D01*
X629138Y356000D02*
X658100D01*
X632580Y358000D02*
X658100D01*
X634683Y368000D02*
X641132D01*
X601658Y365600D02*
X609942D01*
X543643Y372000D02*
X621708D01*
X544156Y370000D02*
X619503D01*
X543643Y368000D02*
X618317D01*
X541128Y366000D02*
X617727D01*
X618743Y358000D02*
X620421D01*
X620000Y356743D02*
Y358420D01*
X620743Y356000D02*
X623862D01*
X622000Y354743D02*
Y356821D01*
X614743Y362000D02*
X617958D01*
X612743Y364000D02*
X617614D01*
X616743Y360000D02*
X618821D01*
X618000Y358743D02*
Y361862D01*
X622900Y338000D02*
X658100D01*
X622900Y336000D02*
X658100D01*
X622900Y340000D02*
X658100D01*
X622900Y310000D02*
X660899D01*
X622900Y312000D02*
X658900D01*
X622900Y352000D02*
X658100D01*
X622563Y354000D02*
X658100D01*
X622900Y342000D02*
X658100D01*
X622900Y344000D02*
X658100D01*
X622900Y298000D02*
X672899D01*
X622900Y300000D02*
X670899D01*
X622900Y294000D02*
X676899D01*
X622900Y296000D02*
X674899D01*
X622900Y306000D02*
X664899D01*
X622900Y308000D02*
X662899D01*
X622900Y302000D02*
X668899D01*
X622900Y304000D02*
X666899D01*
X622900Y346000D02*
X658100D01*
X622900Y334000D02*
X658100D01*
X622900Y348000D02*
X658100D01*
X622900Y330000D02*
X658100D01*
X622900Y332000D02*
X658100D01*
X611993Y364751D02*
X622051Y354693D01*
X622900Y350000D02*
X658100D01*
X622900Y318000D02*
X658100D01*
X622900Y320000D02*
X658100D01*
X622900Y314000D02*
X658100D01*
X622900Y316000D02*
X658100D01*
X622900Y326000D02*
X658100D01*
X622900Y328000D02*
X658100D01*
X622900Y322000D02*
X658100D01*
X622900Y324000D02*
X658100D01*
X570000Y434156D02*
Y445000D01*
X572000Y433643D02*
Y445000D01*
X568000Y433643D02*
Y445000D01*
X574000Y431128D02*
Y445000D01*
X542900Y434000D02*
X568872D01*
X543643Y432000D02*
X566357D01*
X566000Y431128D02*
Y445000D01*
X568000Y413900D02*
Y426357D01*
X566000Y413900D02*
Y428872D01*
X543643Y428000D02*
X566357D01*
X544156Y430000D02*
X565844D01*
X560943Y413900D02*
X569058D01*
X542900Y426000D02*
X568872D01*
X544000Y441128D02*
Y445000D01*
Y431128D02*
Y438872D01*
X542900Y432977D02*
Y437023D01*
X564000Y413900D02*
Y445000D01*
X562000Y413900D02*
Y445000D01*
X542000Y443643D02*
Y445000D01*
X540000Y444156D02*
Y445000D01*
X538000Y443643D02*
Y445000D01*
X542900Y420000D02*
Y427023D01*
X537100Y421201D02*
Y427023D01*
Y432977D02*
Y437023D01*
X537051Y412949D02*
X542051Y417949D01*
X602000Y365600D02*
Y445000D01*
X604000Y365600D02*
Y445000D01*
X600000Y365079D02*
Y445000D01*
X598000Y363143D02*
Y445000D01*
X596000Y361143D02*
Y445000D01*
X594000Y359143D02*
Y445000D01*
X592000Y357143D02*
Y445000D01*
X590000Y355143D02*
Y445000D01*
X588000Y353143D02*
Y445000D01*
X586000Y351143D02*
Y445000D01*
X584000Y349143D02*
Y445000D01*
X582000Y347143D02*
Y445000D01*
X580000Y345143D02*
Y445000D01*
X578000Y343143D02*
Y445000D01*
X576000Y341143D02*
Y445000D01*
X574000Y339143D02*
Y428872D01*
X572000Y337143D02*
Y426357D01*
X554000Y412743D02*
Y445000D01*
X556000Y412743D02*
Y445000D01*
X552000Y412743D02*
Y445000D01*
X560000Y412743D02*
Y445000D01*
X558000Y412743D02*
Y445000D01*
X546000Y412743D02*
Y445000D01*
X544000Y412743D02*
Y428872D01*
X550000Y412743D02*
Y445000D01*
X548000Y412743D02*
Y445000D01*
X560943Y412743D02*
Y413900D01*
X542000Y412743D02*
Y417899D01*
X570000Y335108D02*
Y425844D01*
X569058Y405785D02*
Y413900D01*
X536820Y412743D02*
X560943D01*
X540000D02*
Y415899D01*
X538000Y412743D02*
Y413899D01*
X536000Y441128D02*
Y445000D01*
X514156Y440000D02*
X535844D01*
X536000Y431128D02*
Y438872D01*
X513643Y438000D02*
X536357D01*
X513643Y442000D02*
X536357D01*
X512900Y434000D02*
X537100D01*
X512900Y436000D02*
X537100D01*
X531270Y426000D02*
X537100D01*
X529992Y428000D02*
X536357D01*
X529992Y422000D02*
X537100D01*
X531270Y424000D02*
X537100D01*
X512900Y432000D02*
X536357D01*
X512900Y430000D02*
X535844D01*
X526000Y428900D02*
Y445000D01*
X522500Y428900D02*
X527500D01*
X524000D02*
Y445000D01*
X530000Y427993D02*
Y445000D01*
X528000Y428868D02*
Y445000D01*
X514000Y441128D02*
Y445000D01*
X522000Y428868D02*
Y445000D01*
X520000Y427993D02*
Y445000D01*
X512900Y428000D02*
X520008D01*
X512900Y426000D02*
X518730D01*
X512900Y422000D02*
X520008D01*
X512900Y424000D02*
X518730D01*
X534000Y418101D02*
Y445000D01*
X536000Y420101D02*
Y428872D01*
X530000Y417993D02*
Y422007D01*
X533799Y417900D02*
X537100Y421201D01*
X532000Y417900D02*
Y445000D01*
X512900Y420000D02*
X535899D01*
X522500Y421100D02*
X527500D01*
X528000Y418868D02*
Y421132D01*
X526000Y418900D02*
Y421100D01*
X529992Y418000D02*
X533899D01*
X530108Y417900D02*
X533799D01*
X522500Y418900D02*
X527500D01*
X522500Y411100D02*
X526999D01*
X524799Y408900D02*
X526999Y411100D01*
X526000Y410101D02*
Y411100D01*
X524000Y418900D02*
Y421100D01*
X522000Y418868D02*
Y421132D01*
X520000Y417993D02*
Y422007D01*
X518000Y407900D02*
Y445000D01*
X512900Y420000D02*
Y437023D01*
X516000Y408101D02*
Y445000D01*
X514000Y410101D02*
Y438872D01*
X522500Y408900D02*
X524799D01*
X524000D02*
Y411100D01*
X522000Y408868D02*
Y411132D01*
X520000Y407993D02*
Y412007D01*
X512101Y412000D02*
X520008D01*
X512100Y418000D02*
X520008D01*
X514101Y410000D02*
X525899D01*
X564000Y394090D02*
Y405785D01*
X566000Y394090D02*
Y405785D01*
X560943D02*
Y406943D01*
X568000Y392889D02*
Y405785D01*
X562000Y392889D02*
Y405785D01*
X560943D02*
X569058D01*
X545337Y390000D02*
X560946D01*
X545185Y394000D02*
X563697D01*
X544679Y392000D02*
X561385D01*
X541128Y344000D02*
X578857D01*
X544679Y388000D02*
X561564D01*
X544000Y402687D02*
Y406943D01*
X542000Y403368D02*
Y406943D01*
X538031Y403369D02*
X541968D01*
X540000D02*
Y406943D01*
X538000Y403368D02*
Y406943D01*
X542000Y373643D02*
Y386632D01*
X540000Y374156D02*
Y386631D01*
X544000Y371128D02*
Y387313D01*
X540000Y344156D02*
Y365844D01*
X538031Y386631D02*
X541968D01*
X538000Y376101D02*
Y386632D01*
X537051Y377051D02*
X539946Y374155D01*
X570249Y335393D02*
X599607Y364751D01*
X544156Y340000D02*
X574857D01*
X543643Y338000D02*
X572857D01*
X543643Y342000D02*
X576857D01*
X542900Y336000D02*
X570857D01*
X542900Y334000D02*
X569476D01*
X542900Y332000D02*
X569400D01*
X542900Y320000D02*
X569400D01*
X542900Y322000D02*
X569400D01*
X542900Y300000D02*
X569400D01*
X542900Y302000D02*
X569400D01*
X542900Y328000D02*
X569400D01*
X542900Y330000D02*
X569400D01*
X542900Y324000D02*
X569400D01*
X542900Y326000D02*
X569400D01*
X542900Y318000D02*
X569400D01*
X544000Y341128D02*
Y368872D01*
X542900Y312000D02*
X569400D01*
X542900Y314000D02*
X569400D01*
X542000Y343643D02*
Y366357D01*
X538000Y343643D02*
Y366357D01*
X542900Y316000D02*
X569400D01*
X536000Y341128D02*
Y368872D01*
X542900Y296000D02*
X569400D01*
X542900Y298000D02*
X569400D01*
X542900Y292000D02*
X569400D01*
X542900Y294000D02*
X569400D01*
X542900Y308000D02*
X569400D01*
X542900Y310000D02*
X569400D01*
X542900Y304000D02*
X569400D01*
X542900Y306000D02*
X569400D01*
X531044Y406943D02*
X560943D01*
X531270Y406000D02*
X560943D01*
X532000Y402900D02*
Y406943D01*
X536000Y402900D02*
Y406943D01*
X534000Y402900D02*
Y406943D01*
X530786Y402900D02*
X536318D01*
X522500Y401100D02*
X526999D01*
X531672Y388000D02*
X535321D01*
X533672Y390000D02*
X534663D01*
X531622Y387949D02*
X534891Y391219D01*
X524799Y398900D02*
X526999Y401100D01*
X513762Y377900D02*
X535000D01*
X516101Y408000D02*
X520008D01*
X516201Y407900D02*
X519892D01*
X516000Y392900D02*
Y402100D01*
X515000D02*
X519892D01*
X514000Y392900D02*
Y402278D01*
X526000Y400101D02*
Y401100D01*
X524000Y398900D02*
Y401100D01*
X522500Y398900D02*
X524799D01*
X522000Y398868D02*
Y401132D01*
X520000Y397993D02*
Y402007D01*
X518000Y392900D02*
Y402100D01*
X513762Y377900D02*
Y378762D01*
X536000Y377722D02*
Y387313D01*
X534000Y377900D02*
Y390328D01*
X533799Y372100D02*
X535844Y370054D01*
X532000Y377900D02*
Y388328D01*
X530000Y377900D02*
Y387132D01*
X513762Y372000D02*
X533899D01*
X513762Y372100D02*
X533799D01*
X528643Y298000D02*
X537100D01*
X529156Y300000D02*
X537100D01*
X528643Y302000D02*
X537100D01*
X526128Y304000D02*
X537100D01*
X526128Y296000D02*
X537100D01*
X526000Y377900D02*
Y387100D01*
X528000Y377900D02*
Y387100D01*
X522000Y377900D02*
Y387100D01*
X526000Y304034D02*
Y372100D01*
X524000Y377900D02*
Y387100D01*
X516000Y377900D02*
Y387100D01*
X514000Y377900D02*
Y387100D01*
X520000Y377900D02*
Y387100D01*
X518000Y377900D02*
Y387100D01*
X528000Y302876D02*
Y372100D01*
X524000Y304034D02*
Y372100D01*
X513762Y371238D02*
Y372100D01*
X522000Y302876D02*
Y372100D01*
X745900Y282000D02*
X795000D01*
X745900Y280000D02*
X795000D01*
X745900Y284000D02*
X795000D01*
X745900Y276000D02*
X795000D01*
X745900Y278000D02*
X795000D01*
X745900Y290000D02*
X795000D01*
X745900Y292000D02*
X795000D01*
X745900Y286000D02*
X795000D01*
X745900Y288000D02*
X795000D01*
X745900Y264000D02*
X795000D01*
X745900Y262000D02*
X795000D01*
X745900Y266000D02*
X795000D01*
X745900Y258000D02*
X795000D01*
X745900Y260000D02*
X795000D01*
X745900Y272000D02*
X795000D01*
X745900Y274000D02*
X795000D01*
X745900Y268000D02*
X795000D01*
X745900Y270000D02*
X795000D01*
X712949Y257051D02*
X713398Y257499D01*
X745900Y256000D02*
X795000D01*
X745900Y253000D02*
Y333314D01*
X712100Y252515D02*
Y255000D01*
X712000Y252415D02*
Y256958D01*
X710000Y250415D02*
Y256614D01*
X708000Y248415D02*
Y256727D01*
X745722Y252000D02*
X795000D01*
X745900Y254000D02*
X795000D01*
X744101Y250000D02*
X795000D01*
X702047Y252000D02*
X711585D01*
X702824Y250000D02*
X709585D01*
X703098Y248000D02*
X707585D01*
X780000Y175000D02*
Y445000D01*
X782000Y175000D02*
Y445000D01*
X778000Y175000D02*
Y445000D01*
X795000Y175000D02*
Y445000D01*
X784000Y175000D02*
Y445000D01*
X770000Y175000D02*
Y445000D01*
X768000Y175000D02*
Y445000D01*
X776000Y175000D02*
Y445000D01*
X772000Y175000D02*
Y445000D01*
X790000Y175000D02*
Y425647D01*
X788000Y175000D02*
Y426134D01*
X794000Y175000D02*
Y428284D01*
X792000Y175000D02*
Y426134D01*
X740101Y246000D02*
X795000D01*
X742101Y248000D02*
X795000D01*
X786000Y175000D02*
Y428284D01*
X774000Y175000D02*
Y445000D01*
X760000Y175000D02*
Y445000D01*
X762000Y175000D02*
Y445000D01*
X758000Y175000D02*
Y445000D01*
X766000Y175000D02*
Y445000D01*
X764000Y175000D02*
Y445000D01*
X752000Y175000D02*
Y445000D01*
X750000Y175000D02*
Y445000D01*
X756000Y175000D02*
Y445000D01*
X754000Y175000D02*
Y445000D01*
X744000Y175000D02*
Y249899D01*
X742000Y175000D02*
Y247899D01*
X748000Y175000D02*
Y445000D01*
X746000Y175000D02*
Y445000D01*
X706000Y246415D02*
Y257317D01*
X702916Y246000D02*
X705585D01*
X702949Y243364D02*
X712100Y252515D01*
X704000Y244415D02*
Y258503D01*
X640101Y274000D02*
X696899D01*
X642101Y272000D02*
X698899D01*
X638101Y276000D02*
X694899D01*
X658949Y311949D02*
X701500Y269399D01*
X686000Y257900D02*
Y284899D01*
X632101Y282000D02*
X688899D01*
X630101Y284000D02*
X686899D01*
X636101Y278000D02*
X692899D01*
X634101Y280000D02*
X690899D01*
X654101Y260000D02*
X702503D01*
X652101Y262000D02*
X701317D01*
X656101Y258000D02*
X704708D01*
X656201Y257900D02*
X687000D01*
X646101Y268000D02*
X700958D01*
X644101Y270000D02*
X700899D01*
X650101Y264000D02*
X700727D01*
X648101Y266000D02*
X700614D01*
X672000Y257900D02*
Y298899D01*
X674000Y257900D02*
Y296899D01*
X670000Y257900D02*
Y300899D01*
X678000Y257900D02*
Y292899D01*
X676000Y257900D02*
Y294899D01*
X654000Y260101D02*
Y360800D01*
X652000Y262101D02*
Y360078D01*
X660000Y257900D02*
Y310899D01*
X656000Y258101D02*
Y362177D01*
X628101Y286000D02*
X684899D01*
X680000Y257900D02*
Y290899D01*
X684000Y257900D02*
Y286899D01*
X682000Y257900D02*
Y288899D01*
X624101Y290000D02*
X680899D01*
X622900Y292000D02*
X678899D01*
X626101Y288000D02*
X682899D01*
X622900Y291201D02*
X656201Y257900D01*
X698000Y255848D02*
Y272899D01*
X696000Y256516D02*
Y274899D01*
X702000Y252086D02*
Y260708D01*
X700000Y254551D02*
Y270899D01*
X694000Y256698D02*
Y276899D01*
X692000Y256424D02*
Y278899D01*
X690000Y256101D02*
Y280899D01*
X697660Y256000D02*
X712278D01*
X700585Y254000D02*
X712100D01*
X697900Y203799D02*
X745051Y250949D01*
X690101Y256000D02*
X690740D01*
X689051Y257051D02*
X690301Y255800D01*
X688000Y257722D02*
Y282899D01*
X677000Y252100D02*
X685799D01*
X668000Y257900D02*
Y302899D01*
X685799Y252100D02*
X686200Y251699D01*
X684000Y245101D02*
Y252100D01*
X662000Y257900D02*
Y308899D01*
X658000Y257900D02*
Y364850D01*
X666000Y257900D02*
Y304899D01*
X664000Y257900D02*
Y306899D01*
X686000Y251260D02*
Y251899D01*
X680000Y249101D02*
Y252100D01*
X681101Y248000D02*
X685302D01*
X682000Y247101D02*
Y252100D01*
X677101Y252000D02*
X685899D01*
X678000Y251101D02*
Y252100D01*
X677051Y252051D02*
X687051Y242051D01*
X679101Y250000D02*
X685576D01*
X736101Y242000D02*
X795000D01*
X734101Y240000D02*
X795000D01*
X738101Y244000D02*
X795000D01*
X730101Y236000D02*
X795000D01*
X732101Y238000D02*
X795000D01*
X726101Y232000D02*
X795000D01*
X728101Y234000D02*
X795000D01*
X722101Y228000D02*
X795000D01*
X724101Y230000D02*
X795000D01*
X718101Y224000D02*
X795000D01*
X720101Y226000D02*
X795000D01*
X714101Y220000D02*
X795000D01*
X716101Y222000D02*
X795000D01*
X698101Y204000D02*
X795000D01*
X700101Y206000D02*
X795000D01*
X697900Y196000D02*
X795000D01*
X697900Y198000D02*
X795000D01*
X702248Y244000D02*
X703585D01*
X702100Y236201D02*
Y241314D01*
X702000Y236101D02*
Y243514D01*
X700951Y242000D02*
X702182D01*
X698486Y240000D02*
X702100D01*
X700000Y234101D02*
Y241049D01*
X698000Y232101D02*
Y239752D01*
X710101Y216000D02*
X795000D01*
X712101Y218000D02*
X795000D01*
X706101Y212000D02*
X795000D01*
X708101Y214000D02*
X795000D01*
X702101Y208000D02*
X795000D01*
X704101Y210000D02*
X795000D01*
X697900Y200000D02*
X795000D01*
X697900Y202000D02*
X795000D01*
X736000Y175000D02*
Y241899D01*
X734000Y175000D02*
Y239899D01*
X732000Y175000D02*
Y237899D01*
X740000Y175000D02*
Y245899D01*
X738000Y175000D02*
Y243899D01*
X697900Y192000D02*
X795000D01*
X697900Y194000D02*
X795000D01*
X697900Y190000D02*
X795000D01*
X730000Y175000D02*
Y235899D01*
X697900Y178000D02*
X795000D01*
X697900Y180000D02*
X795000D01*
X697900Y175000D02*
X795000D01*
X697900Y176000D02*
X795000D01*
X697900Y186000D02*
X795000D01*
X697900Y188000D02*
X795000D01*
X697900Y182000D02*
X795000D01*
X697900Y184000D02*
X795000D01*
X724000Y175000D02*
Y229899D01*
X722000Y175000D02*
Y227899D01*
X720000Y175000D02*
Y225899D01*
X728000Y175000D02*
Y233899D01*
X726000Y175000D02*
Y231899D01*
X714000Y175000D02*
Y219899D01*
X712000Y175000D02*
Y217899D01*
X718000Y175000D02*
Y223899D01*
X716000Y175000D02*
Y221899D01*
X706000Y175000D02*
Y211899D01*
X704000Y175000D02*
Y209899D01*
X710000Y175000D02*
Y215899D01*
X708000Y175000D02*
Y213899D01*
X698000Y175000D02*
Y203899D01*
X697900Y175000D02*
Y203799D01*
X702000Y175000D02*
Y207899D01*
X700000Y175000D02*
Y205899D01*
X696000Y230101D02*
Y239084D01*
X694000Y228101D02*
Y238902D01*
X692000Y226101D02*
Y239176D01*
X690000Y224101D02*
Y239953D01*
X688000Y222101D02*
Y241415D01*
X687900Y240000D02*
X689914D01*
X687900Y230000D02*
Y240000D01*
Y238000D02*
X702100D01*
X687900Y236000D02*
X701899D01*
X687900Y234000D02*
X699899D01*
X687900Y232000D02*
X697899D01*
X687900Y230000D02*
X695899D01*
X687100Y228000D02*
X693899D01*
X685101Y226000D02*
X691899D01*
X683101Y224000D02*
X689899D01*
X687100Y242000D02*
X687449D01*
X686000Y243101D02*
Y244340D01*
Y220101D02*
Y226899D01*
X685101Y244000D02*
X686152D01*
X683101Y246000D02*
X685484D01*
X677051Y217949D02*
X687051Y227949D01*
X684000Y218101D02*
Y224899D01*
X681101Y222000D02*
X687899D01*
X679101Y220000D02*
X685899D01*
X677101Y218000D02*
X683899D01*
X682000Y216101D02*
Y222899D01*
X657597Y216000D02*
X681899D01*
X656148Y217100D02*
X675000D01*
X680000Y214101D02*
Y220899D01*
X678000Y212101D02*
Y218899D01*
X676000Y210101D02*
Y217278D01*
X674000Y208101D02*
Y217100D01*
X672000Y206101D02*
Y217100D01*
X670000Y204101D02*
Y217100D01*
X668000Y202101D02*
Y217100D01*
X640899Y175000D02*
X702100Y236201D01*
X666000Y200101D02*
Y217100D01*
X661123Y210000D02*
X675899D01*
X661389Y208000D02*
X673899D01*
X661301Y206000D02*
X671899D01*
X660849Y204000D02*
X669899D01*
X659365Y214000D02*
X679899D01*
X660474Y212000D02*
X677899D01*
X659985Y202000D02*
X667899D01*
X658586Y200000D02*
X665899D01*
X660000Y212974D02*
Y217100D01*
X664000Y198101D02*
Y217100D01*
X658000Y215622D02*
Y217100D01*
X662000Y196101D02*
Y217100D01*
X660000Y194101D02*
Y202026D01*
X656302Y198000D02*
X663899D01*
X658000Y192101D02*
Y199378D01*
X620101Y196000D02*
X661899D01*
X656000Y190101D02*
Y197807D01*
X654000Y188101D02*
Y196825D01*
X652000Y186101D02*
Y196277D01*
X618101Y194000D02*
X659899D01*
X617900Y192000D02*
X657899D01*
X617900Y190000D02*
X655899D01*
X617900Y188000D02*
X653899D01*
X644000Y270101D02*
Y362177D01*
X646000Y268101D02*
Y360800D01*
X642000Y272101D02*
Y364850D01*
X650000Y264101D02*
Y359850D01*
X648000Y266101D02*
Y360078D01*
X636000Y278101D02*
Y445000D01*
X634000Y280101D02*
Y359708D01*
X640000Y274101D02*
Y387026D01*
X638000Y276101D02*
Y445000D01*
X628000Y286101D02*
Y355727D01*
X626000Y288101D02*
Y355614D01*
X624000Y290101D02*
Y355958D01*
X632000Y282101D02*
Y357503D01*
X630000Y284101D02*
Y356317D01*
X622900Y291201D02*
Y352642D01*
X551101Y258000D02*
X579757D01*
X578449Y259307D02*
X582100Y255657D01*
X552722Y256000D02*
X581757D01*
X569400Y284158D02*
Y333342D01*
X577600Y261358D02*
Y274757D01*
X570249Y282107D02*
X577600Y274757D01*
X548000Y261101D02*
Y406943D01*
X546000Y263101D02*
Y406943D01*
X552000Y257101D02*
Y406943D01*
X550000Y259101D02*
Y406943D01*
X547101Y262000D02*
X577600D01*
X545101Y264000D02*
X577600D01*
X549101Y260000D02*
X577938D01*
X544000Y254124D02*
Y256899D01*
X582000Y227976D02*
Y255757D01*
X582100Y228076D02*
Y255657D01*
X580000Y225976D02*
Y257757D01*
X578000Y223976D02*
Y259888D01*
X576000Y221976D02*
Y276357D01*
X552900Y252000D02*
X582100D01*
X552900Y254000D02*
X582100D01*
X574000Y219976D02*
Y278357D01*
X572000Y217976D02*
Y280357D01*
X552900Y240000D02*
X582100D01*
X552900Y242000D02*
X582100D01*
X552900Y236000D02*
X582100D01*
X552900Y238000D02*
X582100D01*
X552900Y248000D02*
X582100D01*
X552900Y250000D02*
X582100D01*
X552900Y244000D02*
X582100D01*
X552900Y246000D02*
X582100D01*
X568000Y213976D02*
Y387426D01*
X570000Y215976D02*
Y282392D01*
X566000Y211976D02*
Y386225D01*
X564000Y209976D02*
Y386225D01*
X562000Y207976D02*
Y387426D01*
X560000Y205976D02*
Y406943D01*
X558000Y203976D02*
Y406943D01*
X556000Y201976D02*
Y406943D01*
X554000Y199976D02*
Y406943D01*
X547100Y220611D02*
Y253799D01*
X545304Y250000D02*
X547100D01*
X552900Y219409D02*
Y255000D01*
X546000Y219511D02*
Y254899D01*
X545148Y252000D02*
X547100D01*
X544106Y254000D02*
X546899D01*
X544666Y248000D02*
X547100D01*
X544000Y217511D02*
Y247057D01*
X542900Y288000D02*
X569400D01*
X542900Y286000D02*
X569400D01*
X542900Y290000D02*
X569400D01*
X544000Y265101D02*
Y338872D01*
X542900Y266201D02*
Y337023D01*
Y282000D02*
X570357D01*
X542900Y284000D02*
X569404D01*
X542900Y278000D02*
X574357D01*
X542900Y280000D02*
X572357D01*
X542900Y274000D02*
X577600D01*
X542900Y276000D02*
X576357D01*
X543101Y266000D02*
X577600D01*
X542900Y272000D02*
X577600D01*
X518692Y276000D02*
X537100D01*
X516692Y278000D02*
X537100D01*
X542900Y268000D02*
X577600D01*
X542900Y270000D02*
X577600D01*
X528000Y266692D02*
Y297124D01*
X524000Y270692D02*
Y295966D01*
X522000Y272692D02*
Y297124D01*
X537100Y265000D02*
Y337023D01*
X530000Y264692D02*
Y372100D01*
X516000Y278692D02*
Y372100D01*
X514000Y280692D02*
Y372100D01*
X520000Y274692D02*
Y372100D01*
X518000Y276692D02*
Y372100D01*
X524692Y270000D02*
X537100D01*
X526000Y268692D02*
Y295966D01*
X528692Y266000D02*
X537100D01*
X526692Y268000D02*
X537100D01*
X514692Y280000D02*
X537100D01*
X512692Y282000D02*
X537100D01*
X522692Y272000D02*
X537100D01*
X520692Y274000D02*
X537100D01*
X542900Y266201D02*
X552051Y257051D01*
X540000Y255928D02*
Y260899D01*
X538000Y256692D02*
Y262899D01*
X537949Y262949D02*
X547100Y253799D01*
X542000Y255539D02*
Y258899D01*
X532692Y262000D02*
X538899D01*
X534692Y260000D02*
X540899D01*
X512641Y282051D02*
X538882Y255809D01*
X542722Y246000D02*
X547100D01*
X542000Y215511D02*
Y245642D01*
X540000Y214746D02*
Y245253D01*
X538692Y256000D02*
X544899D01*
X536692Y258000D02*
X542899D01*
X538000Y215511D02*
Y245642D01*
X534000Y260692D02*
Y371899D01*
X532000Y262692D02*
Y372100D01*
X536000Y258692D02*
Y338872D01*
X522000Y222900D02*
Y264489D01*
X516000Y222900D02*
Y270489D01*
X514000Y222900D02*
Y272489D01*
X520000Y222900D02*
Y266489D01*
X518000Y222900D02*
Y268489D01*
X530692Y264000D02*
X537278D01*
X532000Y221511D02*
Y254489D01*
X536000Y217511D02*
Y247057D01*
X534000Y219511D02*
Y252489D01*
X526000Y222900D02*
Y260489D01*
X524000Y222900D02*
Y262489D01*
X530000Y222839D02*
Y256489D01*
X528000Y222900D02*
Y258489D01*
X641201Y217100D02*
X643852D01*
X640101Y216000D02*
X642403D01*
X642000Y215622D02*
Y217100D01*
X638101Y214000D02*
X640635D01*
X640000Y212974D02*
Y215899D01*
X552900Y232000D02*
X582100D01*
X552900Y234000D02*
X582100D01*
X551074Y197051D02*
X582100Y228076D01*
X552900Y230000D02*
X582100D01*
X636101Y212000D02*
X639526D01*
X634101Y210000D02*
X638877D01*
X630101Y206000D02*
X638699D01*
X632101Y208000D02*
X638611D01*
X626101Y202000D02*
X640015D01*
X628101Y204000D02*
X639151D01*
X622101Y198000D02*
X643698D01*
X624101Y200000D02*
X641414D01*
X552900Y228000D02*
X582024D01*
X552900Y226000D02*
X580024D01*
X552900Y224000D02*
X578024D01*
X552900Y222000D02*
X576024D01*
X552900Y220000D02*
X574024D01*
X552534Y218000D02*
X572024D01*
X552000Y197976D02*
Y217308D01*
X550692Y216000D02*
X570024D01*
X548692Y214000D02*
X568024D01*
X546692Y212000D02*
X566024D01*
X545337Y210000D02*
X564024D01*
X545337Y208000D02*
X562024D01*
X545337Y206000D02*
X560024D01*
X646000Y180101D02*
Y196825D01*
X648000Y182101D02*
Y196277D01*
X644000Y178101D02*
Y197807D01*
X642000Y176101D02*
Y199378D01*
X640000Y175000D02*
Y202026D01*
X617900Y193799D02*
X641201Y217100D01*
X634000Y175000D02*
Y209899D01*
X638000Y175000D02*
Y213899D01*
X636000Y175000D02*
Y211899D01*
X617900Y186000D02*
X651899D01*
X650000Y184101D02*
Y196100D01*
X617900Y184000D02*
X649899D01*
X617900Y182000D02*
X647899D01*
X617900Y180000D02*
X645899D01*
X617900Y178000D02*
X643899D01*
X617900Y176000D02*
X641899D01*
X617900Y175000D02*
X640899D01*
X628000D02*
Y203899D01*
X626000Y175000D02*
Y201899D01*
X624000Y175000D02*
Y199899D01*
X632000Y175000D02*
Y207899D01*
X630000Y175000D02*
Y205899D01*
X548000Y187876D02*
Y213308D01*
X546000Y189034D02*
Y211308D01*
X622000Y175000D02*
Y197899D01*
X550000Y185351D02*
Y215308D01*
X617900Y175000D02*
Y193799D01*
X550225Y185576D02*
Y195000D01*
X620000Y175000D02*
Y195899D01*
X618000Y175000D02*
Y193899D01*
X549034Y186000D02*
X550225D01*
X547876Y188000D02*
X550225D01*
X549122Y184474D02*
X550225Y185576D01*
X541236Y214746D02*
X547100Y220611D01*
X537511Y216000D02*
X542489D01*
X538764Y214746D02*
X541236D01*
X545337Y210645D02*
X552051Y217359D01*
X545337Y204072D02*
Y210645D01*
X531511Y222000D02*
X547100D01*
X533511Y220000D02*
X546489D01*
X535511Y218000D02*
X544489D01*
X531460Y222051D02*
X538764Y214746D01*
X526101Y198000D02*
X552024D01*
X534663Y204072D02*
X545337D01*
X528101Y196000D02*
X550403D01*
X530101Y194000D02*
X550225D01*
X520101Y204000D02*
X558024D01*
X514101Y210000D02*
X534663D01*
X522101Y202000D02*
X556024D01*
X524101Y200000D02*
X554024D01*
X528208Y217100D02*
X534663Y210645D01*
X528000Y196101D02*
Y217100D01*
X526000Y198101D02*
Y217100D01*
X516000Y208101D02*
Y217100D01*
X514000Y210101D02*
Y217100D01*
X524000Y200101D02*
Y217100D01*
X518000Y206101D02*
Y217100D01*
X534663Y204072D02*
Y210645D01*
X522000Y202101D02*
Y217100D01*
X532000Y192101D02*
Y213308D01*
X530000Y194101D02*
Y215308D01*
X516101Y208000D02*
X534663D01*
X512101Y212000D02*
X533308D01*
X518101Y206000D02*
X534663D01*
X520000Y204101D02*
Y217100D01*
X542000Y187900D02*
Y204072D01*
X544000Y189034D02*
Y204072D01*
X540000Y187900D02*
Y204072D01*
X534101Y190000D02*
X550225D01*
X532101Y192000D02*
X550225D01*
X536101Y188000D02*
X542124D01*
X536201Y187900D02*
X542023D01*
X544000Y179351D02*
Y180966D01*
X542000Y177351D02*
Y182100D01*
X540172Y175523D02*
X545526Y180877D01*
X540000Y175528D02*
Y182100D01*
X535000D02*
X542023D01*
X538000Y175000D02*
Y182100D01*
X536000Y188101D02*
Y204072D01*
X538000Y187900D02*
Y204072D01*
X534000Y190101D02*
Y211308D01*
X524000Y175000D02*
Y191899D01*
X522000Y175000D02*
Y193899D01*
X516000Y175000D02*
Y199899D01*
X514000Y175000D02*
Y201899D01*
X520000Y175000D02*
Y195899D01*
X518000Y175000D02*
Y197899D01*
X536000Y175000D02*
Y182100D01*
X534000Y175000D02*
Y182278D01*
X528000Y175000D02*
Y187899D01*
X526000Y175000D02*
Y189899D01*
X532000Y175000D02*
Y183899D01*
X530000Y175000D02*
Y185899D01*
X512000Y443643D02*
Y445000D01*
X511128Y444000D02*
X538872D01*
X510000Y444156D02*
Y445000D01*
X508000Y443643D02*
Y445000D01*
X507100Y421201D02*
Y437023D01*
X501400Y428000D02*
X507100D01*
X501400Y426000D02*
X507100D01*
X506000Y420101D02*
Y438872D01*
X510101Y416000D02*
X518730D01*
X510000Y414101D02*
Y415899D01*
X510101Y414000D02*
X518730D01*
X512000Y412101D02*
Y417899D01*
X501400Y422000D02*
X507100D01*
X501400Y424000D02*
X507100D01*
X509101Y415000D02*
X512051Y417949D01*
X503799Y417900D02*
X507100Y421201D01*
X506000Y441128D02*
Y445000D01*
X501400Y421100D02*
Y428900D01*
X500000D02*
Y445000D01*
X504000Y418101D02*
Y445000D01*
X502000Y417900D02*
Y445000D01*
X496000Y428900D02*
Y445000D01*
X494000Y428900D02*
Y445000D01*
X500000Y417993D02*
Y421100D01*
X498000Y428900D02*
Y445000D01*
X499992Y418000D02*
X503899D01*
X498000Y418868D02*
Y421100D01*
X500108Y412100D02*
X503799D01*
X500108Y417900D02*
X503799D01*
X492500Y418900D02*
X497500D01*
X494000D02*
Y421100D01*
X496000Y418900D02*
Y421100D01*
X509101Y415000D02*
X516201Y407900D01*
X503799Y412100D02*
X512949Y402949D01*
X508000Y392900D02*
Y407899D01*
X506000Y392900D02*
Y409899D01*
X504000Y392722D02*
Y411899D01*
X499992Y408000D02*
X507899D01*
X499992Y412000D02*
X503899D01*
X502000Y391101D02*
Y412100D01*
X501270Y404000D02*
X511899D01*
X501270Y406000D02*
X509899D01*
X512000Y392900D02*
Y403899D01*
X510000Y392900D02*
Y405899D01*
X494101Y400000D02*
X525899D01*
X499992Y402000D02*
X520008D01*
X499992Y398000D02*
X520008D01*
X501270Y396000D02*
X518730D01*
X500000Y407993D02*
Y412007D01*
X498000Y408868D02*
Y411132D01*
X500000Y397993D02*
Y402007D01*
X498000Y398868D02*
Y401132D01*
X496000Y408900D02*
Y411100D01*
X492500Y408900D02*
X497500D01*
X494000D02*
Y411100D01*
X495201Y401100D02*
X497500D01*
X496000Y398900D02*
Y401100D01*
X493001Y398900D02*
X497500D01*
X493001D02*
X495201Y401100D01*
X494000Y398900D02*
Y399899D01*
X234353Y444000D02*
X508872D01*
X234353Y442000D02*
X506357D01*
X234353Y440000D02*
X505844D01*
X234353Y436000D02*
X507100D01*
X492000Y428900D02*
Y445000D01*
X205000D02*
X795000D01*
X234353Y438000D02*
X506357D01*
X233866Y432000D02*
X507100D01*
X231716Y434000D02*
X507100D01*
X488600Y421100D02*
X501400D01*
X488600Y428900D02*
X501400D01*
X492000Y418868D02*
Y421100D01*
X490000Y417993D02*
Y421100D01*
X234353Y430000D02*
X507100D01*
X205000Y420000D02*
X505899D01*
X205000Y412000D02*
X490008D01*
X205000Y418000D02*
X490008D01*
X490000Y428900D02*
Y445000D01*
X453762Y428000D02*
X488600D01*
X453762Y426000D02*
X488600D01*
Y421100D02*
Y428900D01*
X453762Y421238D02*
Y428762D01*
X452000D02*
Y445000D01*
X450000Y428762D02*
Y445000D01*
X446238Y428762D02*
X453762D01*
Y424000D02*
X488600D01*
X453762Y422000D02*
X488600D01*
X446238Y421238D02*
X453762D01*
X205000Y414000D02*
X488730D01*
X205000Y416000D02*
X488730D01*
X492500Y411100D02*
X497500D01*
X492000Y408868D02*
Y411132D01*
X490000Y407993D02*
Y412007D01*
X488000Y402101D02*
Y445000D01*
X205000Y410000D02*
X505899D01*
X486000Y400101D02*
Y445000D01*
X484000Y398101D02*
Y445000D01*
X482000Y396101D02*
Y445000D01*
X358585Y400000D02*
X485899D01*
X472949Y387051D02*
X489060Y403162D01*
X452270Y398000D02*
X483899D01*
X205000Y408000D02*
X490008D01*
X205000Y406000D02*
X488730D01*
X205000Y404000D02*
X488730D01*
X356302Y402000D02*
X487899D01*
X478000Y392101D02*
Y445000D01*
X480000Y394101D02*
Y445000D01*
X476000Y390101D02*
Y445000D01*
X474000Y388101D02*
Y445000D01*
X472000Y371101D02*
Y445000D01*
X470000Y369101D02*
Y445000D01*
X458000Y368368D02*
Y445000D01*
X468000Y367101D02*
Y445000D01*
X466000Y365101D02*
Y445000D01*
X462000Y368368D02*
Y445000D01*
X460000Y368369D02*
Y445000D01*
X464000Y367687D02*
Y445000D01*
X456000Y367687D02*
Y445000D01*
X452000Y398187D02*
Y421238D01*
X450000Y398762D02*
Y421238D01*
X453627Y396000D02*
X481899D01*
X501270Y394000D02*
X518730D01*
X505000Y392900D02*
X519214D01*
X500000Y389101D02*
Y392007D01*
X499992Y392000D02*
X502899D01*
X484101Y390000D02*
X500899D01*
X506201Y387100D02*
X529571D01*
X508000Y378762D02*
Y387100D01*
X512000Y378762D02*
Y387100D01*
X510000Y378762D02*
Y387100D01*
X503101Y384000D02*
X642403D01*
X505101Y386000D02*
X640635D01*
X499101Y380000D02*
X795000D01*
X501101Y382000D02*
X645560D01*
X498000Y387101D02*
Y391132D01*
X492500Y391100D02*
X497500D01*
X496000Y385101D02*
Y391100D01*
X492000Y381101D02*
Y391132D01*
X490000Y379101D02*
Y392007D01*
X486101Y392000D02*
X490008D01*
X488101Y394000D02*
X488730D01*
X477900Y383799D02*
X488629Y394528D01*
X482101Y388000D02*
X498899D01*
X480101Y386000D02*
X496899D01*
X478101Y384000D02*
X494899D01*
X494000Y383101D02*
Y391100D01*
X477900Y382000D02*
X492899D01*
X477900Y380000D02*
X490899D01*
X506238Y378762D02*
X513762D01*
X503627Y376000D02*
X506238D01*
X503627Y374000D02*
X506238D01*
Y371238D02*
Y378762D01*
X502270Y372000D02*
X506238D01*
X502270Y378000D02*
X506238D01*
X489644Y378745D02*
X502949Y392051D01*
X493745Y374644D02*
X506201Y387100D01*
X477900Y370000D02*
X535844D01*
X506238Y371238D02*
X513762D01*
X475101Y366000D02*
X538872D01*
X477100Y368000D02*
X536357D01*
X473101Y364000D02*
X598857D01*
X471101Y362000D02*
X596857D01*
X469101Y360000D02*
X594857D01*
X467101Y358000D02*
X592857D01*
X502000Y378187D02*
Y382899D01*
X500000Y378762D02*
Y380899D01*
X498000Y378187D02*
Y378899D01*
X497101Y378000D02*
X497730D01*
X488000Y378187D02*
Y393899D01*
X477900Y378000D02*
X487730D01*
X477900Y370000D02*
Y383799D01*
X472100Y371201D02*
Y385000D01*
X493627Y374000D02*
X496373D01*
X495101Y376000D02*
X496373D01*
X492270Y372000D02*
X497730D01*
X477900Y374000D02*
X486373D01*
X477900Y372000D02*
X487730D01*
X477900Y376000D02*
X486373D01*
X453627Y394000D02*
X479899D01*
X452270Y392000D02*
X477899D01*
X361122Y390000D02*
X475899D01*
X360474Y388000D02*
X473899D01*
X359365Y386000D02*
X472278D01*
X354440Y382000D02*
X472100D01*
X357597Y384000D02*
X472100D01*
X205000Y378000D02*
X472100D01*
X205000Y380000D02*
X472100D01*
X465280Y364381D02*
X472100Y371201D01*
X463500Y368000D02*
X468899D01*
X465185Y356000D02*
X590857D01*
X467051Y357949D02*
X477051Y367949D01*
X357187Y374000D02*
X472100D01*
X355162Y376000D02*
X472100D01*
X377992Y372000D02*
X472100D01*
X380197Y370000D02*
X470899D01*
X465185Y366000D02*
X466899D01*
X458032Y368369D02*
X461969D01*
X381383Y368000D02*
X456500D01*
X381973Y366000D02*
X454815D01*
X400943Y364000D02*
X454815D01*
X464602Y357100D02*
X465000D01*
X402943Y362000D02*
X455321D01*
X404943Y360000D02*
X454663D01*
X406943Y358000D02*
X455321D01*
X408943Y356000D02*
X454815D01*
X465185Y354000D02*
X588857D01*
X463500Y352000D02*
X586857D01*
X462900Y350000D02*
X584857D01*
X462900Y348000D02*
X582857D01*
X462900Y346000D02*
X580857D01*
X462900Y344000D02*
X538872D01*
X462900Y342000D02*
X536357D01*
X462900Y340000D02*
X535844D01*
X462900Y328000D02*
X537100D01*
X462900Y330000D02*
X537100D01*
X462900Y324000D02*
X537100D01*
X462900Y326000D02*
X537100D01*
X462900Y336000D02*
X537100D01*
X462900Y338000D02*
X536357D01*
X462900Y332000D02*
X537100D01*
X462900Y334000D02*
X537100D01*
X418943Y346000D02*
X457100D01*
X420943Y344000D02*
X457100D01*
X424943Y340000D02*
X457100D01*
X422943Y342000D02*
X457100D01*
X412943Y352000D02*
X456499D01*
X410943Y354000D02*
X454815D01*
X416943Y348000D02*
X457100D01*
X414943Y350000D02*
X457100D01*
X436943Y328000D02*
X457100D01*
X434943Y330000D02*
X457100D01*
X437900Y324000D02*
X457100D01*
X437896Y326000D02*
X457100D01*
X428943Y336000D02*
X457100D01*
X426943Y338000D02*
X457100D01*
X432943Y332000D02*
X457100D01*
X430943Y334000D02*
X457100D01*
X376000Y372948D02*
Y445000D01*
X448000Y428762D02*
Y445000D01*
X374000Y373364D02*
Y445000D01*
X380000Y370242D02*
Y445000D01*
X378000Y371995D02*
Y445000D01*
X360000Y397974D02*
Y445000D01*
X358000Y400622D02*
Y445000D01*
X372000Y373319D02*
Y445000D01*
X370000Y372805D02*
Y445000D01*
X448000Y398187D02*
Y421238D01*
X361301Y394000D02*
X446373D01*
X446238Y421238D02*
Y428762D01*
X361389Y392000D02*
X447730D01*
X368000Y371723D02*
Y445000D01*
X359985Y398000D02*
X447730D01*
X360849Y396000D02*
X446373D01*
X358000Y372650D02*
Y384378D01*
X350000Y403900D02*
Y445000D01*
X352000Y403723D02*
Y445000D01*
X348000Y403723D02*
Y445000D01*
X356000Y402193D02*
Y445000D01*
X354000Y403175D02*
Y445000D01*
X346000Y403175D02*
Y445000D01*
X344000Y402193D02*
Y445000D01*
X342000Y400622D02*
Y445000D01*
X324000Y373042D02*
Y445000D01*
X340000Y397974D02*
Y445000D01*
X330000Y372683D02*
Y445000D01*
X342000Y372650D02*
Y384378D01*
X332000Y371497D02*
Y445000D01*
X328000Y373273D02*
Y445000D01*
X326000Y373386D02*
Y445000D01*
X322000Y372179D02*
Y445000D01*
X320000Y370580D02*
Y445000D01*
X414000Y350943D02*
Y445000D01*
X416000Y348943D02*
Y445000D01*
X412000Y352943D02*
Y445000D01*
X420000Y344943D02*
Y445000D01*
X418000Y346943D02*
Y445000D01*
X406000Y358943D02*
Y445000D01*
X404000Y360943D02*
Y445000D01*
X410000Y354943D02*
Y445000D01*
X408000Y356943D02*
Y445000D01*
X432000Y332943D02*
Y445000D01*
X430000Y334943D02*
Y445000D01*
X436000Y328943D02*
Y445000D01*
X434000Y330943D02*
Y445000D01*
X424000Y340943D02*
Y445000D01*
X422000Y342943D02*
Y445000D01*
X428000Y336943D02*
Y445000D01*
X426000Y338943D02*
Y445000D01*
X396000Y365400D02*
Y445000D01*
X398000Y365400D02*
Y445000D01*
X394000Y365400D02*
Y445000D01*
X402000Y362943D02*
Y445000D01*
X400000Y364879D02*
Y445000D01*
X392000Y365400D02*
Y445000D01*
X390000Y365400D02*
Y445000D01*
X388000Y365400D02*
Y445000D01*
X386000Y364982D02*
Y445000D01*
X382000Y365830D02*
Y445000D01*
X366000Y369732D02*
Y445000D01*
X384000Y363101D02*
Y445000D01*
X364000Y359401D02*
Y445000D01*
X336000Y343101D02*
Y445000D01*
X334000Y369292D02*
Y445000D01*
X340000Y339101D02*
Y387026D01*
X338000Y341101D02*
Y445000D01*
X232000Y444353D02*
Y445000D01*
X234000Y444353D02*
Y445000D01*
X234353Y435647D02*
Y444353D01*
X225647D02*
X234353D01*
X225647Y435647D02*
X234353D01*
X234000Y431716D02*
Y435647D01*
X232000Y433866D02*
Y435647D01*
X231716Y426000D02*
X446238D01*
X233866Y428000D02*
X446238D01*
X205000Y424000D02*
X446238D01*
X205000Y422000D02*
X446238D01*
X205000Y402000D02*
X343698D01*
X228000Y444353D02*
Y445000D01*
X230000Y444353D02*
Y445000D01*
X226000Y444353D02*
Y445000D01*
X225647Y435647D02*
Y444353D01*
X205000Y444000D02*
X225647D01*
X205000Y440000D02*
X225647D01*
X205000Y442000D02*
X225647D01*
X205000Y436000D02*
X225647D01*
X205000Y438000D02*
X225647D01*
X230000Y434353D02*
Y435647D01*
X205000Y434000D02*
X228284D01*
X228000Y433866D02*
Y435647D01*
X226000Y431716D02*
Y435647D01*
X205000Y432000D02*
X226134D01*
X205000Y430000D02*
X225647D01*
X205000Y426000D02*
X228284D01*
X205000Y428000D02*
X226134D01*
X312000Y367900D02*
Y445000D01*
X314000Y367900D02*
Y445000D01*
X310000Y367900D02*
Y445000D01*
X318000Y367138D02*
Y445000D01*
X316000Y367722D02*
Y445000D01*
X304000Y367900D02*
Y445000D01*
X302000Y367900D02*
Y445000D01*
X308000Y367900D02*
Y445000D01*
X306000Y367900D02*
Y445000D01*
X205000Y390000D02*
X338878D01*
X205000Y392000D02*
X338611D01*
X205000Y386000D02*
X340635D01*
X205000Y388000D02*
X339526D01*
X205000Y400000D02*
X341415D01*
X205000Y398000D02*
X340015D01*
X205000Y396000D02*
X339151D01*
X205000Y394000D02*
X338699D01*
X282000Y351101D02*
Y445000D01*
X284000Y353101D02*
Y445000D01*
X280000Y349101D02*
Y445000D01*
X278000Y347101D02*
Y445000D01*
X276000Y345101D02*
Y445000D01*
X274000Y343101D02*
Y445000D01*
X272000Y341101D02*
Y445000D01*
X270000Y339101D02*
Y445000D01*
X268000Y337101D02*
Y445000D01*
X300000Y367900D02*
Y445000D01*
X298000Y367100D02*
Y445000D01*
X296000Y365101D02*
Y445000D01*
X294000Y363101D02*
Y445000D01*
X292000Y361101D02*
Y445000D01*
X290000Y359101D02*
Y445000D01*
X288000Y357101D02*
Y445000D01*
X286000Y355101D02*
Y445000D01*
X387500Y365400D02*
X398342D01*
X382149Y361251D02*
X385449Y364551D01*
X382086Y364000D02*
X384899D01*
X381742Y362000D02*
X382899D01*
X382000Y361089D02*
Y363170D01*
X380878Y360000D02*
X381413D01*
X379279Y358000D02*
X381300D01*
X375838Y356000D02*
X381300D01*
X368801D02*
X370562D01*
X356000Y375323D02*
Y382807D01*
X354000Y376700D02*
Y381825D01*
X352000Y377422D02*
Y381277D01*
X358285Y372000D02*
X368408D01*
X358812Y370000D02*
X366203D01*
X350000Y377650D02*
Y381100D01*
X348000Y377422D02*
Y381277D01*
X346000Y376700D02*
Y381825D01*
X344000Y375323D02*
Y382807D01*
X362949Y358351D02*
X365200Y360601D01*
X358868Y368000D02*
X365017D01*
X358465Y366000D02*
X364427D01*
X357526Y364000D02*
X364314D01*
X355801Y362000D02*
X364658D01*
X351627Y360000D02*
X364599D01*
X367900Y352000D02*
X381300D01*
X367900Y350000D02*
X381300D01*
X367900Y354000D02*
X381300D01*
X400393Y364551D02*
X437051Y327893D01*
X367900Y348000D02*
X381300D01*
X367900Y344000D02*
X381300D01*
X367900Y346000D02*
X381300D01*
X367900Y340000D02*
X381300D01*
X367900Y342000D02*
X381300D01*
X367900Y334000D02*
X381300D01*
X367900Y336000D02*
X381300D01*
X367900Y332000D02*
X381300D01*
X367900Y338000D02*
X381300D01*
X367900Y326000D02*
X381300D01*
X367900Y330000D02*
X381300D01*
X352000Y327101D02*
Y360078D01*
X367900Y355099D02*
X369301Y356500D01*
X350000Y329101D02*
Y359850D01*
X356000Y323101D02*
Y362177D01*
X354000Y325101D02*
Y360800D01*
X343101Y336000D02*
X362100D01*
X344000Y335101D02*
Y362177D01*
X348000Y331101D02*
Y360078D01*
X346000Y333101D02*
Y360800D01*
X367900Y328000D02*
X381300D01*
X353101Y326000D02*
X362100D01*
X367900Y324000D02*
X381300D01*
X355101D02*
X362100D01*
X347101Y332000D02*
X362100D01*
X345101Y334000D02*
X362100D01*
X351101Y328000D02*
X362100D01*
X349101Y330000D02*
X362100D01*
X331292Y372000D02*
X341715D01*
X333497Y370000D02*
X341188D01*
X334683Y368000D02*
X341132D01*
X205000Y382000D02*
X345560D01*
X205000Y384000D02*
X342403D01*
X205000Y376000D02*
X344838D01*
X205000Y374000D02*
X342813D01*
X335386Y364000D02*
X342474D01*
X335273Y366000D02*
X341535D01*
X334178Y360000D02*
X348373D01*
X335042Y362000D02*
X344199D01*
X332579Y358000D02*
X362650D01*
X329138Y356000D02*
X362100D01*
X325101Y354000D02*
X362100D01*
X300000Y367900D02*
X315000D01*
X317051Y367051D02*
X317787Y366314D01*
X205000Y372000D02*
X321708D01*
X205000Y370000D02*
X319503D01*
X205000Y368000D02*
X318317D01*
X205000Y364000D02*
X294899D01*
X205000Y362000D02*
X292899D01*
X324000Y355101D02*
Y355958D01*
X323101Y356000D02*
X323862D01*
X205000Y366000D02*
X296899D01*
X205000Y360000D02*
X290899D01*
X205000Y358000D02*
X288899D01*
X205000Y356000D02*
X286899D01*
X332000Y347101D02*
Y357503D01*
X330000Y349101D02*
Y356317D01*
X328000Y351101D02*
Y355727D01*
X342000Y337101D02*
Y364850D01*
X334000Y345101D02*
Y359708D01*
X326000Y353101D02*
Y355614D01*
X205000Y354000D02*
X284899D01*
X322602Y356499D02*
X357051Y322051D01*
X267949Y337051D02*
X297949Y367051D01*
X337101Y342000D02*
X362100D01*
X335101Y344000D02*
X362100D01*
X341101Y338000D02*
X362100D01*
X339101Y340000D02*
X362100D01*
X329101Y350000D02*
X362100D01*
X327101Y352000D02*
X362100D01*
X333101Y346000D02*
X362100D01*
X331101Y348000D02*
X362100D01*
X205000Y344000D02*
X274899D01*
X205000Y342000D02*
X272899D01*
X205000Y340000D02*
X270899D01*
X205000Y338000D02*
X268899D01*
X205000Y352000D02*
X282899D01*
X205000Y350000D02*
X280899D01*
X205000Y348000D02*
X278899D01*
X205000Y346000D02*
X276899D01*
X205000Y336000D02*
X267278D01*
X205000Y332000D02*
X267100D01*
X205000Y334000D02*
X267100D01*
X205000Y328000D02*
X267100D01*
X205000Y330000D02*
X267100D01*
X205000Y324000D02*
X267100D01*
X205000Y326000D02*
X267100D01*
X506000Y282900D02*
Y386899D01*
X504000Y282900D02*
Y384899D01*
X502000Y282900D02*
Y371813D01*
X510000Y282900D02*
Y371238D01*
X508000Y282900D02*
Y371238D01*
X473101Y306000D02*
X537100D01*
X476128Y304000D02*
X523872D01*
X478643Y302000D02*
X521357D01*
X500000Y282900D02*
Y371238D01*
X478643Y298000D02*
X521357D01*
X477900Y296000D02*
X523872D01*
X479156Y300000D02*
X520844D01*
X477900Y292000D02*
X537100D01*
X477900Y294000D02*
X537100D01*
X477900Y288000D02*
X537100D01*
X477900Y290000D02*
X537100D01*
X477900Y284000D02*
X537100D01*
X477900Y286000D02*
X537100D01*
X494000Y282900D02*
Y374899D01*
X492000Y282900D02*
Y371813D01*
X488000Y282900D02*
Y371813D01*
X498000Y282900D02*
Y371813D01*
X496000Y282900D02*
Y376899D01*
X482000Y282900D02*
Y387899D01*
X478000Y302876D02*
Y383899D01*
X486000Y282900D02*
Y391899D01*
X484000Y282900D02*
Y389899D01*
X477900Y282977D02*
Y297023D01*
X490000Y282900D02*
Y371238D01*
X478000Y282900D02*
Y297124D01*
X476000Y304034D02*
Y366899D01*
X474000Y305101D02*
Y364899D01*
X472100Y282977D02*
Y297023D01*
X512000Y282535D02*
Y371238D01*
X509389Y277100D02*
X534781Y251708D01*
X506000Y222900D02*
Y277100D01*
X477977Y282900D02*
X510591D01*
X477977Y277100D02*
X509389D01*
X504000Y222900D02*
Y277100D01*
X502000Y223762D02*
Y277100D01*
X479156Y250000D02*
X534696D01*
X508000Y222900D02*
Y277100D01*
X512000Y222900D02*
Y274489D01*
X510000Y222900D02*
Y276489D01*
X476128Y254000D02*
X532489D01*
X476128Y276000D02*
X510489D01*
X478643Y248000D02*
X535334D01*
X478643Y252000D02*
X534489D01*
X498000Y223762D02*
Y277100D01*
X500000Y223762D02*
Y277100D01*
X496000Y222900D02*
Y277100D01*
X494000Y222900D02*
Y277100D01*
X492000Y222900D02*
Y277100D01*
X490000Y222900D02*
Y277100D01*
X480000Y282900D02*
Y385899D01*
X488000Y222100D02*
Y277100D01*
X486000Y220101D02*
Y277100D01*
X484000Y218101D02*
Y277100D01*
X482000Y216101D02*
Y277100D01*
X480000Y214101D02*
Y277100D01*
X478000Y212101D02*
Y247124D01*
X476000Y254034D02*
Y275966D01*
X474000Y254034D02*
Y275966D01*
X478000Y252876D02*
Y277100D01*
X463101Y316000D02*
X537100D01*
X465101Y314000D02*
X537100D01*
X462900Y320000D02*
X537100D01*
X467101Y312000D02*
X537100D01*
X472000Y307101D02*
Y362899D01*
X462900Y318000D02*
X537100D01*
X462900Y322000D02*
X537100D01*
X462900Y316201D02*
X474946Y304155D01*
X457949Y312949D02*
X470844Y300054D01*
X471101Y308000D02*
X537100D01*
X469101Y310000D02*
X537100D01*
X441900Y300000D02*
X470844D01*
X441900Y296000D02*
X472100D01*
X441900Y298000D02*
X471357D01*
X441900Y292000D02*
X472100D01*
X441900Y294000D02*
X472100D01*
X466000Y313101D02*
Y357278D01*
X464000Y315101D02*
Y352313D01*
X462900Y316201D02*
Y351763D01*
X470000Y309101D02*
Y360899D01*
X468000Y311101D02*
Y358899D01*
X437900Y318000D02*
X457100D01*
X437900Y322000D02*
X457100D01*
X437900Y316000D02*
X457100D01*
X441900Y310000D02*
X460899D01*
X441900Y302000D02*
X468899D01*
X441900Y308000D02*
X462899D01*
X441570Y312000D02*
X458899D01*
X439758Y314000D02*
X457278D01*
X441900Y304000D02*
X466899D01*
X441900Y306000D02*
X464899D01*
X441900Y286000D02*
X472100D01*
X441900Y284000D02*
X472100D01*
X441900Y290000D02*
X472100D01*
X441900Y276000D02*
X473872D01*
X441900Y272000D02*
X514489D01*
X441900Y274000D02*
X512489D01*
X441900Y268000D02*
X518489D01*
X441900Y270000D02*
X516489D01*
X441900Y264000D02*
X522489D01*
X441900Y266000D02*
X520489D01*
X441900Y262000D02*
X524489D01*
X441900Y258000D02*
X528489D01*
X441900Y260000D02*
X526489D01*
X441900Y256000D02*
X530489D01*
X441900Y254000D02*
X473872D01*
X470000Y249101D02*
Y300899D01*
X472000Y282876D02*
Y297124D01*
X468000Y247101D02*
Y302899D01*
X466000Y245101D02*
Y304899D01*
X464000Y243900D02*
Y306899D01*
X441900Y288000D02*
X472100D01*
X458000Y243900D02*
Y312899D01*
X462000Y243900D02*
Y308899D01*
X460000Y243900D02*
Y310899D01*
X441900Y278000D02*
X471357D01*
X441900Y280000D02*
X470844D01*
X472000Y252876D02*
Y277124D01*
X464057Y243159D02*
X470844Y249946D01*
X441900Y252000D02*
X471357D01*
X441900Y282000D02*
X471357D01*
X441900Y250000D02*
X470844D01*
X441900Y248000D02*
X468899D01*
X507001Y217100D02*
X528208D01*
X508101Y216000D02*
X529308D01*
X508000Y216101D02*
Y217100D01*
X512000Y212101D02*
Y217100D01*
X510000Y214101D02*
Y217100D01*
X473101Y244000D02*
X547100D01*
X476128Y246000D02*
X537278D01*
X471101Y242000D02*
X547100D01*
X503762Y222900D02*
X529410D01*
X510101Y214000D02*
X531308D01*
X482101Y208000D02*
X507899D01*
X478101Y204000D02*
X511899D01*
X480101Y206000D02*
X509899D01*
X474101Y200000D02*
X515899D01*
X476101Y202000D02*
X513899D01*
X470101Y196000D02*
X519899D01*
X472101Y198000D02*
X517899D01*
X503762Y222900D02*
Y223762D01*
X496238D02*
X503762D01*
X496238Y222900D02*
Y223762D01*
X490000Y222900D02*
X496238D01*
X476000Y210101D02*
Y245966D01*
X474000Y208101D02*
Y244899D01*
X472000Y206101D02*
Y242899D01*
X496238Y216238D02*
Y217100D01*
X491201D02*
X496238D01*
X500000Y193762D02*
Y215899D01*
X496238Y216238D02*
X499661D01*
X488101Y214000D02*
X501899D01*
X490101Y216000D02*
X499899D01*
X484101Y210000D02*
X505899D01*
X486101Y212000D02*
X503899D01*
X507001Y217100D02*
X536201Y187900D01*
X512000Y175000D02*
Y203899D01*
X510000Y175000D02*
Y205899D01*
X508000Y175000D02*
Y207899D01*
X506000Y175000D02*
Y209899D01*
X502000Y193187D02*
Y213899D01*
X498000Y193187D02*
Y216238D01*
X499661D02*
X532949Y182949D01*
X504000Y175000D02*
Y211899D01*
X503762Y190000D02*
X525899D01*
X503187Y192000D02*
X523899D01*
X503187Y188000D02*
X527899D01*
X502000Y175000D02*
Y186813D01*
X478101Y176000D02*
X540649D01*
X479101Y175000D02*
X538332D01*
X500000D02*
Y186238D01*
X492000Y175000D02*
Y217100D01*
X490000Y175000D02*
Y215899D01*
X488000Y175000D02*
Y213899D01*
X496000Y175000D02*
Y217100D01*
X494000Y175000D02*
Y217100D01*
X482000Y175000D02*
Y207899D01*
X480000Y175000D02*
Y205899D01*
X486000Y175000D02*
Y211899D01*
X484000Y175000D02*
Y209899D01*
X478000Y176101D02*
Y203899D01*
X476000Y177722D02*
Y201899D01*
X498000Y175000D02*
Y186813D01*
X477051Y177051D02*
X479101Y175000D01*
X474000Y177900D02*
Y199899D01*
X472000Y177900D02*
Y197899D01*
X469101Y240000D02*
X547100D01*
X467101Y238000D02*
X547100D01*
X466893Y237792D02*
X474946Y245845D01*
X446900Y228000D02*
X547100D01*
X464057Y236000D02*
X547100D01*
X446677Y232000D02*
X547100D01*
X444986Y234000D02*
X547100D01*
X446900Y226000D02*
X547100D01*
X446900Y230000D02*
X547100D01*
X461303Y224000D02*
X547100D01*
X463615Y222000D02*
X487899D01*
X464054Y220000D02*
X485899D01*
X463436Y218000D02*
X483899D01*
X446900Y216000D02*
X481899D01*
X446900Y214000D02*
X479899D01*
X446900Y212000D02*
X477899D01*
X446900Y210000D02*
X475899D01*
X464057Y243159D02*
Y243900D01*
Y236943D02*
X464843D01*
X464057Y235785D02*
Y236943D01*
X441900Y246000D02*
X466899D01*
X441900Y244000D02*
X464899D01*
X455942Y243900D02*
X464057D01*
X458000Y223688D02*
Y235785D01*
X455942D02*
X464057D01*
X460000Y224215D02*
Y235785D01*
X464000Y220838D02*
Y235785D01*
X462000Y223688D02*
Y235785D01*
X446900Y224000D02*
X458697D01*
X446900Y208000D02*
X473899D01*
X446900Y206000D02*
X471899D01*
X470000Y204101D02*
Y240899D01*
X468101Y194000D02*
X521899D01*
X468000Y202101D02*
Y238899D01*
X470000Y177900D02*
Y195899D01*
X468000Y177900D02*
Y193899D01*
X466101Y192000D02*
X496813D01*
X446900Y204000D02*
X469899D01*
X459156Y185054D02*
X491201Y217100D01*
X455054Y189155D02*
X487949Y222051D01*
X462101Y188000D02*
X496813D01*
X464101Y190000D02*
X496238D01*
X459034Y184000D02*
X531899D01*
X460101Y186000D02*
X529899D01*
X454101Y180000D02*
X544649D01*
X457876Y182000D02*
X542124D01*
X456101Y178000D02*
X542649D01*
X456201Y177900D02*
X475000D01*
X466000Y200101D02*
Y237183D01*
X464000Y198101D02*
Y219477D01*
X462000Y196101D02*
Y216627D01*
X460000Y194101D02*
Y216100D01*
X458000Y192101D02*
Y216627D01*
X446900Y202000D02*
X467899D01*
X446900Y200000D02*
X465899D01*
X446900Y198000D02*
X463899D01*
X446900Y196000D02*
X461899D01*
X462000Y177900D02*
Y187899D01*
X460000Y177900D02*
Y185899D01*
X466000Y177900D02*
Y191899D01*
X464000Y177900D02*
Y189899D01*
X446900Y194000D02*
X459899D01*
X446900Y192000D02*
X457899D01*
X458000Y177900D02*
Y182124D01*
X438000Y315758D02*
Y445000D01*
X457100Y315000D02*
Y351763D01*
X437900Y315858D02*
Y325842D01*
X440000Y313758D02*
Y445000D01*
X437900Y320000D02*
X457100D01*
X367900Y316000D02*
X381300D01*
X437900Y315858D02*
X441051Y312707D01*
X367900Y314000D02*
X381300D01*
X367900Y310000D02*
X381300D01*
X367900Y308000D02*
X381300D01*
X367900Y312000D02*
X381300D01*
X367900Y290000D02*
X381413D01*
X367900Y292000D02*
X381300D01*
X367900Y320000D02*
X381300D01*
X367900Y318000D02*
X381300D01*
X367900Y322000D02*
X381300D01*
Y290800D02*
Y359200D01*
X367900Y306000D02*
X381300D01*
X357900Y308000D02*
X362100D01*
X357900Y312000D02*
X362100D01*
X358000Y288101D02*
Y364850D01*
X357900Y288201D02*
Y320000D01*
X367900Y302000D02*
X381300D01*
X367900Y304000D02*
X381300D01*
X367900Y298000D02*
X381300D01*
X367900Y300000D02*
X381300D01*
X367900Y296000D02*
X381300D01*
X357900Y304000D02*
X362100D01*
X367900Y294000D02*
X381300D01*
X357900D02*
X362100D01*
X454000Y189034D02*
Y445000D01*
X456000Y243900D02*
Y352313D01*
X452000Y187876D02*
Y391813D01*
X450000Y184101D02*
Y391238D01*
X448000Y186101D02*
Y391813D01*
X442000Y236986D02*
Y445000D01*
X441900Y237086D02*
Y310657D01*
X446000Y232986D02*
Y445000D01*
X444000Y234986D02*
Y445000D01*
X382149Y288749D02*
X401500Y269399D01*
X384000Y270101D02*
Y286899D01*
X388000Y266101D02*
Y282899D01*
X386000Y268101D02*
Y284899D01*
X368101Y286000D02*
X384899D01*
X367900Y288000D02*
X382899D01*
X367900Y286201D02*
X393401Y260700D01*
X370101Y284000D02*
X386899D01*
X376000Y278101D02*
Y356052D01*
X374000Y280101D02*
Y355636D01*
X372000Y282101D02*
Y355681D01*
X380000Y274101D02*
Y358758D01*
X378000Y276101D02*
Y357005D01*
X362100Y285000D02*
Y356300D01*
X360000Y286101D02*
Y387026D01*
X370000Y284101D02*
Y356195D01*
X362000Y284101D02*
Y445000D01*
X368000Y286101D02*
Y355199D01*
X367900Y286201D02*
Y355099D01*
X382000Y272101D02*
Y288911D01*
X360101Y286000D02*
X362100D01*
X358101Y288000D02*
X362100D01*
X357900Y288201D02*
X362414Y283687D01*
X357900Y316000D02*
X362100D01*
X357900Y314000D02*
X362100D01*
X357900Y318000D02*
X362100D01*
X357900Y306000D02*
X362100D01*
X357900Y310000D02*
X362100D01*
X357900Y320000D02*
X362100D01*
X357100Y322000D02*
X362100D01*
X357900Y300000D02*
X362100D01*
X357900Y302000D02*
X362100D01*
X357900Y296000D02*
X362100D01*
X357900Y298000D02*
X362100D01*
X357900Y292000D02*
X362100D01*
X205000Y298000D02*
X267100D01*
X357900Y290000D02*
X362100D01*
X205000D02*
X267100D01*
X205000Y312000D02*
X267100D01*
X205000Y310000D02*
X267100D01*
X205000Y314000D02*
X267100D01*
X205000Y306000D02*
X267100D01*
X205000Y308000D02*
X267100D01*
X205000Y320000D02*
X267100D01*
X205000Y322000D02*
X267100D01*
X205000Y316000D02*
X267100D01*
X205000Y318000D02*
X267100D01*
X205000Y292000D02*
X267100D01*
X205000Y294000D02*
X267100D01*
X205000Y286000D02*
X267100D01*
X205000Y288000D02*
X267100D01*
X205000Y302000D02*
X267100D01*
X205000Y304000D02*
X267100D01*
X205000Y296000D02*
X267100D01*
X205000Y300000D02*
X267100D01*
X248000Y175000D02*
Y445000D01*
X250000Y175000D02*
Y445000D01*
X246000Y175000D02*
Y445000D01*
X254000Y175000D02*
Y445000D01*
X252000Y175000D02*
Y445000D01*
X240000Y175000D02*
Y445000D01*
X238000Y175000D02*
Y445000D01*
X244000Y175000D02*
Y445000D01*
X242000Y175000D02*
Y445000D01*
X267100Y265000D02*
Y335000D01*
X266000Y175000D02*
Y445000D01*
X264000Y175000D02*
Y445000D01*
X262000Y175000D02*
Y445000D01*
X205000Y284000D02*
X267100D01*
X256000Y175000D02*
Y445000D01*
X260000Y175000D02*
Y445000D01*
X258000Y175000D02*
Y445000D01*
X220000Y175000D02*
Y445000D01*
X222000Y175000D02*
Y445000D01*
X218000Y175000D02*
Y445000D01*
X236000Y175000D02*
Y445000D01*
X224000Y175000D02*
Y445000D01*
X206000Y175000D02*
Y445000D01*
X205000Y175000D02*
Y445000D01*
X216000Y175000D02*
Y445000D01*
X208000Y175000D02*
Y445000D01*
X230000Y175000D02*
Y425647D01*
X228000Y175000D02*
Y426134D01*
X234000Y175000D02*
Y428284D01*
X232000Y175000D02*
Y426134D01*
X212000Y175000D02*
Y445000D01*
X210000Y175000D02*
Y445000D01*
X226000Y175000D02*
Y428284D01*
X214000Y175000D02*
Y445000D01*
X402243Y258000D02*
X404708D01*
X402000Y258243D02*
Y260708D01*
X406000Y254243D02*
Y257317D01*
X404000Y256243D02*
Y258503D01*
X386101Y268000D02*
X400958D01*
X384101Y270000D02*
X400899D01*
X400232Y260000D02*
X402503D01*
X392101Y262000D02*
X401317D01*
X410243Y250000D02*
X410742D01*
X410000Y250243D02*
Y256614D01*
X404243Y256000D02*
X410786D01*
X406243Y254000D02*
X410742D01*
X408243Y252000D02*
X410742D01*
X408000Y252243D02*
Y256727D01*
X392000Y262101D02*
Y278899D01*
X380101Y274000D02*
X396899D01*
X390000Y264101D02*
Y280899D01*
X396000Y260700D02*
Y274899D01*
X394000Y260700D02*
Y276899D01*
X374101Y280000D02*
X390899D01*
X372101Y282000D02*
X388899D01*
X378101Y276000D02*
X394899D01*
X376101Y278000D02*
X392899D01*
X400000Y260179D02*
Y270899D01*
X398000Y260700D02*
Y272899D01*
X388101Y266000D02*
X400614D01*
X382101Y272000D02*
X398899D01*
X390101Y264000D02*
X400727D01*
X393401Y260700D02*
X398342D01*
X456000Y220838D02*
Y235785D01*
X446900Y222000D02*
X456385D01*
X455942Y235785D02*
Y243900D01*
X456000Y190101D02*
Y219477D01*
X446900Y220000D02*
X455946D01*
X441900Y240000D02*
X455942D01*
X441900Y242000D02*
X455942D01*
X442986Y236000D02*
X455942D01*
X441900Y238000D02*
X455942D01*
X450101Y184000D02*
X450966D01*
X448101Y186000D02*
X450966D01*
X456000Y178101D02*
Y180966D01*
X454000Y180101D02*
Y180966D01*
X446900Y218000D02*
X456564D01*
X446900Y190000D02*
X455899D01*
X446900Y187201D02*
X456201Y177900D01*
X446900Y188000D02*
X452124D01*
X410742Y249501D02*
Y255500D01*
X441900Y237086D02*
X446051Y232935D01*
X400393Y259851D02*
X410742Y249501D01*
X292100Y185000D02*
Y238799D01*
X292000Y175000D02*
Y238899D01*
X290000Y175000D02*
Y240899D01*
X288000Y175000D02*
Y242899D01*
X446900Y187201D02*
Y230885D01*
X300000Y175000D02*
Y175899D01*
X298000Y175000D02*
Y177899D01*
X296000Y175000D02*
Y179899D01*
X292949Y182949D02*
X300899Y175000D01*
X294000D02*
Y181899D01*
X205000Y250000D02*
X280899D01*
X205000Y248000D02*
X282899D01*
X205000Y252000D02*
X278899D01*
X267949Y262949D02*
X292100Y238799D01*
X205000Y246000D02*
X284899D01*
X205000Y242000D02*
X288899D01*
X205000Y244000D02*
X286899D01*
X205000Y238000D02*
X292100D01*
X205000Y240000D02*
X290899D01*
X205000Y226000D02*
X292100D01*
X205000Y228000D02*
X292100D01*
X205000Y222000D02*
X292100D01*
X205000Y224000D02*
X292100D01*
X205000Y234000D02*
X292100D01*
X205000Y236000D02*
X292100D01*
X205000Y230000D02*
X292100D01*
X205000Y232000D02*
X292100D01*
X205000Y272000D02*
X267100D01*
X205000Y270000D02*
X267100D01*
X205000Y274000D02*
X267100D01*
X205000Y266000D02*
X267100D01*
X205000Y268000D02*
X267100D01*
X205000Y280000D02*
X267100D01*
X205000Y282000D02*
X267100D01*
X205000Y276000D02*
X267100D01*
X205000Y278000D02*
X267100D01*
X205000Y264000D02*
X267278D01*
X205000Y262000D02*
X268899D01*
X205000Y258000D02*
X272899D01*
X205000Y260000D02*
X270899D01*
X205000Y254000D02*
X276899D01*
X205000Y256000D02*
X274899D01*
X205000Y206000D02*
X292100D01*
X205000Y202000D02*
X292100D01*
X205000Y212000D02*
X292100D01*
X205000Y198000D02*
X292100D01*
X205000Y200000D02*
X292100D01*
X205000Y218000D02*
X292100D01*
X205000Y220000D02*
X292100D01*
X205000Y214000D02*
X292100D01*
X205000Y216000D02*
X292100D01*
X205000Y178000D02*
X297899D01*
X205000Y180000D02*
X295899D01*
X205000Y175000D02*
X300899D01*
X205000Y176000D02*
X299899D01*
X205000Y194000D02*
X292100D01*
X205000Y196000D02*
X292100D01*
X205000Y182000D02*
X293899D01*
X205000Y184000D02*
X292278D01*
X278000Y175000D02*
Y252899D01*
X280000Y175000D02*
Y250899D01*
X276000Y175000D02*
Y254899D01*
X284000Y175000D02*
Y246899D01*
X282000Y175000D02*
Y248899D01*
X270000Y175000D02*
Y260899D01*
X268000Y175000D02*
Y262899D01*
X274000Y175000D02*
Y256899D01*
X272000Y175000D02*
Y258899D01*
X205000Y208000D02*
X292100D01*
X205000Y210000D02*
X292100D01*
X205000Y204000D02*
X292100D01*
X286000Y175000D02*
Y244899D01*
X205000Y190000D02*
X292100D01*
X205000Y192000D02*
X292100D01*
X205000Y186000D02*
X292100D01*
X205000Y188000D02*
X292100D01*
X226000Y55000D02*
Y55647D01*
X228000Y55000D02*
Y55647D01*
X205000Y56000D02*
X225647D01*
Y55647D02*
X234353D01*
X240000Y55000D02*
Y57100D01*
X244000Y55000D02*
Y57100D01*
X230000Y55000D02*
Y55647D01*
X234000Y55000D02*
Y55647D01*
X232000Y55000D02*
Y55647D01*
X205000Y58000D02*
X225647D01*
Y55647D02*
Y64353D01*
X238000Y55000D02*
Y57100D01*
X242000Y55000D02*
Y57100D01*
X236000Y55000D02*
Y57100D01*
X234353Y55647D02*
Y57100D01*
X266000Y55000D02*
Y57100D01*
X268000Y55000D02*
Y57100D01*
X264000Y55000D02*
Y57100D01*
X234353D02*
X287392D01*
X276000Y55000D02*
Y57100D01*
X278000Y55000D02*
Y57100D01*
X270000Y55000D02*
Y57100D01*
X274000Y55000D02*
Y57100D01*
X272000Y55000D02*
Y57100D01*
X250000Y55000D02*
Y57100D01*
X252000Y55000D02*
Y57100D01*
X246000Y55000D02*
Y57100D01*
X248000Y55000D02*
Y57100D01*
X260000Y55000D02*
Y57100D01*
X262000Y55000D02*
Y57100D01*
X254000Y55000D02*
Y57100D01*
X258000Y55000D02*
Y57100D01*
X256000Y55000D02*
Y57100D01*
X205000Y62000D02*
X225647D01*
X205000Y60000D02*
X225647D01*
X205000Y64000D02*
X225647D01*
X205000Y66000D02*
X228284D01*
X232000Y64353D02*
Y66134D01*
X234353Y62900D02*
Y64353D01*
X228000D02*
Y66134D01*
X225647Y64353D02*
X234353D01*
X230000D02*
Y65647D01*
X236000Y62900D02*
Y68100D01*
X238000Y62900D02*
Y68100D01*
X205000Y68000D02*
X226134D01*
X234000Y64353D02*
Y68100D01*
X246000Y62900D02*
Y68100D01*
X248000Y62900D02*
Y68100D01*
X240000Y62900D02*
Y68100D01*
X244000Y62900D02*
Y68100D01*
X242000Y62900D02*
Y68100D01*
X254000Y62900D02*
Y68100D01*
X258000Y62900D02*
Y68100D01*
X233866Y68000D02*
X266652D01*
X234353Y62900D02*
X287392D01*
X270000D02*
Y66100D01*
X272000Y62900D02*
Y66652D01*
X260000Y62900D02*
Y68100D01*
X268000Y62900D02*
Y66652D01*
X262000Y62900D02*
Y68100D01*
X256000Y62900D02*
Y68100D01*
X264000Y62900D02*
Y68100D01*
X250000Y62900D02*
Y68100D01*
X233916D02*
X266594D01*
X252000Y62900D02*
Y68100D01*
X266000Y62900D02*
Y68100D01*
X274000Y62900D02*
Y68100D01*
X278000Y62900D02*
Y68100D01*
X276000Y62900D02*
Y68100D01*
X284000Y55000D02*
Y57100D01*
X286000Y55000D02*
Y57100D01*
X280000Y55000D02*
Y57100D01*
X282000Y55000D02*
Y57100D01*
X292000Y55000D02*
Y56652D01*
X294000Y55000D02*
Y57100D01*
X288000Y55000D02*
Y56652D01*
X290000Y55000D02*
Y56100D01*
X300000Y55000D02*
Y57100D01*
X302000Y55000D02*
Y57100D01*
X296000Y55000D02*
Y57100D01*
X298000Y55000D02*
Y57100D01*
X310000Y55000D02*
Y57100D01*
X312000Y55000D02*
Y57100D01*
X304000Y55000D02*
Y57100D01*
X308000Y55000D02*
Y57100D01*
X306000Y55000D02*
Y57100D01*
X336000Y55000D02*
Y57100D01*
X338000Y55000D02*
Y57100D01*
X332000Y55000D02*
Y57100D01*
X334000Y55000D02*
Y57100D01*
X346000Y55000D02*
Y57100D01*
X348000Y55000D02*
Y57100D01*
X340000Y55000D02*
Y57100D01*
X344000Y55000D02*
Y57100D01*
X342000Y55000D02*
Y57100D01*
X318000Y55000D02*
Y57100D01*
X320000Y55000D02*
Y57100D01*
X314000Y55000D02*
Y57100D01*
X316000Y55000D02*
Y57100D01*
X328000Y55000D02*
Y57100D01*
X330000Y55000D02*
Y57100D01*
X322000Y55000D02*
Y57100D01*
X326000Y55000D02*
Y57100D01*
X324000Y55000D02*
Y57100D01*
X286000Y62900D02*
Y68100D01*
X280000Y62900D02*
Y68100D01*
X282000Y62900D02*
Y68100D01*
X288000Y63348D02*
Y68100D01*
X308000Y62900D02*
Y68100D01*
X290000Y63900D02*
Y68100D01*
X284000Y62900D02*
Y68100D01*
X294000Y62900D02*
Y68100D01*
X292000Y63348D02*
Y68100D01*
X296000Y62900D02*
Y68100D01*
X304000Y62900D02*
Y68100D01*
X306000Y62900D02*
Y68100D01*
X298000Y62900D02*
Y68100D01*
X302000Y62900D02*
Y68100D01*
X300000Y62900D02*
Y68100D01*
X334000Y62900D02*
Y68100D01*
X336000Y62900D02*
Y68100D01*
X330000Y62900D02*
Y68100D01*
X332000Y62900D02*
Y68100D01*
X346000Y62900D02*
Y68100D01*
X348000Y62900D02*
Y68100D01*
X340000Y62900D02*
Y68100D01*
X344000Y62900D02*
Y68100D01*
X342000Y62900D02*
Y68100D01*
X316000Y62900D02*
Y68100D01*
X318000Y62900D02*
Y68100D01*
X310000Y62900D02*
Y68100D01*
X314000Y62900D02*
Y68100D01*
X312000Y62900D02*
Y68100D01*
X326000Y62900D02*
Y68100D01*
X328000Y62900D02*
Y68100D01*
X320000Y62900D02*
Y68100D01*
X324000Y62900D02*
Y68100D01*
X322000Y62900D02*
Y68100D01*
X218000Y55000D02*
Y106134D01*
X220000Y55000D02*
Y105647D01*
X205000Y70000D02*
X225647D01*
X226000Y71716D02*
Y78284D01*
Y64353D02*
Y68283D01*
X234000Y71900D02*
Y78100D01*
X238000Y71900D02*
Y78100D01*
X236000Y71900D02*
Y78100D01*
X208000Y55000D02*
Y140000D01*
X210000Y55000D02*
Y140000D01*
X205000Y55000D02*
Y140000D01*
X206000Y55000D02*
Y140000D01*
X222000Y55000D02*
Y106134D01*
X224000Y55000D02*
Y108283D01*
X212000Y55000D02*
Y140000D01*
X216000Y55000D02*
Y108283D01*
X214000Y55000D02*
Y140000D01*
X240000Y71900D02*
Y78100D01*
X242000Y71900D02*
Y78100D01*
X233916Y71900D02*
X266594D01*
X233866Y72000D02*
X266652D01*
X252000Y71900D02*
Y78100D01*
X246000Y71900D02*
Y78100D01*
X250000Y71900D02*
Y78100D01*
X248000Y71900D02*
Y78100D01*
X256000Y71900D02*
Y78100D01*
X258000Y71900D02*
Y78100D01*
X244000Y71900D02*
Y78100D01*
X254000Y71900D02*
Y78100D01*
X266000Y71900D02*
Y78100D01*
X274000Y71900D02*
Y78100D01*
X260000Y71900D02*
Y78100D01*
X264000Y71900D02*
Y78100D01*
X262000Y71900D02*
Y78100D01*
X205000Y72000D02*
X226134D01*
X205000Y74000D02*
X228284D01*
X205000Y80000D02*
X225647D01*
X205000Y76000D02*
X228284D01*
X228000Y73866D02*
Y76134D01*
X232000Y73866D02*
Y76134D01*
X205000Y78000D02*
X226134D01*
X230000Y74353D02*
Y75647D01*
X226000Y81717D02*
Y88283D01*
X234000Y81900D02*
Y88100D01*
X236000Y81900D02*
Y88100D01*
X238000Y81900D02*
Y88100D01*
X246000Y81900D02*
Y88100D01*
X248000Y81900D02*
Y88100D01*
X240000Y81900D02*
Y88100D01*
X244000Y81900D02*
Y88100D01*
X242000Y81900D02*
Y88100D01*
X233916Y78100D02*
X276594D01*
X233866Y78000D02*
X276652D01*
X258000Y81900D02*
Y86652D01*
X233916Y81900D02*
X276594D01*
X268000Y73348D02*
Y78100D01*
X272000Y73348D02*
Y78100D01*
X260000Y81900D02*
Y86100D01*
X270000Y73900D02*
Y78100D01*
X262000Y81900D02*
Y86652D01*
X256000Y81900D02*
Y88100D01*
X264000Y81900D02*
Y88100D01*
X250000Y81900D02*
Y88100D01*
X254000Y81900D02*
Y88100D01*
X252000Y81900D02*
Y88100D01*
X272000Y81900D02*
Y88100D01*
X274000Y81900D02*
Y88100D01*
X266000Y81900D02*
Y88100D01*
X270000Y81900D02*
Y88100D01*
X268000Y81900D02*
Y88100D01*
X280000Y71900D02*
Y76100D01*
X282000Y71900D02*
Y76652D01*
X276000Y71900D02*
Y78100D01*
X278000Y71900D02*
Y76652D01*
X290000Y71900D02*
Y78100D01*
X292000Y71900D02*
Y78100D01*
X284000Y71900D02*
Y78100D01*
X288000Y71900D02*
Y78100D01*
X286000Y71900D02*
Y78100D01*
X298000Y71900D02*
Y78100D01*
X300000Y71900D02*
Y78100D01*
X294000Y71900D02*
Y78100D01*
X296000Y71900D02*
Y78100D01*
X308000Y71900D02*
Y78100D01*
X310000Y71900D02*
Y78100D01*
X302000Y71900D02*
Y78100D01*
X306000Y71900D02*
Y78100D01*
X304000Y71900D02*
Y78100D01*
X316000Y71900D02*
Y78100D01*
X318000Y71900D02*
Y78100D01*
X312000Y71900D02*
Y78100D01*
X314000Y71900D02*
Y78100D01*
X326000Y71900D02*
Y78100D01*
X338000Y62900D02*
Y68100D01*
X320000Y71900D02*
Y78100D01*
X324000Y71900D02*
Y78100D01*
X322000Y71900D02*
Y78100D01*
X334000Y71900D02*
Y78100D01*
X336000Y71900D02*
Y78100D01*
X330000Y71900D02*
Y78100D01*
X332000Y71900D02*
Y78100D01*
X346000Y71900D02*
Y78100D01*
X348000Y71900D02*
Y78100D01*
X338000Y71900D02*
Y78100D01*
X344000Y71900D02*
Y78100D01*
X342000Y71900D02*
Y78100D01*
X298000Y81900D02*
Y87100D01*
X300000Y81900D02*
Y87100D01*
X302000Y81900D02*
Y87100D01*
X314000Y81900D02*
Y87100D01*
X316000Y81900D02*
Y87100D01*
X306000Y81900D02*
Y87100D01*
X312000Y81900D02*
Y87100D01*
X308000Y81900D02*
Y87100D01*
X286000Y81900D02*
Y88100D01*
X288000Y81900D02*
Y88100D01*
X276000Y81900D02*
Y88100D01*
X284000Y81900D02*
Y88100D01*
X296000Y81900D02*
Y87108D01*
X310000Y81900D02*
Y87100D01*
X290000Y81900D02*
Y88100D01*
X294000Y81900D02*
Y88100D01*
X292000Y81900D02*
Y88100D01*
X322000Y81900D02*
Y87100D01*
X326000Y81900D02*
Y87100D01*
X318000Y81900D02*
Y87100D01*
X320000Y81900D02*
Y87100D01*
X328000Y71900D02*
Y78100D01*
X340000Y71900D02*
Y78100D01*
X328000Y81900D02*
Y87100D01*
X332000Y81900D02*
Y87100D01*
X330000Y81900D02*
Y87100D01*
X338000Y81900D02*
Y87100D01*
X340000Y81900D02*
Y87100D01*
X324000Y81900D02*
Y87100D01*
X336000Y81900D02*
Y87100D01*
X334000Y81900D02*
Y87100D01*
X348000Y81900D02*
Y87100D01*
X350000Y81900D02*
Y87100D01*
X342000Y81900D02*
Y87100D01*
X346000Y81900D02*
Y87100D01*
X344000Y81900D02*
Y87100D01*
X368000Y55000D02*
Y57100D01*
X370000Y55000D02*
Y57100D01*
X292608D02*
X378691D01*
X234353Y56000D02*
X380167D01*
X378000Y55000D02*
Y57100D01*
X380000Y55000D02*
Y56081D01*
X372000Y55000D02*
Y57100D01*
X376000Y55000D02*
Y57100D01*
X374000Y55000D02*
Y57100D01*
X354000Y55000D02*
Y57100D01*
X356000Y55000D02*
Y57100D01*
X350000Y55000D02*
Y57100D01*
X352000Y55000D02*
Y57100D01*
X364000Y55000D02*
Y57100D01*
X366000Y55000D02*
Y57100D01*
X358000Y55000D02*
Y57100D01*
X362000Y55000D02*
Y57100D01*
X360000Y55000D02*
Y57100D01*
X382000Y55000D02*
Y55600D01*
X205000Y55000D02*
X795000D01*
X383833Y56000D02*
X521167D01*
X390000Y55000D02*
Y57100D01*
X392000Y55000D02*
Y57100D01*
X384000Y55000D02*
Y56081D01*
X388000Y55000D02*
Y57100D01*
X386000Y55000D02*
Y57100D01*
X394000Y55000D02*
Y57100D01*
X396000Y55000D02*
Y57100D01*
X385309D02*
X519691D01*
X404000Y55000D02*
Y57100D01*
X406000Y55000D02*
Y57100D01*
X398000Y55000D02*
Y57100D01*
X402000Y55000D02*
Y57100D01*
X400000Y55000D02*
Y57100D01*
X350000Y62900D02*
Y68100D01*
X352000Y62900D02*
Y68100D01*
X292608Y62900D02*
X378691D01*
X234353Y64000D02*
X380167D01*
X362000Y62900D02*
Y68100D01*
X356000Y62900D02*
Y68100D01*
X360000Y62900D02*
Y68100D01*
X358000Y62900D02*
Y68100D01*
X366000Y62900D02*
Y68100D01*
X368000Y62900D02*
Y68100D01*
X354000Y62900D02*
Y68100D01*
X364000Y62900D02*
Y68100D01*
X374000Y62900D02*
Y68100D01*
X376000Y62900D02*
Y68100D01*
X378000Y62900D02*
Y68100D01*
X382000Y64400D02*
Y68100D01*
X380000Y63919D02*
Y68100D01*
X383833Y64000D02*
X521167D01*
X273348Y68000D02*
X786134D01*
X231716Y66000D02*
X788283D01*
X392000Y62900D02*
Y68100D01*
X394000Y62900D02*
Y68100D01*
X384000Y63919D02*
Y68100D01*
X385309Y62900D02*
X519691D01*
X390000D02*
Y68100D01*
X396000Y62900D02*
Y68100D01*
X398000Y62900D02*
Y68100D01*
X386000Y62900D02*
Y68100D01*
X273406D02*
X786084D01*
X388000Y62900D02*
Y68100D01*
X406000Y62900D02*
Y68100D01*
X408000Y62900D02*
Y68100D01*
X400000Y62900D02*
Y68100D01*
X404000Y62900D02*
Y68100D01*
X402000Y62900D02*
Y68100D01*
X434000Y55000D02*
Y57100D01*
X436000Y55000D02*
Y57100D01*
X430000Y55000D02*
Y57100D01*
X432000Y55000D02*
Y57100D01*
X444000Y55000D02*
Y57100D01*
X446000Y55000D02*
Y57100D01*
X438000Y55000D02*
Y57100D01*
X442000Y55000D02*
Y57100D01*
X440000Y55000D02*
Y57100D01*
X412000Y55000D02*
Y57100D01*
X416000Y55000D02*
Y57100D01*
X408000Y55000D02*
Y57100D01*
X410000Y55000D02*
Y57100D01*
X424000Y55000D02*
Y57100D01*
X426000Y55000D02*
Y57100D01*
X418000Y55000D02*
Y57100D01*
X422000Y55000D02*
Y57100D01*
X420000Y55000D02*
Y57100D01*
X470000Y55000D02*
Y57100D01*
X472000Y55000D02*
Y57100D01*
X466000Y55000D02*
Y57100D01*
X468000Y55000D02*
Y57100D01*
X484000Y55000D02*
Y57100D01*
X486000Y55000D02*
Y57100D01*
X478000Y55000D02*
Y57100D01*
X482000Y55000D02*
Y57100D01*
X480000Y55000D02*
Y57100D01*
X452000Y55000D02*
Y57100D01*
X454000Y55000D02*
Y57100D01*
X448000Y55000D02*
Y57100D01*
X450000Y55000D02*
Y57100D01*
X462000Y55000D02*
Y57100D01*
X464000Y55000D02*
Y57100D01*
X456000Y55000D02*
Y57100D01*
X460000Y55000D02*
Y57100D01*
X458000Y55000D02*
Y57100D01*
X410000Y62900D02*
Y68100D01*
X414000Y55000D02*
Y57100D01*
X412000Y62900D02*
Y68100D01*
X414000Y62900D02*
Y68100D01*
X422000Y62900D02*
Y68100D01*
X428000Y55000D02*
Y57100D01*
X416000Y62900D02*
Y68100D01*
X420000Y62900D02*
Y68100D01*
X418000Y62900D02*
Y68100D01*
X428000Y62900D02*
Y68100D01*
X430000Y62900D02*
Y68100D01*
X424000Y62900D02*
Y68100D01*
X426000Y62900D02*
Y68100D01*
X438000Y62900D02*
Y68100D01*
X440000Y62900D02*
Y68100D01*
X432000Y62900D02*
Y68100D01*
X436000Y62900D02*
Y68100D01*
X434000Y62900D02*
Y68100D01*
X452000Y62900D02*
Y68100D01*
X462000Y62900D02*
Y68100D01*
X448000Y62900D02*
Y68100D01*
X450000Y62900D02*
Y68100D01*
X474000Y55000D02*
Y57100D01*
X476000Y55000D02*
Y57100D01*
X464000Y62900D02*
Y68100D01*
X468000Y62900D02*
Y68100D01*
X466000Y62900D02*
Y68100D01*
X474000Y62900D02*
Y68100D01*
X476000Y62900D02*
Y68100D01*
X460000Y62900D02*
Y68100D01*
X472000Y62900D02*
Y68100D01*
X470000Y62900D02*
Y68100D01*
X484000Y62900D02*
Y68100D01*
X486000Y62900D02*
Y68100D01*
X478000Y62900D02*
Y68100D01*
X482000Y62900D02*
Y68100D01*
X480000Y62900D02*
Y68100D01*
X356000Y71900D02*
Y78100D01*
X358000Y71900D02*
Y78100D01*
X350000Y71900D02*
Y78100D01*
X354000Y71900D02*
Y78100D01*
X370000Y62900D02*
Y68100D01*
X372000Y62900D02*
Y68100D01*
X360000Y71900D02*
Y78100D01*
X364000Y71900D02*
Y78100D01*
X362000Y71900D02*
Y78100D01*
X368000Y71900D02*
Y78100D01*
X370000Y71900D02*
Y78100D01*
X352000Y71900D02*
Y78100D01*
X366000Y71900D02*
Y78100D01*
X378000Y71900D02*
Y78100D01*
X380000Y71900D02*
Y78100D01*
X372000Y71900D02*
Y78100D01*
X376000Y71900D02*
Y78100D01*
X374000Y71900D02*
Y78100D01*
X406000Y71900D02*
Y78100D01*
X408000Y71900D02*
Y78100D01*
X404000Y71900D02*
Y78100D01*
X273406Y71900D02*
X786084D01*
X416000D02*
Y78100D01*
X418000Y71900D02*
Y78100D01*
X410000Y71900D02*
Y78100D01*
X414000Y71900D02*
Y78100D01*
X412000Y71900D02*
Y78100D01*
X386000Y71900D02*
Y78100D01*
X388000Y71900D02*
Y78100D01*
X382000Y71900D02*
Y78100D01*
X384000Y71900D02*
Y78100D01*
X398000Y71900D02*
Y78100D01*
X402000Y71900D02*
Y78100D01*
X390000Y71900D02*
Y78100D01*
X394000Y71900D02*
Y78100D01*
X392000Y71900D02*
Y78100D01*
X376000Y81900D02*
Y87100D01*
X378000Y81900D02*
Y87100D01*
X372000Y81900D02*
Y87100D01*
X374000Y81900D02*
Y87100D01*
X388000Y81900D02*
Y87100D01*
X390000Y81900D02*
Y87100D01*
X380000Y81900D02*
Y87100D01*
X384000Y81900D02*
Y87100D01*
X382000Y81900D02*
Y87100D01*
X356000Y81900D02*
Y87100D01*
X358000Y81900D02*
Y87100D01*
X352000Y81900D02*
Y87100D01*
X354000Y81900D02*
Y87100D01*
X368000Y81900D02*
Y87100D01*
X370000Y81900D02*
Y87100D01*
X360000Y81900D02*
Y87100D01*
X366000Y81900D02*
Y87100D01*
X364000Y81900D02*
Y87100D01*
X273348Y72000D02*
X786134D01*
X231716Y74000D02*
X788283D01*
X283348Y78000D02*
X786134D01*
X231716Y76000D02*
X788283D01*
X396000Y71900D02*
Y78100D01*
X400000Y71900D02*
Y78100D01*
X398000Y81900D02*
Y87100D01*
X283406Y78100D02*
X786084D01*
X283406Y81900D02*
X786084D01*
X400000D02*
Y87100D01*
X404000Y81900D02*
Y87100D01*
X392000Y81900D02*
Y87100D01*
X396000Y81900D02*
Y87100D01*
X394000Y81900D02*
Y87100D01*
X416000Y81900D02*
Y87100D01*
X418000Y81900D02*
Y87100D01*
X406000Y81900D02*
Y87100D01*
X414000Y81900D02*
Y87100D01*
X410000Y81900D02*
Y87100D01*
X428000Y71900D02*
Y78100D01*
X430000Y71900D02*
Y78100D01*
X420000Y71900D02*
Y78100D01*
X422000Y71900D02*
Y78100D01*
X444000Y62900D02*
Y68100D01*
X446000Y62900D02*
Y68100D01*
X432000Y71900D02*
Y78100D01*
X442000Y62900D02*
Y68100D01*
X434000Y71900D02*
Y78100D01*
X438000Y71900D02*
Y78100D01*
X440000Y71900D02*
Y78100D01*
X424000Y71900D02*
Y78100D01*
X436000Y71900D02*
Y78100D01*
X450000Y71900D02*
Y78100D01*
X452000Y71900D02*
Y78100D01*
X442000Y71900D02*
Y78100D01*
X448000Y71900D02*
Y78100D01*
X446000Y71900D02*
Y78100D01*
X454000Y62900D02*
Y68100D01*
X456000Y62900D02*
Y68100D01*
X454000Y71900D02*
Y78100D01*
X456000Y71900D02*
Y78100D01*
X458000Y71900D02*
Y78100D01*
Y62900D02*
Y68100D01*
X460000Y71900D02*
Y78100D01*
X464000Y71900D02*
Y78100D01*
X462000Y71900D02*
Y78100D01*
X470000Y71900D02*
Y78100D01*
X476000Y71900D02*
Y78100D01*
X466000Y71900D02*
Y78100D01*
X468000Y71900D02*
Y78100D01*
X484000Y71900D02*
Y78100D01*
X486000Y71900D02*
Y78100D01*
X478000Y71900D02*
Y78100D01*
X482000Y71900D02*
Y78100D01*
X480000Y71900D02*
Y78100D01*
X424000Y81900D02*
Y87100D01*
X426000Y71900D02*
Y78100D01*
X420000Y81900D02*
Y87100D01*
X422000Y81900D02*
Y87100D01*
X432000Y81900D02*
Y87100D01*
X444000Y71900D02*
Y78100D01*
X426000Y81900D02*
Y87100D01*
X430000Y81900D02*
Y87100D01*
X428000Y81900D02*
Y87100D01*
X440000Y81900D02*
Y87100D01*
X442000Y81900D02*
Y87100D01*
X436000Y81900D02*
Y87100D01*
X438000Y81900D02*
Y87100D01*
X450000Y81900D02*
Y87100D01*
X452000Y81900D02*
Y87100D01*
X444000Y81900D02*
Y87100D01*
X448000Y81900D02*
Y87100D01*
X446000Y81900D02*
Y87100D01*
X460000Y81900D02*
Y87100D01*
X462000Y81900D02*
Y87100D01*
X454000Y81900D02*
Y87100D01*
X456000Y81900D02*
Y87100D01*
X472000Y71900D02*
Y78100D01*
X474000Y71900D02*
Y78100D01*
X464000Y81900D02*
Y87100D01*
X468000Y81900D02*
Y87100D01*
X466000Y81900D02*
Y87100D01*
X474000Y81900D02*
Y87100D01*
X476000Y81900D02*
Y87100D01*
X458000Y81900D02*
Y87100D01*
X472000Y81900D02*
Y87100D01*
X470000Y81900D02*
Y87100D01*
X484000Y81900D02*
Y87100D01*
X486000Y81900D02*
Y87100D01*
X478000Y81900D02*
Y87100D01*
X482000Y81900D02*
Y87100D01*
X480000Y81900D02*
Y87100D01*
X205000Y82000D02*
X226134D01*
X205000Y84000D02*
X228284D01*
X205000Y88000D02*
X226134D01*
X205000Y86000D02*
X228284D01*
X228000Y83866D02*
Y86134D01*
X230000Y84353D02*
Y85647D01*
X205000Y90000D02*
X225647D01*
X205000Y92000D02*
X226134D01*
X205000Y94000D02*
X228284D01*
X205000Y98000D02*
X226134D01*
X205000Y96000D02*
X228284D01*
X205000Y100000D02*
X225647D01*
X205000Y102000D02*
X226134D01*
X226000Y91716D02*
Y98283D01*
X228000Y93866D02*
Y96134D01*
X226000Y101716D02*
Y108283D01*
X230000Y94353D02*
Y95647D01*
X228000Y103866D02*
Y106134D01*
X232000Y83866D02*
Y86134D01*
X231716Y96000D02*
X289313D01*
X231716Y94000D02*
X291313D01*
X233866Y88000D02*
X256652D01*
X233866Y82000D02*
X276652D01*
X233916Y88100D02*
X256594D01*
X233916Y91900D02*
X256594D01*
X233866Y92000D02*
X256652D01*
X232000Y93866D02*
Y96134D01*
Y103866D02*
Y106134D01*
X233866Y98000D02*
X287313D01*
X234000Y91900D02*
Y98283D01*
X236000Y91900D02*
Y108283D01*
X234000Y101716D02*
Y108283D01*
X234353Y100000D02*
X285313D01*
X233866Y102000D02*
X276224D01*
X205000Y108000D02*
X216134D01*
X205000Y106000D02*
X218284D01*
X205000Y110000D02*
X215647D01*
X205000Y112000D02*
X216134D01*
X221716Y106000D02*
X228284D01*
X205000Y104000D02*
X228284D01*
X223866Y108000D02*
X226134D01*
X224353Y110000D02*
X225647D01*
X205000Y114000D02*
X218284D01*
X205000Y116000D02*
X223313D01*
X205000Y118000D02*
X225313D01*
X226000Y111716D02*
Y113313D01*
X224113Y111426D02*
X229240Y116553D01*
X224687Y112000D02*
X226134D01*
X226687Y114000D02*
X228284D01*
X228000Y113866D02*
Y115313D01*
X230000Y104353D02*
Y105647D01*
X231716Y104000D02*
X253313D01*
X233866Y108000D02*
X236134D01*
X231716Y106000D02*
X238283D01*
X234353Y110000D02*
X235647D01*
X236000Y111716D02*
Y113313D01*
X234687Y112000D02*
X236134D01*
X236687Y114000D02*
X238283D01*
X231426Y114113D02*
X233866Y116553D01*
X230000Y114353D02*
Y116553D01*
X228687Y116000D02*
X233313D01*
X229240Y116553D02*
X233866D01*
X234113Y111426D02*
X237240Y114553D01*
X232000Y114687D02*
Y116553D01*
X237240Y114553D02*
X241866D01*
X238000Y113866D02*
Y114553D01*
X256000Y91900D02*
Y103100D01*
X264000Y91900D02*
Y103100D01*
X272000Y91900D02*
Y103100D01*
X274000Y91900D02*
Y103100D01*
X266000Y91900D02*
Y103100D01*
X270000Y91900D02*
Y103100D01*
X268000Y91900D02*
Y103100D01*
X242000Y91900D02*
Y106134D01*
X244000Y91900D02*
Y108283D01*
X238000Y91900D02*
Y106134D01*
X240000Y91900D02*
Y105647D01*
X252000Y91900D02*
Y105313D01*
X254000Y91900D02*
Y103384D01*
X246000Y91900D02*
Y108283D01*
X250000Y91900D02*
Y105647D01*
X248000Y91900D02*
Y106134D01*
X280000Y83900D02*
Y88100D01*
X263406D02*
X294385D01*
X263348Y88000D02*
X294485D01*
X282000Y83348D02*
Y88100D01*
X304000Y81900D02*
Y87100D01*
X294385Y88100D02*
X294825Y87659D01*
X278000Y83348D02*
Y88100D01*
X263406Y91900D02*
X293413D01*
X276000D02*
Y102188D01*
X282000Y91900D02*
Y101647D01*
X288000Y91900D02*
Y97313D01*
X290000Y91900D02*
Y95313D01*
X284000Y91900D02*
Y101313D01*
X286000Y91900D02*
Y99313D01*
X283666Y101647D02*
X293413Y91900D01*
X241717Y106000D02*
X248284D01*
X251426Y105887D02*
X253654Y103659D01*
X258000Y93348D02*
Y103100D01*
X262000Y93348D02*
Y103100D01*
X260000Y93900D02*
Y103100D01*
X275087D02*
X275981Y102207D01*
X255000Y103100D02*
X275087D01*
X243866Y108000D02*
X246134D01*
X241426Y114113D02*
X241866Y114553D01*
X244113Y111426D02*
X245240Y112553D01*
X244353Y110000D02*
X245647D01*
X246000Y111716D02*
Y112553D01*
X244687Y112000D02*
X246134D01*
X245240Y112553D02*
X246474D01*
X263348Y92000D02*
X293313D01*
X277327Y101647D02*
X283666D01*
X278000Y91900D02*
Y101647D01*
X280000Y91900D02*
Y101647D01*
X292000Y91900D02*
Y93313D01*
X309353Y114000D02*
X310016D01*
X304353Y114353D02*
X309353D01*
X304353D02*
Y115158D01*
X304156Y116000D02*
X312016D01*
X302298Y118000D02*
X314053D01*
X309353Y113337D02*
Y114353D01*
Y113337D02*
X313809Y117794D01*
X315156Y118353D02*
X328712D01*
X221426Y114113D02*
X227106Y119793D01*
X205000Y120000D02*
X227350D01*
X205000Y128000D02*
X239313D01*
X234000Y120353D02*
Y133313D01*
X236000Y120353D02*
Y131313D01*
X240000Y120353D02*
Y127313D01*
X238000Y120353D02*
Y129313D01*
X216000Y111716D02*
Y138284D01*
X218000Y113866D02*
Y136134D01*
X220000Y114353D02*
Y135647D01*
X222000Y114687D02*
Y136134D01*
X224000Y116687D02*
Y138284D01*
X226000Y118687D02*
Y138284D01*
X228000Y120298D02*
Y136134D01*
X232000Y120353D02*
Y135313D01*
X230000Y120353D02*
Y135647D01*
X205000Y122000D02*
X245313D01*
X228453Y120353D02*
X246960D01*
X205000Y126000D02*
X241313D01*
X205000Y124000D02*
X243313D01*
X242000Y120353D02*
Y125313D01*
X244000Y120353D02*
Y123313D01*
X246000Y120353D02*
Y121313D01*
X231426Y135887D02*
X246960Y120353D01*
X276000Y128353D02*
Y135016D01*
X278000Y128353D02*
Y133654D01*
X280000Y128353D02*
Y133647D01*
X288000Y128353D02*
Y133647D01*
X290000Y128353D02*
Y133647D01*
X282000Y128353D02*
Y133654D01*
X286000Y128353D02*
Y133696D01*
X284000Y128353D02*
Y135016D01*
X205000Y132000D02*
X235313D01*
X205000Y130000D02*
X237313D01*
X205000Y136000D02*
X218284D01*
X205000Y134000D02*
X233313D01*
X268000Y134687D02*
Y136134D01*
X270000Y132687D02*
Y135647D01*
X223866Y138000D02*
X226134D01*
X266687Y136000D02*
X268284D01*
X221716D02*
X228284D01*
X205000Y138000D02*
X216134D01*
X205000Y140000D02*
X215647D01*
X224353D02*
X225647D01*
X266000Y136687D02*
Y138284D01*
X264687Y138000D02*
X266134D01*
X264353Y140000D02*
X265647D01*
X274334Y128353D02*
X291158D01*
X268687Y134000D02*
X277053D01*
X278156Y133647D02*
X281844D01*
X282947Y134000D02*
X285323D01*
X286426Y133647D02*
X293574D01*
X272000Y130687D02*
Y136134D01*
X264113Y138574D02*
X274334Y128353D01*
X271716Y136000D02*
X275016D01*
X273544Y137472D02*
X276809Y134206D01*
X274000Y128687D02*
Y137016D01*
X283191Y134206D02*
X284135Y135151D01*
X284135Y135151D02*
X285080Y134206D01*
X304000Y116261D02*
Y135764D01*
X306000Y114353D02*
Y135764D01*
X302000Y118298D02*
Y136846D01*
X292504Y127794D02*
X303794Y116504D01*
X314000Y117961D02*
Y135764D01*
X316000Y118353D02*
Y135764D01*
X324000Y118353D02*
Y135764D01*
X328712Y118353D02*
X330153Y119793D01*
X326000Y118353D02*
Y135764D01*
X308000Y114353D02*
Y136846D01*
X310000Y113984D02*
Y140000D01*
X300000Y120298D02*
Y138328D01*
X312000Y115984D02*
Y136846D01*
X318000Y118353D02*
Y136846D01*
X320000Y118353D02*
Y140000D01*
X322000Y118353D02*
Y136846D01*
X328000Y118353D02*
Y136846D01*
X330000Y119641D02*
Y140000D01*
X300298Y120000D02*
X330396D01*
X331499Y120353D02*
X352844D01*
X334000D02*
Y135764D01*
X346000Y120353D02*
Y135764D01*
X344000Y120353D02*
Y135764D01*
X342000Y120353D02*
Y136846D01*
X348000Y120353D02*
Y136846D01*
X332000Y120353D02*
Y136846D01*
X340000Y120353D02*
Y140000D01*
X356000Y117984D02*
Y135764D01*
X358000Y115984D02*
Y136846D01*
X350000Y120353D02*
Y138612D01*
X354000Y119961D02*
Y135764D01*
X352000Y120353D02*
Y136846D01*
X292000Y128156D02*
Y133647D01*
X294000Y126298D02*
Y133696D01*
X296000Y124298D02*
Y135313D01*
X298000Y122298D02*
Y137313D01*
X294920Y134206D02*
X295794Y135080D01*
X306716Y136000D02*
X313283D01*
X296687D02*
X303284D01*
X295972Y135285D02*
X299015Y138328D01*
X300981D01*
X298687Y138000D02*
X301134D01*
X308866D02*
X311134D01*
X309353Y140000D02*
X310647D01*
X316717Y136000D02*
X323284D01*
X326716D02*
X333283D01*
X318866Y138000D02*
X321134D01*
X328866D02*
X331134D01*
X336000Y120353D02*
Y135764D01*
X338000Y120353D02*
Y136846D01*
X336717Y136000D02*
X343284D01*
X346716D02*
X353284D01*
X348866Y138000D02*
X351134D01*
X319353Y140000D02*
X320647D01*
X338866Y138000D02*
X341134D01*
X329353Y140000D02*
X330647D01*
X339353D02*
X340647D01*
X350049Y138659D02*
X350702Y139312D01*
X362000Y81900D02*
Y87100D01*
X386000Y81900D02*
Y87100D01*
X396000Y102900D02*
Y103313D01*
X395587Y102900D02*
X400213D01*
X402000Y81900D02*
Y87100D01*
X408000Y81900D02*
Y87100D01*
X396687Y104000D02*
X401313D01*
X404000Y100900D02*
Y101313D01*
X406000Y100900D02*
Y103313D01*
X398000Y102900D02*
Y105313D01*
X395587Y102900D02*
X398574Y105887D01*
X400000Y102900D02*
Y105647D01*
X408000Y100900D02*
Y105313D01*
X403587Y100900D02*
X408574Y105887D01*
X402000Y104687D02*
Y106134D01*
X401717Y106000D02*
X403313D01*
X400213Y102900D02*
X405887Y108574D01*
X283348Y82000D02*
X786134D01*
X231716Y84000D02*
X788283D01*
X296172Y87100D02*
X490000D01*
X231716Y86000D02*
X788283D01*
X412000Y81900D02*
Y87100D01*
X403587Y100900D02*
X428213D01*
X420000D02*
Y105647D01*
X404687Y102000D02*
X429313D01*
X406687Y104000D02*
X431313D01*
X410000Y100900D02*
Y105647D01*
X412000Y100900D02*
Y106134D01*
X411717Y106000D02*
X418284D01*
X414000Y100900D02*
Y108283D01*
X416000Y100900D02*
Y108283D01*
X418000Y100900D02*
Y106134D01*
X421716Y106000D02*
X428284D01*
X422000Y100900D02*
Y106134D01*
X368056Y106900D02*
X371944D01*
X369353Y110000D02*
X370647D01*
X368866Y108000D02*
X371134D01*
X378056Y106900D02*
X384213D01*
X378866Y108000D02*
X385313D01*
X384213Y106900D02*
X385647Y108334D01*
X379353Y110000D02*
X385647D01*
X359984Y114000D02*
X363100D01*
X385647Y108334D02*
Y114353D01*
X368866Y112000D02*
X371134D01*
X376716Y114000D02*
X385647D01*
X366900D02*
X373284D01*
X394353Y108000D02*
X395313D01*
X394353Y107040D02*
X395887Y108574D01*
X394353Y110000D02*
X395647D01*
X394353Y112000D02*
X396134D01*
X404000Y106687D02*
Y108283D01*
X413866Y108000D02*
X416134D01*
X403866D02*
X405313D01*
X414353Y110000D02*
X415647D01*
X404353D02*
X405647D01*
X378866Y112000D02*
X385647D01*
Y114353D02*
X394353D01*
X401717Y114000D02*
X408284D01*
X394353D02*
X398284D01*
X413866Y112000D02*
X416134D01*
X403866D02*
X406134D01*
X421716Y114000D02*
X428284D01*
X411717D02*
X418284D01*
X434000Y81900D02*
Y87100D01*
X435587Y90900D02*
X441787Y97100D01*
X436000Y90900D02*
Y91313D01*
X438000Y90900D02*
Y93313D01*
X446000Y90900D02*
Y97100D01*
X456000Y90900D02*
Y97100D01*
X440000Y90900D02*
Y95313D01*
X444000Y90900D02*
Y97100D01*
X442000Y90900D02*
Y97100D01*
X428000Y100900D02*
Y106134D01*
X448000Y90900D02*
Y97100D01*
X424000Y100900D02*
Y108283D01*
X426000Y100900D02*
Y108283D01*
X458000Y90900D02*
Y97100D01*
X460000Y90900D02*
Y97100D01*
X450000Y90900D02*
Y97100D01*
X454000Y90900D02*
Y97100D01*
X452000Y90900D02*
Y97100D01*
X435587Y90900D02*
X488155D01*
X436687Y92000D02*
X786134D01*
X440687Y96000D02*
X788283D01*
X438687Y94000D02*
X788283D01*
X472000Y90900D02*
Y97100D01*
X474000Y90900D02*
Y97100D01*
X462000Y90900D02*
Y97100D01*
X470000Y90900D02*
Y97100D01*
X468000Y90900D02*
Y97100D01*
X466000Y90900D02*
Y97100D01*
X476000Y90900D02*
Y97100D01*
X464000Y90900D02*
Y97100D01*
X441787D02*
X549000D01*
X484000Y90900D02*
Y97100D01*
X486000Y90900D02*
Y97100D01*
X478000Y90900D02*
Y97100D01*
X482000Y90900D02*
Y97100D01*
X480000Y90900D02*
Y97100D01*
X430000Y102687D02*
Y105647D01*
X432000Y104687D02*
Y106134D01*
X423866Y108000D02*
X426134D01*
X431716Y106000D02*
X433313D01*
X434000Y106687D02*
Y108283D01*
X444000Y106900D02*
Y108283D01*
X433866Y108000D02*
X435313D01*
X443866D02*
X446134D01*
X446000Y106900D02*
Y108283D01*
X428213Y100900D02*
X435887Y108574D01*
X424353Y110000D02*
X425647D01*
X423866Y112000D02*
X426134D01*
X434353Y110000D02*
X435647D01*
X433866Y112000D02*
X436134D01*
X444353Y110000D02*
X445647D01*
X431716Y114000D02*
X438283D01*
X443056Y106900D02*
X446944D01*
X453056D02*
X456944D01*
X453866Y108000D02*
X456134D01*
X454000Y106900D02*
Y108283D01*
X456000Y106900D02*
Y108283D01*
X464000Y106900D02*
Y108283D01*
X463056Y106900D02*
X525213D01*
X463866Y108000D02*
X525647D01*
X443866Y112000D02*
X446134D01*
X454353Y110000D02*
X455647D01*
X441716Y114000D02*
X448283D01*
X453866Y112000D02*
X456134D01*
X451717Y114000D02*
X458284D01*
X461717D02*
X525647D01*
X464353Y110000D02*
X525647D01*
X463866Y112000D02*
X525647D01*
X354191Y119793D02*
X360793Y113191D01*
X355984Y118000D02*
X363100D01*
X353947Y120000D02*
X363100D01*
X298298Y122000D02*
X363235D01*
X363100Y113916D02*
Y121297D01*
X368000Y113154D02*
Y121610D01*
X357984Y116000D02*
X363100D01*
X366900Y113916D02*
Y120510D01*
X360000Y113984D02*
Y140000D01*
X362000Y113154D02*
Y136846D01*
X363659Y122643D02*
X377356Y136340D01*
X370000Y106900D02*
Y123610D01*
X372000Y113154D02*
Y125610D01*
X374000Y114236D02*
Y127610D01*
X376000Y114236D02*
Y129610D01*
X378000Y113154D02*
Y131610D01*
X366900Y116000D02*
X533313D01*
X366900Y118000D02*
X535313D01*
X366900Y120000D02*
X537313D01*
X368390Y122000D02*
X588235D01*
X380000Y106900D02*
Y133610D01*
X382000Y106900D02*
Y135610D01*
X394353Y107040D02*
Y114353D01*
X390000D02*
Y135647D01*
X384000Y106900D02*
Y137610D01*
X386000Y114353D02*
Y138284D01*
X366900Y120510D02*
X385702Y139312D01*
X388000Y114353D02*
Y136134D01*
X396000Y111716D02*
Y138284D01*
X398000Y113866D02*
Y136134D01*
X392000Y114353D02*
Y136134D01*
X400000Y114353D02*
Y135647D01*
X394000Y114353D02*
Y138284D01*
X294298Y126000D02*
X367016D01*
X292261Y128000D02*
X369016D01*
X272687Y130000D02*
X371016D01*
X270687Y132000D02*
X373016D01*
X364000Y122984D02*
Y135764D01*
X296298Y124000D02*
X365016D01*
X356716Y136000D02*
X363283D01*
X366000Y124984D02*
Y135764D01*
X366717Y136000D02*
X373284D01*
X359353Y140000D02*
X360647D01*
X358866Y138000D02*
X361134D01*
X368000Y126984D02*
Y136846D01*
X370000Y128984D02*
Y140000D01*
X369353D02*
X370647D01*
X372000Y130984D02*
Y136846D01*
X368866Y138000D02*
X371134D01*
X370390Y124000D02*
X590016D01*
X372390Y126000D02*
X592016D01*
X374000Y132984D02*
Y135764D01*
X294677Y134000D02*
X375016D01*
X374390Y128000D02*
X594016D01*
X376390Y130000D02*
X596016D01*
X376000Y134984D02*
Y135764D01*
X378390Y132000D02*
X598016D01*
X380390Y134000D02*
X600016D01*
X384390Y138000D02*
X386134D01*
X382390Y136000D02*
X388283D01*
X394353Y140000D02*
X395647D01*
X391717Y136000D02*
X398284D01*
X393866Y138000D02*
X396134D01*
X412000Y113866D02*
Y136134D01*
X402000Y113866D02*
Y136134D01*
X408000Y113866D02*
Y136134D01*
X432000Y113866D02*
Y136134D01*
X438000Y113866D02*
Y136134D01*
X418000Y113866D02*
Y136134D01*
X428000Y113866D02*
Y136134D01*
X422000Y113866D02*
Y136134D01*
X414000Y111716D02*
Y138284D01*
X416000Y111716D02*
Y138284D01*
X404000Y111716D02*
Y138284D01*
X406000Y111716D02*
Y138284D01*
X436000Y111716D02*
Y138284D01*
X444000Y111716D02*
Y138284D01*
X424000Y111716D02*
Y138284D01*
X434000Y111716D02*
Y138284D01*
X426000Y111716D02*
Y138284D01*
X446000Y111716D02*
Y138284D01*
X454000Y111716D02*
Y138284D01*
X466000Y106900D02*
Y140000D01*
X468000Y106900D02*
Y140000D01*
X456000Y111716D02*
Y138284D01*
X462000Y113866D02*
Y136134D01*
X464000Y111716D02*
Y138284D01*
X474000Y106900D02*
Y140000D01*
X476000Y106900D02*
Y140000D01*
X470000Y106900D02*
Y140000D01*
X472000Y106900D02*
Y140000D01*
X484000Y106900D02*
Y140000D01*
X486000Y106900D02*
Y140000D01*
X478000Y106900D02*
Y140000D01*
X482000Y106900D02*
Y140000D01*
X480000Y106900D02*
Y140000D01*
X401717Y136000D02*
X408284D01*
X410000Y114353D02*
Y135647D01*
X413866Y138000D02*
X416134D01*
X411717Y136000D02*
X418284D01*
X420000Y114353D02*
Y135647D01*
X430000Y114353D02*
Y135647D01*
X421716Y136000D02*
X428284D01*
X431716D02*
X438283D01*
X433866Y138000D02*
X436134D01*
X403866D02*
X406134D01*
X404353Y140000D02*
X405647D01*
X414353D02*
X415647D01*
X424353D02*
X425647D01*
X423866Y138000D02*
X426134D01*
X434353Y140000D02*
X435647D01*
X442000Y113866D02*
Y136134D01*
X448000Y113866D02*
Y136134D01*
X440000Y114353D02*
Y135647D01*
X441716Y136000D02*
X448283D01*
X450000Y114353D02*
Y135647D01*
X452000Y113866D02*
Y136134D01*
X451717Y136000D02*
X458284D01*
X460000Y114353D02*
Y135647D01*
X461717Y136000D02*
X528284D01*
X444353Y140000D02*
X445647D01*
X453866Y138000D02*
X456134D01*
X443866D02*
X446134D01*
X458000Y113866D02*
Y136134D01*
X454353Y140000D02*
X455647D01*
X463866Y138000D02*
X526134D01*
X464353Y140000D02*
X525647D01*
X510000Y55000D02*
Y57100D01*
X512000Y55000D02*
Y57100D01*
X506000Y55000D02*
Y57100D01*
X508000Y55000D02*
Y57100D01*
X520000Y55000D02*
Y56781D01*
X522000Y55000D02*
Y55715D01*
X514000Y55000D02*
Y57100D01*
X518000Y55000D02*
Y57100D01*
X516000Y55000D02*
Y57100D01*
X492000Y55000D02*
Y57100D01*
X494000Y55000D02*
Y57100D01*
X488000Y55000D02*
Y57100D01*
X490000Y55000D02*
Y57100D01*
X502000Y55000D02*
Y57100D01*
X504000Y55000D02*
Y57100D01*
X496000Y55000D02*
Y57100D01*
X500000Y55000D02*
Y57100D01*
X498000Y55000D02*
Y57100D01*
X524000Y55000D02*
Y55715D01*
X526000Y55000D02*
Y56781D01*
X524833Y56000D02*
X606167D01*
X534000Y55000D02*
Y57100D01*
X536000Y55000D02*
Y57100D01*
X528000Y55000D02*
Y57100D01*
X532000Y55000D02*
Y57100D01*
X530000Y55000D02*
Y57100D01*
X540000Y55000D02*
Y57100D01*
X542000Y55000D02*
Y57100D01*
X538000Y55000D02*
Y57100D01*
X550000Y55000D02*
Y57100D01*
X552000Y55000D02*
Y57100D01*
X544000Y55000D02*
Y57100D01*
X548000Y55000D02*
Y57100D01*
X546000Y55000D02*
Y57100D01*
X510000Y62900D02*
Y68100D01*
X512000Y62900D02*
Y68100D01*
X506000Y62900D02*
Y68100D01*
X508000Y62900D02*
Y68100D01*
X514000Y62900D02*
Y68100D01*
X516000Y62900D02*
Y68100D01*
X518000Y62900D02*
Y68100D01*
X522000Y64285D02*
Y68100D01*
X520000Y63219D02*
Y68100D01*
X492000Y62900D02*
Y68100D01*
X494000Y62900D02*
Y68100D01*
X488000Y62900D02*
Y68100D01*
X490000Y62900D02*
Y68100D01*
X502000Y62900D02*
Y68100D01*
X504000Y62900D02*
Y68100D01*
X496000Y62900D02*
Y68100D01*
X500000Y62900D02*
Y68100D01*
X498000Y62900D02*
Y68100D01*
X524000Y64285D02*
Y68100D01*
X524833Y64000D02*
X606167D01*
X526309Y62900D02*
X604691D01*
X526309Y57100D02*
X604691D01*
X530000Y62900D02*
Y68100D01*
X534000Y62900D02*
Y68100D01*
X532000Y62900D02*
Y68100D01*
X538000Y62900D02*
Y68100D01*
X540000Y62900D02*
Y68100D01*
X526000Y63219D02*
Y68100D01*
X536000Y62900D02*
Y68100D01*
X528000Y62900D02*
Y68100D01*
X548000Y62900D02*
Y68100D01*
X550000Y62900D02*
Y68100D01*
X542000Y62900D02*
Y68100D01*
X546000Y62900D02*
Y68100D01*
X544000Y62900D02*
Y68100D01*
X576000Y55000D02*
Y57100D01*
X578000Y55000D02*
Y57100D01*
X572000Y55000D02*
Y57100D01*
X574000Y55000D02*
Y57100D01*
X586000Y55000D02*
Y57100D01*
X588000Y55000D02*
Y57100D01*
X580000Y55000D02*
Y57100D01*
X584000Y55000D02*
Y57100D01*
X582000Y55000D02*
Y57100D01*
X558000Y55000D02*
Y57100D01*
X560000Y55000D02*
Y57100D01*
X554000Y55000D02*
Y57100D01*
X556000Y55000D02*
Y57100D01*
X568000Y55000D02*
Y57100D01*
X570000Y55000D02*
Y57100D01*
X562000Y55000D02*
Y57100D01*
X566000Y55000D02*
Y57100D01*
X564000Y55000D02*
Y57100D01*
X594000Y55000D02*
Y57100D01*
X596000Y55000D02*
Y57100D01*
X590000Y55000D02*
Y57100D01*
X592000Y55000D02*
Y57100D01*
X604000Y55000D02*
Y57100D01*
X606000Y55000D02*
Y56081D01*
X598000Y55000D02*
Y57100D01*
X602000Y55000D02*
Y57100D01*
X600000Y55000D02*
Y57100D01*
X620000Y55000D02*
Y57100D01*
X622000Y55000D02*
Y57100D01*
X616000Y55000D02*
Y57100D01*
X618000Y55000D02*
Y57100D01*
X632000Y55000D02*
Y57100D01*
X634000Y55000D02*
Y57100D01*
X626000Y55000D02*
Y57100D01*
X630000Y55000D02*
Y57100D01*
X628000Y55000D02*
Y57100D01*
X558000Y62900D02*
Y68100D01*
X560000Y62900D02*
Y68100D01*
X552000Y62900D02*
Y68100D01*
X554000Y62900D02*
Y68100D01*
X608000Y55000D02*
Y55600D01*
X562000Y62900D02*
Y68100D01*
X564000Y62900D02*
Y68100D01*
X568000Y62900D02*
Y68100D01*
X574000Y62900D02*
Y68100D01*
X556000Y62900D02*
Y68100D01*
X566000Y62900D02*
Y68100D01*
X586000Y62900D02*
Y68100D01*
X588000Y62900D02*
Y68100D01*
X576000Y62900D02*
Y68100D01*
X584000Y62900D02*
Y68100D01*
X582000Y62900D02*
Y68100D01*
X610000Y55000D02*
Y56081D01*
X612000Y55000D02*
Y57100D01*
X614000Y55000D02*
Y57100D01*
X624000Y55000D02*
Y57100D01*
X614000Y62900D02*
Y68100D01*
X636000Y55000D02*
Y57100D01*
X616000Y62900D02*
Y68100D01*
X622000Y62900D02*
Y68100D01*
X624000Y62900D02*
Y68100D01*
X610000Y63919D02*
Y68100D01*
X620000Y62900D02*
Y68100D01*
X618000Y62900D02*
Y68100D01*
X632000Y62900D02*
Y68100D01*
X634000Y62900D02*
Y68100D01*
X626000Y62900D02*
Y68100D01*
X630000Y62900D02*
Y68100D01*
X628000Y62900D02*
Y68100D01*
X510000Y71900D02*
Y78100D01*
X512000Y71900D02*
Y78100D01*
X506000Y71900D02*
Y78100D01*
X508000Y71900D02*
Y78100D01*
X520000Y71900D02*
Y78100D01*
X522000Y71900D02*
Y78100D01*
X514000Y71900D02*
Y78100D01*
X518000Y71900D02*
Y78100D01*
X516000Y71900D02*
Y78100D01*
X492000Y71900D02*
Y78100D01*
X494000Y71900D02*
Y78100D01*
X488000Y71900D02*
Y78100D01*
X490000Y71900D02*
Y78100D01*
X502000Y71900D02*
Y78100D01*
X504000Y71900D02*
Y78100D01*
X496000Y71900D02*
Y78100D01*
X500000Y71900D02*
Y78100D01*
X498000Y71900D02*
Y78100D01*
X552000Y71900D02*
Y78100D01*
X554000Y71900D02*
Y78100D01*
X542000Y71900D02*
Y78100D01*
X544000Y71900D02*
Y78100D01*
X570000Y62900D02*
Y68100D01*
X572000Y62900D02*
Y68100D01*
X556000Y71900D02*
Y78100D01*
X560000Y71900D02*
Y78100D01*
X558000Y71900D02*
Y78100D01*
X528000Y71900D02*
Y78100D01*
X530000Y71900D02*
Y78100D01*
X524000Y71900D02*
Y78100D01*
X526000Y71900D02*
Y78100D01*
X538000Y71900D02*
Y78100D01*
X540000Y71900D02*
Y78100D01*
X532000Y71900D02*
Y78100D01*
X536000Y71900D02*
Y78100D01*
X534000Y71900D02*
Y78100D01*
X504000Y81900D02*
Y88100D01*
X508000Y81900D02*
Y88100D01*
X488000Y81900D02*
Y87100D01*
X502000Y81900D02*
Y88100D01*
X548000Y71900D02*
Y78100D01*
X550000Y71900D02*
Y78100D01*
X530000Y81900D02*
Y88100D01*
X546000Y71900D02*
Y78100D01*
X532000Y81900D02*
Y88100D01*
X536000Y81900D02*
Y88100D01*
X538000Y81900D02*
Y88100D01*
X506000Y81900D02*
Y88100D01*
X534000Y81900D02*
Y88100D01*
X546000Y81900D02*
Y88100D01*
X548000Y81900D02*
Y88100D01*
X540000Y81900D02*
Y88100D01*
X544000Y81900D02*
Y88100D01*
X542000Y81900D02*
Y88100D01*
X560000Y81900D02*
Y88100D01*
X562000Y71900D02*
Y78100D01*
X552000Y81900D02*
Y88100D01*
X558000Y81900D02*
Y88100D01*
X570000Y71900D02*
Y78100D01*
X572000Y71900D02*
Y78100D01*
X564000Y71900D02*
Y78100D01*
X568000Y71900D02*
Y78100D01*
X566000Y71900D02*
Y78100D01*
X562000Y81900D02*
Y88100D01*
X564000Y81900D02*
Y88100D01*
X550000Y81900D02*
Y88100D01*
X556000Y81900D02*
Y88100D01*
X554000Y81900D02*
Y88100D01*
X572000Y81900D02*
Y88100D01*
X574000Y81900D02*
Y88100D01*
X566000Y81900D02*
Y88100D01*
X570000Y81900D02*
Y88100D01*
X568000Y81900D02*
Y88100D01*
X578000Y62900D02*
Y68100D01*
X580000Y62900D02*
Y68100D01*
X584000Y71900D02*
Y78100D01*
X590000Y62900D02*
Y68100D01*
X598000Y62900D02*
Y68100D01*
X600000Y62900D02*
Y68100D01*
X592000Y62900D02*
Y68100D01*
X596000Y62900D02*
Y68100D01*
X594000Y62900D02*
Y68100D01*
X586000Y71900D02*
Y78100D01*
X588000Y71900D02*
Y78100D01*
X578000Y71900D02*
Y78100D01*
X582000Y71900D02*
Y78100D01*
X596000Y71900D02*
Y78100D01*
X598000Y71900D02*
Y78100D01*
X590000Y71900D02*
Y78100D01*
X594000Y71900D02*
Y78100D01*
X592000Y71900D02*
Y78100D01*
X602000Y62900D02*
Y68100D01*
X604000Y62900D02*
Y68100D01*
X600000Y71900D02*
Y78100D01*
X602000Y71900D02*
Y78100D01*
X606000Y63919D02*
Y68100D01*
X612000Y62900D02*
Y68100D01*
X604000Y71900D02*
Y78100D01*
X608000Y64400D02*
Y68100D01*
X606000Y71900D02*
Y78100D01*
X620000Y71900D02*
Y78100D01*
X622000Y71900D02*
Y78100D01*
X616000Y71900D02*
Y78100D01*
X618000Y71900D02*
Y78100D01*
X630000Y71900D02*
Y78100D01*
X632000Y71900D02*
Y78100D01*
X624000Y71900D02*
Y78100D01*
X628000Y71900D02*
Y78100D01*
X626000Y71900D02*
Y78100D01*
X574000Y71900D02*
Y78100D01*
X576000Y71900D02*
Y78100D01*
Y81900D02*
Y88100D01*
X578000Y81900D02*
Y88100D01*
X580000Y81900D02*
Y88100D01*
Y71900D02*
Y78100D01*
X582000Y81900D02*
Y88100D01*
X586000Y81900D02*
Y88100D01*
X584000Y81900D02*
Y88100D01*
X592000Y81900D02*
Y88100D01*
X594000Y81900D02*
Y88100D01*
X588000Y81900D02*
Y88100D01*
X590000Y81900D02*
Y88100D01*
X602000Y81900D02*
Y88100D01*
X604000Y81900D02*
Y88100D01*
X596000Y81900D02*
Y88100D01*
X600000Y81900D02*
Y88100D01*
X598000Y81900D02*
Y88100D01*
X610000Y71900D02*
Y78100D01*
X612000Y71900D02*
Y78100D01*
X608000Y81900D02*
Y88100D01*
Y71900D02*
Y78100D01*
X614000Y71900D02*
Y78100D01*
X634000Y71900D02*
Y78100D01*
X612000Y81900D02*
Y88100D01*
X636000Y71900D02*
Y78100D01*
X614000Y81900D02*
Y88100D01*
X618000Y81900D02*
Y88100D01*
X620000Y81900D02*
Y88100D01*
X606000Y81900D02*
Y88100D01*
X616000Y81900D02*
Y88100D01*
X610000Y81900D02*
Y88100D01*
X628000Y81900D02*
Y88100D01*
X630000Y81900D02*
Y88100D01*
X622000Y81900D02*
Y88100D01*
X626000Y81900D02*
Y88100D01*
X624000Y81900D02*
Y88100D01*
X660000Y55000D02*
Y57100D01*
X662000Y55000D02*
Y57100D01*
X656000Y55000D02*
Y57100D01*
X658000Y55000D02*
Y57100D01*
X670000Y55000D02*
Y57100D01*
X672000Y55000D02*
Y57100D01*
X664000Y55000D02*
Y57100D01*
X668000Y55000D02*
Y57100D01*
X666000Y55000D02*
Y57100D01*
X642000Y55000D02*
Y57100D01*
X644000Y55000D02*
Y57100D01*
X638000Y55000D02*
Y57100D01*
X640000Y55000D02*
Y57100D01*
X652000Y55000D02*
Y57100D01*
X654000Y55000D02*
Y57100D01*
X646000Y55000D02*
Y57100D01*
X650000Y55000D02*
Y57100D01*
X648000Y55000D02*
Y57100D01*
X702000Y55000D02*
Y57100D01*
X704000Y55000D02*
Y57100D01*
X698000Y55000D02*
Y57100D01*
X700000Y55000D02*
Y57100D01*
X712000Y55000D02*
Y57100D01*
X714000Y55000D02*
Y57100D01*
X706000Y55000D02*
Y57100D01*
X710000Y55000D02*
Y57100D01*
X708000Y55000D02*
Y57100D01*
X678000Y55000D02*
Y57100D01*
X680000Y55000D02*
Y57100D01*
X674000Y55000D02*
Y57100D01*
X676000Y55000D02*
Y57100D01*
X688000Y55000D02*
Y57100D01*
X696000Y55000D02*
Y57100D01*
X682000Y55000D02*
Y57100D01*
X686000Y55000D02*
Y57100D01*
X684000Y55000D02*
Y57100D01*
X680000Y62900D02*
Y68100D01*
X682000Y62900D02*
Y68100D01*
X676000Y62900D02*
Y68100D01*
X678000Y62900D02*
Y68100D01*
X690000Y62900D02*
Y68100D01*
Y55000D02*
Y57100D01*
X684000Y62900D02*
Y68100D01*
X688000Y62900D02*
Y68100D01*
X686000Y62900D02*
Y68100D01*
X640000Y62900D02*
Y68100D01*
X642000Y62900D02*
Y68100D01*
X636000Y62900D02*
Y68100D01*
X638000Y62900D02*
Y68100D01*
X662000Y62900D02*
Y68100D01*
X674000Y62900D02*
Y68100D01*
X650000Y62900D02*
Y68100D01*
X656000Y62900D02*
Y68100D01*
X654000Y62900D02*
Y68100D01*
X611309Y57100D02*
X785647D01*
X609833Y56000D02*
X785647D01*
X609833Y64000D02*
X785647D01*
X611309Y62900D02*
X785647D01*
X692000Y55000D02*
Y57100D01*
X694000Y55000D02*
Y57100D01*
X696000Y62900D02*
Y68100D01*
X700000Y62900D02*
Y68100D01*
X698000Y62900D02*
Y68100D01*
X704000Y62900D02*
Y68100D01*
X706000Y62900D02*
Y68100D01*
X692000Y62900D02*
Y68100D01*
X702000Y62900D02*
Y68100D01*
X694000Y62900D02*
Y68100D01*
X714000Y62900D02*
Y68100D01*
X716000Y62900D02*
Y68100D01*
X708000Y62900D02*
Y68100D01*
X712000Y62900D02*
Y68100D01*
X710000Y62900D02*
Y68100D01*
X738000Y55000D02*
Y57100D01*
X740000Y55000D02*
Y57100D01*
X734000Y55000D02*
Y57100D01*
X736000Y55000D02*
Y57100D01*
X748000Y55000D02*
Y57100D01*
X750000Y55000D02*
Y57100D01*
X742000Y55000D02*
Y57100D01*
X746000Y55000D02*
Y57100D01*
X744000Y55000D02*
Y57100D01*
X720000Y55000D02*
Y57100D01*
X722000Y55000D02*
Y57100D01*
X716000Y55000D02*
Y57100D01*
X718000Y55000D02*
Y57100D01*
X730000Y55000D02*
Y57100D01*
X732000Y55000D02*
Y57100D01*
X724000Y55000D02*
Y57100D01*
X728000Y55000D02*
Y57100D01*
X726000Y55000D02*
Y57100D01*
X774000Y55000D02*
Y57100D01*
X776000Y55000D02*
Y57100D01*
X770000Y55000D02*
Y57100D01*
X772000Y55000D02*
Y57100D01*
X792000Y55000D02*
Y55647D01*
X794000Y55000D02*
Y55647D01*
X784000Y55000D02*
Y57100D01*
X790000Y55000D02*
Y55647D01*
X786000Y55000D02*
Y55647D01*
X756000Y55000D02*
Y57100D01*
X758000Y55000D02*
Y57100D01*
X752000Y55000D02*
Y57100D01*
X754000Y55000D02*
Y57100D01*
X766000Y55000D02*
Y57100D01*
X768000Y55000D02*
Y57100D01*
X760000Y55000D02*
Y57100D01*
X764000Y55000D02*
Y57100D01*
X762000Y55000D02*
Y57100D01*
X750000Y62900D02*
Y68100D01*
X752000Y62900D02*
Y68100D01*
X746000Y62900D02*
Y68100D01*
X748000Y62900D02*
Y68100D01*
X780000Y55000D02*
Y57100D01*
X782000Y55000D02*
Y57100D01*
X762000Y62900D02*
Y68100D01*
X778000Y55000D02*
Y57100D01*
X774000Y62900D02*
Y68100D01*
X722000Y62900D02*
Y68100D01*
X724000Y62900D02*
Y68100D01*
X718000Y62900D02*
Y68100D01*
X720000Y62900D02*
Y68100D01*
X732000Y62900D02*
Y68100D01*
X734000Y62900D02*
Y68100D01*
X726000Y62900D02*
Y68100D01*
X730000Y62900D02*
Y68100D01*
X728000Y62900D02*
Y68100D01*
X785647Y55647D02*
Y57100D01*
X788000Y55000D02*
Y55647D01*
X785647D02*
X794353D01*
Y58000D02*
X795000D01*
X794353Y56000D02*
X795000D01*
X794353Y60000D02*
X795000D01*
X794353Y62000D02*
X795000D01*
X785647Y62900D02*
Y64353D01*
X788000D02*
Y66134D01*
X785647Y64353D02*
X794353D01*
X790000D02*
Y65647D01*
X794353Y55647D02*
Y64353D01*
Y64000D02*
X795000D01*
X792000Y64353D02*
Y66134D01*
X791716Y66000D02*
X795000D01*
X793866Y68000D02*
X795000D01*
X644000Y62900D02*
Y68100D01*
X646000Y62900D02*
Y68100D01*
X638000Y71900D02*
Y78100D01*
X642000Y71900D02*
Y78100D01*
X658000Y62900D02*
Y68100D01*
X660000Y62900D02*
Y68100D01*
X646000Y71900D02*
Y78100D01*
X652000Y62900D02*
Y68100D01*
X648000Y62900D02*
Y68100D01*
Y71900D02*
Y78100D01*
X650000Y71900D02*
Y78100D01*
X640000Y71900D02*
Y78100D01*
X644000Y71900D02*
Y78100D01*
X658000Y71900D02*
Y78100D01*
X660000Y71900D02*
Y78100D01*
X652000Y71900D02*
Y78100D01*
X656000Y71900D02*
Y78100D01*
X654000Y71900D02*
Y78100D01*
X664000Y62900D02*
Y68100D01*
X666000Y62900D02*
Y68100D01*
Y71900D02*
Y78100D01*
X668000Y71900D02*
Y78100D01*
X736000Y62900D02*
Y68100D01*
X738000Y62900D02*
Y68100D01*
X668000Y62900D02*
Y68100D01*
X672000Y62900D02*
Y68100D01*
X670000Y62900D02*
Y68100D01*
Y71900D02*
Y78100D01*
X672000Y71900D02*
Y78100D01*
X662000Y71900D02*
Y78100D01*
X664000Y71900D02*
Y78100D01*
X680000Y71900D02*
Y78100D01*
X682000Y71900D02*
Y78100D01*
X674000Y71900D02*
Y78100D01*
X678000Y71900D02*
Y78100D01*
X676000Y71900D02*
Y78100D01*
X698000Y71900D02*
Y78100D01*
X700000Y71900D02*
Y78100D01*
X694000Y71900D02*
Y78100D01*
X696000Y71900D02*
Y78100D01*
X708000Y71900D02*
Y78100D01*
X710000Y71900D02*
Y78100D01*
X702000Y71900D02*
Y78100D01*
X706000Y71900D02*
Y78100D01*
X704000Y71900D02*
Y78100D01*
X666000Y81900D02*
Y88100D01*
X668000Y81900D02*
Y88100D01*
X660000Y81900D02*
Y88100D01*
X662000Y81900D02*
Y88100D01*
X690000Y71900D02*
Y78100D01*
X692000Y71900D02*
Y78100D01*
X684000Y71900D02*
Y78100D01*
X688000Y71900D02*
Y78100D01*
X686000Y71900D02*
Y78100D01*
X716000Y71900D02*
Y78100D01*
X718000Y71900D02*
Y78100D01*
X712000Y71900D02*
Y78100D01*
X714000Y71900D02*
Y78100D01*
X726000Y71900D02*
Y78100D01*
X728000Y71900D02*
Y78100D01*
X720000Y71900D02*
Y78100D01*
X724000Y71900D02*
Y78100D01*
X722000Y71900D02*
Y78100D01*
X730000Y71900D02*
Y78100D01*
X732000Y71900D02*
Y78100D01*
X726000Y81900D02*
Y88100D01*
X730000Y81900D02*
Y88100D01*
X728000Y81900D02*
Y88100D01*
X734000Y71900D02*
Y78100D01*
X736000Y71900D02*
Y78100D01*
X732000Y81900D02*
Y88100D01*
X738000Y71900D02*
Y78100D01*
X734000Y81900D02*
Y88100D01*
X744000Y62900D02*
Y68100D01*
X754000Y62900D02*
Y68100D01*
X740000Y62900D02*
Y68100D01*
X742000Y62900D02*
Y68100D01*
X764000Y62900D02*
Y68100D01*
X766000Y62900D02*
Y68100D01*
X756000Y62900D02*
Y68100D01*
X760000Y62900D02*
Y68100D01*
X758000Y62900D02*
Y68100D01*
X744000Y71900D02*
Y78100D01*
X750000Y71900D02*
Y78100D01*
X740000Y71900D02*
Y78100D01*
X742000Y71900D02*
Y78100D01*
X758000Y71900D02*
Y78100D01*
X764000Y71900D02*
Y78100D01*
X752000Y71900D02*
Y78100D01*
X756000Y71900D02*
Y78100D01*
X754000Y71900D02*
Y78100D01*
X772000Y62900D02*
Y68100D01*
X776000Y62900D02*
Y68100D01*
X768000Y62900D02*
Y68100D01*
X770000Y62900D02*
Y68100D01*
X778000Y62900D02*
Y68100D01*
X780000Y62900D02*
Y68100D01*
X782000Y62900D02*
Y68100D01*
X786000Y64353D02*
Y68100D01*
X784000Y62900D02*
Y68100D01*
X770000Y71900D02*
Y78100D01*
X766000Y71900D02*
Y78100D01*
X768000Y71900D02*
Y78100D01*
X794000Y64353D02*
Y68283D01*
X795000Y55000D02*
Y140000D01*
X794000Y71716D02*
Y78284D01*
X794353Y70000D02*
X795000D01*
X760000Y71900D02*
Y78100D01*
X762000Y71900D02*
Y78100D01*
X746000Y71900D02*
Y78100D01*
X748000Y71900D02*
Y78100D01*
X776000Y71900D02*
Y78100D01*
X778000Y71900D02*
Y78100D01*
X764000Y81900D02*
Y88100D01*
X774000Y71900D02*
Y78100D01*
X772000Y71900D02*
Y78100D01*
X766000Y81900D02*
Y88100D01*
X768000Y81900D02*
Y88100D01*
X760000Y81900D02*
Y88100D01*
X762000Y81900D02*
Y88100D01*
X776000Y81900D02*
Y88100D01*
X778000Y81900D02*
Y88100D01*
X770000Y81900D02*
Y88100D01*
X774000Y81900D02*
Y88100D01*
X772000Y81900D02*
Y88100D01*
X782000Y71900D02*
Y78100D01*
X786000Y71900D02*
Y78100D01*
X788000Y73866D02*
Y76134D01*
X790000Y74353D02*
Y75647D01*
X792000Y73866D02*
Y76134D01*
X793866Y72000D02*
X795000D01*
X793866Y78000D02*
X795000D01*
X791716Y74000D02*
X795000D01*
X791716Y76000D02*
X795000D01*
X780000Y71900D02*
Y78100D01*
X784000Y71900D02*
Y78100D01*
X780000Y81900D02*
Y88100D01*
X784000Y81900D02*
Y88100D01*
X782000Y81900D02*
Y88100D01*
X786000Y81900D02*
Y88100D01*
X794353Y80000D02*
X795000D01*
X794000Y81717D02*
Y88283D01*
X492000Y81900D02*
Y88100D01*
X494000Y81900D02*
Y88100D01*
X490000Y81900D02*
Y87100D01*
X510000Y81900D02*
Y88100D01*
X512000Y81900D02*
Y88100D01*
X496000Y81900D02*
Y88100D01*
X500000Y81900D02*
Y88100D01*
X498000Y81900D02*
Y88100D01*
X488000Y90900D02*
Y97100D01*
X492000Y91900D02*
Y97100D01*
X494000Y91900D02*
Y97100D01*
X510000Y91900D02*
Y97100D01*
X512000Y91900D02*
Y97100D01*
X504000Y91900D02*
Y97100D01*
X508000Y91900D02*
Y97100D01*
X506000Y91900D02*
Y97100D01*
X518000Y81900D02*
Y88100D01*
X520000Y81900D02*
Y88100D01*
X514000Y81900D02*
Y88100D01*
X516000Y81900D02*
Y88100D01*
X526000Y81900D02*
Y88100D01*
X528000Y81900D02*
Y88100D01*
X520000Y91900D02*
Y97100D01*
X524000Y81900D02*
Y88100D01*
X522000Y81900D02*
Y88100D01*
X518000Y91900D02*
Y97100D01*
X556000Y91900D02*
Y103313D01*
X514000Y91900D02*
Y97100D01*
X516000Y91900D02*
Y97100D01*
X568000Y91900D02*
Y100187D01*
X570000Y91900D02*
Y98187D01*
X558000Y91900D02*
Y105313D01*
X566000Y91900D02*
Y102187D01*
X560000Y91900D02*
Y105647D01*
X498000Y91900D02*
Y97100D01*
X500000Y91900D02*
Y97100D01*
X490000Y91900D02*
Y97100D01*
X496000Y91900D02*
Y97100D01*
X526000Y91900D02*
Y97100D01*
X532000Y91900D02*
Y97100D01*
X502000Y91900D02*
Y97100D01*
X524000Y91900D02*
Y97100D01*
X522000Y91900D02*
Y97100D01*
X525213Y106900D02*
X525647Y107334D01*
X528000Y91900D02*
Y97100D01*
X525647Y107334D02*
Y114353D01*
X531666D01*
X538000Y91900D02*
Y97100D01*
X540000Y91900D02*
Y97100D01*
X530000Y91900D02*
Y97100D01*
X536000Y91900D02*
Y97100D01*
X534000Y91900D02*
Y97100D01*
X546000Y91900D02*
Y97100D01*
X548000Y91900D02*
Y97100D01*
X542000Y91900D02*
Y97100D01*
X544000Y91900D02*
Y97100D01*
X550000Y91900D02*
Y97385D01*
X552000Y91900D02*
Y99313D01*
X550687Y98000D02*
X570187D01*
X554000Y91900D02*
Y101313D01*
X550346Y97659D02*
X558574Y105887D01*
X556687Y104000D02*
X564187D01*
X552687Y100000D02*
X568187D01*
X554687Y102000D02*
X566187D01*
X562000Y91900D02*
Y106134D01*
X564000Y91900D02*
Y104187D01*
X562207Y105981D02*
X570528Y97659D01*
X561717Y106000D02*
X562188D01*
X576000Y91900D02*
Y97100D01*
X578000Y91900D02*
Y97100D01*
X572000Y91900D02*
Y97100D01*
X574000Y91900D02*
Y97100D01*
X586000Y91900D02*
Y97100D01*
X598000Y91900D02*
Y97100D01*
X580000Y91900D02*
Y97100D01*
X584000Y91900D02*
Y97100D01*
X582000Y91900D02*
Y97100D01*
X588000Y91900D02*
Y97100D01*
X590000Y91900D02*
Y97100D01*
X600000Y91900D02*
Y97100D01*
X602000Y91900D02*
Y97100D01*
X592000Y91900D02*
Y97100D01*
X596000Y91900D02*
Y97100D01*
X594000Y91900D02*
Y97100D01*
X608000Y91900D02*
Y97100D01*
X610000Y91900D02*
Y97100D01*
X604000Y91900D02*
Y97100D01*
X606000Y91900D02*
Y97100D01*
X618000Y91900D02*
Y97100D01*
X620000Y91900D02*
Y97100D01*
X612000Y91900D02*
Y97100D01*
X616000Y91900D02*
Y97100D01*
X614000Y91900D02*
Y97100D01*
X622000Y91900D02*
Y97100D01*
X624000Y91900D02*
Y97100D01*
X620587Y102900D02*
X623574Y105887D01*
X624000Y102900D02*
Y105764D01*
X626000Y91900D02*
Y97100D01*
X628000Y91900D02*
Y97100D01*
X630000Y91900D02*
Y97100D01*
Y100900D02*
Y102313D01*
X625213Y102900D02*
X630887Y108574D01*
X593526Y107447D02*
X596474D01*
X594000D02*
Y108283D01*
X593866Y108000D02*
X596134D01*
X596000Y107447D02*
Y108283D01*
X603526Y107447D02*
X609760D01*
X604000D02*
Y108283D01*
X603866Y108000D02*
X610313D01*
X609760Y107447D02*
X610647Y108334D01*
X587447Y114000D02*
X588100D01*
X591900D02*
X598283D01*
X594353Y110000D02*
X595647D01*
X593866Y112000D02*
X596134D01*
X601717Y114000D02*
X610647D01*
X620587Y102900D02*
X625213D01*
X621687Y104000D02*
X626313D01*
X619353Y108000D02*
X620313D01*
X619353Y107040D02*
X620887Y108574D01*
X622000Y102900D02*
Y104313D01*
X626000Y103687D02*
Y105764D01*
X628000Y105687D02*
Y106846D01*
X626717Y106000D02*
X628313D01*
X628866Y108000D02*
X630313D01*
X604353Y110000D02*
X610647D01*
Y108334D02*
Y114353D01*
X603866Y112000D02*
X610647D01*
X619353Y110000D02*
X620647D01*
X619353Y112000D02*
X621134D01*
X619353Y107040D02*
Y114353D01*
Y114000D02*
X623283D01*
X629353Y110000D02*
X630647D01*
X510000Y106900D02*
Y140000D01*
X512000Y106900D02*
Y140000D01*
X506000Y106900D02*
Y140000D01*
X508000Y106900D02*
Y140000D01*
X520000Y106900D02*
Y140000D01*
X522000Y106900D02*
Y140000D01*
X514000Y106900D02*
Y140000D01*
X518000Y106900D02*
Y140000D01*
X516000Y106900D02*
Y140000D01*
X492000Y106900D02*
Y140000D01*
X494000Y106900D02*
Y140000D01*
X488000Y106900D02*
Y140000D01*
X490000Y106900D02*
Y140000D01*
X502000Y106900D02*
Y140000D01*
X504000Y106900D02*
Y140000D01*
X496000Y106900D02*
Y140000D01*
X500000Y106900D02*
Y140000D01*
X498000Y106900D02*
Y140000D01*
X528000Y114353D02*
Y136134D01*
X530000Y114353D02*
Y135647D01*
X532000Y114687D02*
Y136134D01*
X531666Y114353D02*
X538654Y121341D01*
X538000Y120687D02*
Y136134D01*
X550000Y121900D02*
Y135647D01*
X568000Y121900D02*
Y136134D01*
X524000Y106900D02*
Y140000D01*
X526000Y114353D02*
Y138284D01*
X534000Y116687D02*
Y138284D01*
X536000Y118687D02*
Y138123D01*
X556000Y121900D02*
Y138123D01*
X558000Y121900D02*
Y136134D01*
X548000Y121900D02*
Y136134D01*
X552000Y121900D02*
Y136134D01*
X554000Y121900D02*
Y138284D01*
X531716Y136000D02*
X538283D01*
X540000Y121900D02*
Y135647D01*
X533866Y138000D02*
X536134D01*
X542000Y121900D02*
Y136134D01*
X544000Y121900D02*
Y138284D01*
X546000Y121900D02*
Y138123D01*
X541716Y136000D02*
X548283D01*
X543866Y138000D02*
X546134D01*
X534298Y139312D02*
X534951Y138659D01*
X544298Y139312D02*
X544951Y138659D01*
X560000Y121900D02*
Y135647D01*
X540000Y121900D02*
X580000D01*
X553866Y138000D02*
X556134D01*
X551717Y136000D02*
X558284D01*
X562000Y121900D02*
Y136134D01*
X570000Y121900D02*
Y135647D01*
X561717Y136000D02*
X568284D01*
X571716D02*
X578284D01*
X572000Y121900D02*
Y136134D01*
X554298Y139312D02*
X554951Y138659D01*
X564000Y121900D02*
Y138284D01*
X566000Y121900D02*
Y138284D01*
X564353Y140000D02*
X565647D01*
X563866Y138000D02*
X566134D01*
X586687Y116000D02*
X588100D01*
X582687Y120000D02*
X588100D01*
X584687Y118000D02*
X588100D01*
X587447Y113526D02*
Y114453D01*
X592000Y113866D02*
Y120610D01*
X591900Y113916D02*
Y120510D01*
X588100Y113916D02*
Y121297D01*
X586000Y116687D02*
Y138284D01*
X581346Y121341D02*
X586888Y115799D01*
X582000Y120687D02*
Y136134D01*
X584000Y118687D02*
Y138284D01*
X594000Y111716D02*
Y122610D01*
X596000Y111716D02*
Y124610D01*
X588000Y113866D02*
Y136134D01*
X598000Y113866D02*
Y126610D01*
X604000Y111716D02*
Y132610D01*
X606000Y107447D02*
Y134610D01*
X600000Y114353D02*
Y128610D01*
X602000Y113866D02*
Y130610D01*
X624000Y114236D02*
Y135764D01*
X626000Y114236D02*
Y135764D01*
X614000Y114353D02*
Y135764D01*
X610647Y114353D02*
X619353D01*
X616000D02*
Y135764D01*
X608000Y107447D02*
Y136610D01*
X610000Y107687D02*
Y138610D01*
X591900Y120510D02*
X610702Y139312D01*
X612000Y114353D02*
Y136846D01*
X620000Y107687D02*
Y140000D01*
X630000Y107687D02*
Y138612D01*
X618000Y114353D02*
Y136846D01*
X628000Y113154D02*
Y136846D01*
X622000Y113154D02*
Y136846D01*
X573866Y138000D02*
X576134D01*
X578000Y121900D02*
Y136134D01*
X580000Y121900D02*
Y135647D01*
X581716Y136000D02*
X588283D01*
X590000Y123984D02*
Y135647D01*
X592000Y125984D02*
Y136134D01*
X574000Y121900D02*
Y138284D01*
X576000Y121900D02*
Y138284D01*
X574353Y140000D02*
X575647D01*
X594000Y127984D02*
Y138284D01*
X584353Y140000D02*
X585647D01*
X583866Y138000D02*
X586134D01*
X594353Y140000D02*
X595647D01*
X598000Y131984D02*
Y136134D01*
X588659Y122643D02*
X602355Y136340D01*
X593866Y138000D02*
X596134D01*
X591716Y136000D02*
X598283D01*
X600000Y133984D02*
Y135647D01*
X607390Y136000D02*
X613283D01*
X609390Y138000D02*
X611134D01*
X616716Y136000D02*
X623283D01*
X618866Y138000D02*
X621134D01*
X596000Y129984D02*
Y138284D01*
X619353Y140000D02*
X620647D01*
X630049Y138659D02*
X630702Y139312D01*
X636000Y81900D02*
Y88100D01*
X638000Y81900D02*
Y88100D01*
X632000Y81900D02*
Y88100D01*
X634000Y81900D02*
Y88100D01*
X646000Y81900D02*
Y88100D01*
X648000Y81900D02*
Y88100D01*
X640000Y81900D02*
Y88100D01*
X644000Y81900D02*
Y88100D01*
X642000Y81900D02*
Y88100D01*
X636000Y91900D02*
Y97100D01*
X638000Y91900D02*
Y97100D01*
X632000Y91900D02*
Y97100D01*
X634000Y91900D02*
Y97100D01*
X646000Y91900D02*
Y97100D01*
X648000Y91900D02*
Y97100D01*
X640000Y91900D02*
Y97100D01*
X644000Y91900D02*
Y97100D01*
X642000Y91900D02*
Y97100D01*
X652000Y81900D02*
Y88100D01*
X654000Y81900D02*
Y88100D01*
X491673D02*
X786084D01*
X491615Y88000D02*
X786134D01*
X670000Y81900D02*
Y88100D01*
X672000Y81900D02*
Y88100D01*
X656000Y81900D02*
Y88100D01*
X664000Y81900D02*
Y88100D01*
X658000Y81900D02*
Y88100D01*
X650000Y91900D02*
Y97100D01*
Y81900D02*
Y88100D01*
X654000Y91900D02*
Y97100D01*
X656000Y91900D02*
Y98313D01*
X666000Y91900D02*
Y105764D01*
X668000Y91900D02*
Y106846D01*
X658000Y91900D02*
Y100313D01*
X662000Y91900D02*
Y104313D01*
X664000Y91900D02*
Y105764D01*
X628587Y100900D02*
X653213D01*
X571874Y97100D02*
X654000D01*
X632000Y100900D02*
Y104313D01*
X628587Y100900D02*
X633574Y105887D01*
X646000Y100900D02*
Y105764D01*
X652000Y91900D02*
Y97100D01*
X634000Y100900D02*
Y105764D01*
X644000Y100900D02*
Y105764D01*
X636000Y100900D02*
Y105764D01*
X638000Y100900D02*
Y106846D01*
X638866Y108000D02*
X641134D01*
X636717Y106000D02*
X643284D01*
X642000Y100900D02*
Y106846D01*
X648000Y100900D02*
Y106846D01*
X648866Y108000D02*
X651134D01*
X646716Y106000D02*
X653284D01*
X652000Y100900D02*
Y106846D01*
X489828Y91900D02*
X786084D01*
X629687Y102000D02*
X654313D01*
X660000Y91900D02*
Y102313D01*
X655687Y98000D02*
X786134D01*
X657687Y100000D02*
X785647D01*
X659687Y102000D02*
X786134D01*
X661687Y104000D02*
X788283D01*
X653213Y100900D02*
X660887Y108574D01*
X655346Y97659D02*
X663574Y105887D01*
X654000Y101687D02*
Y105764D01*
X631687Y104000D02*
X656313D01*
X656000Y103687D02*
Y105764D01*
X658000Y105687D02*
Y106846D01*
X666716Y106000D02*
X673283D01*
X656716D02*
X658313D01*
X668866Y108000D02*
X671134D01*
X658866D02*
X660313D01*
X696000Y81900D02*
Y88100D01*
X698000Y81900D02*
Y88100D01*
X692000Y81900D02*
Y88100D01*
X694000Y81900D02*
Y88100D01*
X706000Y81900D02*
Y88100D01*
X708000Y81900D02*
Y88100D01*
X700000Y81900D02*
Y88100D01*
X704000Y81900D02*
Y88100D01*
X702000Y81900D02*
Y88100D01*
X678000Y81900D02*
Y88100D01*
X680000Y81900D02*
Y88100D01*
X674000Y81900D02*
Y88100D01*
X676000Y81900D02*
Y88100D01*
X688000Y81900D02*
Y88100D01*
X690000Y81900D02*
Y88100D01*
X682000Y81900D02*
Y88100D01*
X686000Y81900D02*
Y88100D01*
X684000Y81900D02*
Y88100D01*
X742000Y81900D02*
Y88100D01*
X744000Y81900D02*
Y88100D01*
X738000Y81900D02*
Y88100D01*
X740000Y81900D02*
Y88100D01*
X756000Y81900D02*
Y88100D01*
X758000Y81900D02*
Y88100D01*
X746000Y81900D02*
Y88100D01*
X754000Y81900D02*
Y88100D01*
X752000Y81900D02*
Y88100D01*
X714000Y81900D02*
Y88100D01*
X716000Y81900D02*
Y88100D01*
X710000Y81900D02*
Y88100D01*
X712000Y81900D02*
Y88100D01*
X724000Y81900D02*
Y88100D01*
X736000Y81900D02*
Y88100D01*
X718000Y81900D02*
Y88100D01*
X722000Y81900D02*
Y88100D01*
X720000Y81900D02*
Y88100D01*
X748000Y81900D02*
Y88100D01*
X750000Y81900D02*
Y88100D01*
X684000Y91900D02*
Y105764D01*
X786000Y91900D02*
Y98283D01*
X788000Y83866D02*
Y86134D01*
X790000Y84353D02*
Y85647D01*
X788000Y93866D02*
Y96134D01*
X790000Y94353D02*
Y95647D01*
X792000Y93866D02*
Y96134D01*
X672000Y91900D02*
Y106846D01*
X674000Y91900D02*
Y105764D01*
X676000Y91900D02*
Y105764D01*
X676717Y106000D02*
X683284D01*
X678000Y91900D02*
Y106846D01*
X682000Y91900D02*
Y106846D01*
X678866Y108000D02*
X681134D01*
X686000Y91900D02*
Y105764D01*
X688000Y91900D02*
Y106846D01*
X791716Y84000D02*
X795000D01*
X791716Y94000D02*
X795000D01*
X791716Y86000D02*
X795000D01*
X792000Y83866D02*
Y86134D01*
X793866Y82000D02*
X795000D01*
X793866Y92000D02*
X795000D01*
X793866Y88000D02*
X795000D01*
X794353Y90000D02*
X795000D01*
X688866Y108000D02*
X795000D01*
X791716Y96000D02*
X795000D01*
X686717Y106000D02*
X795000D01*
X794000Y91716D02*
Y98283D01*
X793866Y98000D02*
X795000D01*
X791716Y104000D02*
X795000D01*
X794353Y100000D02*
X795000D01*
X793866Y102000D02*
X795000D01*
X628866Y112000D02*
X631134D01*
X638866D02*
X641134D01*
X626717Y114000D02*
X633284D01*
X636717D02*
X643284D01*
X639353Y110000D02*
X640647D01*
X649353D02*
X650647D01*
X648866Y112000D02*
X651134D01*
X646716Y114000D02*
X653284D01*
X640000Y100900D02*
Y138612D01*
X632000Y113154D02*
Y136846D01*
X638000Y113154D02*
Y136846D01*
X642000Y113154D02*
Y136846D01*
X650000Y100900D02*
Y140000D01*
X644000Y114236D02*
Y135764D01*
X652000Y113154D02*
Y136846D01*
X648000Y113154D02*
Y136846D01*
X659353Y110000D02*
X660647D01*
X658866Y112000D02*
X661134D01*
X656716Y114000D02*
X663283D01*
X669353Y110000D02*
X670647D01*
X668866Y112000D02*
X671134D01*
X666716Y114000D02*
X673283D01*
X660000Y107687D02*
Y140000D01*
X654000Y114236D02*
Y135764D01*
X658000Y113154D02*
Y136846D01*
X662000Y113154D02*
Y136846D01*
X670000Y91900D02*
Y140000D01*
X666000Y114236D02*
Y135764D01*
X672000Y113154D02*
Y136846D01*
X668000Y113154D02*
Y136846D01*
X634000Y114236D02*
Y135764D01*
X636000Y114236D02*
Y135764D01*
X626717Y136000D02*
X633284D01*
X636717D02*
X643284D01*
X646000Y114236D02*
Y135764D01*
X656000Y114236D02*
Y135764D01*
X638866Y138000D02*
X641134D01*
X646716Y136000D02*
X653284D01*
X648866Y138000D02*
X651134D01*
X628866D02*
X631134D01*
X640049Y138659D02*
X640702Y139312D01*
X659353Y140000D02*
X660647D01*
X649353D02*
X650647D01*
X591900Y118000D02*
X795000D01*
X591900Y116000D02*
X795000D01*
X593390Y122000D02*
X795000D01*
X591900Y120000D02*
X795000D01*
X597390Y126000D02*
X795000D01*
X595390Y124000D02*
X795000D01*
X603390Y132000D02*
X795000D01*
X599390Y128000D02*
X795000D01*
X601390Y130000D02*
X795000D01*
X664000Y114236D02*
Y135764D01*
X605390Y134000D02*
X795000D01*
X658866Y138000D02*
X661134D01*
X656716Y136000D02*
X663283D01*
X674000Y114236D02*
Y135764D01*
X669353Y140000D02*
X670647D01*
X666716Y136000D02*
X673283D01*
X668866Y138000D02*
X671134D01*
X710000Y91900D02*
Y140000D01*
X712000Y91900D02*
Y140000D01*
X706000Y91900D02*
Y140000D01*
X708000Y91900D02*
Y140000D01*
X720000Y91900D02*
Y140000D01*
X722000Y91900D02*
Y140000D01*
X714000Y91900D02*
Y140000D01*
X718000Y91900D02*
Y140000D01*
X716000Y91900D02*
Y140000D01*
X692000Y91900D02*
Y140000D01*
X694000Y91900D02*
Y140000D01*
X680000Y91900D02*
Y140000D01*
X690000Y91900D02*
Y140000D01*
X702000Y91900D02*
Y140000D01*
X704000Y91900D02*
Y140000D01*
X696000Y91900D02*
Y140000D01*
X700000Y91900D02*
Y140000D01*
X698000Y91900D02*
Y140000D01*
X770000Y91900D02*
Y140000D01*
X772000Y91900D02*
Y140000D01*
X766000Y91900D02*
Y140000D01*
X768000Y91900D02*
Y140000D01*
X782000Y91900D02*
Y140000D01*
X784000Y91900D02*
Y140000D01*
X774000Y91900D02*
Y140000D01*
X780000Y91900D02*
Y140000D01*
X776000Y91900D02*
Y140000D01*
X730000Y91900D02*
Y140000D01*
X732000Y91900D02*
Y140000D01*
X724000Y91900D02*
Y140000D01*
X728000Y91900D02*
Y140000D01*
X726000Y91900D02*
Y140000D01*
X740000Y91900D02*
Y140000D01*
X764000Y91900D02*
Y140000D01*
X734000Y91900D02*
Y140000D01*
X738000Y91900D02*
Y140000D01*
X736000Y91900D02*
Y140000D01*
X678866Y112000D02*
X681134D01*
X676717Y114000D02*
X683284D01*
X676000Y114236D02*
Y135764D01*
X676717Y136000D02*
X683284D01*
X679353Y110000D02*
X680647D01*
X684000Y114236D02*
Y135764D01*
X686000Y114236D02*
Y135764D01*
X688000Y113154D02*
Y136846D01*
X678000Y113154D02*
Y136846D01*
X679353Y140000D02*
X680647D01*
X678866Y138000D02*
X681134D01*
X746000Y91900D02*
Y140000D01*
X748000Y91900D02*
Y140000D01*
X682000Y113154D02*
Y136846D01*
X744000Y91900D02*
Y140000D01*
X742000Y91900D02*
Y140000D01*
X686717Y114000D02*
X795000D01*
X688866Y112000D02*
X795000D01*
X688866Y138000D02*
X795000D01*
X686717Y136000D02*
X795000D01*
X760000Y91900D02*
Y140000D01*
X762000Y91900D02*
Y140000D01*
X756000Y91900D02*
Y140000D01*
X689353Y110000D02*
X795000D01*
X758000Y91900D02*
Y140000D01*
X754000Y91900D02*
Y140000D01*
X778000Y91900D02*
Y140000D01*
X750000Y91900D02*
Y140000D01*
X689353D02*
X795000D01*
X752000Y91900D02*
Y140000D01*
X786000Y101716D02*
Y140000D01*
X794000Y101716D02*
Y140000D01*
X788000Y103866D02*
Y140000D01*
X792000Y103866D02*
Y140000D01*
X790000Y104353D02*
Y140000D01*
D11*
X268701Y149606D02*
D03*
X274606D02*
D03*
X280512D02*
D03*
X286417D02*
D03*
X292323D02*
D03*
X298228D02*
D03*
X274606Y157480D02*
D03*
X268701D02*
D03*
X286417D02*
D03*
X280512D02*
D03*
X298228D02*
D03*
X292323D02*
D03*
D12*
X285547Y139250D02*
Y149606D01*
X790000Y440000D02*
X793953D01*
X790000Y436047D02*
Y440000D01*
Y443953D01*
X786047Y440000D02*
X790000D01*
X570000Y430000D02*
Y433756D01*
X566244Y430000D02*
X570000D01*
X573756D01*
X570000Y426244D02*
Y430000D01*
X525000Y425000D02*
Y428500D01*
X519000Y425000D02*
X525000D01*
X531000D01*
X525000Y421500D02*
Y425000D01*
Y300000D02*
Y303756D01*
Y300000D02*
X528756D01*
X525000Y296244D02*
Y300000D01*
X521244D02*
X525000D01*
X495000Y391500D02*
Y395000D01*
Y398500D01*
X450000Y425000D02*
Y428362D01*
Y425000D02*
X453362D01*
X450000Y421638D02*
Y425000D01*
X446638D02*
X450000D01*
X495000Y395000D02*
X501000D01*
X230000Y440000D02*
Y443953D01*
Y436047D02*
Y440000D01*
X233953D01*
X226047D02*
X230000D01*
X678405Y151532D02*
X686874Y160000D01*
X661234Y151532D02*
X678405D01*
X298228Y140228D02*
Y149606D01*
X550547Y144453D02*
Y152579D01*
Y144453D02*
X551844D01*
X556297Y140000D01*
X560000D01*
X308703Y110000D02*
X315156Y116453D01*
X686874Y160000D02*
X695000D01*
X654155Y144453D02*
X661234Y151532D01*
X643156Y144453D02*
X654155D01*
X638703Y140000D02*
X643156Y144453D01*
X635000Y140000D02*
X638703D01*
X656874Y150000D02*
X660437Y153563D01*
X639702Y150000D02*
X656874D01*
X639234Y149531D02*
X639702Y150000D01*
X634531Y149531D02*
X639234D01*
X633703Y148703D02*
X634531Y149531D01*
X633703Y145000D02*
Y148703D01*
X628703Y140000D02*
X633703Y145000D01*
X665000Y160000D02*
X675000D01*
X660437Y155437D02*
X665000Y160000D01*
X660437Y153563D02*
Y155437D01*
X625000Y140000D02*
X628703D01*
X646874Y160000D02*
X655000D01*
X638405Y151532D02*
X646874Y160000D01*
X621531Y151532D02*
X638405D01*
X614453Y144453D02*
X621531Y151532D01*
X613156Y144453D02*
X614453D01*
X590000Y121297D02*
X613156Y144453D01*
X590000Y110000D02*
Y121297D01*
X626874Y160000D02*
X635000D01*
X618405Y151532D02*
X626874Y160000D01*
X611531Y151532D02*
X618405D01*
X600000Y140000D02*
X611531Y151532D01*
X610000Y160000D02*
X615000D01*
X590000Y140000D02*
X610000Y160000D01*
X593469Y158468D02*
X595000Y160000D01*
X589563Y158468D02*
X593469D01*
X589563Y154563D02*
Y158468D01*
X580000Y145000D02*
X589563Y154563D01*
X580000Y140000D02*
Y145000D01*
X573468Y158468D02*
X575000Y160000D01*
X569563Y158468D02*
X573468D01*
X569563Y140437D02*
Y158468D01*
Y140437D02*
X570000Y140000D01*
X553469Y158468D02*
X555000Y160000D01*
X549563Y158468D02*
X553469D01*
X549563Y153563D02*
Y158468D01*
Y153563D02*
X550547Y152579D01*
X533468Y158468D02*
X535000Y160000D01*
X530437Y158468D02*
X533468D01*
X530437Y157748D02*
Y158468D01*
X529563Y156874D02*
X530437Y157748D01*
X529563Y150437D02*
Y156874D01*
Y150437D02*
X535547Y144453D01*
X541844D01*
X546297Y140000D01*
X550000D01*
X513469Y158468D02*
X515000Y160000D01*
X509563Y158468D02*
X513469D01*
X509563Y150437D02*
Y158468D01*
Y150437D02*
X515547Y144453D01*
X531844D01*
X536297Y140000D01*
X540000D01*
X423477Y145649D02*
Y145649D01*
X422673Y146453D02*
X423477Y145649D01*
X486874Y160000D02*
X495000D01*
X478405Y151532D02*
X486874Y160000D01*
X461234Y151532D02*
X478405D01*
X454155Y144453D02*
X461234Y151532D01*
X425110Y144453D02*
X454155D01*
X424305Y143649D02*
X425110Y144453D01*
X422649Y143649D02*
X424305D01*
X421844Y144453D02*
X422649Y143649D01*
X418156Y144453D02*
X421844D01*
X417327Y146453D02*
X422673D01*
X423477Y145649D02*
X425828Y148000D01*
X417234Y143532D02*
X418156Y144453D01*
X413531Y143532D02*
X417234D01*
X410000Y140000D02*
X413531Y143532D01*
X416499Y148453D02*
X423453D01*
X425000Y150000D01*
X384531Y149531D02*
X414749D01*
X391234Y147531D02*
X415578D01*
X400531Y145531D02*
X416406D01*
X417326Y150453D02*
X426874Y160000D01*
X415670Y150453D02*
X417326D01*
X414749Y149531D02*
X415670Y150453D01*
X415578Y147531D02*
X416499Y148453D01*
X416406Y145531D02*
X417327Y146453D01*
X466874Y160000D02*
X475000D01*
X454874Y148000D02*
X466874Y160000D01*
X425828Y148000D02*
X454874D01*
X400000Y145000D02*
X400531Y145531D01*
X400000Y140000D02*
Y145000D01*
X453469Y158468D02*
X455000Y160000D01*
X449563Y158468D02*
X453469D01*
X441094Y150000D02*
X449563Y158468D01*
X425000Y150000D02*
X441094D01*
X365000Y121297D02*
X391234Y147531D01*
X375000Y140000D02*
X384531Y149531D01*
X388126Y155000D02*
X391595Y151532D01*
X384702Y155000D02*
X388126D01*
X398405Y151532D02*
X406874Y160000D01*
X391595Y151532D02*
X398405D01*
X379234Y149531D02*
X384702Y155000D01*
X374532Y149531D02*
X379234D01*
X365000Y140000D02*
X374532Y149531D01*
X426874Y160000D02*
X435000D01*
X365000Y110000D02*
Y121297D01*
X406874Y160000D02*
X415000D01*
X386874D02*
X395000D01*
X378405Y151532D02*
X386874Y160000D01*
X366531Y151532D02*
X378405D01*
X355000Y140000D02*
X366531Y151532D01*
X373468Y158468D02*
X375000Y160000D01*
X367171Y158468D02*
X373468D01*
X348703Y140000D02*
X367171Y158468D01*
X345000Y140000D02*
X348703D01*
X353468Y158468D02*
X355000Y160000D01*
X349563Y158468D02*
X353468D01*
X349563Y154563D02*
Y158468D01*
X335000Y140000D02*
X349563Y154563D01*
X330000Y160000D02*
X335000D01*
X325000Y155000D02*
X330000Y160000D01*
X325000Y140000D02*
Y155000D01*
X313469Y158468D02*
X315000Y160000D01*
X309563Y158468D02*
X313469D01*
X309563Y154563D02*
Y158468D01*
X305000Y150000D02*
X309563Y154563D01*
X305000Y150000D02*
X315000Y140000D01*
X433000Y91000D02*
X441000Y99000D01*
X297000Y91000D02*
X433000D01*
X280000Y80000D02*
X790000D01*
X270000Y70000D02*
X790000D01*
X220000Y140000D02*
X225000Y145000D01*
X250000D01*
X265035Y160035D01*
Y160857D01*
X266178Y162000D01*
X275704D01*
X276847Y160857D01*
X286417Y158617D02*
Y160583D01*
Y157480D02*
Y158617D01*
X274606Y157480D02*
X276847Y159721D01*
Y160857D01*
X277989Y162000D01*
X285000D01*
X286417Y160583D01*
Y158617D02*
X289800Y162000D01*
X295000D01*
X298000Y159000D01*
Y157709D02*
Y159000D01*
Y157709D02*
X298228Y157480D01*
X228453Y118453D02*
X287844D01*
X249547Y120453D02*
X288673D01*
X257547Y122453D02*
X289501D01*
X265547Y124453D02*
X290330D01*
X273547Y126453D02*
X291158D01*
X287844Y118453D02*
X294453Y111844D01*
X288673Y120453D02*
X296453Y112673D01*
X289501Y122453D02*
X298453Y113501D01*
X290330Y124453D02*
X300453Y114330D01*
X291158Y126453D02*
X302453Y115158D01*
X260000Y90000D02*
X295172D01*
X230000D02*
X260000D01*
X295172D02*
X296172Y89000D01*
X489000D01*
X230000Y80000D02*
X280000D01*
X230000Y70000D02*
X270000D01*
X654000Y99000D02*
X665000Y110000D01*
X571874Y99000D02*
X654000D01*
X563547Y107327D02*
X571874Y99000D01*
X563547Y107327D02*
Y109922D01*
X563469Y110000D02*
X563547Y109922D01*
X560000Y110000D02*
X563469D01*
X626000Y101000D02*
X635000Y110000D01*
X579874Y101000D02*
X626000D01*
X575327Y105547D02*
X579874Y101000D01*
X568156Y105547D02*
X575327D01*
X565547Y108156D02*
X568156Y105547D01*
X565547Y108156D02*
Y110750D01*
X561297Y115000D02*
X565547Y110750D01*
X555000Y115000D02*
X561297D01*
X575547Y108156D02*
X580703Y103000D01*
X575547Y108156D02*
Y112453D01*
X570000Y118000D02*
X575547Y112453D01*
X585547Y108156D02*
Y114453D01*
Y108156D02*
X588156Y105547D01*
X610547D01*
X548000Y118000D02*
X570000D01*
X550000Y110000D02*
X555000Y115000D01*
X618000Y103000D02*
X625000Y110000D01*
X580703Y103000D02*
X618000D01*
X540000Y110000D02*
X548000Y118000D01*
X610547Y105547D02*
X615000Y110000D01*
X580000Y120000D02*
X585547Y114453D01*
X540000Y120000D02*
X580000D01*
X530000Y110000D02*
X540000Y120000D01*
X549000Y99000D02*
X560000Y110000D01*
X441000Y99000D02*
X549000D01*
X541000Y101000D02*
X550000Y110000D01*
X439828Y101000D02*
X541000D01*
X431828Y93000D02*
X439828Y101000D01*
X299000Y93000D02*
X431828D01*
X533000Y103000D02*
X540000Y110000D01*
X439000Y103000D02*
X533000D01*
X431000Y95000D02*
X439000Y103000D01*
X300000Y95000D02*
X431000D01*
X530000Y109000D02*
Y110000D01*
X526000Y105000D02*
X530000Y109000D01*
X438000Y105000D02*
X526000D01*
X430000Y97000D02*
X438000Y105000D01*
X429000Y99000D02*
X440000Y110000D01*
X344000Y99000D02*
X429000D01*
X401000Y101000D02*
X410000Y110000D01*
X347703Y101000D02*
X401000D01*
X393000Y103000D02*
X400000Y110000D01*
X385000Y105000D02*
X390000Y110000D01*
X363000Y105000D02*
X385000D01*
X301488Y97000D02*
X430000D01*
X294453Y104035D02*
X301488Y97000D01*
X308000Y103000D02*
X315000Y110000D01*
X303973Y103000D02*
X308000D01*
X300547Y106426D02*
X303973Y103000D01*
X316000Y101000D02*
X325000Y110000D01*
X303145Y101000D02*
X316000D01*
X298547Y105597D02*
X303145Y101000D01*
X324000Y99000D02*
X335000Y110000D01*
X302316Y99000D02*
X324000D01*
X296547Y104769D02*
X302316Y99000D01*
X289453Y105547D02*
X300000Y95000D01*
X288453Y103547D02*
X299000Y93000D01*
X284453Y103547D02*
X297000Y91000D01*
X343046Y99954D02*
X344000Y99000D01*
X343046Y99954D02*
Y100000D01*
X339453Y109250D02*
X347703Y101000D01*
X354000Y103000D02*
X393000D01*
X349423Y107577D02*
X354000Y103000D01*
X359453Y108547D02*
X363000Y105000D01*
X359453Y108547D02*
Y111844D01*
X352844Y118453D02*
X359453Y111844D01*
X331499Y118453D02*
X352844D01*
X329499Y116453D02*
X331499Y118453D01*
X315156Y116453D02*
X329499D01*
X305000Y110000D02*
X308703D01*
X336547Y106499D02*
X343046Y100000D01*
X349423Y107577D02*
Y108125D01*
X349453Y108156D01*
Y111844D01*
X344844Y116453D02*
X349453Y111844D01*
X332327Y116453D02*
X344844D01*
X330327Y114453D02*
X332327Y116453D01*
X339453Y109250D02*
Y111844D01*
X336844Y114453D02*
X339453Y111844D01*
X336547Y106499D02*
Y108453D01*
X335000Y110000D02*
X336547Y108453D01*
X323156Y114453D02*
X330327D01*
X318703Y110000D02*
X323156Y114453D01*
X315000Y110000D02*
X318703D01*
X333156Y114453D02*
X336844D01*
X328703Y110000D02*
X333156Y114453D01*
X325000Y110000D02*
X328703D01*
X274606Y139097D02*
X278156Y135547D01*
X277327Y103547D02*
X284453D01*
X275874Y105000D02*
X277327Y103547D01*
X255000Y105000D02*
X275874D01*
X250000Y110000D02*
X255000Y105000D01*
X278156Y105547D02*
X285327D01*
X287327Y103547D01*
X275547Y108156D02*
Y110750D01*
Y108156D02*
X278156Y105547D01*
X287327Y103547D02*
X288453D01*
X288156Y105547D02*
X289453D01*
X285547Y108156D02*
X288156Y105547D01*
X285547Y108156D02*
Y109453D01*
X284453Y110547D02*
X285547Y109453D01*
X284453Y110547D02*
Y111844D01*
X294453Y104035D02*
Y111844D01*
X304772Y140228D02*
X305000Y140000D01*
X298228Y140228D02*
X304772D01*
X284297Y138000D02*
X285547Y139250D01*
X281844Y135547D02*
X284297Y138000D01*
X294453Y136453D02*
X298228Y140228D01*
X294453Y136426D02*
Y136453D01*
X293574Y135547D02*
X294453Y136426D01*
X286426Y135547D02*
X293574D01*
X284297Y137676D02*
X286426Y135547D01*
X284297Y137676D02*
Y138000D01*
X285547Y149606D02*
X286417D01*
X278156Y135547D02*
X281844D01*
X274606Y139097D02*
Y149606D01*
X292323Y157480D02*
X292323Y157480D01*
X292323Y149606D02*
Y157480D01*
X280512D02*
X280512Y157480D01*
X280512Y149606D02*
Y157480D01*
X268701D02*
X268701Y157480D01*
X268701Y149606D02*
Y157480D01*
X290083Y147366D02*
X292323Y149606D01*
X290083Y140083D02*
Y147366D01*
X290000Y140000D02*
X290083Y140083D01*
X280000Y149094D02*
X280512Y149606D01*
X280000Y140000D02*
Y149094D01*
X268701Y149606D02*
X270000Y148307D01*
Y140000D02*
Y148307D01*
X271844Y114453D02*
X275547Y110750D01*
X244453Y114453D02*
X271844D01*
X240000Y110000D02*
X244453Y114453D01*
X220000Y110000D02*
X228453Y118453D01*
X279844Y116453D02*
X284453Y111844D01*
X230000Y110000D02*
X236453Y116453D01*
X279844D01*
X240000Y140000D02*
X257547Y122453D01*
X230000Y140000D02*
X249547Y120453D01*
X260000Y140000D02*
X273547Y126453D01*
X250000Y140000D02*
X265547Y124453D01*
X302453Y112547D02*
X305000Y110000D01*
X302453Y112547D02*
Y115158D01*
X300453Y111547D02*
X300547Y111453D01*
X300453Y111547D02*
Y114330D01*
X298453Y110719D02*
X298547Y110624D01*
X298453Y110719D02*
Y113501D01*
X296453Y109890D02*
X296547Y109796D01*
X296453Y109890D02*
Y112673D01*
X298547Y105597D02*
Y110624D01*
X296547Y104769D02*
Y109796D01*
X300547Y106426D02*
Y111453D01*
X489000Y89000D02*
X490000Y90000D01*
X790000D01*
X226047Y60000D02*
X230000D01*
Y63953D01*
Y56047D02*
Y60000D01*
X290000D02*
Y63500D01*
Y56500D02*
Y60000D01*
X382000Y56000D02*
Y60000D01*
Y64000D01*
X305000Y136047D02*
Y140000D01*
X308953D01*
X390000D02*
X393953D01*
X390000Y136047D02*
Y140000D01*
X523000Y56000D02*
Y60000D01*
Y64000D01*
X608000Y56000D02*
Y60000D01*
Y64000D01*
X790000Y56047D02*
Y60000D01*
X793953D01*
X790000D02*
Y63953D01*
X530000Y136047D02*
Y140000D01*
X526047D02*
X530000D01*
X615000Y136047D02*
Y140000D01*
X618953D01*
D13*
X540000Y209409D02*
X550000Y219409D01*
Y255000D01*
X540000Y265000D02*
X550000Y255000D01*
X540000Y265000D02*
Y340000D01*
X535000Y375000D02*
X540000Y370000D01*
X510000Y375000D02*
X535000D01*
X460000Y360000D02*
X465000D01*
X475000Y370000D01*
Y385000D01*
X495000Y405000D01*
X540000Y420000D02*
Y430000D01*
X535000Y415000D02*
X540000Y420000D01*
X525000Y415000D02*
X535000D01*
X539468Y394468D02*
X540000Y395000D01*
X534040Y394468D02*
X539468D01*
X529571Y390000D02*
X534040Y394468D01*
X505000Y390000D02*
X529571D01*
X490000Y375000D02*
X505000Y390000D01*
X530000Y400000D02*
X540000D01*
X525000Y395000D02*
X530000Y400000D01*
X505000Y415000D02*
X510000Y420000D01*
Y440000D01*
X495000Y415000D02*
X505000D01*
X535000Y185000D02*
X545000D01*
X500000Y220000D02*
X535000Y185000D01*
X455000D02*
X490000Y220000D01*
X500000D01*
X529410D02*
X540000Y209409D01*
X500000Y220000D02*
X529410D01*
X460000Y239843D02*
X464843D01*
X475000Y250000D01*
X510591Y280000D02*
X540000Y250590D01*
X475000Y280000D02*
X510591D01*
X475000D02*
Y300000D01*
X460000Y315000D02*
Y355000D01*
Y315000D02*
X475000Y300000D01*
X515000Y405000D02*
X525000D01*
X505000Y415000D02*
X515000Y405000D01*
X525000D02*
X529843Y409842D01*
X565000D01*
X540000Y430000D02*
Y440000D01*
X355000Y287000D02*
X394200Y247800D01*
X384200Y290800D02*
X409500Y265500D01*
X661000Y314000D02*
X709500Y265500D01*
X661000Y314000D02*
Y366442D01*
X669058Y374500D01*
X701814D01*
X743000Y333314D01*
Y253000D02*
Y333314D01*
X695000Y205000D02*
X743000Y253000D01*
X695000Y165000D02*
Y205000D01*
X720000Y260000D02*
Y270000D01*
X715000Y255000D02*
X720000Y260000D01*
X715000Y251314D02*
Y255000D01*
X705000Y241314D02*
X715000Y251314D01*
X705000Y235000D02*
Y241314D01*
X635000Y165000D02*
X705000Y235000D01*
X665000Y325000D02*
X720000Y270000D01*
X665000Y325000D02*
Y356300D01*
X709000Y239657D02*
X735000Y265657D01*
X739000Y264000D02*
Y331657D01*
X713000Y238000D02*
X739000Y264000D01*
X709000Y233343D02*
Y239657D01*
X713000Y231686D02*
Y238000D01*
X708157Y362500D02*
X739000Y331657D01*
X555000Y169343D02*
X557172Y167172D01*
X561744Y175401D02*
Y177913D01*
X675000Y193686D02*
X713000Y231686D01*
X675000Y165000D02*
Y193686D01*
X735000Y265657D02*
Y330000D01*
X655000Y179343D02*
X709000Y233343D01*
X655000Y165000D02*
Y179343D01*
X684200Y348358D02*
Y356642D01*
X690058Y362500D01*
X665000Y356300D02*
X673200Y364500D01*
X698058Y334500D02*
X709500D01*
X687000Y255000D02*
X694200Y247800D01*
X659892Y235500D02*
X673200D01*
X684200Y348358D02*
X698058Y334500D01*
X690058Y362500D02*
X708157D01*
X712500Y352500D02*
X735000Y330000D01*
X694200Y352500D02*
X712500D01*
X615000Y165000D02*
Y195000D01*
X640000Y220000D01*
X675000D01*
X685000Y230000D01*
Y240000D01*
X675000Y250000D02*
X685000Y240000D01*
X650000Y250000D02*
X675000D01*
X605800Y294200D02*
X650000Y250000D01*
X605800Y294200D02*
Y352700D01*
X655000Y255000D02*
X687000D01*
X620000Y290000D02*
X655000Y255000D01*
X620000Y290000D02*
Y352642D01*
X609942Y362700D02*
X620000Y352642D01*
X601658Y362700D02*
X609942D01*
X572300Y333342D02*
X601658Y362700D01*
X572300Y284158D02*
Y333342D01*
Y284158D02*
X580500Y275958D01*
Y261358D02*
Y275958D01*
Y261358D02*
X585000Y256858D01*
Y226875D02*
Y256858D01*
X592300Y280599D02*
X619800Y253099D01*
X592300Y280599D02*
Y301700D01*
X596300Y282256D02*
Y313642D01*
Y282256D02*
X623800Y254756D01*
X582300Y311700D02*
X592300Y301700D01*
X590500Y319442D02*
X596300Y313642D01*
X553125Y195000D02*
X585000Y226875D01*
X598700Y257300D02*
X609942D01*
X590500Y265500D02*
X598700Y257300D01*
X609942D02*
X615800Y251442D01*
X553125Y184375D02*
Y195000D01*
X540000Y171250D02*
X553125Y184375D01*
X605000Y241300D02*
X605800D01*
X554029Y173343D02*
X557744Y177058D01*
X553343Y173343D02*
X554029D01*
X557744Y177058D02*
Y192148D01*
X545000Y165000D02*
X553343Y173343D01*
X603673Y241300D02*
X605000D01*
Y245000D01*
Y239404D02*
Y241300D01*
X557744Y192148D02*
X605000Y239404D01*
X561744Y177913D02*
Y179509D01*
Y190491D01*
Y179509D02*
X562542Y178711D01*
X561744Y177913D02*
X562542Y178711D01*
X558657Y172314D02*
X561744Y175401D01*
X558657Y169343D02*
Y172314D01*
X555000Y169343D02*
X558657D01*
X567028Y177539D02*
Y179883D01*
X565744Y176256D02*
X567028Y177539D01*
X565744Y173744D02*
Y176256D01*
X562657Y170657D02*
X565744Y173744D01*
X562657Y167343D02*
Y170657D01*
Y167343D02*
X565000Y165000D01*
X565744Y181166D02*
X567028Y179883D01*
X571028Y175883D02*
Y181539D01*
X569744Y174599D02*
X571028Y175883D01*
X569744Y172087D02*
Y174599D01*
X566657Y169000D02*
X569744Y172087D01*
X570285Y199032D02*
X571674D01*
X561744Y190491D02*
X570285Y199032D01*
X571942Y195032D02*
X573331D01*
X565744Y188834D02*
X571942Y195032D01*
X565744Y181166D02*
Y188834D01*
X572823Y190256D02*
X574212D01*
X569744Y187177D02*
X572823Y190256D01*
X569744Y182823D02*
Y187177D01*
Y182823D02*
X571028Y181539D01*
X540000Y171250D02*
Y172628D01*
X536840Y169468D02*
X540000Y172628D01*
X531181Y169468D02*
X536840D01*
X526712Y165000D02*
X531181Y169468D01*
X515000Y165000D02*
X526712D01*
X535000D02*
X545000D01*
X557172Y167172D02*
Y167172D01*
X555000Y165000D02*
X557172Y167172D01*
X605800Y241300D02*
Y247300D01*
X654142Y241250D02*
X659892Y235500D01*
X645858Y241250D02*
X654142D01*
X589608Y185000D02*
X645858Y241250D01*
X575000Y185000D02*
X589608D01*
X590500Y319442D02*
Y334500D01*
X623800Y239844D02*
Y254756D01*
X574212Y190256D02*
X623800Y239844D01*
X565000Y165000D02*
X575000D01*
X566657Y169000D02*
X570712D01*
X571181Y169468D01*
X578819D01*
X583288Y165000D01*
X595000D01*
X619800Y241501D02*
Y253099D01*
X573331Y195032D02*
X619800Y241501D01*
X615800Y243158D02*
Y251442D01*
X571674Y199032D02*
X615800Y243158D01*
X398342Y362500D02*
X435000Y325842D01*
X387500Y362500D02*
X398342D01*
X435000Y314657D02*
Y325842D01*
Y314657D02*
X439000Y310657D01*
Y235885D02*
Y310657D01*
Y235885D02*
X444000Y230885D01*
Y186000D02*
Y230885D01*
Y186000D02*
X455000Y175000D01*
X475000D01*
X485000Y165000D01*
X495000D01*
X435000Y234228D02*
X440000Y229228D01*
Y180657D02*
Y229228D01*
Y180657D02*
X450657Y170000D01*
X470000D01*
X450000Y165000D02*
X455000D01*
X435000Y180000D02*
X450000Y165000D01*
X435000Y180000D02*
Y226799D01*
X413642Y248157D02*
X435000Y226799D01*
X398342Y257800D02*
X430256Y225886D01*
Y182823D02*
Y225886D01*
X430000Y182567D02*
X430256Y182823D01*
X430000Y170000D02*
Y182567D01*
Y170000D02*
X435000Y165000D01*
X409500Y334500D02*
X435000Y309000D01*
Y234228D02*
Y309000D01*
X470000Y170000D02*
X475000Y165000D01*
X384200Y359200D02*
X387500Y362500D01*
X384200Y290800D02*
Y359200D01*
X394200Y352500D02*
X396858Y349842D01*
Y295000D02*
Y349842D01*
Y295000D02*
X419500Y272358D01*
Y261358D02*
Y272358D01*
X413642Y255500D02*
X419500Y261358D01*
X413642Y248157D02*
Y255500D01*
X365000Y356300D02*
X373200Y364500D01*
X365000Y285000D02*
Y356300D01*
Y285000D02*
X392200Y257800D01*
X398342D01*
X423700Y185000D02*
X425000D01*
X373200Y235500D02*
X423700Y185000D01*
X290500Y334500D02*
X335000Y290000D01*
X282300Y311700D02*
X325000Y269000D01*
X290500Y265500D02*
X302542D01*
X305800Y194200D02*
Y247300D01*
Y352700D02*
X345000Y313500D01*
X315000Y365000D02*
X316500Y363500D01*
Y358500D02*
Y363500D01*
Y358500D02*
X355000Y320000D01*
Y287000D02*
Y320000D01*
X300000Y365000D02*
X315000D01*
X270000Y335000D02*
X300000Y365000D01*
X270000Y265000D02*
Y335000D01*
Y265000D02*
X295000Y240000D01*
Y185000D02*
Y240000D01*
Y185000D02*
X315000Y165000D01*
X415000D02*
Y175000D01*
X363200Y226800D02*
X415000Y175000D01*
X363200Y226800D02*
Y236800D01*
X345000Y255000D02*
X363200Y236800D01*
X345000Y255000D02*
Y313500D01*
X335000Y225000D02*
Y290000D01*
Y225000D02*
X340000Y220000D01*
X360000D01*
X395000Y185000D01*
Y165000D02*
Y185000D01*
X370000Y165000D02*
X375000D01*
X325000Y210000D02*
X370000Y165000D01*
X325000Y210000D02*
Y269000D01*
X302542Y265500D02*
X315800Y252242D01*
Y204200D02*
Y252242D01*
Y204200D02*
X355000Y165000D01*
X305800Y194200D02*
X335000Y165000D01*
X523000Y60000D02*
X608000D01*
X382000D02*
X523000D01*
X608000D02*
X790000D01*
X290000D02*
X382000D01*
X230000D02*
X290000D01*
D14*
X650000Y231250D02*
D03*
X673200Y235500D02*
D03*
X694200Y247800D02*
D03*
X709500Y265500D02*
D03*
X717700Y288300D02*
D03*
Y311700D02*
D03*
X709500Y334500D02*
D03*
X694200Y352500D02*
D03*
X673200Y364500D02*
D03*
X650000Y368750D02*
D03*
X626500Y364500D02*
D03*
X605800Y352700D02*
D03*
X590500Y334500D02*
D03*
X582300Y311700D02*
D03*
Y288300D02*
D03*
X590500Y265500D02*
D03*
X605800Y247300D02*
D03*
X350000Y231250D02*
D03*
X373200Y235500D02*
D03*
X394200Y247800D02*
D03*
X409500Y265500D02*
D03*
X417700Y288300D02*
D03*
Y311700D02*
D03*
X409500Y334500D02*
D03*
X394200Y352500D02*
D03*
X373200Y364500D02*
D03*
X350000Y368750D02*
D03*
X326500Y364500D02*
D03*
X305800Y352700D02*
D03*
X290500Y334500D02*
D03*
X282300Y311700D02*
D03*
Y288300D02*
D03*
X290500Y265500D02*
D03*
X305800Y247300D02*
D03*
D15*
X650000Y207500D02*
D03*
Y392500D02*
D03*
X350000Y207500D02*
D03*
Y392500D02*
D03*
D16*
X608000Y60000D02*
D03*
X523000D02*
D03*
X382000D02*
D03*
D17*
X375000Y140000D02*
D03*
X365000D02*
D03*
X355000D02*
D03*
X345000D02*
D03*
X335000D02*
D03*
X325000D02*
D03*
X315000D02*
D03*
X305000D02*
D03*
X375000Y110000D02*
D03*
X365000D02*
D03*
X355000D02*
D03*
X345000D02*
D03*
X335000D02*
D03*
X325000D02*
D03*
X315000D02*
D03*
X460000Y140000D02*
D03*
X450000D02*
D03*
X440000D02*
D03*
X430000D02*
D03*
X420000D02*
D03*
X410000D02*
D03*
X400000D02*
D03*
X390000D02*
D03*
X460000Y110000D02*
D03*
X450000D02*
D03*
X440000D02*
D03*
X430000D02*
D03*
X420000D02*
D03*
X410000D02*
D03*
X400000D02*
D03*
X600000Y140000D02*
D03*
X590000D02*
D03*
X580000D02*
D03*
X570000D02*
D03*
X560000D02*
D03*
X550000D02*
D03*
X540000D02*
D03*
X530000D02*
D03*
X600000Y110000D02*
D03*
X590000D02*
D03*
X580000D02*
D03*
X570000D02*
D03*
X560000D02*
D03*
X550000D02*
D03*
X540000D02*
D03*
X685000Y140000D02*
D03*
X675000D02*
D03*
X665000D02*
D03*
X655000D02*
D03*
X645000D02*
D03*
X635000D02*
D03*
X625000D02*
D03*
X615000D02*
D03*
X685000Y110000D02*
D03*
X675000D02*
D03*
X665000D02*
D03*
X655000D02*
D03*
X645000D02*
D03*
X635000D02*
D03*
X625000D02*
D03*
X230000Y430000D02*
D03*
X790000D02*
D03*
X220000Y110000D02*
D03*
X230000D02*
D03*
X240000D02*
D03*
X250000D02*
D03*
X260000D02*
D03*
X270000D02*
D03*
X280000D02*
D03*
X290000D02*
D03*
X220000Y140000D02*
D03*
X230000D02*
D03*
X240000D02*
D03*
X250000D02*
D03*
X260000D02*
D03*
X270000D02*
D03*
X280000D02*
D03*
X790000Y100000D02*
D03*
Y90000D02*
D03*
Y80000D02*
D03*
Y70000D02*
D03*
X230000Y100000D02*
D03*
Y90000D02*
D03*
Y80000D02*
D03*
Y70000D02*
D03*
D18*
X305000Y110000D02*
D03*
X390000D02*
D03*
X530000D02*
D03*
X615000D02*
D03*
X230000Y440000D02*
D03*
X790000D02*
D03*
X290000Y140000D02*
D03*
X790000Y60000D02*
D03*
X230000D02*
D03*
D19*
X455000Y185000D02*
D03*
X425000D02*
D03*
X540000Y340000D02*
D03*
Y370000D02*
D03*
X570000Y430000D02*
D03*
X540000D02*
D03*
Y440000D02*
D03*
X510000D02*
D03*
X475000Y300000D02*
D03*
X525000D02*
D03*
X475000Y280000D02*
D03*
Y250000D02*
D03*
X545000Y185000D02*
D03*
X575000D02*
D03*
D20*
X565000Y390158D02*
D03*
X460000Y220158D02*
D03*
D21*
X565000Y409842D02*
D03*
X460000Y239843D02*
D03*
D22*
X500000Y220000D02*
D03*
X450000Y425000D02*
D03*
D23*
X500000Y190000D02*
D03*
Y375000D02*
D03*
X490000D02*
D03*
X450000Y395000D02*
D03*
D24*
X510000Y375000D02*
D03*
D25*
X315000Y165000D02*
D03*
Y160000D02*
D03*
X495000Y165000D02*
D03*
Y160000D02*
D03*
X475000Y165000D02*
D03*
Y160000D02*
D03*
X455000Y165000D02*
D03*
Y160000D02*
D03*
X540000Y400000D02*
D03*
Y395000D02*
D03*
X435000Y165000D02*
D03*
Y160000D02*
D03*
X415000Y165000D02*
D03*
Y160000D02*
D03*
X460000Y355000D02*
D03*
X395000Y165000D02*
D03*
Y160000D02*
D03*
X375000Y165000D02*
D03*
Y160000D02*
D03*
X355000Y165000D02*
D03*
Y160000D02*
D03*
X335000Y165000D02*
D03*
Y160000D02*
D03*
X515000Y165000D02*
D03*
Y160000D02*
D03*
X695000Y165000D02*
D03*
Y160000D02*
D03*
X675000Y165000D02*
D03*
Y160000D02*
D03*
X655000Y165000D02*
D03*
Y160000D02*
D03*
X635000Y165000D02*
D03*
Y160000D02*
D03*
X615000Y165000D02*
D03*
Y160000D02*
D03*
X595000Y165000D02*
D03*
Y160000D02*
D03*
X575000Y165000D02*
D03*
Y160000D02*
D03*
X555000Y165000D02*
D03*
Y160000D02*
D03*
X535000Y165000D02*
D03*
Y160000D02*
D03*
D26*
X315000Y155000D02*
D03*
X495000D02*
D03*
X475000D02*
D03*
X455000D02*
D03*
X540000Y390000D02*
D03*
X435000Y155000D02*
D03*
X415000D02*
D03*
X460000Y360000D02*
D03*
Y365000D02*
D03*
X395000Y155000D02*
D03*
X375000D02*
D03*
X355000D02*
D03*
X335000D02*
D03*
X515000D02*
D03*
X695000D02*
D03*
X675000D02*
D03*
X655000D02*
D03*
X635000D02*
D03*
X615000D02*
D03*
X595000D02*
D03*
X575000D02*
D03*
X555000D02*
D03*
X535000D02*
D03*
D27*
X525000Y395000D02*
D03*
Y405000D02*
D03*
Y415000D02*
D03*
Y425000D02*
D03*
X495000Y395000D02*
D03*
Y405000D02*
D03*
Y415000D02*
D03*
D28*
Y425000D02*
D03*
D29*
X540000Y250590D02*
D03*
D30*
Y209409D02*
D03*
D31*
X290000Y60000D02*
D03*
X280000Y80000D02*
D03*
X270000Y70000D02*
D03*
X260000Y90000D02*
D03*
M02*
